<svg width="300" height="300" viewBox="0 0 48 48" fill="none" xmlns="http://www.w3.org/2000/svg">
<rect width="300" height="300" fill="#020339"/>
<path d="M24.4772 14C18.1796 14 13 17.3455 13 21.6294V26.2857L13.0832 26.2856L13.0933 26.344C13.8249 30.2864 18.8174 33.5328 24.4772 33.5328L24.6557 33.5317C30.2416 33.4644 35.1372 30.2449 35.8611 26.344L35.8712 26.2856L35.9544 26.2857V21.6294C35.9544 17.3457 30.7743 14 24.4772 14ZM24.648 15.2231C30.2727 15.2811 34.7322 18.1957 34.7322 21.6294V25.4739L34.7213 25.633C34.4837 29.1202 29.8554 32.3106 24.4772 32.3106L24.3161 32.3096C19.0069 32.2467 14.4683 29.0853 14.2331 25.633L14.2222 25.4739V21.6294C14.2222 18.1608 18.7718 15.2222 24.4772 15.2222L24.648 15.2231Z" fill="#903C14"/>
<path d="M24.4764 14.6103C18.4748 14.6103 13.6103 17.7525 13.6103 21.6287C13.6103 25.5049 18.4756 28.647 24.4764 28.647C30.4781 28.647 35.3425 25.5049 35.3425 21.6287C35.3433 17.7532 30.4781 14.6103 24.4764 14.6103ZM24.4764 25.8466C20.0359 25.8466 16.4369 23.9307 16.4369 21.1449C16.4369 18.3598 20.0366 16.1015 24.4764 16.1015C28.917 16.1015 32.516 18.3591 32.516 21.1449C32.5168 23.93 28.917 25.8466 24.4764 25.8466Z" fill="url(#paint0_linear)"/>
<path opacity="0.54" d="M25.9108 27.3385C26.1051 27.5781 26.2364 28.101 26.3224 28.3851C26.3316 28.4151 26.3477 28.4512 26.3838 28.455C26.4184 28.4588 26.4514 28.4281 26.4844 28.4373C26.4982 28.4412 26.5105 28.4512 26.5251 28.4512C26.5535 28.4512 26.5612 28.4174 26.5589 28.392C26.5458 28.2362 26.4399 27.7516 26.4821 27.5996C26.5405 27.7655 26.6656 28.2569 26.724 28.4228C26.7132 28.3928 26.0022 28.6946 25.91 28.4542C25.8187 28.2139 25.9177 27.5912 25.9108 27.3385Z" fill="#FDDB39"/>
<path opacity="0.54" d="M24.468 15.8735C19.9752 15.8735 16.3332 18.2454 16.3332 20.9798C16.3332 23.7142 19.9752 25.9318 24.468 25.9318C28.9608 25.9318 32.6028 23.715 32.6028 20.9798C32.6028 18.2454 28.9608 15.8735 24.468 15.8735ZM24.5179 25.802C20.1142 25.802 16.5444 23.6512 16.5444 20.9975C16.5444 18.3437 20.1142 16.1929 24.5179 16.1929C28.9216 16.1929 32.4915 18.3437 32.4915 20.9975C32.4915 23.6512 28.9216 25.802 24.5179 25.802Z" fill="#FDDB39"/>
<path d="M34.9525 23.4961C34.9525 23.4961 34.9525 23.4953 34.9517 23.4953C34.7951 23.8639 34.5923 24.2194 34.3489 24.5611C34.3359 24.5796 34.3213 24.598 34.3082 24.6164C34.2622 24.6794 34.2161 24.7416 34.1677 24.803C34.1424 24.8353 34.1155 24.8675 34.0894 24.899C34.051 24.9458 34.0126 24.9927 33.9727 25.0395C33.9389 25.0787 33.9036 25.1171 33.869 25.1562C33.8345 25.1946 33.7999 25.2323 33.7646 25.2699C33.7239 25.3129 33.6824 25.3559 33.6402 25.3981C33.6079 25.4304 33.5765 25.4626 33.5434 25.4949C33.4974 25.5402 33.4498 25.5847 33.4021 25.6292C31.4402 27.4529 28.176 28.6485 24.4772 28.6485C20.7784 28.6485 17.5142 27.4537 15.5523 25.6292C15.5047 25.5847 15.4571 25.5402 15.411 25.4949C15.378 25.4626 15.3465 25.4304 15.3142 25.3981C15.272 25.3559 15.2305 25.3129 15.1899 25.2699C15.1545 25.2323 15.12 25.1939 15.0854 25.1562C15.0509 25.1178 15.0155 25.0787 14.9818 25.0395C14.9418 24.9935 14.9034 24.9458 14.865 24.899C14.8389 24.8668 14.8121 24.8353 14.7867 24.803C14.7383 24.7416 14.6915 24.6786 14.6462 24.6164C14.6324 24.598 14.6186 24.5796 14.6055 24.5611C14.3621 24.2194 14.1601 23.8639 14.0027 23.4953C14.0027 23.4953 14.0027 23.4961 14.002 23.4961C13.7478 22.9018 13.6111 22.276 13.6111 21.6294V25.6746H13.6234C13.8776 29.4049 18.6391 32.9217 24.4772 32.9217C30.3153 32.9217 35.0769 29.4049 35.331 25.6746H35.3433V21.6294C35.3433 22.276 35.2059 22.9018 34.9525 23.4961Z" fill="#F28D2C"/>
<path d="M32.5168 21.1449C32.5168 23.93 28.917 25.8466 24.4772 25.8466C20.0366 25.8466 16.4376 23.9307 16.4376 21.1449C16.4376 18.3591 20.0374 16.1015 24.4772 16.1015C28.917 16.1015 32.5168 18.3598 32.5168 21.1449Z" fill="#F8AC32"/>
<path opacity="0.9" d="M24.4764 17.6442C28.388 17.6442 31.6645 19.1392 32.516 21.1472C32.516 21.1464 32.516 21.1457 32.516 21.1449C32.516 18.3598 28.9163 16.1015 24.4764 16.1015C20.0359 16.1015 16.4369 18.3591 16.4369 21.1449C16.4369 21.1457 16.4369 21.1464 16.4369 21.1472C17.2892 19.14 20.5649 17.6442 24.4764 17.6442Z" fill="#D5761F"/>
<path d="M34.8711 26.8724C34.5332 27.6871 34.1431 28.4135 33.4697 29.0501C32.9238 29.5661 32.4661 30.0337 31.8096 30.4438C31.4756 30.6526 31.1415 30.8953 30.7645 31.0381C30.5595 31.1157 29.5183 31.7783 29.314 31.6532C29.215 31.5917 29.3178 31.0013 29.3163 30.8953C29.3063 30.1489 29.3324 29.4018 29.3954 28.657C29.4092 28.4911 29.4384 28.303 29.5943 28.2062C29.7701 28.8382 29.9836 29.9285 30.1587 30.5605C30.3821 29.5369 30.4766 27.7585 30.5403 27.7309C30.6117 27.7002 30.9104 29.5976 31.0456 29.9892C31.2275 29.5316 31.2567 28.2331 31.3059 27.7578C31.3197 27.628 31.332 27.4906 31.4203 27.3861C31.4886 27.3063 31.5923 27.2564 31.6921 27.2072C32.4569 26.8325 33.3008 26.2228 33.9082 25.6699C34.4342 25.1916 35.3249 23.4923 35.2466 23.2473C35.2473 23.2466 35.3387 25.746 34.8711 26.8724Z" fill="#D2571C"/>
<path d="M14.4704 27.6311C14.7069 27.9689 15.0616 28.6232 15.3595 28.9219C16.0829 29.6475 16.7517 30.3447 17.7392 30.7709C18.1907 31.0174 20.0159 32.1684 17.7323 30.0376C16.1743 28.5832 15.9554 28.0926 15.0209 26.3549C14.7476 25.8466 14.0319 24.1388 13.7585 23.6305C13.6764 23.9146 13.8108 24.1734 13.8223 24.4544C13.8369 24.8184 13.7716 25.1816 13.8 25.5486C13.8545 26.2474 14.0488 27.0298 14.4704 27.6311Z" fill="#D2571C"/>
<path d="M24.4764 16.6391C26.5243 16.6391 28.4417 17.1343 29.8761 18.0343C31.2321 18.8851 31.9793 19.9893 31.9793 21.1449C31.9793 22.2775 31.2375 23.3333 29.8914 24.1189C28.4809 24.942 26.5581 25.395 24.4772 25.395C22.3963 25.395 20.4735 24.942 19.063 24.1189C17.7161 23.3333 16.9751 22.2775 16.9751 21.1449C16.9751 19.9893 17.7223 18.8851 19.0783 18.0343C20.5112 17.1343 22.4285 16.6391 24.4764 16.6391ZM24.4764 16.1015C20.0359 16.1015 16.4369 18.3591 16.4369 21.1449C16.4369 23.93 20.0366 25.9318 24.4764 25.9318C28.917 25.9318 32.516 23.93 32.516 21.1449C32.5168 18.3598 28.917 16.1015 24.4764 16.1015Z" fill="#903C14"/>
<path opacity="0.54" d="M24.3628 14.8776C30.3783 14.8776 35.255 18.2009 35.255 22.3013C35.255 22.3881 35.2519 22.4748 35.2473 22.5608C35.3103 22.256 35.3425 21.945 35.3425 21.6287C35.3425 17.7525 30.4773 14.6103 24.4764 14.6103C18.8741 14.6103 14.2623 17.3493 13.6741 20.8669C14.6546 17.453 19.0668 14.8776 24.3628 14.8776Z" fill="#FDDB39"/>
<path opacity="0.78" d="M24.4764 28.2477C19.42 28.2477 15.1607 26.2482 13.8776 23.1813C14.9718 26.3103 19.301 28.6477 24.4764 28.6477C29.6519 28.6477 33.9819 26.3103 35.0753 23.1813C33.7922 26.2474 29.5336 28.2477 24.4764 28.2477Z" fill="#FFE941"/>
<path d="M22.6512 28.5871C22.7702 28.5372 22.91 28.5395 23.0367 28.5379C23.2417 28.5356 23.4475 28.5264 23.6518 28.5095C23.6809 28.475 23.6356 28.4274 23.5949 28.4089C23.4798 28.3567 23.3523 28.3383 23.2264 28.3199C23.0643 28.2968 22.9023 28.273 22.7395 28.25C22.6412 28.2354 22.5383 28.22 22.4562 28.164C22.2704 28.0373 22.2143 27.8 22.0139 27.6871C21.8119 27.5727 21.5754 27.5359 21.3466 27.5266C20.8414 27.5067 20.3353 27.6157 19.8324 27.5236C19.0031 27.3723 18.1615 27.0329 17.3813 26.7196C17.3568 26.8041 17.4374 26.8793 17.5096 26.93C18.2237 27.4353 18.9509 27.9336 19.751 28.2868C20.5511 28.6401 21.4365 28.8451 22.3049 28.736C22.4508 28.7176 22.5207 28.6416 22.6482 28.5878C22.6497 28.5878 22.6505 28.5878 22.6512 28.5871Z" fill="#FFF6CF"/>
<path d="M28.1476 32.5116C28.1476 32.6614 28.0447 28.2607 28.047 28.2607C28.047 28.2607 27.2891 27.5136 27.015 27.102C27.2408 27.7655 27.4258 28.4711 27.4051 29.163C27.3728 30.2326 27.4381 31.5917 27.4059 32.6622C27.6692 32.6537 27.9065 32.6076 28.1476 32.5116Z" fill="#903C14"/>
<path opacity="0.78" d="M27.0319 27.0867C27.1217 27.2901 27.2799 27.4637 27.4381 27.6318C27.6178 27.8238 27.7998 28.0142 27.9841 28.2031C28.0847 28.3068 28.2559 28.2085 28.1338 28.0956C28.0178 27.9889 27.8904 27.8891 27.7721 27.7831C27.5203 27.5558 27.273 27.3239 27.0319 27.0867Z" fill="#FFEC9D"/>
<path d="M20.0328 26.0285C20.1956 25.8473 20.4674 25.4941 20.6079 25.3006C20.4759 25.1923 20.2516 25.2008 20.2516 25.2008C20.2516 25.2008 20.0581 26.0001 20.0328 26.0285Z" fill="#903C14"/>
<path opacity="0.15" d="M16.4799 21.6663L13.8545 23.1137C14.4903 25.0203 16.3248 26.639 18.8242 27.6242L21.5117 25.5402C18.7865 24.9481 16.7932 23.5368 16.4799 21.6663Z" fill="url(#paint1_linear)"/>
<path opacity="0.15" d="M30.991 18.1894L32.5821 16.9554C31.4502 16.1369 30.0251 15.4911 28.4141 15.0857L26.3278 16.2359C28.2336 16.5177 29.8776 17.2249 30.991 18.1894Z" fill="url(#paint2_linear)"/>
<path d="M26.9474 17.4822C27.1356 17.5259 27.3137 17.6066 27.4757 17.7517C27.5349 17.8047 27.5901 17.8638 27.6546 17.9106C27.9603 18.1326 27.9342 18.4904 27.9633 18.8344C27.9679 18.8889 28.0378 19.8303 28.0447 19.9155C28.0716 20.2549 28.0969 20.5943 28.1238 20.9337C28.1522 21.2977 28.1822 21.6617 28.2106 22.0256C28.2275 22.2445 28.2436 22.4633 28.259 22.6822C28.2666 22.7881 28.2682 22.792 28.3649 22.792C28.9762 22.792 29.5881 22.792 30.1994 22.792C30.2884 22.792 30.2892 22.792 30.3038 22.8849C30.3522 23.1989 30.3998 23.513 30.4474 23.8271C30.4574 23.8954 30.4535 23.9008 30.3883 23.9008C29.9583 23.9008 29.5275 23.9008 29.0975 23.9008C28.871 23.9008 28.6444 23.8992 28.4179 23.9016C28.368 23.9023 28.348 23.8854 28.3442 23.8294C28.3288 23.6067 28.3096 23.384 28.292 23.1606C28.2835 23.0561 28.2751 22.9517 28.2682 22.8473C28.2651 22.7981 28.2336 22.8012 28.2029 22.8012C28.0086 22.8012 27.8144 22.8012 27.6193 22.8012C27.4911 22.8012 27.3629 22.8027 27.2346 22.8004C27.1824 22.7989 27.164 22.8096 27.1671 22.8757C27.1801 23.136 27.1855 23.3963 27.1939 23.6574C27.1962 23.7188 27.2001 23.7802 27.2039 23.8417C27.2062 23.8831 27.1901 23.9031 27.1509 23.9008C27.1356 23.9 27.121 23.9008 27.1056 23.9008C25.7903 23.9008 24.4741 23.9008 23.1588 23.9008C23.1419 23.9008 23.125 23.9 23.1081 23.9008C23.0751 23.9016 23.0605 23.8885 23.0651 23.8493C23.0997 23.546 23.1342 23.2419 23.1665 22.9386C23.1849 22.7697 23.1864 22.8043 23.0628 22.8035C22.7549 22.802 22.4477 22.8027 22.1398 22.8027C22.0692 22.8027 22.0646 22.7973 22.0761 22.7213C22.2849 21.3645 22.4946 20.0069 22.7034 18.6501C22.7249 18.508 22.7495 18.3668 22.7672 18.2247C22.7756 18.1587 22.8033 18.1425 22.8608 18.1425C23.1135 18.1456 23.3669 18.1441 23.6195 18.1433C23.6948 18.1433 23.6963 18.1402 23.7055 18.0573C23.7278 17.8554 23.75 17.6542 23.7723 17.4522C24.448 17.4522 25.1245 17.4522 25.8002 17.4522C26.1849 17.4515 26.5842 17.3977 26.9474 17.4822Z" fill="#D5761F"/>
<path d="M29.7717 23.1613C29.7348 22.9417 29.6181 22.8434 29.3939 22.8434H28.4901H28.3304H27.7483C27.7368 22.6952 27.7245 22.5486 27.713 22.4065C27.6984 22.2337 27.6831 22.061 27.6677 21.8882C27.6539 21.7316 27.6401 21.5757 27.627 21.419C27.614 21.2693 27.6017 21.1196 27.5894 20.9691C27.5763 20.8124 27.5633 20.655 27.5494 20.4984C27.5441 20.4392 27.5349 20.3287 27.4389 20.245C27.349 20.1659 27.25 20.1659 27.1847 20.1659H26.0053H24.8258C24.8197 20.1659 24.8128 20.1659 24.8066 20.1659H24.7982C24.7936 20.1659 24.7882 20.1659 24.7828 20.1659C24.6001 20.1659 24.4634 20.301 24.458 20.4868C24.4549 20.589 24.4511 20.6919 24.448 20.794C24.4442 20.9107 24.4404 21.0274 24.4365 21.1441C24.435 21.2002 24.4311 21.3161 24.524 21.4114C24.617 21.5066 24.7337 21.5066 24.7897 21.5073H24.9249C24.994 21.5073 25.0631 21.5073 25.1322 21.5073C25.1606 21.5073 25.1883 21.5073 25.2167 21.5073C25.2159 21.9481 25.2167 22.395 25.2174 22.8419C25.2098 22.8419 25.2021 22.8419 25.1944 22.8419C25.1453 22.8419 25.0961 22.8419 25.0462 22.8419C24.9971 22.8419 24.9487 22.8419 24.8995 22.8419H24.5701H24.2407C24.0549 22.8419 23.8691 22.8419 23.6832 22.8419C23.6924 22.7359 23.7017 22.6307 23.7101 22.5271L23.7216 22.3896C23.7316 22.2721 23.7408 22.1539 23.7508 22.0364C23.7608 21.912 23.7708 21.7876 23.7815 21.6632C23.793 21.525 23.8053 21.3868 23.8168 21.2478C23.8261 21.1403 23.8353 21.0328 23.8445 20.9261C23.8529 20.8308 23.8606 20.7364 23.8683 20.6412C23.8767 20.5421 23.8844 20.4431 23.8936 20.344C23.9136 20.1106 23.9336 19.8772 23.9543 19.6437L23.9566 19.6184C23.962 19.5585 23.9673 19.4994 23.9727 19.4395C23.9796 19.3634 23.9865 19.2867 23.9927 19.2091C24.1977 19.2091 24.4027 19.2099 24.6085 19.2099C24.8074 19.2099 25.007 19.2099 25.2059 19.2091C25.2059 19.2291 25.2059 19.2483 25.2059 19.2682C25.2059 19.3558 25.2059 19.4464 25.2051 19.5347C25.2036 19.6637 25.2566 19.7443 25.3011 19.7896C25.3457 19.8349 25.4263 19.8887 25.5553 19.8887C25.8179 19.8879 26.079 19.8879 26.3401 19.8879C26.6027 19.8879 26.8653 19.8879 27.1279 19.8887C27.2623 19.8887 27.3429 19.8311 27.3874 19.7819C27.4312 19.7336 27.4819 19.6483 27.4696 19.5186C27.4535 19.3473 27.4373 19.163 27.4235 18.9795C27.4082 18.7814 27.2638 18.6478 27.0642 18.6478H27.0588C26.9436 18.6493 26.8277 18.6493 26.7294 18.6493H26.6234H26.5174C26.5113 18.6493 26.5051 18.6493 26.499 18.6493C26.4944 18.5518 26.4906 18.4574 26.4898 18.3629C26.4898 18.3253 26.489 18.2546 26.4529 18.1779L26.3785 18.0158H26.1995H23.0651H22.8178L22.7879 18.2616L22.7687 18.419C22.7595 18.4935 22.751 18.5672 22.7418 18.6417C22.6681 18.6417 22.5944 18.6417 22.5199 18.6417C22.3832 18.6417 22.2719 18.6409 22.1698 18.6401H22.1636C21.964 18.6401 21.8242 18.7614 21.7974 18.9557C21.7851 19.0471 21.7697 19.1377 21.7528 19.2337C21.7474 19.2667 21.7413 19.2989 21.7359 19.332L21.4441 21.0704L21.1178 23.0131C21.1086 23.0669 21.0878 23.192 21.1808 23.3018C21.2737 23.4116 21.4011 23.4116 21.4556 23.4116H21.5278H21.7559H21.9832C22.0446 23.4116 22.1053 23.4116 22.1667 23.4116C22.1437 23.6059 22.1176 23.8148 22.0891 24.0444C22.073 24.1749 22.1291 24.2609 22.1636 24.3001C22.1982 24.3392 22.2757 24.4053 22.4055 24.4053C22.4093 24.4053 22.4132 24.4053 22.417 24.4053H22.4232H22.4378C22.4447 24.4053 22.4523 24.4053 22.4593 24.4053H24.5525H25.4493H26.3462C26.3531 24.4053 26.36 24.4053 26.3669 24.4053H26.3754C26.3831 24.406 26.3907 24.406 26.3976 24.406C26.4906 24.406 26.5758 24.3707 26.6365 24.3062C26.6979 24.2409 26.7286 24.1519 26.7225 24.0559L26.7202 24.0152C26.7171 23.9737 26.7148 23.9346 26.7132 23.8969C26.7109 23.8248 26.7086 23.7518 26.7063 23.6796C26.7033 23.5921 26.701 23.503 26.6971 23.4132C26.7132 23.4132 26.7294 23.4132 26.7455 23.4132C26.7816 23.4132 26.8169 23.4132 26.853 23.4132H26.9889H27.2316C27.2331 23.4278 27.2339 23.4416 27.2354 23.4554L27.2377 23.4823C27.2431 23.5437 27.2484 23.6044 27.2538 23.6658C27.2661 23.8033 27.2784 23.9453 27.2891 24.0843C27.3037 24.2778 27.4443 24.4076 27.6385 24.4076H27.6401H27.6431C27.746 24.4068 27.8497 24.4068 27.9533 24.4068C28.0125 24.4068 28.0716 24.4068 28.1315 24.4068C28.1914 24.4068 28.2505 24.4068 28.3104 24.4068H28.3473H28.6045H28.8195C29.0092 24.4068 29.1942 24.4068 29.4269 24.4068C29.4799 24.4068 29.605 24.4068 29.6972 24.2978C29.7893 24.1887 29.7686 24.0628 29.7609 24.0152C29.744 23.9115 29.7563 23.7917 29.7701 23.6658C29.7832 23.513 29.8024 23.3418 29.7717 23.1613Z" fill="#D2571C"/>
<path d="M27.637 23.7219C27.5088 23.7219 27.4228 23.6428 27.4128 23.5145C27.402 23.3733 27.3897 23.2327 27.3774 23.0922L27.359 22.8849C27.3544 22.8327 27.3498 22.7797 27.346 22.7275H26.853L26.6349 22.7282C26.6119 22.7282 26.5888 22.7282 26.5658 22.7282C26.572 22.8619 26.5758 22.9932 26.5804 23.1214C26.5827 23.1951 26.585 23.2688 26.5881 23.3425C26.5896 23.384 26.5927 23.4262 26.595 23.4677L26.5973 23.5053C26.6019 23.5836 26.572 23.6336 26.5451 23.662C26.5082 23.7011 26.456 23.7226 26.3984 23.7226C26.3953 23.7226 26.3854 23.7226 26.3823 23.7219H26.3477H22.4147C22.331 23.7219 22.2849 23.6881 22.2596 23.6597C22.2343 23.6313 22.2059 23.5806 22.2158 23.5023C22.2481 23.2443 22.2796 22.987 22.3103 22.7282C22.1966 22.7275 22.0861 22.7275 21.9763 22.7275H21.458C21.4119 22.7275 21.3343 22.7275 21.279 22.6622C21.2238 22.5969 21.2368 22.5209 21.2437 22.4756L21.8619 18.7945L21.8787 18.6962C21.8949 18.6033 21.911 18.508 21.9233 18.4144C21.9317 18.3522 21.9717 18.207 22.1652 18.207C22.2857 18.2086 22.4017 18.2086 22.5176 18.2086L22.8539 18.2078C22.8662 18.1018 22.9131 17.7179 22.9131 17.7179C22.9223 17.6411 22.9875 17.5828 23.0659 17.5828H26.2003C26.2602 17.5828 26.3147 17.6173 26.3401 17.6718C26.3646 17.724 26.3646 17.7732 26.3654 17.8054C26.3662 17.9245 26.3723 18.0466 26.3785 18.1648L26.3808 18.2163C26.4307 18.2163 26.7286 18.2163 26.7286 18.2163C26.8392 18.2163 26.9505 18.2163 27.0611 18.2147C27.2016 18.2147 27.2899 18.2953 27.2999 18.4305C27.3137 18.6109 27.3298 18.7914 27.3467 18.9718C27.3544 19.0563 27.3237 19.1093 27.2968 19.1392C27.2569 19.183 27.2016 19.2045 27.131 19.2045C26.8684 19.2037 26.6057 19.2037 26.3439 19.2037C26.0821 19.2037 25.8202 19.2037 25.5584 19.2045C25.4885 19.2045 25.4332 19.1838 25.3925 19.1431C25.3518 19.1024 25.3318 19.0463 25.3326 18.978C25.3334 18.8881 25.3334 18.7991 25.3334 18.71C25.3334 18.6486 25.3334 18.5871 25.3334 18.5257C25.0877 18.5265 24.8435 18.5265 24.5993 18.5265C24.359 18.5265 24.1186 18.5265 23.879 18.5257C23.8698 18.6378 23.8598 18.7507 23.8499 18.8628L23.833 19.0502C23.8115 19.292 23.7907 19.5339 23.77 19.7766L23.7209 20.3586C23.7209 20.3586 23.6694 20.9575 23.6571 21.0958C23.6471 21.2171 23.5857 21.9565 23.5857 21.9565C23.5734 22.1055 23.5611 22.2575 23.5466 22.4096C23.7761 22.4096 24.9011 22.4096 24.9011 22.4096L25.1967 22.4088C25.2458 22.4088 25.295 22.4088 25.3441 22.4096C25.3426 21.8797 25.3426 21.3515 25.3434 20.8232C25.2727 20.8239 25.2028 20.8239 25.133 20.8239L24.7905 20.8232C24.7398 20.8232 24.6707 20.8232 24.6147 20.7656C24.5586 20.708 24.5609 20.6366 24.5624 20.589C24.5655 20.473 24.5701 20.3563 24.574 20.2396C24.577 20.1367 24.5809 20.0346 24.5839 19.9317C24.5878 19.8142 24.6692 19.732 24.7836 19.732C24.7859 19.732 27.1855 19.732 27.1855 19.732C27.3444 19.732 27.4112 19.7927 27.4251 19.9493C27.4389 20.1075 27.4896 20.721 27.5026 20.87C27.5157 21.0266 27.5295 21.1825 27.5433 21.3384C27.5587 21.5112 27.5733 21.6839 27.5886 21.8567C27.604 22.041 27.6193 22.2245 27.6331 22.4088H29.3946C29.5582 22.4088 29.6227 22.4626 29.6488 22.6215C29.6964 22.9056 29.7432 23.1897 29.7901 23.4738C29.797 23.5145 29.8093 23.5898 29.7548 23.6543C29.7002 23.7188 29.6219 23.7188 29.5805 23.7188H27.9503C27.8474 23.7188 27.7437 23.7188 27.6408 23.7196C27.6401 23.7219 27.6378 23.7219 27.637 23.7219Z" fill="url(#paint3_linear)"/>
<path d="M26.1988 17.7371C26.2095 17.7594 26.2095 17.7839 26.2095 17.8085C26.2111 17.9759 26.2218 18.1425 26.2287 18.3092C26.231 18.3621 26.2548 18.3721 26.3001 18.3721C26.3009 18.3721 26.3017 18.3721 26.3017 18.3721C26.3731 18.3714 26.4445 18.3714 26.5167 18.3714C26.5873 18.3714 26.658 18.3714 26.7278 18.3714C26.8384 18.3714 26.949 18.3714 27.0603 18.3698C27.0611 18.3698 27.0619 18.3698 27.0634 18.3698C27.1187 18.3698 27.1402 18.389 27.1448 18.4435C27.1586 18.6248 27.1747 18.806 27.1916 18.9872C27.1962 19.0363 27.1763 19.0525 27.1287 19.0525C27.1287 19.0525 27.1287 19.0525 27.1279 19.0525C26.8653 19.0517 26.6027 19.0517 26.3401 19.0517C26.0782 19.0517 25.8171 19.0517 25.5553 19.0525C25.5553 19.0525 25.5553 19.0525 25.5545 19.0525C25.5015 19.0525 25.4831 19.034 25.4839 18.981C25.4862 18.8006 25.4831 18.6209 25.4854 18.4405C25.4862 18.3906 25.4701 18.3729 25.4186 18.3729H25.4179C25.1476 18.3737 24.8773 18.3737 24.6077 18.3737C24.339 18.3737 24.0695 18.3737 23.8007 18.3729C23.8007 18.3729 23.8007 18.3729 23.8 18.3729C23.7554 18.3729 23.7331 18.3836 23.7293 18.4328C23.714 18.6347 23.6948 18.8359 23.6771 19.0371C23.6564 19.279 23.6349 19.5216 23.6141 19.7635C23.5972 19.9578 23.5819 20.152 23.565 20.3455C23.5443 20.5913 23.522 20.837 23.5013 21.0827C23.4805 21.3246 23.4613 21.5672 23.4414 21.8091C23.4222 22.0387 23.4045 22.2675 23.3807 22.4963C23.3753 22.5516 23.3922 22.5632 23.4414 22.5632H23.4421C23.7078 22.5624 23.9727 22.5624 24.2384 22.5624C24.458 22.5624 24.6784 22.5624 24.898 22.5624C24.9963 22.5624 25.0946 22.5616 25.1929 22.5616C25.2712 22.5616 25.3495 22.5616 25.4278 22.5632C25.4286 22.5632 25.4294 22.5632 25.4309 22.5632C25.48 22.5632 25.4954 22.5447 25.4954 22.4956C25.4939 21.9105 25.4931 21.3253 25.4946 20.7402C25.4946 20.688 25.4785 20.6688 25.4263 20.6688C25.4255 20.6688 25.4248 20.6688 25.424 20.6688C25.3265 20.6696 25.2282 20.6704 25.1307 20.6704C25.0163 20.6704 24.9026 20.6696 24.7882 20.6696C24.716 20.6696 24.7114 20.6665 24.7137 20.5943C24.7199 20.3755 24.7283 20.1567 24.7352 19.9378C24.736 19.9048 24.749 19.8871 24.7813 19.8871C24.7828 19.8871 24.7844 19.8871 24.7859 19.8871C24.7897 19.8871 24.7936 19.8871 24.7974 19.8871C24.8066 19.8871 24.8158 19.8871 24.8251 19.8871C25.2121 19.8871 25.5991 19.8871 25.9868 19.8871C26.3861 19.8871 26.7854 19.8871 27.1839 19.8871C27.2623 19.8871 27.2638 19.8871 27.2707 19.9639C27.2968 20.2711 27.3222 20.5774 27.3483 20.8846C27.3767 21.2132 27.4059 21.5427 27.4343 21.8713C27.4512 22.0694 27.4673 22.2668 27.4819 22.4649C27.4888 22.5608 27.4911 22.5639 27.5863 22.5639C28.1883 22.5639 28.7911 22.5639 29.3931 22.5639C29.4814 22.5639 29.4814 22.5639 29.496 22.6484C29.5436 22.9325 29.5904 23.2166 29.6373 23.5C29.6473 23.5614 29.6434 23.5668 29.5789 23.5668C29.3417 23.5668 29.1044 23.5668 28.8671 23.5668C28.6805 23.5668 28.4939 23.5668 28.3073 23.5668C28.1883 23.5668 28.0693 23.5668 27.9503 23.5668C27.8466 23.5668 27.7422 23.5668 27.6385 23.5683C27.6378 23.5683 27.637 23.5683 27.6362 23.5683C27.5886 23.5683 27.5694 23.5529 27.5656 23.503C27.5502 23.3011 27.5318 23.0999 27.5141 22.8987C27.5057 22.8043 27.498 22.7098 27.4911 22.6161C27.488 22.5762 27.4634 22.5747 27.4366 22.5747C27.4335 22.5747 27.4304 22.5747 27.4274 22.5747C27.2362 22.5747 27.0442 22.5747 26.853 22.5747C26.78 22.5747 26.7079 22.5754 26.6349 22.5754C26.5812 22.5754 26.5274 22.5754 26.4737 22.5739C26.4714 22.5739 26.4691 22.5739 26.4668 22.5739C26.4207 22.5739 26.4038 22.5854 26.4069 22.6422C26.4199 22.8772 26.4245 23.1129 26.433 23.3487C26.4353 23.404 26.4391 23.46 26.443 23.5153C26.4453 23.5506 26.4314 23.5691 26.3976 23.5691C26.3953 23.5691 26.393 23.5691 26.3907 23.5691C26.3854 23.5691 26.3808 23.5683 26.3754 23.5683C26.3654 23.5683 26.3554 23.5691 26.3462 23.5691C25.6981 23.5691 25.0508 23.5691 24.4027 23.5691C23.7546 23.5691 23.1073 23.5691 22.4593 23.5691C22.447 23.5691 22.4355 23.5691 22.4232 23.5691C22.4186 23.5691 22.414 23.5691 22.4093 23.5691C22.4086 23.5691 22.407 23.5691 22.4063 23.5691C22.3763 23.5691 22.3625 23.5568 22.3671 23.5222C22.4017 23.2481 22.4347 22.9732 22.4669 22.6991C22.48 22.5893 22.4846 22.5747 22.4408 22.5747C22.4247 22.5747 22.4009 22.577 22.3694 22.577C22.3679 22.577 22.3663 22.577 22.3656 22.577C22.2389 22.5762 22.1122 22.5762 21.9847 22.5762C21.8327 22.5762 21.6806 22.5762 21.5286 22.5762C21.5048 22.5762 21.4802 22.5762 21.4564 22.5762C21.3865 22.5762 21.3827 22.5708 21.3942 22.5025C21.6 21.2754 21.8066 20.0484 22.0124 18.8213C22.0339 18.6931 22.0577 18.5649 22.0746 18.4366C22.0822 18.3775 22.1091 18.3629 22.1636 18.3629C22.1644 18.3629 22.1659 18.3629 22.1667 18.3629C22.2842 18.3644 22.4017 18.3644 22.5199 18.3644C22.6512 18.3644 22.7825 18.3637 22.9146 18.3637C22.9883 18.3637 22.9899 18.3606 22.9991 18.2861C23.0206 18.1034 23.0428 17.9214 23.0651 17.7386C24.1094 17.7371 25.1537 17.7371 26.1988 17.7371ZM26.1988 17.43H23.0643C22.9092 17.43 22.7779 17.5459 22.7595 17.7002L22.7403 17.8615C22.7326 17.926 22.7242 17.9905 22.7165 18.0558C22.6512 18.0558 22.5852 18.0558 22.5199 18.0558C22.4032 18.0558 22.2865 18.0558 22.1705 18.0542C22.1698 18.0542 22.1652 18.0542 22.1644 18.0542C21.9532 18.0542 21.7989 18.1878 21.7705 18.3944C21.7582 18.4858 21.7428 18.5764 21.7259 18.6724C21.7206 18.7046 21.7144 18.7369 21.709 18.7699L21.4449 20.3448L21.0917 22.451C21.0817 22.5086 21.0594 22.643 21.1608 22.7628C21.2621 22.8826 21.3988 22.8826 21.4564 22.8826H21.5286H21.7567H21.9847C22.0354 22.8826 22.0853 22.8826 22.136 22.8826C22.1137 23.0684 22.0891 23.2665 22.0623 23.4846C22.0446 23.6266 22.1053 23.7196 22.1437 23.7626C22.1813 23.8056 22.2658 23.877 22.4063 23.877C22.4093 23.877 22.4147 23.877 22.4178 23.877H22.4239H22.4378H22.4593H24.4027H26.3462C26.3531 23.877 26.36 23.877 26.3669 23.877H26.3746C26.3823 23.8777 26.39 23.8777 26.3976 23.8777C26.4982 23.8777 26.5904 23.8393 26.6564 23.7687C26.7232 23.6981 26.7562 23.6013 26.7493 23.4976L26.7463 23.4554C26.744 23.4163 26.7409 23.3779 26.7394 23.3387C26.737 23.2673 26.7347 23.1951 26.7324 23.1237C26.7301 23.0446 26.7278 22.9647 26.7248 22.8841C26.7317 22.8841 26.7378 22.8841 26.7447 22.8841C26.7808 22.8841 26.8169 22.8841 26.8522 22.8841H26.9782H27.2047C27.2054 22.8895 27.2054 22.8956 27.2062 22.901L27.2085 22.9279C27.2139 22.9893 27.2193 23.05 27.2246 23.1114C27.2369 23.2489 27.2492 23.3901 27.26 23.5291C27.2753 23.738 27.4274 23.8785 27.637 23.8785C27.6378 23.8785 27.6408 23.8785 27.6416 23.8785C27.7453 23.8777 27.8482 23.8777 27.951 23.8777H28.1292H28.3081H28.5884H28.8686C29.1059 23.8777 29.3432 23.8777 29.5805 23.8777C29.6327 23.8777 29.7709 23.8777 29.8723 23.7587C29.9728 23.6405 29.9506 23.5046 29.9421 23.4539C29.8953 23.1698 29.8484 22.8857 29.8008 22.6015C29.7617 22.3689 29.6327 22.2606 29.3954 22.2606H28.4264H27.776C27.7652 22.1201 27.7537 21.9826 27.7422 21.849C27.7276 21.6778 27.7122 21.5066 27.6976 21.3353C27.6838 21.1779 27.67 21.0197 27.6562 20.8623C27.6431 20.7111 27.6308 20.5606 27.6178 20.4093C27.6047 20.2534 27.5917 20.0975 27.5786 19.9417C27.5648 19.7781 27.485 19.5838 27.1862 19.5838H25.9891H24.8274C24.8204 19.5838 24.8143 19.5838 24.8074 19.5838H24.7997C24.7959 19.5838 24.7897 19.5838 24.7844 19.5838C24.5862 19.5838 24.4373 19.7305 24.4311 19.9317C24.4281 20.0346 24.4242 20.1367 24.4212 20.2388C24.4173 20.3555 24.4135 20.4722 24.4096 20.589C24.4081 20.6481 24.4043 20.7725 24.5049 20.8769C24.6054 20.9806 24.7306 20.9813 24.7905 20.9813H24.9279C24.9963 20.9813 25.0646 20.9813 25.1337 20.9813C25.1522 20.9813 25.1714 20.9813 25.1898 20.9813C25.189 21.4037 25.1898 21.8314 25.1906 22.2598H25.0477H24.9011H24.5778H24.2415C24.0656 22.2598 23.8906 22.2598 23.7147 22.2598C23.7232 22.1639 23.7308 22.0679 23.7385 21.9742L23.75 21.8383C23.76 21.7208 23.7692 21.6033 23.7792 21.4858C23.7892 21.3614 23.8 21.2363 23.8099 21.1119C23.8215 20.9752 23.833 20.8385 23.8453 20.7011C23.8545 20.592 23.8645 20.483 23.8737 20.3747C23.8821 20.2795 23.8898 20.1843 23.8975 20.0898C23.9059 19.9908 23.9136 19.8917 23.922 19.7927C23.9412 19.5692 23.9604 19.3466 23.9796 19.1231L23.9842 19.067C23.9896 19.0079 23.995 18.9488 24.0004 18.8889C24.0065 18.8213 24.0127 18.7522 24.0188 18.6831C24.2154 18.6831 24.4119 18.6839 24.6085 18.6839C24.7982 18.6839 24.9878 18.6839 25.1783 18.6831C25.1783 18.6931 25.1783 18.7038 25.1783 18.7138C25.1783 18.8029 25.1783 18.8912 25.1775 18.9803C25.176 19.1193 25.2328 19.206 25.2812 19.2552C25.3295 19.3043 25.4163 19.3627 25.5553 19.3627C25.8179 19.3619 26.079 19.3619 26.3401 19.3619C26.6027 19.3619 26.8653 19.3619 27.1271 19.3627C27.2715 19.3627 27.359 19.2997 27.4074 19.2467C27.455 19.1945 27.5095 19.1024 27.4972 18.9619C27.4811 18.7906 27.465 18.6071 27.4512 18.4228C27.435 18.2093 27.2792 18.065 27.0634 18.065C27.0619 18.065 27.058 18.065 27.0572 18.065C26.9474 18.0665 26.8384 18.0665 26.7286 18.0665H26.6234H26.5251C26.5213 17.9782 26.5174 17.893 26.5167 17.8077C26.5167 17.7678 26.5159 17.6933 26.4775 17.6104C26.4276 17.4991 26.3186 17.43 26.1988 17.43Z" fill="#903C14"/>
<path d="M25.4854 18.4305C25.4854 18.3867 25.4854 18.3437 25.4854 18.2999C25.4862 18.2493 25.4701 18.2324 25.4178 18.2324C24.8788 18.2339 24.3398 18.2339 23.8007 18.2324C23.7562 18.2324 23.7331 18.2431 23.7293 18.2923C23.7139 18.4942 23.6948 18.6954 23.6771 18.8966C23.6564 19.1385 23.6349 19.3811 23.6141 19.623C23.5972 19.8173 23.5819 20.0115 23.565 20.205C23.5442 20.4507 23.522 20.6965 23.5012 20.9422C23.4805 21.1841 23.4613 21.4267 23.4414 21.6686C23.4222 21.8982 23.4045 22.127 23.3807 22.3558C23.3784 22.3819 23.3807 22.3981 23.3891 22.408C23.4083 22.2084 23.4245 22.008 23.4414 21.8083C23.4613 21.5665 23.4805 21.3238 23.5012 21.0819C23.522 20.8362 23.5435 20.5905 23.565 20.3448C23.5819 20.1505 23.5972 19.9562 23.6141 19.7627C23.6349 19.5209 23.6556 19.2782 23.6771 19.0363C23.6948 18.8352 23.7139 18.6332 23.7293 18.432C23.7331 18.3821 23.7554 18.3714 23.8007 18.3721C24.3398 18.3729 24.8788 18.3737 25.4178 18.3721C25.4662 18.3721 25.4839 18.3875 25.4854 18.4305Z" fill="#FFE941"/>
<path d="M25.4962 20.602C25.4962 20.549 25.4793 20.5298 25.4255 20.5306C25.2136 20.5329 25.0017 20.5314 24.7897 20.5314C24.7421 20.5314 24.7245 20.5298 24.7183 20.5083C24.7176 20.5375 24.716 20.5659 24.7153 20.5951C24.7129 20.6681 24.7168 20.6704 24.7897 20.6704C25.0017 20.6704 25.2136 20.6719 25.4255 20.6696C25.4793 20.6688 25.4962 20.6888 25.4962 20.741C25.4954 21.28 25.4962 21.8199 25.4969 22.3589C25.4969 22.3581 25.4969 22.3574 25.4969 22.3566C25.4954 21.7722 25.4946 21.1871 25.4962 20.602Z" fill="#FFE941"/>
<path d="M27.1287 18.9127C26.6042 18.9119 26.0805 18.9112 25.5561 18.9127C25.5062 18.9127 25.4862 18.8958 25.4847 18.8497C25.4847 18.8935 25.4847 18.9373 25.4847 18.981C25.4839 19.034 25.5031 19.0525 25.5561 19.0525C26.0805 19.0509 26.6042 19.0509 27.1287 19.0525C27.177 19.0525 27.1962 19.0363 27.1916 18.9872C27.1886 18.9557 27.1863 18.925 27.1832 18.8935C27.1732 18.9073 27.1555 18.9127 27.1287 18.9127Z" fill="#FFE941"/>
<path d="M26.3915 23.4285C26.3769 23.4278 26.3616 23.4285 26.347 23.4285C25.0516 23.4285 23.7554 23.4285 22.46 23.4285C22.4431 23.4285 22.4262 23.4278 22.4101 23.4285C22.3963 23.4285 22.3871 23.4262 22.3794 23.4216C22.3756 23.4546 22.3717 23.4884 22.3671 23.5214C22.3625 23.5575 22.3771 23.5691 22.4093 23.5683C22.4262 23.5675 22.4431 23.5683 22.4593 23.5683C23.7546 23.5683 25.0508 23.5683 26.3462 23.5683C26.3608 23.5683 26.3762 23.5675 26.3907 23.5683C26.4291 23.5706 26.4453 23.5522 26.443 23.5153C26.4407 23.48 26.4383 23.4447 26.436 23.4093C26.4291 23.4224 26.4153 23.4301 26.3915 23.4285Z" fill="#FFE941"/>
<path d="M29.625 23.4239C29.615 23.427 29.6012 23.4278 29.5797 23.4278C29.1558 23.4278 28.732 23.4278 28.3081 23.4278C28.0854 23.4278 27.862 23.427 27.6393 23.4285C27.5901 23.4293 27.5702 23.4139 27.5663 23.3633C27.551 23.1613 27.5326 22.9601 27.5149 22.759C27.5088 22.6875 27.5026 22.6161 27.4972 22.544C27.488 22.5301 27.4857 22.5063 27.4826 22.4649C27.4819 22.4587 27.4819 22.4526 27.4811 22.4464C27.4688 22.4334 27.4481 22.4341 27.4274 22.4341C27.2362 22.4341 27.0442 22.4341 26.853 22.4341C26.7263 22.4341 26.6004 22.4357 26.4737 22.4334C26.4222 22.4326 26.4038 22.4418 26.4069 22.501C26.4084 22.5332 26.4099 22.5655 26.4115 22.5969C26.4199 22.5762 26.4391 22.5716 26.4737 22.5724C26.6004 22.5747 26.7263 22.5731 26.853 22.5731C27.0442 22.5731 27.2362 22.5731 27.4274 22.5731C27.4573 22.5731 27.488 22.5708 27.4919 22.6146C27.4988 22.709 27.5072 22.8035 27.5149 22.8972C27.5326 23.0984 27.551 23.3003 27.5663 23.5015C27.5702 23.5522 27.5901 23.5668 27.6393 23.5668C27.862 23.5645 28.0854 23.566 28.3081 23.566C28.732 23.566 29.1558 23.566 29.5797 23.566C29.6442 23.566 29.648 23.5606 29.6381 23.4992C29.6334 23.4754 29.6296 23.45 29.625 23.4239Z" fill="#FFE941"/>
<path d="M22.4646 22.577C22.4654 22.5708 22.4662 22.5639 22.4669 22.5578C22.4846 22.405 22.4861 22.4357 22.3648 22.4349C22.0615 22.4334 21.759 22.4341 21.4556 22.4341C21.4318 22.4341 21.4157 22.4334 21.405 22.4295C21.4011 22.4533 21.3973 22.4764 21.3935 22.5002C21.3819 22.5685 21.3858 22.5739 21.4556 22.5739C21.759 22.5739 22.0615 22.5731 22.3648 22.5747C22.4209 22.5754 22.4508 22.5693 22.4646 22.577Z" fill="#FFE941"/>
<defs>
<linearGradient id="paint0_linear" x1="18.0079" y1="24.3275" x2="27.1753" y2="15.1601" gradientUnits="userSpaceOnUse">
<stop stop-color="white"/>
<stop offset="0.00102067" stop-color="#FDDB39"/>
<stop offset="0.8659" stop-color="#F9B634"/>
</linearGradient>
<linearGradient id="paint1_linear" x1="15.9605" y1="25.4956" x2="18.3932" y2="23.0629" gradientUnits="userSpaceOnUse">
<stop stop-color="white"/>
<stop offset="0.00102067" stop-color="#FDDB39" stop-opacity="0"/>
<stop offset="0.8659" stop-color="white"/>
</linearGradient>
<linearGradient id="paint2_linear" x1="28.0711" y1="16.9681" x2="29.7958" y2="15.2433" gradientUnits="userSpaceOnUse">
<stop stop-color="white"/>
<stop offset="0.00102067" stop-color="#FDDB39" stop-opacity="0"/>
<stop offset="0.8659" stop-color="white"/>
</linearGradient>
<linearGradient id="paint3_linear" x1="22.7172" y1="22.436" x2="26.6383" y2="18.5149" gradientUnits="userSpaceOnUse">
<stop stop-color="#FDDB39"/>
<stop offset="0.2007" stop-color="#FCD438"/>
<stop offset="0.5574" stop-color="#FAC036"/>
<stop offset="0.6981" stop-color="#F9B634"/>
</linearGradient>
</defs>
</svg>
