<svg width="300" height="300" viewBox="0 0 48 48" fill="none" xmlns="http://www.w3.org/2000/svg">
<rect width="300" height="300" fill="#020339"/>
<path d="M24.4772 16.3333C18.1796 16.3333 13 19.7397 13 24.1015V28.8424L13.0832 28.8423L13.0933 28.9018C13.8249 32.9159 18.8174 36.2213 24.4772 36.2213L24.6557 36.2202C30.2416 36.1516 35.1372 32.8736 35.8611 28.9018L35.8712 28.8423L35.9544 28.8424V24.1015C35.9544 19.7398 30.7743 16.3333 24.4772 16.3333ZM24.648 17.5787C30.2727 17.6377 34.7322 20.6053 34.7322 24.1015V28.0158L34.7213 28.1779C34.4837 31.7284 29.8554 34.9768 24.4772 34.9768L24.3161 34.9759C19.0069 34.9118 14.4683 31.6929 14.2331 28.1779L14.2222 28.0158V24.1015C14.2222 20.5698 18.7718 17.5778 24.4772 17.5778L24.648 17.5787Z" fill="#903C14"/>
<path d="M24.4764 16.9548C18.4748 16.9548 13.6103 20.154 13.6103 24.1007C13.6103 28.0474 18.4756 31.2466 24.4764 31.2466C30.4781 31.2466 35.3425 28.0474 35.3425 24.1007C35.3433 20.1548 30.4781 16.9548 24.4764 16.9548ZM24.4764 28.3953C20.0359 28.3953 16.4369 26.4446 16.4369 23.6081C16.4369 20.7724 20.0366 18.4731 24.4764 18.4731C28.917 18.4731 32.516 20.7717 32.516 23.6081C32.5168 26.4438 28.917 28.3953 24.4764 28.3953Z" fill="url(#paint0_linear)"/>
<path opacity="0.54" d="M25.9108 29.9144C26.1051 30.1583 26.2364 30.6907 26.3224 30.98C26.3316 31.0105 26.3477 31.0472 26.3838 31.0512C26.4184 31.0551 26.4514 31.0238 26.4844 31.0332C26.4982 31.0371 26.5105 31.0472 26.5251 31.0472C26.5535 31.0472 26.5612 31.0128 26.5589 30.987C26.5458 30.8283 26.4399 30.335 26.4821 30.1802C26.5405 30.3491 26.6656 30.8494 26.724 31.0183C26.7132 30.9878 26.0022 31.2951 25.9101 31.0504C25.8187 30.8057 25.9177 30.1716 25.9108 29.9144Z" fill="#FDDB39"/>
<path opacity="0.54" d="M24.468 18.2409C19.9752 18.2409 16.3332 20.656 16.3332 23.44C16.3332 26.2241 19.9752 28.4821 24.468 28.4821C28.9608 28.4821 32.6028 26.2249 32.6028 23.44C32.6028 20.656 28.9608 18.2409 24.468 18.2409ZM24.5179 28.3499C20.1142 28.3499 16.5444 26.16 16.5444 23.458C16.5444 20.756 20.1142 18.5661 24.5179 18.5661C28.9216 18.5661 32.4914 20.756 32.4914 23.458C32.4914 26.16 28.9216 28.3499 24.5179 28.3499Z" fill="#FDDB39"/>
<path d="M34.9525 26.0021C34.9525 26.0021 34.9525 26.0013 34.9517 26.0013C34.7951 26.3766 34.5923 26.7386 34.3489 27.0865C34.3359 27.1053 34.3213 27.124 34.3082 27.1428C34.2622 27.2069 34.2161 27.2702 34.1677 27.3328C34.1424 27.3656 34.1155 27.3984 34.0894 27.4305C34.051 27.4782 34.0126 27.5259 33.9727 27.5736C33.9389 27.6134 33.9036 27.6525 33.869 27.6924C33.8344 27.7315 33.7999 27.7698 33.7646 27.8081C33.7239 27.8519 33.6824 27.8957 33.6402 27.9387C33.6079 27.9715 33.5764 28.0044 33.5434 28.0372C33.4974 28.0833 33.4497 28.1287 33.4021 28.174C31.4402 30.0309 28.176 31.2482 24.4772 31.2482C20.7784 31.2482 17.5142 30.0316 15.5523 28.174C15.5047 28.1287 15.4571 28.0833 15.411 28.0372C15.378 28.0044 15.3465 27.9715 15.3142 27.9387C15.272 27.8957 15.2305 27.8519 15.1898 27.8081C15.1545 27.7698 15.12 27.7307 15.0854 27.6924C15.0509 27.6533 15.0155 27.6134 14.9818 27.5736C14.9418 27.5267 14.9034 27.4782 14.865 27.4305C14.8389 27.3977 14.8121 27.3656 14.7867 27.3328C14.7383 27.2702 14.6915 27.2061 14.6462 27.1428C14.6324 27.124 14.6186 27.1053 14.6055 27.0865C14.3621 26.7386 14.1601 26.3766 14.0027 26.0013C14.0027 26.0013 14.0027 26.0021 14.002 26.0021C13.7478 25.397 13.6111 24.7598 13.6111 24.1015V28.2201H13.6234C13.8776 32.0183 18.6391 35.5991 24.4772 35.5991C30.3153 35.5991 35.0769 32.0183 35.331 28.2201H35.3433V24.1015C35.3433 24.7598 35.2059 25.397 34.9525 26.0021Z" fill="#F28D2C"/>
<path d="M32.5168 23.6081C32.5168 26.4438 28.917 28.3953 24.4772 28.3953C20.0366 28.3953 16.4376 26.4446 16.4376 23.6081C16.4376 20.7717 20.0374 18.4731 24.4772 18.4731C28.917 18.4731 32.5168 20.7724 32.5168 23.6081Z" fill="#F8AC32"/>
<path opacity="0.9" d="M24.4764 20.0438C28.388 20.0438 31.6645 21.566 32.516 23.6105C32.516 23.6097 32.516 23.6089 32.516 23.6081C32.516 20.7724 28.9163 18.4731 24.4764 18.4731C20.0359 18.4731 16.4369 20.7717 16.4369 23.6081C16.4369 23.6089 16.4369 23.6097 16.4369 23.6105C17.2892 21.5668 20.5649 20.0438 24.4764 20.0438Z" fill="#D5761F"/>
<path d="M34.8711 29.4398C34.5332 30.2693 34.1431 31.0089 33.4697 31.6571C32.9238 32.1825 32.4661 32.6586 31.8096 33.0761C31.4756 33.2887 31.1415 33.5358 30.7645 33.6812C30.5595 33.7602 29.5183 34.4349 29.314 34.3075C29.215 34.2449 29.3178 33.6437 29.3163 33.5358C29.3063 32.7759 29.3324 32.0151 29.3954 31.2568C29.4092 31.0879 29.4384 30.8964 29.5943 30.7978C29.7701 31.4413 29.9836 32.5515 30.1587 33.1949C30.3821 32.1528 30.4766 30.342 30.5403 30.3139C30.6117 30.2826 30.9104 32.2145 31.0456 32.6132C31.2275 32.1473 31.2567 30.8252 31.3059 30.3413C31.3197 30.2091 31.332 30.0692 31.4203 29.9628C31.4886 29.8815 31.5923 29.8307 31.6921 29.7807C32.4569 29.3991 33.3008 28.7784 33.9082 28.2155C34.4342 27.7284 35.3249 25.9982 35.2466 25.7488C35.2473 25.748 35.3387 28.2929 34.8711 29.4398Z" fill="#D2571C"/>
<path d="M14.4704 30.2122C14.7069 30.5563 15.0616 31.2224 15.3595 31.5265C16.0829 32.2653 16.7517 32.9752 17.7392 33.4092C18.1907 33.6601 20.0159 34.8321 17.7323 32.6625C16.1743 31.1817 15.9554 30.6821 15.0209 28.9128C14.7476 28.3953 14.0319 26.6565 13.7585 26.1389C13.6764 26.4282 13.8108 26.6917 13.8223 26.9778C13.8369 27.3484 13.7716 27.7182 13.8 28.0919C13.8545 28.8034 14.0488 29.6001 14.4704 30.2122Z" fill="#D2571C"/>
<path d="M24.4764 19.0204C26.5243 19.0204 28.4417 19.5246 29.8761 20.4409C31.2321 21.3072 31.9793 22.4315 31.9793 23.6081C31.9793 24.7613 31.2375 25.8364 29.8914 26.6362C28.4809 27.4743 26.5581 27.9356 24.4772 27.9356C22.3963 27.9356 20.4735 27.4743 19.063 26.6362C17.7161 25.8364 16.9751 24.7613 16.9751 23.6081C16.9751 22.4315 17.7223 21.3072 19.0783 20.4409C20.5112 19.5246 22.4285 19.0204 24.4764 19.0204ZM24.4764 18.4731C20.0359 18.4731 16.4369 20.7717 16.4369 23.6081C16.4369 26.4438 20.0366 28.4821 24.4764 28.4821C28.917 28.4821 32.516 26.4438 32.516 23.6081C32.5168 20.7724 28.917 18.4731 24.4764 18.4731Z" fill="#903C14"/>
<path opacity="0.54" d="M24.3628 17.2268C30.3783 17.2268 35.255 20.6106 35.255 24.7856C35.255 24.8739 35.2519 24.9623 35.2473 25.0498C35.3103 24.7394 35.3425 24.4228 35.3425 24.1007C35.3425 20.154 30.4773 16.9548 24.4764 16.9548C18.8741 16.9548 14.2623 19.7436 13.6741 23.3251C14.6546 19.8491 19.0668 17.2268 24.3628 17.2268Z" fill="#FDDB39"/>
<path opacity="0.78" d="M24.4764 30.8401C19.42 30.8401 15.1607 28.8042 13.8776 25.6815C14.9718 28.8675 19.301 31.2474 24.4764 31.2474C29.6519 31.2474 33.9819 28.8675 35.0753 25.6815C33.7922 28.8034 29.5336 30.8401 24.4764 30.8401Z" fill="#FFE941"/>
<path d="M22.6512 31.1856C22.7702 31.1348 22.91 31.1372 23.0367 31.1356C23.2417 31.1332 23.4475 31.1239 23.6518 31.1067C23.6809 31.0715 23.6356 31.023 23.5949 31.0042C23.4798 30.9511 23.3523 30.9323 23.2264 30.9135C23.0643 30.8901 22.9023 30.8659 22.7395 30.8424C22.6412 30.8275 22.5383 30.8119 22.4562 30.7548C22.2704 30.6258 22.2143 30.3843 22.0139 30.2693C21.8119 30.1528 21.5754 30.1153 21.3466 30.1059C20.8414 30.0856 20.3353 30.1966 19.8324 30.1028C19.0031 29.9488 18.1615 29.6032 17.3813 29.2842C17.3568 29.3702 17.4374 29.4468 17.5096 29.4984C18.2237 30.0129 18.9509 30.5203 19.751 30.8799C20.5511 31.2396 21.4365 31.4483 22.3049 31.3373C22.4508 31.3185 22.5207 31.2411 22.6482 31.1864C22.6497 31.1864 22.6505 31.1864 22.6512 31.1856Z" fill="#FFF6CF"/>
<path d="M28.1476 35.1816C28.1476 35.334 28.0447 30.8533 28.047 30.8533C28.047 30.8533 27.2891 30.0926 27.015 29.6736C27.2408 30.3491 27.4258 31.0676 27.4051 31.772C27.3728 32.8611 27.4381 34.2449 27.4059 35.3348C27.6692 35.3262 27.9065 35.2793 28.1476 35.1816Z" fill="#903C14"/>
<path opacity="0.78" d="M27.0319 29.6579C27.1217 29.8651 27.2799 30.0418 27.4381 30.213C27.6178 30.4085 27.7998 30.6024 27.9841 30.7947C28.0847 30.9003 28.2559 30.8002 28.1338 30.6853C28.0178 30.5766 27.8904 30.4749 27.7721 30.3671C27.5203 30.1356 27.273 29.8995 27.0319 29.6579Z" fill="#FFEC9D"/>
<path d="M20.0328 28.5806C20.1956 28.3961 20.4674 28.0364 20.6079 27.8394C20.4759 27.7292 20.2516 27.7378 20.2516 27.7378C20.2516 27.7378 20.0581 28.5516 20.0328 28.5806Z" fill="#903C14"/>
<path opacity="0.15" d="M16.4799 24.139L13.8545 25.6127C14.4903 27.554 16.3248 29.2021 18.8242 30.2052L21.5117 28.0833C18.7865 27.4805 16.7932 26.0435 16.4799 24.139Z" fill="url(#paint1_linear)"/>
<path opacity="0.15" d="M30.991 20.5989L32.5821 19.3425C31.4502 18.509 30.0251 17.8515 28.4141 17.4387L26.3278 18.6099C28.2336 18.8968 29.8776 19.6169 30.991 20.5989Z" fill="url(#paint2_linear)"/>
<path d="M26.9474 19.8788C27.1356 19.9234 27.3137 20.0055 27.4757 20.1532C27.5349 20.2072 27.5901 20.2674 27.6546 20.3151C27.9603 20.541 27.9342 20.9054 27.9633 21.2556C27.9679 21.3111 28.0378 22.2696 28.0447 22.3564C28.0716 22.702 28.0969 23.0476 28.1238 23.3931C28.1522 23.7637 28.1822 24.1343 28.2106 24.5049C28.2275 24.7277 28.2436 24.9505 28.259 25.1734C28.2666 25.2813 28.2682 25.2852 28.3649 25.2852C28.9762 25.2852 29.5881 25.2852 30.1994 25.2852C30.2884 25.2852 30.2892 25.2852 30.3038 25.3798C30.3522 25.6995 30.3998 26.0193 30.4474 26.3391C30.4574 26.4087 30.4535 26.4141 30.3883 26.4141C29.9583 26.4141 29.5275 26.4141 29.0975 26.4141C28.871 26.4141 28.6444 26.4126 28.4179 26.4149C28.368 26.4157 28.348 26.3985 28.3442 26.3414C28.3288 26.1147 28.3096 25.888 28.292 25.6604C28.2835 25.5541 28.2751 25.4478 28.2682 25.3415C28.2651 25.2914 28.2336 25.2945 28.2029 25.2945C28.0086 25.2945 27.8144 25.2945 27.6193 25.2945C27.4911 25.2945 27.3629 25.2961 27.2346 25.2938C27.1824 25.2922 27.164 25.3031 27.1671 25.3704C27.1801 25.6354 27.1855 25.9005 27.1939 26.1663C27.1962 26.2288 27.2001 26.2914 27.2039 26.3539C27.2062 26.3961 27.1901 26.4165 27.1509 26.4141C27.1356 26.4133 27.121 26.4141 27.1056 26.4141C25.7903 26.4141 24.4741 26.4141 23.1588 26.4141C23.1419 26.4141 23.125 26.4133 23.1081 26.4141C23.0751 26.4149 23.0605 26.4016 23.0651 26.3617C23.0997 26.0529 23.1342 25.7433 23.1665 25.4345C23.1849 25.2625 23.1864 25.2977 23.0628 25.2969C22.7549 25.2953 22.4477 25.2961 22.1398 25.2961C22.0692 25.2961 22.0646 25.2906 22.0761 25.2132C22.2849 23.8317 22.4946 22.4495 22.7034 21.068C22.7249 20.9233 22.7495 20.7795 22.7672 20.6348C22.7756 20.5676 22.8033 20.5512 22.8608 20.5512C23.1135 20.5543 23.3669 20.5528 23.6195 20.552C23.6948 20.552 23.6963 20.5488 23.7055 20.4644C23.7278 20.2588 23.75 20.0539 23.7723 19.8483C24.448 19.8483 25.1245 19.8483 25.8002 19.8483C26.1849 19.8475 26.5842 19.7928 26.9474 19.8788Z" fill="#D5761F"/>
<path d="M29.7717 25.6612C29.7348 25.4376 29.6181 25.3375 29.3939 25.3375H28.4901H28.3304H27.7483C27.7368 25.1867 27.7245 25.0373 27.713 24.8927C27.6984 24.7168 27.6831 24.5409 27.6677 24.3649C27.6539 24.2055 27.6401 24.0467 27.627 23.8873C27.614 23.7348 27.6017 23.5823 27.5894 23.4291C27.5763 23.2696 27.5633 23.1093 27.5494 22.9498C27.5441 22.8896 27.5349 22.7771 27.4389 22.6918C27.349 22.6113 27.25 22.6113 27.1847 22.6113H26.0053H24.8258C24.8197 22.6113 24.8128 22.6113 24.8066 22.6113H24.7982C24.7936 22.6113 24.7882 22.6113 24.7828 22.6113C24.6001 22.6113 24.4634 22.7489 24.458 22.9381C24.4549 23.0421 24.4511 23.1469 24.448 23.2508C24.4442 23.3697 24.4404 23.4885 24.4365 23.6074C24.435 23.6644 24.4311 23.7825 24.524 23.8794C24.617 23.9764 24.7337 23.9764 24.7897 23.9772H24.9249C24.994 23.9772 25.0631 23.9772 25.1322 23.9772C25.1606 23.9772 25.1883 23.9772 25.2167 23.9772C25.2159 24.4259 25.2167 24.881 25.2174 25.336C25.2098 25.336 25.2021 25.336 25.1944 25.336C25.1453 25.336 25.0961 25.336 25.0462 25.336C24.9971 25.336 24.9487 25.336 24.8995 25.336H24.5701H24.2407C24.0549 25.336 23.8691 25.336 23.6832 25.336C23.6924 25.2281 23.7017 25.121 23.7101 25.0154L23.7216 24.8755C23.7316 24.7559 23.7408 24.6355 23.7508 24.5158C23.7608 24.3892 23.7708 24.2625 23.7815 24.1359C23.793 23.9951 23.8053 23.8544 23.8168 23.7129C23.8261 23.6034 23.8353 23.494 23.8445 23.3853C23.8529 23.2884 23.8606 23.1922 23.8683 23.0953C23.8767 22.9944 23.8844 22.8935 23.8936 22.7927C23.9136 22.555 23.9336 22.3173 23.9543 22.0797L23.9566 22.0539C23.962 21.9929 23.9673 21.9327 23.9727 21.8717C23.9796 21.7943 23.9865 21.7161 23.9927 21.6371C24.1977 21.6371 24.4027 21.6379 24.6085 21.6379C24.8074 21.6379 25.007 21.6379 25.2059 21.6371C25.2059 21.6575 25.2059 21.677 25.2059 21.6973C25.2059 21.7865 25.2059 21.8787 25.2051 21.9686C25.2036 22.1 25.2566 22.1821 25.3011 22.2282C25.3457 22.2743 25.4263 22.3291 25.5553 22.3291C25.8179 22.3283 26.079 22.3283 26.3401 22.3283C26.6027 22.3283 26.8653 22.3283 27.1279 22.3291C27.2623 22.3291 27.3429 22.2704 27.3874 22.2204C27.4312 22.1711 27.4819 22.0844 27.4696 21.9522C27.4535 21.7779 27.4373 21.5902 27.4235 21.4034C27.4082 21.2017 27.2638 21.0656 27.0642 21.0656H27.0588C26.9436 21.0672 26.8277 21.0672 26.7294 21.0672H26.6234H26.5174C26.5113 21.0672 26.5051 21.0672 26.499 21.0672C26.4944 20.9679 26.4906 20.8717 26.4898 20.7756C26.4898 20.7373 26.489 20.6653 26.4529 20.5872L26.3785 20.4222H26.1995H23.0651H22.8178L22.7879 20.6724L22.7687 20.8326C22.7595 20.9085 22.751 20.9835 22.7418 21.0594C22.6681 21.0594 22.5944 21.0594 22.5199 21.0594C22.3832 21.0594 22.2719 21.0586 22.1698 21.0578H22.1636C21.964 21.0578 21.8242 21.1813 21.7974 21.3791C21.7851 21.4722 21.7697 21.5644 21.7528 21.6622C21.7474 21.6958 21.7413 21.7286 21.7359 21.7622L21.4441 23.5323L21.1178 25.5103C21.1086 25.5651 21.0878 25.6925 21.1808 25.8043C21.2737 25.9161 21.4011 25.9161 21.4556 25.9161H21.5278H21.7559H21.9832C22.0446 25.9161 22.1053 25.9161 22.1667 25.9161C22.1437 26.1139 22.1176 26.3266 22.0891 26.5603C22.073 26.6932 22.1291 26.7808 22.1636 26.8207C22.1982 26.8605 22.2757 26.9278 22.4055 26.9278C22.4093 26.9278 22.4132 26.9278 22.417 26.9278H22.4232H22.4378C22.4447 26.9278 22.4523 26.9278 22.4593 26.9278H24.5525H25.4493H26.3462C26.3531 26.9278 26.36 26.9278 26.3669 26.9278H26.3754C26.3831 26.9286 26.3907 26.9286 26.3976 26.9286C26.4906 26.9286 26.5758 26.8926 26.6365 26.8269C26.6979 26.7605 26.7286 26.6698 26.7225 26.5721L26.7202 26.5306C26.7171 26.4884 26.7148 26.4485 26.7132 26.4102C26.7109 26.3367 26.7086 26.2624 26.7063 26.189C26.7033 26.0998 26.701 26.0091 26.6971 25.9177C26.7132 25.9177 26.7294 25.9177 26.7455 25.9177C26.7816 25.9177 26.8169 25.9177 26.853 25.9177H26.9889H27.2316C27.2331 25.9325 27.2339 25.9466 27.2354 25.9607L27.2377 25.988C27.2431 26.0506 27.2484 26.1123 27.2538 26.1749C27.2661 26.3148 27.2784 26.4595 27.2891 26.601C27.3037 26.798 27.4443 26.9301 27.6385 26.9301H27.6401H27.6431C27.746 26.9293 27.8497 26.9293 27.9533 26.9293C28.0125 26.9293 28.0716 26.9293 28.1315 26.9293C28.1914 26.9293 28.2505 26.9293 28.3104 26.9293H28.3473H28.6045H28.8195C29.0092 26.9293 29.1942 26.9293 29.4269 26.9293C29.4799 26.9293 29.605 26.9293 29.6972 26.8183C29.7893 26.7073 29.7686 26.5791 29.7609 26.5306C29.744 26.4251 29.7563 26.3031 29.7701 26.1749C29.7832 26.0193 29.8024 25.845 29.7717 25.6612Z" fill="#D2571C"/>
<path d="M27.637 26.232C27.5088 26.232 27.4228 26.1514 27.4128 26.0209C27.402 25.877 27.3897 25.7339 27.3774 25.5909L27.359 25.3798C27.3544 25.3266 27.3498 25.2727 27.346 25.2195H26.853L26.6349 25.2203C26.6119 25.2203 26.5888 25.2203 26.5658 25.2203C26.572 25.3563 26.5758 25.49 26.5804 25.6206C26.5827 25.6956 26.585 25.7707 26.5881 25.8457C26.5896 25.888 26.5927 25.931 26.595 25.9732L26.5973 26.0115C26.6019 26.0912 26.572 26.142 26.5451 26.171C26.5082 26.2108 26.456 26.2327 26.3984 26.2327C26.3953 26.2327 26.3854 26.2327 26.3823 26.232H26.3477H22.4147C22.331 26.232 22.2849 26.1976 22.2596 26.1686C22.2343 26.1397 22.2059 26.0881 22.2158 26.0084C22.2481 25.7457 22.2796 25.4837 22.3103 25.2203C22.1966 25.2195 22.0861 25.2195 21.9763 25.2195H21.458C21.4119 25.2195 21.3343 25.2195 21.279 25.153C21.2238 25.0866 21.2368 25.0092 21.2437 24.963L21.8619 21.215L21.8787 21.1149C21.8949 21.0203 21.911 20.9233 21.9233 20.828C21.9317 20.7646 21.9717 20.6169 22.1652 20.6169C22.2857 20.6184 22.4017 20.6184 22.5176 20.6184L22.8539 20.6176C22.8662 20.5097 22.9131 20.1188 22.9131 20.1188C22.9223 20.0407 22.9875 19.9812 23.0659 19.9812H26.2003C26.2602 19.9812 26.3147 20.0164 26.3401 20.0719C26.3646 20.1251 26.3646 20.1751 26.3654 20.208C26.3662 20.3291 26.3723 20.4535 26.3785 20.5739L26.3808 20.6262C26.4307 20.6262 26.7286 20.6262 26.7286 20.6262C26.8392 20.6262 26.9505 20.6262 27.0611 20.6247C27.2016 20.6247 27.2899 20.7068 27.2999 20.8444C27.3137 21.0281 27.3298 21.2118 27.3467 21.3956C27.3544 21.4816 27.3237 21.5355 27.2968 21.566C27.2569 21.6106 27.2016 21.6325 27.131 21.6325C26.8684 21.6317 26.6057 21.6317 26.3439 21.6317C26.0821 21.6317 25.8202 21.6317 25.5584 21.6325C25.4885 21.6325 25.4332 21.6113 25.3925 21.5699C25.3518 21.5285 25.3318 21.4714 25.3326 21.4018C25.3334 21.3103 25.3334 21.2196 25.3334 21.129C25.3334 21.0664 25.3334 21.0039 25.3334 20.9413C25.0877 20.9421 24.8435 20.9421 24.5993 20.9421C24.359 20.9421 24.1186 20.9421 23.879 20.9413C23.8698 21.0555 23.8598 21.1704 23.8499 21.2845L23.833 21.4753C23.8115 21.7216 23.7907 21.9679 23.77 22.2149L23.7209 22.8075C23.7209 22.8075 23.6694 23.4174 23.6571 23.5581C23.6471 23.6816 23.5857 24.4345 23.5857 24.4345C23.5734 24.5862 23.5611 24.741 23.5466 24.8958C23.7761 24.8958 24.9011 24.8958 24.9011 24.8958L25.1967 24.895C25.2458 24.895 25.295 24.895 25.3441 24.8958C25.3426 24.3563 25.3426 23.8184 25.3434 23.2806C25.2727 23.2813 25.2028 23.2813 25.133 23.2813L24.7905 23.2806C24.7398 23.2806 24.6707 23.2806 24.6147 23.2219C24.5586 23.1633 24.5609 23.0906 24.5624 23.0421C24.5655 22.924 24.5701 22.8052 24.574 22.6864C24.577 22.5816 24.5809 22.4776 24.5839 22.3728C24.5878 22.2532 24.6692 22.1696 24.7836 22.1696C24.7859 22.1696 27.1855 22.1696 27.1855 22.1696C27.3444 22.1696 27.4112 22.2313 27.4251 22.3908C27.4389 22.5519 27.4896 23.1766 27.5026 23.3282C27.5157 23.4877 27.5295 23.6464 27.5433 23.8052C27.5587 23.9811 27.5733 24.157 27.5886 24.3329C27.604 24.5205 27.6193 24.7074 27.6331 24.895H29.3946C29.5582 24.895 29.6227 24.9498 29.6488 25.1116C29.6964 25.4009 29.7432 25.6901 29.7901 25.9794C29.797 26.0209 29.8093 26.0975 29.7548 26.1632C29.7002 26.2288 29.6219 26.2288 29.5805 26.2288H27.9503C27.8474 26.2288 27.7437 26.2288 27.6408 26.2296C27.6401 26.232 27.6378 26.232 27.637 26.232Z" fill="url(#paint3_linear)"/>
<path d="M26.1988 20.1384C26.2095 20.1611 26.2095 20.1861 26.2095 20.2111C26.2111 20.3815 26.2218 20.5512 26.2287 20.7208C26.231 20.7748 26.2548 20.785 26.3001 20.785C26.3009 20.785 26.3017 20.785 26.3017 20.785C26.3731 20.7842 26.4445 20.7842 26.5167 20.7842C26.5873 20.7842 26.658 20.7842 26.7278 20.7842C26.8384 20.7842 26.949 20.7842 27.0603 20.7826C27.0611 20.7826 27.0619 20.7826 27.0634 20.7826C27.1187 20.7826 27.1402 20.8022 27.1448 20.8577C27.1586 21.0422 27.1747 21.2267 27.1916 21.4112C27.1962 21.4612 27.1763 21.4777 27.1287 21.4777C27.1287 21.4777 27.1287 21.4777 27.1279 21.4777C26.8653 21.4769 26.6027 21.4769 26.3401 21.4769C26.0782 21.4769 25.8171 21.4769 25.5553 21.4777C25.5553 21.4777 25.5553 21.4777 25.5545 21.4777C25.5015 21.4777 25.4831 21.4589 25.4839 21.4049C25.4862 21.2212 25.4831 21.0383 25.4854 20.8545C25.4862 20.8037 25.4701 20.7857 25.4186 20.7857H25.4179C25.1476 20.7865 24.8773 20.7865 24.6077 20.7865C24.339 20.7865 24.0695 20.7865 23.8007 20.7857C23.8007 20.7857 23.8007 20.7857 23.8 20.7857C23.7554 20.7857 23.7331 20.7967 23.7293 20.8467C23.714 21.0523 23.6948 21.2572 23.6771 21.462C23.6564 21.7083 23.6349 21.9554 23.6141 22.2016C23.5972 22.3994 23.5819 22.5972 23.565 22.7943C23.5443 23.0444 23.522 23.2946 23.5013 23.5448C23.4805 23.7911 23.4613 24.0381 23.4414 24.2844C23.4222 24.5182 23.4045 24.7512 23.3807 24.9842C23.3753 25.0404 23.3922 25.0522 23.4414 25.0522H23.4421C23.7078 25.0514 23.9727 25.0514 24.2384 25.0514C24.458 25.0514 24.6784 25.0514 24.898 25.0514C24.9963 25.0514 25.0946 25.0506 25.1929 25.0506C25.2712 25.0506 25.3495 25.0506 25.4278 25.0522C25.4286 25.0522 25.4294 25.0522 25.4309 25.0522C25.48 25.0522 25.4954 25.0334 25.4954 24.9834C25.4939 24.3876 25.4931 23.7919 25.4946 23.1961C25.4946 23.143 25.4785 23.1234 25.4263 23.1234C25.4255 23.1234 25.4248 23.1234 25.424 23.1234C25.3265 23.1242 25.2282 23.125 25.1307 23.125C25.0163 23.125 24.9026 23.1242 24.7882 23.1242C24.716 23.1242 24.7114 23.1211 24.7137 23.0476C24.7199 22.8247 24.7283 22.6019 24.7352 22.3791C24.736 22.3455 24.749 22.3275 24.7813 22.3275C24.7828 22.3275 24.7844 22.3275 24.7859 22.3275C24.7897 22.3275 24.7936 22.3275 24.7974 22.3275C24.8066 22.3275 24.8158 22.3275 24.8251 22.3275C25.2121 22.3275 25.5991 22.3275 25.9868 22.3275C26.3861 22.3275 26.7854 22.3275 27.1839 22.3275C27.2623 22.3275 27.2638 22.3275 27.2707 22.4057C27.2968 22.7184 27.3222 23.0304 27.3483 23.3431C27.3767 23.6777 27.4059 24.0131 27.4343 24.3477C27.4512 24.5495 27.4673 24.7504 27.4819 24.9521C27.4888 25.0498 27.4911 25.053 27.5863 25.053C28.1883 25.053 28.7911 25.053 29.3931 25.053C29.4814 25.053 29.4814 25.053 29.496 25.139C29.5436 25.4282 29.5904 25.7175 29.6373 26.006C29.6473 26.0686 29.6434 26.074 29.5789 26.074C29.3417 26.074 29.1044 26.074 28.8671 26.074C28.6805 26.074 28.4939 26.074 28.3073 26.074C28.1883 26.074 28.0693 26.074 27.9503 26.074C27.8466 26.074 27.7422 26.074 27.6385 26.0756C27.6378 26.0756 27.637 26.0756 27.6362 26.0756C27.5886 26.0756 27.5694 26.06 27.5656 26.0091C27.5502 25.8035 27.5318 25.5987 27.5141 25.3938C27.5057 25.2977 27.498 25.2015 27.4911 25.1061C27.488 25.0655 27.4634 25.0639 27.4366 25.0639C27.4335 25.0639 27.4304 25.0639 27.4274 25.0639C27.2362 25.0639 27.0442 25.0639 26.853 25.0639C26.78 25.0639 26.7079 25.0647 26.6349 25.0647C26.5812 25.0647 26.5274 25.0647 26.4737 25.0631C26.4714 25.0631 26.4691 25.0631 26.4668 25.0631C26.4207 25.0631 26.4038 25.0749 26.4069 25.1327C26.4199 25.3719 26.4245 25.612 26.433 25.852C26.4353 25.9083 26.4391 25.9654 26.443 26.0216C26.4453 26.0576 26.4314 26.0764 26.3976 26.0764C26.3953 26.0764 26.393 26.0764 26.3907 26.0764C26.3854 26.0764 26.3808 26.0756 26.3754 26.0756C26.3654 26.0756 26.3554 26.0764 26.3462 26.0764C25.6981 26.0764 25.0508 26.0764 24.4027 26.0764C23.7546 26.0764 23.1073 26.0764 22.4593 26.0764C22.447 26.0764 22.4355 26.0764 22.4232 26.0764C22.4186 26.0764 22.414 26.0764 22.4093 26.0764C22.4086 26.0764 22.407 26.0764 22.4063 26.0764C22.3763 26.0764 22.3625 26.0639 22.3671 26.0287C22.4017 25.7496 22.4347 25.4697 22.4669 25.1906C22.48 25.0788 22.4846 25.0639 22.4408 25.0639C22.4247 25.0639 22.4009 25.0662 22.3694 25.0662C22.3679 25.0662 22.3663 25.0662 22.3656 25.0662C22.2389 25.0655 22.1122 25.0655 21.9847 25.0655C21.8327 25.0655 21.6806 25.0655 21.5286 25.0655C21.5048 25.0655 21.4802 25.0655 21.4564 25.0655C21.3865 25.0655 21.3827 25.06 21.3942 24.9904C21.6 23.741 21.8066 22.4917 22.0124 21.2423C22.0339 21.1118 22.0577 20.9812 22.0746 20.8506C22.0822 20.7904 22.1091 20.7756 22.1636 20.7756C22.1644 20.7756 22.1659 20.7756 22.1667 20.7756C22.2842 20.7771 22.4017 20.7771 22.5199 20.7771C22.6512 20.7771 22.7825 20.7764 22.9146 20.7764C22.9883 20.7764 22.9899 20.7732 22.9991 20.6974C23.0206 20.5113 23.0428 20.326 23.0651 20.1399C24.1094 20.1384 25.1537 20.1384 26.1988 20.1384ZM26.1988 19.8256H23.0643C22.9092 19.8256 22.7779 19.9437 22.7595 20.1009L22.7403 20.265C22.7326 20.3307 22.7242 20.3964 22.7165 20.4628C22.6512 20.4628 22.5852 20.4628 22.5199 20.4628C22.4032 20.4628 22.2865 20.4628 22.1705 20.4613C22.1698 20.4613 22.1652 20.4613 22.1644 20.4613C21.9532 20.4613 21.7989 20.5973 21.7705 20.8076C21.7582 20.9007 21.7428 20.9929 21.7259 21.0906C21.7206 21.1235 21.7144 21.1563 21.709 21.1899L21.4449 22.7935L21.0917 24.938C21.0817 24.9967 21.0594 25.1335 21.1608 25.2555C21.2621 25.3774 21.3988 25.3774 21.4564 25.3774H21.5286H21.7567H21.9847C22.0354 25.3774 22.0853 25.3774 22.136 25.3774C22.1137 25.5666 22.0891 25.7683 22.0623 25.9904C22.0446 26.135 22.1053 26.2296 22.1437 26.2734C22.1813 26.3172 22.2658 26.3899 22.4063 26.3899C22.4093 26.3899 22.4147 26.3899 22.4178 26.3899H22.4239H22.4378H22.4593H24.4027H26.3462C26.3531 26.3899 26.36 26.3899 26.3669 26.3899H26.3746C26.3823 26.3907 26.39 26.3907 26.3976 26.3907C26.4982 26.3907 26.5904 26.3516 26.6564 26.2796C26.7232 26.2077 26.7562 26.1092 26.7493 26.0037L26.7463 25.9607C26.744 25.9208 26.7409 25.8817 26.7394 25.8418C26.737 25.7691 26.7347 25.6956 26.7324 25.6229C26.7301 25.5424 26.7278 25.4611 26.7248 25.379C26.7317 25.379 26.7378 25.379 26.7447 25.379C26.7808 25.379 26.8169 25.379 26.8522 25.379H26.9782H27.2047C27.2054 25.3845 27.2054 25.3907 27.2062 25.3962L27.2085 25.4235C27.2139 25.4861 27.2193 25.5479 27.2246 25.6104C27.2369 25.7504 27.2492 25.8942 27.26 26.0357C27.2753 26.2484 27.4274 26.3915 27.637 26.3915C27.6378 26.3915 27.6408 26.3915 27.6416 26.3915C27.7453 26.3907 27.8482 26.3907 27.951 26.3907H28.1292H28.3081H28.5884H28.8686C29.1059 26.3907 29.3432 26.3907 29.5805 26.3907C29.6327 26.3907 29.7709 26.3907 29.8723 26.2695C29.9728 26.1491 29.9506 26.0107 29.9421 25.9591C29.8953 25.6698 29.8484 25.3805 29.8008 25.0913C29.7617 24.8544 29.6327 24.7441 29.3954 24.7441H28.4264H27.776C27.7652 24.6011 27.7537 24.4611 27.7422 24.3251C27.7276 24.1507 27.7122 23.9764 27.6976 23.802C27.6838 23.6418 27.67 23.4807 27.6562 23.3204C27.6431 23.1664 27.6308 23.0132 27.6178 22.8591C27.6047 22.7004 27.5917 22.5417 27.5786 22.383C27.5648 22.2165 27.485 22.0187 27.1862 22.0187H25.9891H24.8274C24.8204 22.0187 24.8143 22.0187 24.8074 22.0187H24.7997C24.7959 22.0187 24.7897 22.0187 24.7844 22.0187C24.5862 22.0187 24.4373 22.168 24.4311 22.3728C24.4281 22.4776 24.4242 22.5816 24.4212 22.6856C24.4173 22.8044 24.4135 22.9233 24.4096 23.0421C24.4081 23.1023 24.4043 23.229 24.5049 23.3353C24.6054 23.4408 24.7306 23.4416 24.7905 23.4416H24.9279C24.9963 23.4416 25.0646 23.4416 25.1337 23.4416C25.1522 23.4416 25.1714 23.4416 25.1898 23.4416C25.189 23.8716 25.1898 24.3071 25.1906 24.7434H25.0477H24.9011H24.5778H24.2415C24.0656 24.7434 23.8906 24.7434 23.7147 24.7434C23.7232 24.6456 23.7308 24.5479 23.7385 24.4525L23.75 24.3141C23.76 24.1945 23.7692 24.0749 23.7792 23.9553C23.7892 23.8286 23.8 23.7012 23.8099 23.5745C23.8215 23.4354 23.833 23.2962 23.8453 23.1562C23.8545 23.0452 23.8645 22.9342 23.8737 22.824C23.8821 22.727 23.8898 22.6301 23.8975 22.5339C23.9059 22.433 23.9136 22.3322 23.922 22.2313C23.9412 22.0038 23.9604 21.7771 23.9796 21.5496L23.9842 21.4925C23.9896 21.4323 23.995 21.3721 24.0004 21.3111C24.0065 21.2423 24.0127 21.172 24.0188 21.1016C24.2154 21.1016 24.4119 21.1024 24.6085 21.1024C24.7982 21.1024 24.9878 21.1024 25.1783 21.1016C25.1783 21.1118 25.1783 21.1227 25.1783 21.1329C25.1783 21.2236 25.1783 21.3135 25.1775 21.4042C25.176 21.5457 25.2328 21.634 25.2812 21.6841C25.3295 21.7341 25.4163 21.7935 25.5553 21.7935C25.8179 21.7927 26.079 21.7927 26.3401 21.7927C26.6027 21.7927 26.8653 21.7927 27.1271 21.7935C27.2715 21.7935 27.359 21.7294 27.4074 21.6755C27.455 21.6223 27.5095 21.5285 27.4972 21.3854C27.4811 21.2111 27.465 21.0242 27.4512 20.8366C27.435 20.6192 27.2792 20.4722 27.0634 20.4722C27.0619 20.4722 27.058 20.4722 27.0572 20.4722C26.9474 20.4738 26.8384 20.4738 26.7286 20.4738H26.6234H26.5251C26.5213 20.3839 26.5174 20.2971 26.5167 20.2103C26.5167 20.1697 26.5159 20.0938 26.4775 20.0094C26.4276 19.896 26.3186 19.8256 26.1988 19.8256Z" fill="#903C14"/>
<path d="M25.4854 20.8444C25.4854 20.7998 25.4854 20.756 25.4854 20.7115C25.4862 20.6599 25.4701 20.6427 25.4178 20.6427C24.8788 20.6442 24.3398 20.6442 23.8007 20.6427C23.7562 20.6427 23.7331 20.6536 23.7293 20.7036C23.7139 20.9093 23.6948 21.1141 23.6771 21.3189C23.6564 21.5652 23.6349 21.8123 23.6141 22.0586C23.5972 22.2564 23.5819 22.4542 23.565 22.6512C23.5443 22.9014 23.522 23.1516 23.5013 23.4017C23.4805 23.648 23.4613 23.8951 23.4414 24.1413C23.4222 24.3751 23.4045 24.6081 23.3807 24.8411C23.3784 24.8677 23.3807 24.8841 23.3891 24.8942C23.4083 24.691 23.4245 24.4869 23.4414 24.2836C23.4613 24.0374 23.4805 23.7903 23.5013 23.544C23.522 23.2938 23.5435 23.0437 23.565 22.7935C23.5819 22.5957 23.5972 22.3979 23.6141 22.2008C23.6349 21.9546 23.6556 21.7075 23.6771 21.4612C23.6948 21.2564 23.7139 21.0508 23.7293 20.8459C23.7331 20.7951 23.7554 20.7842 23.8007 20.785C24.3398 20.7857 24.8788 20.7865 25.4178 20.785C25.4662 20.785 25.4839 20.8006 25.4854 20.8444Z" fill="#FFE941"/>
<path d="M25.4962 23.0554C25.4962 23.0014 25.4793 22.9819 25.4255 22.9827C25.2136 22.985 25.0017 22.9835 24.7897 22.9835C24.7421 22.9835 24.7245 22.9819 24.7183 22.96C24.7176 22.9897 24.716 23.0186 24.7152 23.0483C24.7129 23.1226 24.7168 23.125 24.7897 23.125C25.0017 23.125 25.2136 23.1265 25.4255 23.1242C25.4793 23.1234 25.4962 23.1437 25.4962 23.1969C25.4954 23.7457 25.4962 24.2954 25.4969 24.8442C25.4969 24.8434 25.4969 24.8426 25.4969 24.8419C25.4954 24.2469 25.4946 23.6511 25.4962 23.0554Z" fill="#FFE941"/>
<path d="M27.1287 21.3354C26.6042 21.3346 26.0805 21.3338 25.5561 21.3354C25.5062 21.3354 25.4862 21.3182 25.4847 21.2713C25.4847 21.3158 25.4847 21.3604 25.4847 21.4049C25.4839 21.4589 25.5031 21.4777 25.5561 21.4777C26.0805 21.4761 26.6042 21.4761 27.1287 21.4777C27.177 21.4777 27.1962 21.4612 27.1916 21.4112C27.1886 21.3791 27.1862 21.3479 27.1832 21.3158C27.1732 21.3299 27.1555 21.3354 27.1287 21.3354Z" fill="#FFE941"/>
<path d="M26.3915 25.9333C26.3769 25.9325 26.3616 25.9333 26.347 25.9333C25.0516 25.9333 23.7554 25.9333 22.46 25.9333C22.4431 25.9333 22.4262 25.9325 22.4101 25.9333C22.3963 25.9333 22.3871 25.931 22.3794 25.9263C22.3756 25.9599 22.3717 25.9943 22.3671 26.0279C22.3625 26.0646 22.3771 26.0764 22.4093 26.0756C22.4262 26.0748 22.4431 26.0756 22.4593 26.0756C23.7546 26.0756 25.0508 26.0756 26.3462 26.0756C26.3608 26.0756 26.3761 26.0748 26.3907 26.0756C26.4291 26.0779 26.4453 26.0592 26.443 26.0216C26.4406 25.9857 26.4383 25.9497 26.436 25.9138C26.4291 25.927 26.4153 25.9349 26.3915 25.9333Z" fill="#FFE941"/>
<path d="M29.625 25.9286C29.615 25.9317 29.6012 25.9325 29.5797 25.9325C29.1558 25.9325 28.732 25.9325 28.3081 25.9325C28.0854 25.9325 27.862 25.9317 27.6393 25.9333C27.5901 25.9341 27.5702 25.9184 27.5663 25.8668C27.551 25.6612 27.5326 25.4564 27.5149 25.2515C27.5088 25.1788 27.5026 25.1061 27.4972 25.0326C27.488 25.0186 27.4857 24.9943 27.4826 24.9521C27.4819 24.9458 27.4819 24.9396 27.4811 24.9333C27.4688 24.92 27.4481 24.9208 27.4274 24.9208C27.2362 24.9208 27.0442 24.9208 26.853 24.9208C26.7263 24.9208 26.6004 24.9224 26.4737 24.92C26.4222 24.9193 26.4038 24.9286 26.4069 24.9888C26.4084 25.0217 26.4099 25.0545 26.4115 25.0866C26.4199 25.0655 26.4391 25.0608 26.4737 25.0616C26.6004 25.0639 26.7263 25.0623 26.853 25.0623C27.0442 25.0623 27.2362 25.0623 27.4274 25.0623C27.4573 25.0623 27.488 25.06 27.4919 25.1046C27.4988 25.2007 27.5072 25.2969 27.5149 25.3923C27.5326 25.5971 27.551 25.8027 27.5663 26.0076C27.5702 26.0592 27.5901 26.074 27.6393 26.074C27.862 26.0717 28.0854 26.0732 28.3081 26.0732C28.732 26.0732 29.1558 26.0732 29.5797 26.0732C29.6442 26.0732 29.648 26.0678 29.6381 26.0052C29.6334 25.981 29.6296 25.9552 29.625 25.9286Z" fill="#FFE941"/>
<path d="M22.4646 25.0662C22.4654 25.06 22.4662 25.053 22.4669 25.0467C22.4846 24.8911 22.4861 24.9224 22.3648 24.9216C22.0615 24.92 21.759 24.9208 21.4556 24.9208C21.4318 24.9208 21.4157 24.92 21.405 24.9161C21.4011 24.9404 21.3973 24.9638 21.3935 24.9881C21.3819 25.0576 21.3858 25.0631 21.4556 25.0631C21.759 25.0631 22.0615 25.0623 22.3648 25.0639C22.4209 25.0647 22.4508 25.0584 22.4646 25.0662Z" fill="#FFE941"/>
<path d="M24.4772 11C18.1796 11 13 14.4063 13 18.7681V23.509L13.0832 23.509L13.0933 23.5684C13.8249 27.5825 18.8174 30.8879 24.4772 30.8879L24.6557 30.8868C30.2416 30.8183 35.1372 27.5403 35.8611 23.5684L35.8712 23.509L35.9544 23.509V18.7681C35.9544 14.4065 30.7743 11 24.4772 11ZM24.648 12.2453C30.2727 12.3043 34.7322 15.2719 34.7322 18.7681V22.6825L34.7213 22.8445C34.4837 26.3951 29.8554 29.6435 24.4772 29.6435L24.3161 29.6425C19.0069 29.5785 14.4683 26.3596 14.2331 22.8445L14.2222 22.6825V18.7681C14.2222 15.2364 18.7718 12.2444 24.4772 12.2444L24.648 12.2453Z" fill="#903C14"/>
<path d="M24.4764 11.6214C18.4748 11.6214 13.6103 14.8207 13.6103 18.7674C13.6103 22.714 18.4756 25.9133 24.4764 25.9133C30.4781 25.9133 35.3425 22.714 35.3425 18.7674C35.3433 14.8215 30.4781 11.6214 24.4764 11.6214ZM24.4764 23.0619C20.0359 23.0619 16.4369 21.1113 16.4369 18.2748C16.4369 15.4391 20.0366 13.1398 24.4764 13.1398C28.917 13.1398 32.516 15.4383 32.516 18.2748C32.5168 21.1105 28.917 23.0619 24.4764 23.0619Z" fill="url(#paint4_linear)"/>
<path opacity="0.54" d="M25.9108 24.581C26.1051 24.825 26.2364 25.3574 26.3224 25.6467C26.3316 25.6772 26.3477 25.7139 26.3838 25.7178C26.4184 25.7217 26.4514 25.6905 26.4844 25.6998C26.4982 25.7037 26.5105 25.7139 26.5251 25.7139C26.5535 25.7139 26.5612 25.6795 26.5589 25.6537C26.5458 25.495 26.4399 25.0017 26.4821 24.8469C26.5405 25.0157 26.6656 25.5161 26.724 25.685C26.7132 25.6545 26.0022 25.9618 25.9101 25.717C25.8187 25.4723 25.9177 24.8383 25.9108 24.581Z" fill="#FDDB39"/>
<path opacity="0.54" d="M24.468 12.9076C19.9752 12.9076 16.3332 15.3226 16.3332 18.1067C16.3332 20.8908 19.9752 23.1487 24.468 23.1487C28.9608 23.1487 32.6028 20.8916 32.6028 18.1067C32.6028 15.3226 28.9608 12.9076 24.468 12.9076ZM24.5179 23.0166C20.1142 23.0166 16.5444 20.8267 16.5444 18.1247C16.5444 15.4227 20.1142 13.2328 24.5179 13.2328C28.9216 13.2328 32.4914 15.4227 32.4914 18.1247C32.4914 20.8267 28.9216 23.0166 24.5179 23.0166Z" fill="#FDDB39"/>
<path d="M34.9525 20.6688C34.9525 20.6688 34.9525 20.668 34.9517 20.668C34.7951 21.0433 34.5923 21.4053 34.3489 21.7532C34.3359 21.7719 34.3213 21.7907 34.3082 21.8095C34.2622 21.8736 34.2161 21.9369 34.1677 21.9994C34.1424 22.0323 34.1155 22.0651 34.0894 22.0972C34.051 22.1449 34.0126 22.1926 33.9727 22.2402C33.9389 22.2801 33.9036 22.3192 33.869 22.3591C33.8344 22.3982 33.7999 22.4365 33.7646 22.4748C33.7239 22.5186 33.6824 22.5624 33.6402 22.6054C33.6079 22.6382 33.5764 22.671 33.5434 22.7039C33.4974 22.75 33.4497 22.7953 33.4021 22.8407C31.4402 24.6975 28.176 25.9148 24.4772 25.9148C20.7784 25.9148 17.5142 24.6983 15.5523 22.8407C15.5047 22.7953 15.4571 22.75 15.411 22.7039C15.378 22.671 15.3465 22.6382 15.3142 22.6054C15.272 22.5624 15.2305 22.5186 15.1898 22.4748C15.1545 22.4365 15.12 22.3974 15.0854 22.3591C15.0509 22.32 15.0155 22.2801 14.9818 22.2402C14.9418 22.1933 14.9034 22.1449 14.865 22.0972C14.8389 22.0643 14.8121 22.0323 14.7867 21.9994C14.7383 21.9369 14.6915 21.8728 14.6462 21.8095C14.6324 21.7907 14.6186 21.7719 14.6055 21.7532C14.3621 21.4053 14.1601 21.0433 14.0027 20.668C14.0027 20.668 14.0027 20.6688 14.002 20.6688C13.7478 20.0636 13.6111 19.4264 13.6111 18.7681V22.8868H13.6234C13.8776 26.6849 18.6391 30.2657 24.4772 30.2657C30.3153 30.2657 35.0769 26.6849 35.331 22.8868H35.3433V18.7681C35.3433 19.4264 35.2059 20.0636 34.9525 20.6688Z" fill="#F28D2C"/>
<path d="M32.5168 18.2748C32.5168 21.1105 28.917 23.0619 24.4772 23.0619C20.0366 23.0619 16.4376 21.1113 16.4376 18.2748C16.4376 15.4383 20.0374 13.1398 24.4772 13.1398C28.917 13.1398 32.5168 15.4391 32.5168 18.2748Z" fill="#F8AC32"/>
<path opacity="0.9" d="M24.4764 14.7104C28.388 14.7104 31.6645 16.2327 32.516 18.2772C32.516 18.2764 32.516 18.2756 32.516 18.2748C32.516 15.4391 28.9163 13.1398 24.4764 13.1398C20.0359 13.1398 16.4369 15.4383 16.4369 18.2748C16.4369 18.2756 16.4369 18.2764 16.4369 18.2772C17.2892 16.2334 20.5649 14.7104 24.4764 14.7104Z" fill="#D5761F"/>
<path d="M34.8711 24.1065C34.5332 24.936 34.1431 25.6756 33.4697 26.3237C32.9238 26.8491 32.4661 27.3253 31.8096 27.7428C31.4756 27.9554 31.1415 28.2025 30.7645 28.3479C30.5595 28.4269 29.5183 29.1016 29.314 28.9741C29.215 28.9116 29.3178 28.3104 29.3163 28.2025C29.3063 27.4425 29.3324 26.6818 29.3954 25.9234C29.4092 25.7546 29.4384 25.563 29.5943 25.4645C29.7701 26.108 29.9836 27.2182 30.1587 27.8616C30.3821 26.8194 30.4766 25.0087 30.5403 24.9806C30.6117 24.9493 30.9104 26.8812 31.0456 27.2799C31.2275 26.8139 31.2567 25.4919 31.3059 25.0079C31.3197 24.8758 31.332 24.7358 31.4203 24.6295C31.4886 24.5482 31.5923 24.4974 31.6921 24.4473C32.4569 24.0658 33.3008 23.445 33.9082 22.8821C34.4342 22.395 35.3249 20.6649 35.2466 20.4155C35.2473 20.4147 35.3387 22.9595 34.8711 24.1065Z" fill="#D2571C"/>
<path d="M14.4704 24.8789C14.7069 25.2229 15.0616 25.889 15.3595 26.1932C16.0829 26.932 16.7517 27.6419 17.7392 28.0758C18.1907 28.3268 20.0159 29.4987 17.7323 27.3292C16.1743 25.8484 15.9554 25.3488 15.0209 23.5795C14.7476 23.0619 14.0319 21.3232 13.7585 20.8056C13.6764 21.0949 13.8108 21.3583 13.8223 21.6445C13.8369 22.0151 13.7716 22.3849 13.8 22.7586C13.8545 23.4701 14.0488 24.2667 14.4704 24.8789Z" fill="#D2571C"/>
<path d="M24.4764 13.687C26.5243 13.687 28.4417 14.1913 29.8761 15.1076C31.2321 15.9739 31.9793 17.0982 31.9793 18.2748C31.9793 19.428 31.2375 20.503 29.8914 21.3028C28.4809 22.141 26.5581 22.6022 24.4772 22.6022C22.3963 22.6022 20.4735 22.141 19.063 21.3028C17.7161 20.503 16.9751 19.428 16.9751 18.2748C16.9751 17.0982 17.7223 15.9739 19.0783 15.1076C20.5112 14.1913 22.4285 13.687 24.4764 13.687ZM24.4764 13.1398C20.0359 13.1398 16.4369 15.4383 16.4369 18.2748C16.4369 21.1105 20.0366 23.1487 24.4764 23.1487C28.917 23.1487 32.516 21.1105 32.516 18.2748C32.5168 15.4391 28.917 13.1398 24.4764 13.1398Z" fill="#903C14"/>
<path opacity="0.54" d="M24.3628 11.8935C30.3783 11.8935 35.255 15.2773 35.255 19.4522C35.255 19.5406 35.2519 19.6289 35.2473 19.7165C35.3103 19.4061 35.3425 19.0895 35.3425 18.7674C35.3425 14.8207 30.4773 11.6214 24.4764 11.6214C18.8741 11.6214 14.2623 14.4102 13.6741 17.9918C14.6546 14.5158 19.0668 11.8935 24.3628 11.8935Z" fill="#FDDB39"/>
<path opacity="0.78" d="M24.4764 25.5067C19.42 25.5067 15.1607 23.4708 13.8776 20.3482C14.9718 23.5342 19.301 25.9141 24.4764 25.9141C29.6519 25.9141 33.9819 23.5342 35.0753 20.3482C33.7922 23.4701 29.5336 25.5067 24.4764 25.5067Z" fill="#FFE941"/>
<path d="M22.6512 25.8523C22.7702 25.8015 22.91 25.8038 23.0367 25.8023C23.2417 25.7999 23.4475 25.7905 23.6518 25.7733C23.6809 25.7381 23.6356 25.6897 23.5949 25.6709C23.4798 25.6177 23.3523 25.599 23.2264 25.5802C23.0643 25.5568 22.9023 25.5325 22.7395 25.5091C22.6412 25.4942 22.5383 25.4786 22.4562 25.4215C22.2704 25.2925 22.2143 25.0509 22.0139 24.936C21.8119 24.8195 21.5754 24.782 21.3466 24.7726C20.8414 24.7523 20.3353 24.8633 19.8324 24.7695C19.0031 24.6154 18.1615 24.2699 17.3813 23.9509C17.3568 24.0369 17.4374 24.1135 17.5096 24.1651C18.2237 24.6796 18.9509 25.187 19.751 25.5466C20.5511 25.9062 21.4365 26.115 22.3049 26.004C22.4508 25.9852 22.5207 25.9078 22.6482 25.8531C22.6497 25.8531 22.6505 25.8531 22.6512 25.8523Z" fill="#FFF6CF"/>
<path d="M28.1476 29.8482C28.1476 30.0007 28.0447 25.52 28.047 25.52C28.047 25.52 27.2891 24.7593 27.015 24.3402C27.2408 25.0157 27.4258 25.7342 27.4051 26.4387C27.3728 27.5278 27.4381 28.9116 27.4059 30.0015C27.6692 29.9929 27.9065 29.946 28.1476 29.8482Z" fill="#903C14"/>
<path opacity="0.78" d="M27.0319 24.3246C27.1217 24.5318 27.2799 24.7085 27.4381 24.8797C27.6178 25.0752 27.7998 25.269 27.9841 25.4614C28.0847 25.5669 28.2559 25.4669 28.1338 25.3519C28.0178 25.2432 27.8904 25.1416 27.7721 25.0337C27.5203 24.8023 27.273 24.5662 27.0319 24.3246Z" fill="#FFEC9D"/>
<path d="M20.0328 23.2472C20.1956 23.0627 20.4674 22.7031 20.6079 22.5061C20.4759 22.3958 20.2516 22.4044 20.2516 22.4044C20.2516 22.4044 20.0581 23.2183 20.0328 23.2472Z" fill="#903C14"/>
<path opacity="0.15" d="M16.4799 18.8057L13.8545 20.2794C14.4903 22.2207 16.3248 23.8688 18.8242 24.8719L21.5117 22.75C18.7865 22.1472 16.7932 20.7102 16.4799 18.8057Z" fill="url(#paint5_linear)"/>
<path opacity="0.15" d="M30.991 15.2655L32.5821 14.0091C31.4502 13.1757 30.0251 12.5182 28.4141 12.1054L26.3278 13.2766C28.2336 13.5635 29.8776 14.2836 30.991 15.2655Z" fill="url(#paint6_linear)"/>
<path d="M26.9474 14.5455C27.1356 14.59 27.3137 14.6721 27.4757 14.8199C27.5349 14.8738 27.5901 14.9341 27.6546 14.9817C27.9603 15.2077 27.9342 15.572 27.9633 15.9223C27.9679 15.9778 28.0378 16.9363 28.0447 17.0231C28.0716 17.3687 28.0969 17.7142 28.1238 18.0598C28.1522 18.4304 28.1822 18.801 28.2106 19.1716C28.2275 19.3944 28.2436 19.6172 28.259 19.84C28.2666 19.9479 28.2682 19.9518 28.3649 19.9518C28.9762 19.9518 29.5881 19.9518 30.1994 19.9518C30.2884 19.9518 30.2892 19.9518 30.3038 20.0464C30.3522 20.3662 30.3998 20.686 30.4474 21.0057C30.4574 21.0753 30.4535 21.0808 30.3883 21.0808C29.9583 21.0808 29.5275 21.0808 29.0975 21.0808C28.871 21.0808 28.6444 21.0792 28.4179 21.0816C28.368 21.0824 28.348 21.0652 28.3442 21.0081C28.3288 20.7814 28.3096 20.5546 28.292 20.3271C28.2835 20.2208 28.2751 20.1145 28.2682 20.0081C28.2651 19.9581 28.2336 19.9612 28.2029 19.9612C28.0086 19.9612 27.8144 19.9612 27.6193 19.9612C27.4911 19.9612 27.3629 19.9628 27.2346 19.9604C27.1824 19.9589 27.164 19.9698 27.1671 20.037C27.1801 20.3021 27.1855 20.5671 27.1939 20.833C27.1962 20.8955 27.2001 20.958 27.2039 21.0206C27.2062 21.0628 27.1901 21.0831 27.1509 21.0808C27.1356 21.08 27.121 21.0808 27.1056 21.0808C25.7903 21.0808 24.4741 21.0808 23.1588 21.0808C23.1419 21.0808 23.125 21.08 23.1081 21.0808C23.0751 21.0816 23.0605 21.0683 23.0651 21.0284C23.0997 20.7196 23.1342 20.41 23.1665 20.1012C23.1849 19.9292 23.1864 19.9643 23.0628 19.9636C22.7549 19.962 22.4477 19.9628 22.1398 19.9628C22.0692 19.9628 22.0646 19.9573 22.0761 19.8799C22.2849 18.4984 22.4946 17.1161 22.7034 15.7346C22.7249 15.59 22.7495 15.4461 22.7672 15.3015C22.7756 15.2343 22.8033 15.2179 22.8608 15.2179C23.1135 15.221 23.3669 15.2194 23.6195 15.2186C23.6948 15.2186 23.6963 15.2155 23.7055 15.1311C23.7278 14.9255 23.75 14.7206 23.7723 14.515C24.448 14.515 25.1245 14.515 25.8002 14.515C26.1849 14.5142 26.5842 14.4595 26.9474 14.5455Z" fill="#D5761F"/>
<path d="M29.7717 20.3279C29.7348 20.1043 29.6181 20.0042 29.3939 20.0042H28.4901H28.3304H27.7483C27.7368 19.8533 27.7245 19.704 27.713 19.5594C27.6984 19.3834 27.6831 19.2075 27.6677 19.0316C27.6539 18.8721 27.6401 18.7134 27.627 18.5539C27.614 18.4015 27.6017 18.249 27.5894 18.0958C27.5763 17.9363 27.5633 17.776 27.5494 17.6165C27.5441 17.5563 27.5349 17.4437 27.4389 17.3585C27.349 17.278 27.25 17.278 27.1847 17.278H26.0053H24.8258C24.8197 17.278 24.8128 17.278 24.8066 17.278H24.7982C24.7936 17.278 24.7882 17.278 24.7828 17.278C24.6001 17.278 24.4634 17.4156 24.458 17.6048C24.4549 17.7088 24.4511 17.8135 24.448 17.9175C24.4442 18.0363 24.4404 18.1552 24.4365 18.274C24.435 18.3311 24.4311 18.4492 24.524 18.5461C24.617 18.643 24.7337 18.643 24.7897 18.6438H24.9249C24.994 18.6438 25.0631 18.6438 25.1322 18.6438C25.1606 18.6438 25.1883 18.6438 25.2167 18.6438C25.2159 19.0926 25.2167 19.5476 25.2174 20.0026C25.2098 20.0026 25.2021 20.0026 25.1944 20.0026C25.1453 20.0026 25.0961 20.0026 25.0462 20.0026C24.9971 20.0026 24.9487 20.0026 24.8995 20.0026H24.5701H24.2407C24.0549 20.0026 23.8691 20.0026 23.6832 20.0026C23.6924 19.8948 23.7017 19.7876 23.7101 19.6821L23.7216 19.5422C23.7316 19.4225 23.7408 19.3021 23.7508 19.1825C23.7608 19.0559 23.7708 18.9292 23.7815 18.8025C23.793 18.6618 23.8053 18.5211 23.8168 18.3796C23.8261 18.2701 23.8353 18.1607 23.8445 18.052C23.8529 17.955 23.8606 17.8589 23.8683 17.7619C23.8767 17.6611 23.8844 17.5602 23.8936 17.4594C23.9136 17.2217 23.9336 16.984 23.9543 16.7463L23.9566 16.7205C23.962 16.6595 23.9673 16.5993 23.9727 16.5384C23.9796 16.461 23.9865 16.3828 23.9927 16.3038C24.1977 16.3038 24.4027 16.3046 24.6085 16.3046C24.8074 16.3046 25.007 16.3046 25.2059 16.3038C25.2059 16.3241 25.2059 16.3437 25.2059 16.364C25.2059 16.4531 25.2059 16.5454 25.2051 16.6353C25.2036 16.7667 25.2566 16.8487 25.3011 16.8949C25.3457 16.941 25.4263 16.9957 25.5553 16.9957C25.8179 16.995 26.079 16.995 26.3401 16.995C26.6027 16.995 26.8653 16.995 27.1279 16.9957C27.2623 16.9957 27.3429 16.9371 27.3874 16.8871C27.4312 16.8378 27.4819 16.751 27.4696 16.6189C27.4535 16.4445 27.4373 16.2569 27.4235 16.07C27.4082 15.8683 27.2638 15.7323 27.0642 15.7323H27.0588C26.9436 15.7339 26.8277 15.7339 26.7294 15.7339H26.6234H26.5174C26.5113 15.7339 26.5051 15.7339 26.499 15.7339C26.4944 15.6346 26.4906 15.5384 26.4898 15.4422C26.4898 15.4039 26.489 15.332 26.4529 15.2538L26.3785 15.0889H26.1995H23.0651H22.8178L22.7879 15.339L22.7687 15.4993C22.7595 15.5751 22.751 15.6502 22.7418 15.726C22.6681 15.726 22.5944 15.726 22.5199 15.726C22.3832 15.726 22.2719 15.7253 22.1698 15.7245H22.1636C21.964 15.7245 21.8242 15.848 21.7974 16.0458C21.7851 16.1388 21.7697 16.2311 21.7528 16.3288C21.7474 16.3625 21.7413 16.3953 21.7359 16.4289L21.4441 18.199L21.1178 20.177C21.1086 20.2317 21.0878 20.3592 21.1808 20.471C21.2737 20.5828 21.4011 20.5828 21.4556 20.5828H21.5278H21.7559H21.9832C22.0446 20.5828 22.1053 20.5828 22.1667 20.5828C22.1437 20.7806 22.1176 20.9932 22.0891 21.227C22.073 21.3599 22.1291 21.4475 22.1636 21.4873C22.1982 21.5272 22.2757 21.5945 22.4055 21.5945C22.4093 21.5945 22.4132 21.5945 22.417 21.5945H22.4232H22.4378C22.4447 21.5945 22.4523 21.5945 22.4593 21.5945H24.5525H25.4493H26.3462C26.3531 21.5945 26.36 21.5945 26.3669 21.5945H26.3754C26.3831 21.5952 26.3907 21.5952 26.3976 21.5952C26.4906 21.5952 26.5758 21.5593 26.6365 21.4936C26.6979 21.4271 26.7286 21.3364 26.7225 21.2387L26.7202 21.1973C26.7171 21.1551 26.7148 21.1152 26.7132 21.0769C26.7109 21.0034 26.7086 20.9291 26.7063 20.8556C26.7033 20.7665 26.701 20.6758 26.6971 20.5843C26.7132 20.5843 26.7294 20.5843 26.7455 20.5843C26.7816 20.5843 26.8169 20.5843 26.853 20.5843H26.9889H27.2316C27.2331 20.5992 27.2339 20.6133 27.2354 20.6273L27.2377 20.6547C27.2431 20.7172 27.2484 20.779 27.2538 20.8416C27.2661 20.9815 27.2784 21.1261 27.2891 21.2676C27.3037 21.4647 27.4443 21.5968 27.6385 21.5968H27.6401H27.6431C27.746 21.596 27.8497 21.596 27.9533 21.596C28.0125 21.596 28.0716 21.596 28.1315 21.596C28.1914 21.596 28.2505 21.596 28.3104 21.596H28.3473H28.6045H28.8195C29.0092 21.596 29.1942 21.596 29.4269 21.596C29.4799 21.596 29.605 21.596 29.6972 21.485C29.7893 21.374 29.7686 21.2458 29.7609 21.1973C29.744 21.0917 29.7563 20.9698 29.7701 20.8416C29.7832 20.686 29.8024 20.5116 29.7717 20.3279Z" fill="#D2571C"/>
<path d="M27.637 20.8986C27.5088 20.8986 27.4228 20.8181 27.4128 20.6875C27.402 20.5437 27.3897 20.4006 27.3774 20.2575L27.359 20.0464C27.3544 19.9933 27.3498 19.9393 27.346 19.8862H26.853L26.6349 19.8869C26.6119 19.8869 26.5888 19.8869 26.5658 19.8869C26.572 20.023 26.5758 20.1567 26.5804 20.2872C26.5827 20.3623 26.585 20.4373 26.5881 20.5124C26.5896 20.5546 26.5927 20.5976 26.595 20.6398L26.5973 20.6781C26.6019 20.7579 26.572 20.8087 26.5451 20.8376C26.5082 20.8775 26.456 20.8994 26.3984 20.8994C26.3953 20.8994 26.3854 20.8994 26.3823 20.8986H26.3477H22.4147C22.331 20.8986 22.2849 20.8642 22.2596 20.8353C22.2343 20.8064 22.2059 20.7548 22.2158 20.675C22.2481 20.4123 22.2796 20.1504 22.3103 19.8869C22.1966 19.8862 22.0861 19.8862 21.9763 19.8862H21.458C21.4119 19.8862 21.3343 19.8862 21.279 19.8197C21.2238 19.7532 21.2368 19.6758 21.2437 19.6297L21.8619 15.8816L21.8787 15.7816C21.8949 15.687 21.911 15.59 21.9233 15.4946C21.9317 15.4313 21.9717 15.2835 22.1652 15.2835C22.2857 15.2851 22.4017 15.2851 22.5176 15.2851L22.8539 15.2843C22.8662 15.1764 22.9131 14.7855 22.9131 14.7855C22.9223 14.7073 22.9875 14.6479 23.0659 14.6479H26.2003C26.2602 14.6479 26.3147 14.6831 26.3401 14.7386C26.3646 14.7918 26.3646 14.8418 26.3654 14.8746C26.3662 14.9958 26.3723 15.1201 26.3785 15.2405L26.3808 15.2929C26.4307 15.2929 26.7286 15.2929 26.7286 15.2929C26.8392 15.2929 26.9505 15.2929 27.0611 15.2913C27.2016 15.2913 27.2899 15.3734 27.2999 15.511C27.3137 15.6948 27.3298 15.8785 27.3467 16.0622C27.3544 16.1482 27.3237 16.2022 27.2968 16.2327C27.2569 16.2772 27.2016 16.2991 27.131 16.2991C26.8684 16.2983 26.6057 16.2983 26.3439 16.2983C26.0821 16.2983 25.8202 16.2983 25.5584 16.2991C25.4885 16.2991 25.4332 16.278 25.3925 16.2366C25.3518 16.1951 25.3318 16.1381 25.3326 16.0685C25.3334 15.977 25.3334 15.8863 25.3334 15.7956C25.3334 15.7331 25.3334 15.6705 25.3334 15.608C25.0877 15.6088 24.8435 15.6088 24.5993 15.6088C24.359 15.6088 24.1186 15.6088 23.879 15.608C23.8698 15.7221 23.8598 15.8371 23.8499 15.9512L23.833 16.142C23.8115 16.3883 23.7907 16.6345 23.77 16.8816L23.7209 17.4742C23.7209 17.4742 23.6694 18.084 23.6571 18.2248C23.6471 18.3483 23.5857 19.1012 23.5857 19.1012C23.5734 19.2529 23.5611 19.4077 23.5466 19.5625C23.7761 19.5625 24.9011 19.5625 24.9011 19.5625L25.1967 19.5617C25.2458 19.5617 25.295 19.5617 25.3441 19.5625C25.3426 19.023 25.3426 18.4851 25.3434 17.9472C25.2727 17.948 25.2028 17.948 25.133 17.948L24.7905 17.9472C24.7398 17.9472 24.6707 17.9472 24.6147 17.8886C24.5586 17.8299 24.5609 17.7572 24.5624 17.7088C24.5655 17.5907 24.5701 17.4719 24.574 17.353C24.577 17.2483 24.5809 17.1443 24.5839 17.0395C24.5878 16.9199 24.6692 16.8362 24.7836 16.8362C24.7859 16.8362 27.1855 16.8362 27.1855 16.8362C27.3444 16.8362 27.4112 16.898 27.4251 17.0575C27.4389 17.2186 27.4896 17.8432 27.5026 17.9949C27.5157 18.1544 27.5295 18.3131 27.5433 18.4718C27.5587 18.6477 27.5733 18.8236 27.5886 18.9996C27.604 19.1872 27.6193 19.3741 27.6331 19.5617H29.3946C29.5582 19.5617 29.6227 19.6164 29.6488 19.7783C29.6964 20.0675 29.7432 20.3568 29.7901 20.6461C29.797 20.6875 29.8093 20.7641 29.7548 20.8298C29.7002 20.8955 29.6219 20.8955 29.5805 20.8955H27.9503C27.8474 20.8955 27.7437 20.8955 27.6408 20.8963C27.6401 20.8986 27.6378 20.8986 27.637 20.8986Z" fill="url(#paint7_linear)"/>
<path d="M26.1988 14.805C26.2095 14.8277 26.2095 14.8527 26.2095 14.8778C26.2111 15.0482 26.2218 15.2179 26.2287 15.3875C26.231 15.4415 26.2548 15.4516 26.3001 15.4516C26.3009 15.4516 26.3017 15.4516 26.3017 15.4516C26.3731 15.4508 26.4445 15.4508 26.5167 15.4508C26.5873 15.4508 26.658 15.4508 26.7278 15.4508C26.8384 15.4508 26.949 15.4508 27.0603 15.4493C27.0611 15.4493 27.0619 15.4493 27.0634 15.4493C27.1187 15.4493 27.1402 15.4688 27.1448 15.5243C27.1586 15.7088 27.1747 15.8934 27.1916 16.0779C27.1962 16.1279 27.1763 16.1443 27.1287 16.1443C27.1287 16.1443 27.1287 16.1443 27.1279 16.1443C26.8653 16.1435 26.6027 16.1435 26.3401 16.1435C26.0782 16.1435 25.8171 16.1435 25.5553 16.1443C25.5553 16.1443 25.5553 16.1443 25.5545 16.1443C25.5015 16.1443 25.4831 16.1256 25.4839 16.0716C25.4862 15.8879 25.4831 15.7049 25.4854 15.5212C25.4862 15.4704 25.4701 15.4524 25.4186 15.4524H25.4179C25.1476 15.4532 24.8773 15.4532 24.6077 15.4532C24.339 15.4532 24.0695 15.4532 23.8007 15.4524C23.8007 15.4524 23.8007 15.4524 23.8 15.4524C23.7554 15.4524 23.7331 15.4633 23.7293 15.5134C23.714 15.719 23.6948 15.9238 23.6771 16.1287C23.6564 16.375 23.6349 16.622 23.6141 16.8683C23.5972 17.0661 23.5819 17.2639 23.565 17.4609C23.5443 17.7111 23.522 17.9613 23.5013 18.2115C23.4805 18.4578 23.4613 18.7048 23.4414 18.9511C23.4222 19.1849 23.4045 19.4178 23.3807 19.6508C23.3753 19.7071 23.3922 19.7188 23.4414 19.7188H23.4421C23.7078 19.7181 23.9727 19.7181 24.2384 19.7181C24.458 19.7181 24.6784 19.7181 24.898 19.7181C24.9963 19.7181 25.0946 19.7173 25.1929 19.7173C25.2712 19.7173 25.3495 19.7173 25.4278 19.7188C25.4286 19.7188 25.4294 19.7188 25.4309 19.7188C25.48 19.7188 25.4954 19.7001 25.4954 19.65C25.4939 19.0543 25.4931 18.4585 25.4946 17.8628C25.4946 17.8096 25.4785 17.7901 25.4263 17.7901C25.4255 17.7901 25.4248 17.7901 25.424 17.7901C25.3265 17.7909 25.2282 17.7916 25.1307 17.7916C25.0163 17.7916 24.9026 17.7909 24.7882 17.7909C24.716 17.7909 24.7114 17.7877 24.7137 17.7142C24.7199 17.4914 24.7283 17.2686 24.7352 17.0458C24.736 17.0122 24.749 16.9942 24.7813 16.9942C24.7828 16.9942 24.7844 16.9942 24.7859 16.9942C24.7897 16.9942 24.7936 16.9942 24.7974 16.9942C24.8066 16.9942 24.8158 16.9942 24.8251 16.9942C25.2121 16.9942 25.5991 16.9942 25.9868 16.9942C26.3861 16.9942 26.7854 16.9942 27.1839 16.9942C27.2623 16.9942 27.2638 16.9942 27.2707 17.0724C27.2968 17.3851 27.3222 17.697 27.3483 18.0098C27.3767 18.3444 27.4059 18.6798 27.4343 19.0144C27.4512 19.2161 27.4673 19.4171 27.4819 19.6188C27.4888 19.7165 27.4911 19.7196 27.5863 19.7196C28.1883 19.7196 28.7911 19.7196 29.3931 19.7196C29.4814 19.7196 29.4814 19.7196 29.496 19.8056C29.5436 20.0949 29.5904 20.3842 29.6373 20.6727C29.6473 20.7352 29.6434 20.7407 29.5789 20.7407C29.3417 20.7407 29.1044 20.7407 28.8671 20.7407C28.6805 20.7407 28.4939 20.7407 28.3073 20.7407C28.1883 20.7407 28.0693 20.7407 27.9503 20.7407C27.8466 20.7407 27.7422 20.7407 27.6385 20.7423C27.6378 20.7423 27.637 20.7423 27.6362 20.7423C27.5886 20.7423 27.5694 20.7266 27.5656 20.6758C27.5502 20.4702 27.5318 20.2653 27.5141 20.0605C27.5057 19.9643 27.498 19.8682 27.4911 19.7728C27.488 19.7321 27.4634 19.7306 27.4366 19.7306C27.4335 19.7306 27.4304 19.7306 27.4274 19.7306C27.2362 19.7306 27.0442 19.7306 26.853 19.7306C26.78 19.7306 26.7079 19.7314 26.6349 19.7314C26.5812 19.7314 26.5274 19.7314 26.4737 19.7298C26.4714 19.7298 26.4691 19.7298 26.4668 19.7298C26.4207 19.7298 26.4038 19.7415 26.4069 19.7994C26.4199 20.0386 26.4245 20.2786 26.433 20.5187C26.4353 20.5749 26.4391 20.632 26.443 20.6883C26.4453 20.7243 26.4314 20.743 26.3976 20.743C26.3953 20.743 26.393 20.743 26.3907 20.743C26.3854 20.743 26.3808 20.7423 26.3754 20.7423C26.3654 20.7423 26.3554 20.743 26.3462 20.743C25.6981 20.743 25.0508 20.743 24.4027 20.743C23.7546 20.743 23.1073 20.743 22.4593 20.743C22.447 20.743 22.4355 20.743 22.4232 20.743C22.4186 20.743 22.414 20.743 22.4093 20.743C22.4086 20.743 22.407 20.743 22.4063 20.743C22.3763 20.743 22.3625 20.7305 22.3671 20.6953C22.4017 20.4162 22.4347 20.1363 22.4669 19.8572C22.48 19.7454 22.4846 19.7306 22.4408 19.7306C22.4247 19.7306 22.4009 19.7329 22.3694 19.7329C22.3679 19.7329 22.3663 19.7329 22.3656 19.7329C22.2389 19.7321 22.1122 19.7321 21.9847 19.7321C21.8327 19.7321 21.6806 19.7321 21.5286 19.7321C21.5048 19.7321 21.4802 19.7321 21.4564 19.7321C21.3865 19.7321 21.3827 19.7267 21.3942 19.6571C21.6 18.4077 21.8066 17.1584 22.0124 15.909C22.0339 15.7784 22.0577 15.6479 22.0746 15.5173C22.0822 15.4571 22.1091 15.4422 22.1636 15.4422C22.1644 15.4422 22.1659 15.4422 22.1667 15.4422C22.2842 15.4438 22.4017 15.4438 22.5199 15.4438C22.6512 15.4438 22.7825 15.443 22.9146 15.443C22.9883 15.443 22.9899 15.4399 22.9991 15.3641C23.0206 15.178 23.0428 14.9927 23.0651 14.8066C24.1094 14.805 25.1537 14.805 26.1988 14.805ZM26.1988 14.4923H23.0643C22.9092 14.4923 22.7779 14.6104 22.7595 14.7675L22.7403 14.9317C22.7326 14.9974 22.7242 15.0631 22.7165 15.1295C22.6512 15.1295 22.5852 15.1295 22.5199 15.1295C22.4032 15.1295 22.2865 15.1295 22.1705 15.1279C22.1698 15.1279 22.1652 15.1279 22.1644 15.1279C21.9532 15.1279 21.7989 15.264 21.7705 15.4743C21.7582 15.5673 21.7428 15.6596 21.7259 15.7573C21.7206 15.7902 21.7144 15.823 21.709 15.8566L21.4449 17.4601L21.0917 19.6047C21.0817 19.6633 21.0594 19.8002 21.1608 19.9221C21.2621 20.0441 21.3988 20.0441 21.4564 20.0441H21.5286H21.7567H21.9847C22.0354 20.0441 22.0853 20.0441 22.136 20.0441C22.1137 20.2333 22.0891 20.435 22.0623 20.657C22.0446 20.8017 22.1053 20.8963 22.1437 20.9401C22.1813 20.9838 22.2658 21.0566 22.4063 21.0566C22.4093 21.0566 22.4147 21.0566 22.4178 21.0566H22.4239H22.4378H22.4593H24.4027H26.3462C26.3531 21.0566 26.36 21.0566 26.3669 21.0566H26.3746C26.3823 21.0573 26.39 21.0573 26.3976 21.0573C26.4982 21.0573 26.5904 21.0182 26.6564 20.9463C26.7232 20.8744 26.7562 20.7759 26.7493 20.6703L26.7463 20.6273C26.744 20.5875 26.7409 20.5484 26.7394 20.5085C26.737 20.4358 26.7347 20.3623 26.7324 20.2896C26.7301 20.2091 26.7278 20.1277 26.7248 20.0456C26.7317 20.0456 26.7378 20.0456 26.7447 20.0456C26.7808 20.0456 26.8169 20.0456 26.8522 20.0456H26.9782H27.2047C27.2054 20.0511 27.2054 20.0574 27.2062 20.0628L27.2085 20.0902C27.2139 20.1528 27.2193 20.2145 27.2246 20.2771C27.2369 20.417 27.2492 20.5609 27.26 20.7024C27.2753 20.915 27.4274 21.0581 27.637 21.0581C27.6378 21.0581 27.6408 21.0581 27.6416 21.0581C27.7453 21.0573 27.8482 21.0573 27.951 21.0573H28.1292H28.3081H28.5884H28.8686C29.1059 21.0573 29.3432 21.0573 29.5805 21.0573C29.6327 21.0573 29.7709 21.0573 29.8723 20.9362C29.9728 20.8158 29.9506 20.6774 29.9421 20.6258C29.8953 20.3365 29.8484 20.0472 29.8008 19.7579C29.7617 19.521 29.6327 19.4108 29.3954 19.4108H28.4264H27.776C27.7652 19.2677 27.7537 19.1278 27.7422 18.9917C27.7276 18.8174 27.7122 18.643 27.6976 18.4687C27.6838 18.3084 27.67 18.1474 27.6562 17.9871C27.6431 17.8331 27.6308 17.6798 27.6178 17.5258C27.6047 17.3671 27.5917 17.2084 27.5786 17.0497C27.5648 16.8832 27.485 16.6853 27.1862 16.6853H25.9891H24.8274C24.8204 16.6853 24.8143 16.6853 24.8074 16.6853H24.7997C24.7959 16.6853 24.7897 16.6853 24.7844 16.6853C24.5862 16.6853 24.4373 16.8347 24.4311 17.0395C24.4281 17.1443 24.4242 17.2483 24.4212 17.3522C24.4173 17.4711 24.4135 17.5899 24.4096 17.7088C24.4081 17.769 24.4043 17.8956 24.5049 18.0019C24.6054 18.1075 24.7306 18.1083 24.7905 18.1083H24.9279C24.9963 18.1083 25.0646 18.1083 25.1337 18.1083C25.1522 18.1083 25.1714 18.1083 25.1898 18.1083C25.189 18.5383 25.1898 18.9738 25.1906 19.41H25.0477H24.9011H24.5778H24.2415C24.0656 19.41 23.8906 19.41 23.7147 19.41C23.7232 19.3123 23.7308 19.2146 23.7385 19.1192L23.75 18.9808C23.76 18.8612 23.7692 18.7416 23.7792 18.6219C23.7892 18.4953 23.8 18.3678 23.8099 18.2412C23.8215 18.102 23.833 17.9629 23.8453 17.8229C23.8545 17.7119 23.8645 17.6009 23.8737 17.4906C23.8821 17.3937 23.8898 17.2967 23.8975 17.2006C23.9059 17.0997 23.9136 16.9989 23.922 16.898C23.9412 16.6705 23.9604 16.4438 23.9796 16.2163L23.9842 16.1592C23.9896 16.099 23.995 16.0388 24.0004 15.9778C24.0065 15.909 24.0127 15.8386 24.0188 15.7683C24.2154 15.7683 24.4119 15.769 24.6085 15.769C24.7982 15.769 24.9878 15.769 25.1783 15.7683C25.1783 15.7784 25.1783 15.7894 25.1783 15.7995C25.1783 15.8902 25.1783 15.9801 25.1775 16.0708C25.176 16.2123 25.2328 16.3007 25.2812 16.3507C25.3295 16.4008 25.4163 16.4602 25.5553 16.4602C25.8179 16.4594 26.079 16.4594 26.3401 16.4594C26.6027 16.4594 26.8653 16.4594 27.1271 16.4602C27.2715 16.4602 27.359 16.3961 27.4074 16.3421C27.455 16.289 27.5095 16.1951 27.4972 16.0521C27.4811 15.8777 27.465 15.6909 27.4512 15.5032C27.435 15.2859 27.2792 15.1389 27.0634 15.1389C27.0619 15.1389 27.058 15.1389 27.0572 15.1389C26.9474 15.1405 26.8384 15.1405 26.7286 15.1405H26.6234H26.5251C26.5213 15.0505 26.5174 14.9638 26.5167 14.877C26.5167 14.8363 26.5159 14.7605 26.4775 14.676C26.4276 14.5627 26.3186 14.4923 26.1988 14.4923Z" fill="#903C14"/>
<path d="M25.4854 15.511C25.4854 15.4665 25.4854 15.4227 25.4854 15.3781C25.4862 15.3265 25.4701 15.3093 25.4178 15.3093C24.8788 15.3109 24.3398 15.3109 23.8007 15.3093C23.7562 15.3093 23.7331 15.3203 23.7293 15.3703C23.7139 15.5759 23.6948 15.7808 23.6771 15.9856C23.6564 16.2319 23.6349 16.4789 23.6141 16.7252C23.5972 16.923 23.5819 17.1208 23.565 17.3178C23.5443 17.568 23.522 17.8182 23.5013 18.0684C23.4805 18.3147 23.4613 18.5617 23.4414 18.808C23.4222 19.0418 23.4045 19.2748 23.3807 19.5078C23.3784 19.5343 23.3807 19.5508 23.3891 19.5609C23.4083 19.3576 23.4245 19.1536 23.4414 18.9503C23.4613 18.704 23.4805 18.457 23.5013 18.2107C23.522 17.9605 23.5435 17.7103 23.565 17.4601C23.5819 17.2623 23.5972 17.0645 23.6141 16.8675C23.6349 16.6212 23.6556 16.3742 23.6771 16.1279C23.6948 15.9231 23.7139 15.7174 23.7293 15.5126C23.7331 15.4618 23.7554 15.4508 23.8007 15.4516C24.3398 15.4524 24.8788 15.4532 25.4178 15.4516C25.4662 15.4516 25.4839 15.4673 25.4854 15.511Z" fill="#FFE941"/>
<path d="M25.4962 17.7221C25.4962 17.6681 25.4793 17.6486 25.4255 17.6493C25.2136 17.6517 25.0017 17.6501 24.7897 17.6501C24.7421 17.6501 24.7245 17.6486 24.7183 17.6267C24.7176 17.6564 24.716 17.6853 24.7152 17.715C24.7129 17.7893 24.7168 17.7916 24.7897 17.7916C25.0017 17.7916 25.2136 17.7932 25.4255 17.7909C25.4793 17.7901 25.4962 17.8104 25.4962 17.8636C25.4954 18.4124 25.4962 18.962 25.4969 19.5109C25.4969 19.5101 25.4969 19.5093 25.4969 19.5085C25.4954 18.9136 25.4946 18.3178 25.4962 17.7221Z" fill="#FFE941"/>
<path d="M27.1287 16.002C26.6042 16.0012 26.0805 16.0005 25.5561 16.002C25.5062 16.002 25.4862 15.9848 25.4847 15.9379C25.4847 15.9825 25.4847 16.027 25.4847 16.0716C25.4839 16.1256 25.5031 16.1443 25.5561 16.1443C26.0805 16.1428 26.6042 16.1428 27.1287 16.1443C27.177 16.1443 27.1962 16.1279 27.1916 16.0779C27.1886 16.0458 27.1862 16.0145 27.1832 15.9825C27.1732 15.9966 27.1555 16.002 27.1287 16.002Z" fill="#FFE941"/>
<path d="M26.3915 20.6C26.3769 20.5992 26.3616 20.6 26.347 20.6C25.0516 20.6 23.7554 20.6 22.46 20.6C22.4431 20.6 22.4262 20.5992 22.4101 20.6C22.3963 20.6 22.3871 20.5976 22.3794 20.5929C22.3756 20.6265 22.3717 20.6609 22.3671 20.6946C22.3625 20.7313 22.3771 20.743 22.4093 20.7423C22.4262 20.7415 22.4431 20.7423 22.4593 20.7423C23.7546 20.7423 25.0508 20.7423 26.3462 20.7423C26.3608 20.7423 26.3761 20.7415 26.3907 20.7423C26.4291 20.7446 26.4453 20.7258 26.443 20.6883C26.4406 20.6524 26.4383 20.6164 26.436 20.5804C26.4291 20.5937 26.4153 20.6015 26.3915 20.6Z" fill="#FFE941"/>
<path d="M29.625 20.5953C29.615 20.5984 29.6012 20.5992 29.5797 20.5992C29.1558 20.5992 28.732 20.5992 28.3081 20.5992C28.0854 20.5992 27.862 20.5984 27.6393 20.6C27.5901 20.6007 27.5702 20.5851 27.5663 20.5335C27.551 20.3279 27.5326 20.1231 27.5149 19.9182C27.5088 19.8455 27.5026 19.7728 27.4972 19.6993C27.488 19.6852 27.4857 19.661 27.4826 19.6188C27.4819 19.6125 27.4819 19.6063 27.4811 19.6C27.4688 19.5867 27.4481 19.5875 27.4274 19.5875C27.2362 19.5875 27.0442 19.5875 26.853 19.5875C26.7263 19.5875 26.6004 19.5891 26.4737 19.5867C26.4222 19.5859 26.4038 19.5953 26.4069 19.6555C26.4084 19.6884 26.4099 19.7212 26.4115 19.7532C26.4199 19.7321 26.4391 19.7274 26.4737 19.7282C26.6004 19.7306 26.7263 19.729 26.853 19.729C27.0442 19.729 27.2362 19.729 27.4274 19.729C27.4573 19.729 27.488 19.7267 27.4919 19.7712C27.4988 19.8674 27.5072 19.9636 27.5149 20.0589C27.5326 20.2638 27.551 20.4694 27.5663 20.6742C27.5702 20.7258 27.5901 20.7407 27.6393 20.7407C27.862 20.7384 28.0854 20.7399 28.3081 20.7399C28.732 20.7399 29.1558 20.7399 29.5797 20.7399C29.6442 20.7399 29.648 20.7344 29.6381 20.6719C29.6334 20.6477 29.6296 20.6219 29.625 20.5953Z" fill="#FFE941"/>
<path d="M22.4646 19.7329C22.4654 19.7267 22.4662 19.7196 22.4669 19.7134C22.4846 19.5578 22.4861 19.5891 22.3648 19.5883C22.0615 19.5867 21.759 19.5875 21.4556 19.5875C21.4318 19.5875 21.4157 19.5867 21.405 19.5828C21.4011 19.607 21.3973 19.6305 21.3935 19.6547C21.3819 19.7243 21.3858 19.7298 21.4556 19.7298C21.759 19.7298 22.0615 19.729 22.3648 19.7306C22.4209 19.7314 22.4508 19.7251 22.4646 19.7329Z" fill="#FFE941"/>
<defs>
<linearGradient id="paint0_linear" x1="18.0079" y1="26.9494" x2="27.2082" y2="17.5819" gradientUnits="userSpaceOnUse">
<stop stop-color="white"/>
<stop offset="0.00102067" stop-color="#FDDB39"/>
<stop offset="0.8659" stop-color="#F9B634"/>
</linearGradient>
<linearGradient id="paint1_linear" x1="15.9605" y1="28.0697" x2="18.4167" y2="25.5689" gradientUnits="userSpaceOnUse">
<stop stop-color="white"/>
<stop offset="0.00102067" stop-color="#FDDB39" stop-opacity="0"/>
<stop offset="0.8659" stop-color="white"/>
</linearGradient>
<linearGradient id="paint2_linear" x1="28.0711" y1="19.3677" x2="29.7898" y2="17.6178" gradientUnits="userSpaceOnUse">
<stop stop-color="white"/>
<stop offset="0.00102067" stop-color="#FDDB39" stop-opacity="0"/>
<stop offset="0.8659" stop-color="white"/>
</linearGradient>
<linearGradient id="paint3_linear" x1="22.7172" y1="24.9894" x2="26.6654" y2="20.9694" gradientUnits="userSpaceOnUse">
<stop stop-color="#FDDB39"/>
<stop offset="0.2007" stop-color="#FCD438"/>
<stop offset="0.5574" stop-color="#FAC036"/>
<stop offset="0.6981" stop-color="#F9B634"/>
</linearGradient>
<linearGradient id="paint4_linear" x1="18.0079" y1="21.6161" x2="27.2082" y2="12.2486" gradientUnits="userSpaceOnUse">
<stop stop-color="white"/>
<stop offset="0.00102067" stop-color="#FDDB39"/>
<stop offset="0.8659" stop-color="#F9B634"/>
</linearGradient>
<linearGradient id="paint5_linear" x1="15.9605" y1="22.7364" x2="18.4167" y2="20.2356" gradientUnits="userSpaceOnUse">
<stop stop-color="white"/>
<stop offset="0.00102067" stop-color="#FDDB39" stop-opacity="0"/>
<stop offset="0.8659" stop-color="white"/>
</linearGradient>
<linearGradient id="paint6_linear" x1="28.0711" y1="14.0344" x2="29.7898" y2="12.2844" gradientUnits="userSpaceOnUse">
<stop stop-color="white"/>
<stop offset="0.00102067" stop-color="#FDDB39" stop-opacity="0"/>
<stop offset="0.8659" stop-color="white"/>
</linearGradient>
<linearGradient id="paint7_linear" x1="22.7172" y1="19.656" x2="26.6654" y2="15.636" gradientUnits="userSpaceOnUse">
<stop stop-color="#FDDB39"/>
<stop offset="0.2007" stop-color="#FCD438"/>
<stop offset="0.5574" stop-color="#FAC036"/>
<stop offset="0.6981" stop-color="#F9B634"/>
</linearGradient>
</defs>
</svg>
