<svg width="300" height="300" viewBox="0 0 48 48" fill="none" xmlns="http://www.w3.org/2000/svg">
<rect width="300" height="300" fill="#020339"/>
<path d="M24.4772 19.4762C18.1796 19.4762 13 22.8217 13 27.1056V31.7619L13.0832 31.7618L13.0933 31.8202C13.8249 35.7626 18.8174 39.009 24.4772 39.009L24.6557 39.0079C30.2416 38.9406 35.1372 35.7211 35.8611 31.8202L35.8712 31.7618L35.9544 31.7619V27.1056C35.9544 22.8219 30.7743 19.4762 24.4772 19.4762ZM24.648 20.6993C30.2727 20.7572 34.7322 23.6719 34.7322 27.1056V30.9501L34.7213 31.1092C34.4837 34.5964 29.8554 37.7868 24.4772 37.7868L24.3161 37.7858C19.0069 37.7229 14.4683 34.5615 14.2331 31.1092L14.2222 30.9501V27.1056C14.2222 23.637 18.7718 20.6984 24.4772 20.6984L24.648 20.6993Z" fill="#903C14"/>
<path d="M24.4764 20.0865C18.4748 20.0865 13.6103 23.2286 13.6103 27.1048C13.6103 30.981 18.4756 34.1232 24.4764 34.1232C30.4781 34.1232 35.3425 30.981 35.3425 27.1048C35.3433 23.2294 30.4781 20.0865 24.4764 20.0865ZM24.4764 31.3227C20.0359 31.3227 16.4369 29.4069 16.4369 26.6211C16.4369 23.836 20.0366 21.5777 24.4764 21.5777C28.917 21.5777 32.516 23.8353 32.516 26.6211C32.5168 29.4061 28.917 31.3227 24.4764 31.3227Z" fill="url(#paint0_linear)"/>
<path opacity="0.54" d="M25.9108 32.8147C26.1051 33.0543 26.2364 33.5772 26.3224 33.8613C26.3316 33.8913 26.3477 33.9274 26.3838 33.9312C26.4184 33.935 26.4514 33.9043 26.4844 33.9135C26.4982 33.9174 26.5105 33.9274 26.5251 33.9274C26.5535 33.9274 26.5612 33.8936 26.5589 33.8682C26.5458 33.7123 26.4399 33.2278 26.4821 33.0758C26.5405 33.2416 26.6656 33.7331 26.724 33.8989C26.7132 33.869 26.0022 34.1708 25.91 33.9304C25.8187 33.6901 25.9177 33.0673 25.9108 32.8147Z" fill="#FDDB39"/>
<path opacity="0.54" d="M24.468 21.3497C19.9752 21.3497 16.3332 23.7216 16.3332 26.456C16.3332 29.1904 19.9752 31.408 24.468 31.408C28.9608 31.408 32.6028 29.1911 32.6028 26.456C32.6028 23.7216 28.9608 21.3497 24.468 21.3497ZM24.5179 31.2782C20.1142 31.2782 16.5444 29.1274 16.5444 26.4737C16.5444 23.8199 20.1142 21.6691 24.5179 21.6691C28.9216 21.6691 32.4914 23.8199 32.4914 26.4737C32.4914 29.1274 28.9216 31.2782 24.5179 31.2782Z" fill="#FDDB39"/>
<path d="M34.9525 28.9723C34.9525 28.9723 34.9525 28.9715 34.9517 28.9715C34.7951 29.3401 34.5923 29.6956 34.3489 30.0373C34.3359 30.0558 34.3213 30.0742 34.3082 30.0926C34.2622 30.1556 34.2161 30.2178 34.1677 30.2792C34.1424 30.3115 34.1155 30.3437 34.0894 30.3752C34.051 30.422 34.0126 30.4689 33.9727 30.5157C33.9389 30.5549 33.9036 30.5933 33.869 30.6324C33.8344 30.6708 33.7999 30.7084 33.7646 30.7461C33.7239 30.7891 33.6824 30.8321 33.6402 30.8743C33.6079 30.9066 33.5764 30.9388 33.5434 30.9711C33.4974 31.0164 33.4497 31.0609 33.4021 31.1054C31.4402 32.9291 28.176 34.1247 24.4772 34.1247C20.7784 34.1247 17.5142 32.9299 15.5523 31.1054C15.5047 31.0609 15.4571 31.0164 15.411 30.9711C15.378 30.9388 15.3465 30.9066 15.3142 30.8743C15.272 30.8321 15.2305 30.7891 15.1898 30.7461C15.1545 30.7084 15.12 30.6701 15.0854 30.6324C15.0509 30.594 15.0155 30.5549 14.9818 30.5157C14.9418 30.4696 14.9034 30.422 14.865 30.3752C14.8389 30.3429 14.8121 30.3115 14.7867 30.2792C14.7383 30.2178 14.6915 30.1548 14.6462 30.0926C14.6324 30.0742 14.6186 30.0558 14.6055 30.0373C14.3621 29.6956 14.1601 29.3401 14.0027 28.9715C14.0027 28.9715 14.0027 28.9723 14.002 28.9723C13.7478 28.378 13.6111 27.7522 13.6111 27.1056V31.1507H13.6234C13.8776 34.881 18.6391 38.3979 24.4772 38.3979C30.3153 38.3979 35.0769 34.881 35.331 31.1507H35.3433V27.1056C35.3433 27.7522 35.2059 28.378 34.9525 28.9723Z" fill="#F28D2C"/>
<path d="M32.5168 26.6211C32.5168 29.4061 28.917 31.3227 24.4772 31.3227C20.0366 31.3227 16.4376 29.4069 16.4376 26.6211C16.4376 23.8353 20.0374 21.5777 24.4772 21.5777C28.917 21.5777 32.5168 23.836 32.5168 26.6211Z" fill="#F8AC32"/>
<path opacity="0.9" d="M24.4764 23.1204C28.388 23.1204 31.6645 24.6154 32.516 26.6234C32.516 26.6226 32.516 26.6219 32.516 26.6211C32.516 23.836 28.9163 21.5777 24.4764 21.5777C20.0359 21.5777 16.4369 23.8353 16.4369 26.6211C16.4369 26.6219 16.4369 26.6226 16.4369 26.6234C17.2892 24.6162 20.5649 23.1204 24.4764 23.1204Z" fill="#D5761F"/>
<path d="M34.8711 32.3486C34.5332 33.1633 34.1431 33.8897 33.4697 34.5263C32.9238 35.0423 32.4661 35.5099 31.8096 35.92C31.4756 36.1288 31.1415 36.3715 30.7645 36.5143C30.5595 36.5919 29.5183 37.2545 29.314 37.1294C29.215 37.0679 29.3178 36.4774 29.3163 36.3715C29.3063 35.6251 29.3324 34.878 29.3954 34.1331C29.4092 33.9673 29.4384 33.7792 29.5943 33.6824C29.7701 34.3144 29.9836 35.4047 30.1587 36.0367C30.3821 35.0131 30.4766 33.2347 30.5403 33.2071C30.6117 33.1764 30.9104 35.0738 31.0456 35.4654C31.2275 35.0077 31.2567 33.7093 31.3059 33.234C31.3197 33.1042 31.332 32.9667 31.4203 32.8623C31.4886 32.7825 31.5923 32.7325 31.6921 32.6834C32.4569 32.3087 33.3008 31.699 33.9082 31.1461C34.4342 30.6678 35.3249 28.9685 35.2466 28.7235C35.2473 28.7227 35.3387 31.2222 34.8711 32.3486Z" fill="#D2571C"/>
<path d="M14.4704 33.1073C14.7069 33.4451 15.0616 34.0994 15.3595 34.3981C16.0829 35.1237 16.7517 35.8209 17.7392 36.2471C18.1907 36.4936 20.0159 37.6446 17.7323 35.5138C16.1743 34.0594 15.9554 33.5688 15.0209 31.8311C14.7476 31.3227 14.0319 29.615 13.7585 29.1067C13.6764 29.3908 13.8108 29.6496 13.8223 29.9306C13.8369 30.2946 13.7716 30.6578 13.8 31.0248C13.8545 31.7236 14.0488 32.506 14.4704 33.1073Z" fill="#D2571C"/>
<path d="M24.4764 22.1152C26.5243 22.1152 28.4417 22.6105 29.8761 23.5105C31.2321 24.3613 31.9793 25.4654 31.9793 26.6211C31.9793 27.7537 31.2375 28.8095 29.8914 29.595C28.4809 30.4182 26.5581 30.8712 24.4772 30.8712C22.3963 30.8712 20.4735 30.4182 19.063 29.595C17.7161 28.8095 16.9751 27.7537 16.9751 26.6211C16.9751 25.4654 17.7223 24.3613 19.0783 23.5105C20.5112 22.6105 22.4285 22.1152 24.4764 22.1152ZM24.4764 21.5777C20.0359 21.5777 16.4369 23.8353 16.4369 26.6211C16.4369 29.4061 20.0366 31.408 24.4764 31.408C28.917 31.408 32.516 29.4061 32.516 26.6211C32.5168 23.836 28.917 21.5777 24.4764 21.5777Z" fill="#903C14"/>
<path opacity="0.54" d="M24.3628 20.3538C30.3783 20.3538 35.255 23.6771 35.255 27.7775C35.255 27.8643 35.2519 27.951 35.2473 28.037C35.3103 27.7322 35.3425 27.4212 35.3425 27.1048C35.3425 23.2286 30.4773 20.0865 24.4764 20.0865C18.8741 20.0865 14.2623 22.8255 13.6741 26.3431C14.6546 22.9292 19.0668 20.3538 24.3628 20.3538Z" fill="#FDDB39"/>
<path opacity="0.78" d="M24.4764 33.7239C19.42 33.7239 15.1607 31.7243 13.8776 28.6575C14.9718 31.7865 19.301 34.1239 24.4764 34.1239C29.6519 34.1239 33.9819 31.7865 35.0753 28.6575C33.7922 31.7236 29.5336 33.7239 24.4764 33.7239Z" fill="#FFE941"/>
<path d="M22.6512 34.0633C22.7702 34.0134 22.91 34.0157 23.0367 34.0141C23.2417 34.0118 23.4475 34.0026 23.6518 33.9857C23.6809 33.9512 23.6356 33.9035 23.5949 33.8851C23.4798 33.8329 23.3523 33.8145 23.2264 33.796C23.0643 33.773 22.9023 33.7492 22.7395 33.7262C22.6412 33.7116 22.5383 33.6962 22.4562 33.6402C22.2704 33.5135 22.2143 33.2762 22.0139 33.1633C21.8119 33.0489 21.5754 33.0121 21.3466 33.0028C20.8414 32.9829 20.3353 33.0919 19.8324 32.9998C19.0031 32.8485 18.1615 32.5091 17.3813 32.1958C17.3568 32.2803 17.4374 32.3555 17.5096 32.4062C18.2237 32.9115 18.9509 33.4098 19.751 33.763C20.5511 34.1162 21.4365 34.3213 22.3049 34.2122C22.4508 34.1938 22.5207 34.1178 22.6482 34.064C22.6497 34.064 22.6505 34.064 22.6512 34.0633Z" fill="#FFF6CF"/>
<path d="M28.1476 37.9878C28.1476 38.1376 28.0447 33.7369 28.047 33.7369C28.047 33.7369 27.2891 32.9898 27.015 32.5782C27.2408 33.2416 27.4258 33.9473 27.4051 34.6392C27.3728 35.7088 27.4381 37.0679 27.4059 38.1383C27.6692 38.1299 27.9065 38.0838 28.1476 37.9878Z" fill="#903C14"/>
<path opacity="0.78" d="M27.0319 32.5629C27.1217 32.7663 27.2799 32.9399 27.4381 33.108C27.6178 33.3 27.7998 33.4904 27.9841 33.6793C28.0847 33.783 28.2559 33.6847 28.1338 33.5718C28.0178 33.4651 27.8904 33.3653 27.7721 33.2593C27.5203 33.032 27.273 32.8001 27.0319 32.5629Z" fill="#FFEC9D"/>
<path d="M20.0328 31.5047C20.1956 31.3235 20.4674 30.9703 20.6079 30.7768C20.4759 30.6685 20.2516 30.677 20.2516 30.677C20.2516 30.677 20.0581 31.4763 20.0328 31.5047Z" fill="#903C14"/>
<path opacity="0.15" d="M16.4799 27.1425L13.8545 28.5899C14.4903 30.4965 16.3248 32.1152 18.8242 33.1004L21.5117 31.0164C18.7865 30.4243 16.7932 29.013 16.4799 27.1425Z" fill="url(#paint1_linear)"/>
<path opacity="0.15" d="M30.991 23.6656L32.5821 22.4316C31.4502 21.6131 30.0251 20.9673 28.4141 20.5618L26.3278 21.7121C28.2336 21.9939 29.8776 22.7011 30.991 23.6656Z" fill="url(#paint2_linear)"/>
<path d="M26.9474 22.9584C27.1356 23.0021 27.3137 23.0828 27.4757 23.2279C27.5349 23.2809 27.5901 23.34 27.6546 23.3868C27.9603 23.6087 27.9342 23.9666 27.9633 24.3106C27.9679 24.3651 28.0378 25.3065 28.0447 25.3917C28.0716 25.7311 28.0969 26.0705 28.1238 26.4099C28.1522 26.7739 28.1822 27.1379 28.2106 27.5018C28.2275 27.7207 28.2436 27.9395 28.259 28.1584C28.2666 28.2643 28.2682 28.2682 28.3649 28.2682C28.9762 28.2682 29.5881 28.2682 30.1994 28.2682C30.2884 28.2682 30.2892 28.2682 30.3038 28.3611C30.3522 28.6751 30.3998 28.9892 30.4474 29.3032C30.4574 29.3716 30.4535 29.377 30.3883 29.377C29.9583 29.377 29.5275 29.377 29.0975 29.377C28.871 29.377 28.6444 29.3754 28.4179 29.3778C28.368 29.3785 28.348 29.3616 28.3442 29.3056C28.3288 29.0829 28.3096 28.8602 28.292 28.6367C28.2835 28.5323 28.2751 28.4279 28.2682 28.3235C28.2651 28.2743 28.2336 28.2774 28.2029 28.2774C28.0086 28.2774 27.8144 28.2774 27.6193 28.2774C27.4911 28.2774 27.3629 28.2789 27.2346 28.2766C27.1824 28.2751 27.164 28.2858 27.1671 28.3519C27.1801 28.6122 27.1855 28.8725 27.1939 29.1336C27.1962 29.195 27.2001 29.2564 27.2039 29.3178C27.2062 29.3593 27.1901 29.3793 27.1509 29.377C27.1356 29.3762 27.121 29.377 27.1056 29.377C25.7903 29.377 24.4741 29.377 23.1588 29.377C23.1419 29.377 23.125 29.3762 23.1081 29.377C23.0751 29.3778 23.0605 29.3647 23.0651 29.3255C23.0997 29.0222 23.1342 28.7181 23.1665 28.4148C23.1849 28.2459 23.1864 28.2804 23.0628 28.2797C22.7549 28.2781 22.4477 28.2789 22.1398 28.2789C22.0692 28.2789 22.0646 28.2735 22.0761 28.1975C22.2849 26.8407 22.4946 25.4831 22.7034 24.1263C22.7249 23.9842 22.7495 23.8429 22.7672 23.7009C22.7756 23.6348 22.8033 23.6187 22.8608 23.6187C23.1135 23.6218 23.3669 23.6203 23.6195 23.6195C23.6948 23.6195 23.6963 23.6164 23.7055 23.5335C23.7278 23.3315 23.75 23.1304 23.7723 22.9284C24.448 22.9284 25.1245 22.9284 25.8002 22.9284C26.1849 22.9276 26.5842 22.8739 26.9474 22.9584Z" fill="#D5761F"/>
<path d="M29.7717 28.6375C29.7348 28.4179 29.6181 28.3196 29.3939 28.3196H28.4901H28.3304H27.7483C27.7368 28.1714 27.7245 28.0248 27.713 27.8827C27.6984 27.7099 27.6831 27.5372 27.6677 27.3644C27.6539 27.2077 27.6401 27.0519 27.627 26.8952C27.614 26.7455 27.6017 26.5957 27.5894 26.4452C27.5763 26.2886 27.5633 26.1312 27.5494 25.9745C27.5441 25.9154 27.5349 25.8048 27.4389 25.7211C27.349 25.6421 27.25 25.6421 27.1847 25.6421H26.0053H24.8258C24.8197 25.6421 24.8128 25.6421 24.8066 25.6421H24.7982C24.7936 25.6421 24.7882 25.6421 24.7828 25.6421C24.6001 25.6421 24.4634 25.7772 24.458 25.963C24.4549 26.0652 24.4511 26.168 24.448 26.2702C24.4442 26.3869 24.4404 26.5036 24.4365 26.6203C24.435 26.6764 24.4311 26.7923 24.524 26.8875C24.617 26.9828 24.7337 26.9828 24.7897 26.9835H24.9249C24.994 26.9835 25.0631 26.9835 25.1322 26.9835C25.1606 26.9835 25.1883 26.9835 25.2167 26.9835C25.2159 27.4243 25.2167 27.8712 25.2174 28.3181C25.2098 28.3181 25.2021 28.3181 25.1944 28.3181C25.1453 28.3181 25.0961 28.3181 25.0462 28.3181C24.9971 28.3181 24.9487 28.3181 24.8995 28.3181H24.5701H24.2407C24.0549 28.3181 23.8691 28.3181 23.6832 28.3181C23.6924 28.2121 23.7017 28.1069 23.7101 28.0033L23.7216 27.8658C23.7316 27.7483 23.7408 27.6301 23.7508 27.5126C23.7608 27.3882 23.7708 27.2638 23.7815 27.1394C23.793 27.0012 23.8053 26.863 23.8168 26.724C23.8261 26.6165 23.8353 26.509 23.8445 26.4022C23.8529 26.307 23.8606 26.2126 23.8683 26.1174C23.8767 26.0183 23.8844 25.9193 23.8936 25.8202C23.9136 25.5868 23.9336 25.3533 23.9543 25.1199L23.9566 25.0946C23.962 25.0347 23.9673 24.9755 23.9727 24.9157C23.9796 24.8396 23.9865 24.7628 23.9927 24.6853C24.1977 24.6853 24.4027 24.6861 24.6085 24.6861C24.8074 24.6861 25.007 24.6861 25.2059 24.6853C25.2059 24.7053 25.2059 24.7245 25.2059 24.7444C25.2059 24.832 25.2059 24.9226 25.2051 25.0109C25.2036 25.1399 25.2566 25.2205 25.3011 25.2658C25.3457 25.3111 25.4263 25.3649 25.5553 25.3649C25.8179 25.3641 26.079 25.3641 26.3401 25.3641C26.6027 25.3641 26.8653 25.3641 27.1279 25.3649C27.2623 25.3649 27.3429 25.3073 27.3874 25.2581C27.4312 25.2097 27.4819 25.1245 27.4696 24.9947C27.4535 24.8235 27.4373 24.6392 27.4235 24.4557C27.4082 24.2576 27.2638 24.124 27.0642 24.124H27.0588C26.9436 24.1255 26.8277 24.1255 26.7294 24.1255H26.6234H26.5174C26.5113 24.1255 26.5051 24.1255 26.499 24.1255C26.4944 24.028 26.4906 23.9336 26.4898 23.8391C26.4898 23.8015 26.489 23.7308 26.4529 23.654L26.3785 23.492H26.1995H23.0651H22.8178L22.7879 23.7377L22.7687 23.8952C22.7595 23.9696 22.751 24.0434 22.7418 24.1178C22.6681 24.1178 22.5944 24.1178 22.5199 24.1178C22.3832 24.1178 22.2719 24.1171 22.1698 24.1163H22.1636C21.964 24.1163 21.8242 24.2376 21.7974 24.4319C21.7851 24.5233 21.7697 24.6139 21.7528 24.7099C21.7474 24.7429 21.7413 24.7751 21.7359 24.8082L21.4441 26.5466L21.1178 28.4893C21.1086 28.5431 21.0878 28.6682 21.1808 28.778C21.2737 28.8878 21.4011 28.8878 21.4556 28.8878H21.5278H21.7559H21.9832C22.0446 28.8878 22.1053 28.8878 22.1667 28.8878C22.1437 29.0821 22.1176 29.291 22.0891 29.5206C22.073 29.6511 22.1291 29.7371 22.1636 29.7763C22.1982 29.8154 22.2757 29.8815 22.4055 29.8815C22.4093 29.8815 22.4132 29.8815 22.417 29.8815H22.4232H22.4378C22.4447 29.8815 22.4523 29.8815 22.4593 29.8815H24.5525H25.4493H26.3462C26.3531 29.8815 26.36 29.8815 26.3669 29.8815H26.3754C26.3831 29.8822 26.3907 29.8822 26.3976 29.8822C26.4906 29.8822 26.5758 29.8469 26.6365 29.7824C26.6979 29.7171 26.7286 29.6281 26.7225 29.5321L26.7202 29.4914C26.7171 29.4499 26.7148 29.4108 26.7132 29.3731C26.7109 29.3009 26.7086 29.228 26.7063 29.1558C26.7033 29.0683 26.701 28.9792 26.6971 28.8894C26.7132 28.8894 26.7294 28.8894 26.7455 28.8894C26.7816 28.8894 26.8169 28.8894 26.853 28.8894H26.9889H27.2316C27.2331 28.904 27.2339 28.9178 27.2354 28.9316L27.2377 28.9585C27.2431 29.0199 27.2484 29.0806 27.2538 29.142C27.2661 29.2794 27.2784 29.4215 27.2891 29.5605C27.3037 29.754 27.4443 29.8838 27.6385 29.8838H27.6401H27.6431C27.746 29.883 27.8497 29.883 27.9533 29.883C28.0125 29.883 28.0716 29.883 28.1315 29.883C28.1914 29.883 28.2505 29.883 28.3104 29.883H28.3473H28.6045H28.8195C29.0092 29.883 29.1942 29.883 29.4269 29.883C29.4799 29.883 29.605 29.883 29.6972 29.774C29.7893 29.6649 29.7686 29.539 29.7609 29.4914C29.744 29.3877 29.7563 29.2679 29.7701 29.142C29.7832 28.9892 29.8024 28.818 29.7717 28.6375Z" fill="#D2571C"/>
<path d="M27.637 29.1981C27.5088 29.1981 27.4228 29.119 27.4128 28.9907C27.402 28.8494 27.3897 28.7089 27.3774 28.5684L27.359 28.3611C27.3544 28.3089 27.3498 28.2559 27.346 28.2037H26.853L26.6349 28.2044C26.6119 28.2044 26.5888 28.2044 26.5658 28.2044C26.572 28.338 26.5758 28.4693 26.5804 28.5976C26.5827 28.6713 26.585 28.745 26.5881 28.8187C26.5896 28.8602 26.5927 28.9024 26.595 28.9439L26.5973 28.9815C26.6019 29.0598 26.572 29.1097 26.5451 29.1382C26.5082 29.1773 26.456 29.1988 26.3984 29.1988C26.3953 29.1988 26.3854 29.1988 26.3823 29.1981H26.3477H22.4147C22.331 29.1981 22.2849 29.1643 22.2596 29.1359C22.2343 29.1074 22.2059 29.0568 22.2158 28.9784C22.2481 28.7204 22.2796 28.4632 22.3103 28.2044C22.1966 28.2037 22.0861 28.2037 21.9763 28.2037H21.458C21.4119 28.2037 21.3343 28.2037 21.279 28.1384C21.2238 28.0731 21.2368 27.9971 21.2437 27.9518L21.8619 24.2706L21.8787 24.1724C21.8949 24.0794 21.911 23.9842 21.9233 23.8905C21.9317 23.8284 21.9717 23.6832 22.1652 23.6832C22.2857 23.6848 22.4017 23.6848 22.5176 23.6848L22.8539 23.684C22.8662 23.578 22.9131 23.1941 22.9131 23.1941C22.9223 23.1173 22.9875 23.0589 23.0659 23.0589H26.2003C26.2602 23.0589 26.3147 23.0935 26.3401 23.148C26.3646 23.2002 26.3646 23.2494 26.3654 23.2816C26.3662 23.4006 26.3723 23.5227 26.3785 23.641L26.3808 23.6924C26.4307 23.6924 26.7286 23.6924 26.7286 23.6924C26.8392 23.6924 26.9505 23.6924 27.0611 23.6909C27.2016 23.6909 27.2899 23.7715 27.2999 23.9067C27.3137 24.0871 27.3298 24.2676 27.3467 24.448C27.3544 24.5325 27.3237 24.5855 27.2968 24.6154C27.2569 24.6592 27.2016 24.6807 27.131 24.6807C26.8684 24.6799 26.6057 24.6799 26.3439 24.6799C26.0821 24.6799 25.8202 24.6799 25.5584 24.6807C25.4885 24.6807 25.4332 24.66 25.3925 24.6193C25.3518 24.5786 25.3318 24.5225 25.3326 24.4542C25.3334 24.3643 25.3334 24.2753 25.3334 24.1862C25.3334 24.1247 25.3334 24.0633 25.3334 24.0019C25.0877 24.0027 24.8435 24.0027 24.5993 24.0027C24.359 24.0027 24.1186 24.0027 23.879 24.0019C23.8698 24.114 23.8598 24.2269 23.8499 24.339L23.833 24.5263C23.8115 24.7682 23.7907 25.0101 23.77 25.2527L23.7209 25.8348C23.7209 25.8348 23.6694 26.4337 23.6571 26.5719C23.6471 26.6933 23.5857 27.4327 23.5857 27.4327C23.5734 27.5817 23.5611 27.7337 23.5466 27.8858C23.7761 27.8858 24.9011 27.8858 24.9011 27.8858L25.1967 27.885C25.2458 27.885 25.295 27.885 25.3441 27.8858C25.3426 27.3559 25.3426 26.8276 25.3434 26.2994C25.2727 26.3001 25.2028 26.3001 25.133 26.3001L24.7905 26.2994C24.7398 26.2994 24.6707 26.2994 24.6147 26.2418C24.5586 26.1842 24.5609 26.1128 24.5624 26.0652C24.5655 25.9492 24.5701 25.8325 24.574 25.7158C24.577 25.6129 24.5809 25.5108 24.5839 25.4079C24.5878 25.2904 24.6692 25.2082 24.7836 25.2082C24.7859 25.2082 27.1855 25.2082 27.1855 25.2082C27.3444 25.2082 27.4112 25.2689 27.4251 25.4255C27.4389 25.5837 27.4896 26.1972 27.5026 26.3462C27.5157 26.5028 27.5295 26.6587 27.5433 26.8146C27.5587 26.9874 27.5733 27.1601 27.5886 27.3329C27.604 27.5172 27.6193 27.7007 27.6331 27.885H29.3946C29.5582 27.885 29.6227 27.9387 29.6488 28.0977C29.6964 28.3818 29.7432 28.6659 29.7901 28.95C29.797 28.9907 29.8093 29.066 29.7548 29.1305C29.7002 29.195 29.6219 29.195 29.5805 29.195H27.9503C27.8474 29.195 27.7437 29.195 27.6408 29.1957C27.6401 29.1981 27.6378 29.1981 27.637 29.1981Z" fill="url(#paint3_linear)"/>
<path d="M26.1988 23.2133C26.2095 23.2356 26.2095 23.2601 26.2095 23.2847C26.2111 23.4521 26.2218 23.6187 26.2287 23.7854C26.231 23.8383 26.2548 23.8483 26.3001 23.8483C26.3009 23.8483 26.3017 23.8483 26.3017 23.8483C26.3731 23.8475 26.4445 23.8475 26.5167 23.8475C26.5873 23.8475 26.658 23.8475 26.7278 23.8475C26.8384 23.8475 26.949 23.8475 27.0603 23.846C27.0611 23.846 27.0619 23.846 27.0634 23.846C27.1187 23.846 27.1402 23.8652 27.1448 23.9197C27.1586 24.1009 27.1747 24.2822 27.1916 24.4634C27.1962 24.5125 27.1763 24.5286 27.1287 24.5286C27.1287 24.5286 27.1287 24.5286 27.1279 24.5286C26.8653 24.5279 26.6027 24.5279 26.3401 24.5279C26.0782 24.5279 25.8171 24.5279 25.5553 24.5286C25.5553 24.5286 25.5553 24.5286 25.5545 24.5286C25.5015 24.5286 25.4831 24.5102 25.4839 24.4572C25.4862 24.2768 25.4831 24.0971 25.4854 23.9167C25.4862 23.8667 25.4701 23.8491 25.4186 23.8491H25.4179C25.1476 23.8499 24.8773 23.8499 24.6077 23.8499C24.339 23.8499 24.0695 23.8499 23.8007 23.8491C23.8007 23.8491 23.8007 23.8491 23.8 23.8491C23.7554 23.8491 23.7331 23.8598 23.7293 23.909C23.714 24.1109 23.6948 24.3121 23.6771 24.5133C23.6564 24.7552 23.6349 24.9978 23.6141 25.2397C23.5972 25.434 23.5819 25.6282 23.565 25.8217C23.5443 26.0675 23.522 26.3132 23.5013 26.5589C23.4805 26.8008 23.4613 27.0434 23.4414 27.2853C23.4222 27.5149 23.4045 27.7437 23.3807 27.9725C23.3753 28.0278 23.3922 28.0393 23.4414 28.0393H23.4421C23.7078 28.0386 23.9727 28.0386 24.2384 28.0386C24.458 28.0386 24.6784 28.0386 24.898 28.0386C24.9963 28.0386 25.0946 28.0378 25.1929 28.0378C25.2712 28.0378 25.3495 28.0378 25.4278 28.0393C25.4286 28.0393 25.4294 28.0393 25.4309 28.0393C25.48 28.0393 25.4954 28.0209 25.4954 27.9718C25.4939 27.3867 25.4931 26.8015 25.4946 26.2164C25.4946 26.1642 25.4785 26.145 25.4263 26.145C25.4255 26.145 25.4248 26.145 25.424 26.145C25.3265 26.1458 25.2282 26.1465 25.1307 26.1465C25.0163 26.1465 24.9026 26.1458 24.7882 26.1458C24.716 26.1458 24.7114 26.1427 24.7137 26.0705C24.7199 25.8517 24.7283 25.6328 24.7352 25.414C24.736 25.381 24.749 25.3633 24.7813 25.3633C24.7828 25.3633 24.7844 25.3633 24.7859 25.3633C24.7897 25.3633 24.7936 25.3633 24.7974 25.3633C24.8066 25.3633 24.8158 25.3633 24.8251 25.3633C25.2121 25.3633 25.5991 25.3633 25.9868 25.3633C26.3861 25.3633 26.7854 25.3633 27.1839 25.3633C27.2623 25.3633 27.2638 25.3633 27.2707 25.4401C27.2968 25.7473 27.3222 26.0536 27.3483 26.3608C27.3767 26.6894 27.4059 27.0188 27.4343 27.3475C27.4512 27.5456 27.4673 27.7429 27.4819 27.9411C27.4888 28.037 27.4911 28.0401 27.5863 28.0401C28.1883 28.0401 28.7911 28.0401 29.3931 28.0401C29.4814 28.0401 29.4814 28.0401 29.496 28.1246C29.5436 28.4087 29.5904 28.6928 29.6373 28.9761C29.6473 29.0376 29.6434 29.0429 29.5789 29.0429C29.3417 29.0429 29.1044 29.0429 28.8671 29.0429C28.6805 29.0429 28.4939 29.0429 28.3073 29.0429C28.1883 29.0429 28.0693 29.0429 27.9503 29.0429C27.8466 29.0429 27.7422 29.0429 27.6385 29.0445C27.6378 29.0445 27.637 29.0445 27.6362 29.0445C27.5886 29.0445 27.5694 29.0291 27.5656 28.9792C27.5502 28.7773 27.5318 28.5761 27.5141 28.3749C27.5057 28.2805 27.498 28.186 27.4911 28.0923C27.488 28.0524 27.4634 28.0509 27.4366 28.0509C27.4335 28.0509 27.4304 28.0509 27.4274 28.0509C27.2362 28.0509 27.0442 28.0509 26.853 28.0509C26.78 28.0509 26.7079 28.0516 26.6349 28.0516C26.5812 28.0516 26.5274 28.0516 26.4737 28.0501C26.4714 28.0501 26.4691 28.0501 26.4668 28.0501C26.4207 28.0501 26.4038 28.0616 26.4069 28.1184C26.4199 28.3534 26.4245 28.5891 26.433 28.8249C26.4353 28.8802 26.4391 28.9362 26.443 28.9915C26.4453 29.0268 26.4314 29.0452 26.3976 29.0452C26.3953 29.0452 26.393 29.0452 26.3907 29.0452C26.3854 29.0452 26.3808 29.0445 26.3754 29.0445C26.3654 29.0445 26.3554 29.0452 26.3462 29.0452C25.6981 29.0452 25.0508 29.0452 24.4027 29.0452C23.7546 29.0452 23.1073 29.0452 22.4593 29.0452C22.447 29.0452 22.4355 29.0452 22.4232 29.0452C22.4186 29.0452 22.414 29.0452 22.4093 29.0452C22.4086 29.0452 22.407 29.0452 22.4063 29.0452C22.3763 29.0452 22.3625 29.033 22.3671 28.9984C22.4017 28.7243 22.4347 28.4494 22.4669 28.1753C22.48 28.0654 22.4846 28.0509 22.4408 28.0509C22.4247 28.0509 22.4009 28.0532 22.3694 28.0532C22.3679 28.0532 22.3663 28.0532 22.3656 28.0532C22.2389 28.0524 22.1122 28.0524 21.9847 28.0524C21.8327 28.0524 21.6806 28.0524 21.5286 28.0524C21.5048 28.0524 21.4802 28.0524 21.4564 28.0524C21.3865 28.0524 21.3827 28.047 21.3942 27.9787C21.6 26.7516 21.8066 25.5246 22.0124 24.2975C22.0339 24.1693 22.0577 24.0411 22.0746 23.9128C22.0822 23.8537 22.1091 23.8391 22.1636 23.8391C22.1644 23.8391 22.1659 23.8391 22.1667 23.8391C22.2842 23.8406 22.4017 23.8406 22.5199 23.8406C22.6512 23.8406 22.7825 23.8399 22.9146 23.8399C22.9883 23.8399 22.9899 23.8368 22.9991 23.7623C23.0206 23.5796 23.0428 23.3976 23.0651 23.2148C24.1094 23.2133 25.1537 23.2133 26.1988 23.2133ZM26.1988 22.9061H23.0643C22.9092 22.9061 22.7779 23.0221 22.7595 23.1764L22.7403 23.3377C22.7326 23.4022 22.7242 23.4667 22.7165 23.532C22.6512 23.532 22.5852 23.532 22.5199 23.532C22.4032 23.532 22.2865 23.532 22.1705 23.5304C22.1698 23.5304 22.1652 23.5304 22.1644 23.5304C21.9532 23.5304 21.7989 23.664 21.7705 23.8706C21.7582 23.962 21.7428 24.0526 21.7259 24.1486C21.7206 24.1808 21.7144 24.2131 21.709 24.2461L21.4449 25.821L21.0917 27.9272C21.0817 27.9848 21.0594 28.1192 21.1608 28.239C21.2621 28.3588 21.3988 28.3588 21.4564 28.3588H21.5286H21.7567H21.9847C22.0354 28.3588 22.0853 28.3588 22.136 28.3588C22.1137 28.5446 22.0891 28.7427 22.0623 28.9608C22.0446 29.1028 22.1053 29.1957 22.1437 29.2388C22.1813 29.2818 22.2658 29.3532 22.4063 29.3532C22.4093 29.3532 22.4147 29.3532 22.4178 29.3532H22.4239H22.4378H22.4593H24.4027H26.3462C26.3531 29.3532 26.36 29.3532 26.3669 29.3532H26.3746C26.3823 29.3539 26.39 29.3539 26.3976 29.3539C26.4982 29.3539 26.5904 29.3155 26.6564 29.2449C26.7232 29.1742 26.7562 29.0775 26.7493 28.9738L26.7463 28.9316C26.744 28.8924 26.7409 28.854 26.7394 28.8149C26.737 28.7435 26.7347 28.6713 26.7324 28.5999C26.7301 28.5208 26.7278 28.4409 26.7248 28.3603C26.7317 28.3603 26.7378 28.3603 26.7447 28.3603C26.7808 28.3603 26.8169 28.3603 26.8522 28.3603H26.9782H27.2047C27.2054 28.3657 27.2054 28.3718 27.2062 28.3772L27.2085 28.4041C27.2139 28.4655 27.2193 28.5262 27.2246 28.5876C27.2369 28.725 27.2492 28.8663 27.26 29.0053C27.2753 29.2142 27.4274 29.3547 27.637 29.3547C27.6378 29.3547 27.6408 29.3547 27.6416 29.3547C27.7453 29.3539 27.8482 29.3539 27.951 29.3539H28.1292H28.3081H28.5884H28.8686C29.1059 29.3539 29.3432 29.3539 29.5805 29.3539C29.6327 29.3539 29.7709 29.3539 29.8723 29.2349C29.9728 29.1167 29.9506 28.9807 29.9421 28.9301C29.8953 28.646 29.8484 28.3618 29.8008 28.0777C29.7617 27.8451 29.6327 27.7368 29.3954 27.7368H28.4264H27.776C27.7652 27.5963 27.7537 27.4588 27.7422 27.3252C27.7276 27.154 27.7122 26.9828 27.6976 26.8115C27.6838 26.6541 27.67 26.4959 27.6562 26.3385C27.6431 26.1872 27.6308 26.0367 27.6178 25.8855C27.6047 25.7296 27.5917 25.5737 27.5786 25.4178C27.5648 25.2543 27.485 25.06 27.1862 25.06H25.9891H24.8274C24.8204 25.06 24.8143 25.06 24.8074 25.06H24.7997C24.7959 25.06 24.7897 25.06 24.7844 25.06C24.5862 25.06 24.4373 25.2067 24.4311 25.4079C24.4281 25.5108 24.4242 25.6129 24.4212 25.715C24.4173 25.8317 24.4135 25.9484 24.4096 26.0652C24.4081 26.1243 24.4043 26.2487 24.5049 26.3531C24.6054 26.4568 24.7306 26.4575 24.7905 26.4575H24.9279C24.9963 26.4575 25.0646 26.4575 25.1337 26.4575C25.1522 26.4575 25.1714 26.4575 25.1898 26.4575C25.189 26.8799 25.1898 27.3076 25.1906 27.736H25.0477H24.9011H24.5778H24.2415C24.0656 27.736 23.8906 27.736 23.7147 27.736C23.7232 27.64 23.7308 27.5441 23.7385 27.4504L23.75 27.3145C23.76 27.197 23.7692 27.0795 23.7792 26.962C23.7892 26.8376 23.8 26.7125 23.8099 26.5881C23.8215 26.4514 23.833 26.3147 23.8453 26.1773C23.8545 26.0682 23.8645 25.9592 23.8737 25.8509C23.8821 25.7557 23.8898 25.6605 23.8975 25.566C23.9059 25.467 23.9136 25.3679 23.922 25.2689C23.9412 25.0454 23.9604 24.8227 23.9796 24.5993L23.9842 24.5432C23.9896 24.4841 23.995 24.425 24.0004 24.3651C24.0065 24.2975 24.0127 24.2284 24.0188 24.1593C24.2154 24.1593 24.4119 24.1601 24.6085 24.1601C24.7982 24.1601 24.9878 24.1601 25.1783 24.1593C25.1783 24.1693 25.1783 24.18 25.1783 24.19C25.1783 24.2791 25.1783 24.3674 25.1775 24.4565C25.176 24.5955 25.2328 24.6822 25.2812 24.7314C25.3295 24.7805 25.4163 24.8389 25.5553 24.8389C25.8179 24.8381 26.079 24.8381 26.3401 24.8381C26.6027 24.8381 26.8653 24.8381 27.1271 24.8389C27.2715 24.8389 27.359 24.7759 27.4074 24.7229C27.455 24.6707 27.5095 24.5786 27.4972 24.438C27.4811 24.2668 27.465 24.0833 27.4512 23.899C27.435 23.6855 27.2792 23.5412 27.0634 23.5412C27.0619 23.5412 27.058 23.5412 27.0572 23.5412C26.9474 23.5427 26.8384 23.5427 26.7286 23.5427H26.6234H26.5251C26.5213 23.4544 26.5174 23.3692 26.5167 23.2839C26.5167 23.244 26.5159 23.1695 26.4775 23.0866C26.4276 22.9753 26.3186 22.9061 26.1988 22.9061Z" fill="#903C14"/>
<path d="M25.4854 23.9067C25.4854 23.8629 25.4854 23.8199 25.4854 23.7761C25.4862 23.7255 25.4701 23.7086 25.4178 23.7086C24.8788 23.7101 24.3398 23.7101 23.8007 23.7086C23.7562 23.7086 23.7331 23.7193 23.7293 23.7685C23.7139 23.9704 23.6948 24.1716 23.6771 24.3728C23.6564 24.6146 23.6349 24.8573 23.6141 25.0992C23.5972 25.2934 23.5819 25.4877 23.565 25.6812C23.5442 25.9269 23.522 26.1727 23.5012 26.4184C23.4805 26.6602 23.4613 26.9029 23.4414 27.1448C23.4222 27.3744 23.4045 27.6032 23.3807 27.832C23.3784 27.8581 23.3807 27.8742 23.3891 27.8842C23.4083 27.6846 23.4245 27.4842 23.4414 27.2845C23.4613 27.0426 23.4805 26.8 23.5012 26.5581C23.522 26.3124 23.5435 26.0667 23.565 25.821C23.5819 25.6267 23.5972 25.4324 23.6141 25.2389C23.6349 24.997 23.6556 24.7544 23.6771 24.5125C23.6948 24.3113 23.7139 24.1094 23.7293 23.9082C23.7331 23.8583 23.7554 23.8475 23.8007 23.8483C24.3398 23.8491 24.8788 23.8499 25.4178 23.8483C25.4662 23.8483 25.4839 23.8637 25.4854 23.9067Z" fill="#FFE941"/>
<path d="M25.4962 26.0782C25.4962 26.0252 25.4793 26.006 25.4255 26.0068C25.2136 26.0091 25.0017 26.0076 24.7897 26.0076C24.7421 26.0076 24.7245 26.006 24.7183 25.9845C24.7176 26.0137 24.716 26.0421 24.7152 26.0713C24.7129 26.1442 24.7168 26.1465 24.7897 26.1465C25.0017 26.1465 25.2136 26.1481 25.4255 26.1458C25.4793 26.145 25.4962 26.165 25.4962 26.2172C25.4954 26.7562 25.4962 27.296 25.4969 27.8351C25.4969 27.8343 25.4969 27.8336 25.4969 27.8328C25.4954 27.2484 25.4946 26.6633 25.4962 26.0782Z" fill="#FFE941"/>
<path d="M27.1287 24.3889C26.6042 24.3881 26.0805 24.3874 25.5561 24.3889C25.5062 24.3889 25.4862 24.372 25.4847 24.3259C25.4847 24.3697 25.4847 24.4135 25.4847 24.4572C25.4839 24.5102 25.5031 24.5286 25.5561 24.5286C26.0805 24.5271 26.6042 24.5271 27.1287 24.5286C27.177 24.5286 27.1962 24.5125 27.1916 24.4634C27.1886 24.4319 27.1862 24.4012 27.1832 24.3697C27.1732 24.3835 27.1555 24.3889 27.1287 24.3889Z" fill="#FFE941"/>
<path d="M26.3915 28.9047C26.3769 28.904 26.3616 28.9047 26.347 28.9047C25.0516 28.9047 23.7554 28.9047 22.46 28.9047C22.4431 28.9047 22.4262 28.904 22.4101 28.9047C22.3963 28.9047 22.3871 28.9024 22.3794 28.8978C22.3756 28.9308 22.3717 28.9646 22.3671 28.9976C22.3625 29.0337 22.3771 29.0452 22.4093 29.0445C22.4262 29.0437 22.4431 29.0445 22.4593 29.0445C23.7546 29.0445 25.0508 29.0445 26.3462 29.0445C26.3608 29.0445 26.3762 29.0437 26.3907 29.0445C26.4291 29.0468 26.4453 29.0284 26.443 28.9915C26.4407 28.9562 26.4383 28.9209 26.436 28.8855C26.4291 28.8986 26.4153 28.9063 26.3915 28.9047Z" fill="#FFE941"/>
<path d="M29.625 28.9001C29.615 28.9032 29.6012 28.904 29.5797 28.904C29.1558 28.904 28.732 28.904 28.3081 28.904C28.0854 28.904 27.862 28.9032 27.6393 28.9047C27.5901 28.9055 27.5702 28.8901 27.5663 28.8395C27.551 28.6375 27.5326 28.4363 27.5149 28.2351C27.5088 28.1637 27.5026 28.0923 27.4972 28.0201C27.488 28.0063 27.4857 27.9825 27.4826 27.9411C27.4819 27.9349 27.4819 27.9288 27.4811 27.9226C27.4688 27.9096 27.4481 27.9103 27.4274 27.9103C27.2362 27.9103 27.0442 27.9103 26.853 27.9103C26.7263 27.9103 26.6004 27.9119 26.4737 27.9096C26.4222 27.9088 26.4038 27.918 26.4069 27.9771C26.4084 28.0094 26.4099 28.0416 26.4115 28.0731C26.4199 28.0524 26.4391 28.0478 26.4737 28.0486C26.6004 28.0509 26.7263 28.0493 26.853 28.0493C27.0442 28.0493 27.2362 28.0493 27.4274 28.0493C27.4573 28.0493 27.488 28.047 27.4919 28.0908C27.4988 28.1852 27.5072 28.2797 27.5149 28.3734C27.5326 28.5745 27.551 28.7765 27.5663 28.9777C27.5702 29.0284 27.5901 29.0429 27.6393 29.0429C27.862 29.0406 28.0854 29.0422 28.3081 29.0422C28.732 29.0422 29.1558 29.0422 29.5797 29.0422C29.6442 29.0422 29.648 29.0368 29.6381 28.9754C29.6334 28.9516 29.6296 28.9262 29.625 28.9001Z" fill="#FFE941"/>
<path d="M22.4646 28.0532C22.4654 28.047 22.4662 28.0401 22.4669 28.034C22.4846 27.8812 22.4861 27.9119 22.3648 27.9111C22.0615 27.9096 21.759 27.9103 21.4556 27.9103C21.4318 27.9103 21.4157 27.9096 21.405 27.9057C21.4011 27.9295 21.3973 27.9526 21.3935 27.9764C21.3819 28.0447 21.3858 28.0501 21.4556 28.0501C21.759 28.0501 22.0615 28.0493 22.3648 28.0509C22.4209 28.0516 22.4508 28.0455 22.4646 28.0532Z" fill="#FFE941"/>
<path d="M24.4772 14.2381C18.1796 14.2381 13 17.5836 13 21.8675V26.5238L13.0832 26.5237L13.0933 26.5821C13.8249 30.5245 18.8174 33.7709 24.4772 33.7709L24.6557 33.7698C30.2416 33.7025 35.1372 30.483 35.8611 26.5821L35.8712 26.5237L35.9544 26.5238V21.8675C35.9544 17.5838 30.7743 14.2381 24.4772 14.2381ZM24.648 15.4612C30.2727 15.5191 34.7322 18.4338 34.7322 21.8675V25.712L34.7213 25.8711C34.4837 29.3583 29.8554 32.5487 24.4772 32.5487L24.3161 32.5477C19.0069 32.4848 14.4683 29.3234 14.2331 25.8711L14.2222 25.712V21.8675C14.2222 18.3989 18.7718 15.4603 24.4772 15.4603L24.648 15.4612Z" fill="#903C14"/>
<path d="M24.4764 14.8484C18.4748 14.8484 13.6103 17.9906 13.6103 21.8668C13.6103 25.7429 18.4756 28.8851 24.4764 28.8851C30.4781 28.8851 35.3425 25.7429 35.3425 21.8668C35.3433 17.9913 30.4781 14.8484 24.4764 14.8484ZM24.4764 26.0846C20.0359 26.0846 16.4369 24.1688 16.4369 21.383C16.4369 18.5979 20.0366 16.3396 24.4764 16.3396C28.917 16.3396 32.516 18.5972 32.516 21.383C32.5168 24.1681 28.917 26.0846 24.4764 26.0846Z" fill="url(#paint4_linear)"/>
<path opacity="0.54" d="M25.9108 27.5766C26.1051 27.8162 26.2364 28.3391 26.3224 28.6232C26.3316 28.6532 26.3477 28.6893 26.3838 28.6931C26.4184 28.6969 26.4514 28.6662 26.4844 28.6754C26.4982 28.6793 26.5105 28.6893 26.5251 28.6893C26.5535 28.6893 26.5612 28.6555 26.5589 28.6301C26.5458 28.4743 26.4399 27.9897 26.4821 27.8377C26.5405 28.0036 26.6656 28.495 26.724 28.6608C26.7132 28.6309 26.0022 28.9327 25.91 28.6923C25.8187 28.452 25.9177 27.8292 25.9108 27.5766Z" fill="#FDDB39"/>
<path opacity="0.54" d="M24.468 16.1116C19.9752 16.1116 16.3332 18.4835 16.3332 21.2179C16.3332 23.9523 19.9752 26.1699 24.468 26.1699C28.9608 26.1699 32.6028 23.953 32.6028 21.2179C32.6028 18.4835 28.9608 16.1116 24.468 16.1116ZM24.5179 26.0401C20.1142 26.0401 16.5444 23.8893 16.5444 21.2356C16.5444 18.5818 20.1142 16.431 24.5179 16.431C28.9216 16.431 32.4914 18.5818 32.4914 21.2356C32.4914 23.8893 28.9216 26.0401 24.5179 26.0401Z" fill="#FDDB39"/>
<path d="M34.9525 23.7342C34.9525 23.7342 34.9525 23.7334 34.9517 23.7334C34.7951 24.102 34.5923 24.4575 34.3489 24.7992C34.3359 24.8177 34.3213 24.8361 34.3082 24.8545C34.2622 24.9175 34.2161 24.9797 34.1677 25.0411C34.1424 25.0734 34.1155 25.1056 34.0894 25.1371C34.051 25.1839 34.0126 25.2308 33.9727 25.2776C33.9389 25.3168 33.9036 25.3552 33.869 25.3943C33.8344 25.4327 33.7999 25.4704 33.7646 25.508C33.7239 25.551 33.6824 25.594 33.6402 25.6362C33.6079 25.6685 33.5764 25.7007 33.5434 25.733C33.4974 25.7783 33.4497 25.8228 33.4021 25.8673C31.4402 27.691 28.176 28.8866 24.4772 28.8866C20.7784 28.8866 17.5142 27.6918 15.5523 25.8673C15.5047 25.8228 15.4571 25.7783 15.411 25.733C15.378 25.7007 15.3465 25.6685 15.3142 25.6362C15.272 25.594 15.2305 25.551 15.1898 25.508C15.1545 25.4704 15.12 25.432 15.0854 25.3943C15.0509 25.3559 15.0155 25.3168 14.9818 25.2776C14.9418 25.2315 14.9034 25.1839 14.865 25.1371C14.8389 25.1049 14.8121 25.0734 14.7867 25.0411C14.7383 24.9797 14.6915 24.9167 14.6462 24.8545C14.6324 24.8361 14.6186 24.8177 14.6055 24.7992C14.3621 24.4575 14.1601 24.102 14.0027 23.7334C14.0027 23.7334 14.0027 23.7342 14.002 23.7342C13.7478 23.1399 13.6111 22.5141 13.6111 21.8675V25.9126H13.6234C13.8776 29.643 18.6391 33.1598 24.4772 33.1598C30.3153 33.1598 35.0769 29.643 35.331 25.9126H35.3433V21.8675C35.3433 22.5141 35.2059 23.1399 34.9525 23.7342Z" fill="#F28D2C"/>
<path d="M32.5168 21.383C32.5168 24.1681 28.917 26.0846 24.4772 26.0846C20.0366 26.0846 16.4376 24.1688 16.4376 21.383C16.4376 18.5972 20.0374 16.3396 24.4772 16.3396C28.917 16.3396 32.5168 18.5979 32.5168 21.383Z" fill="#F8AC32"/>
<path opacity="0.9" d="M24.4764 17.8823C28.388 17.8823 31.6645 19.3773 32.516 21.3853C32.516 21.3845 32.516 21.3838 32.516 21.383C32.516 18.5979 28.9163 16.3396 24.4764 16.3396C20.0359 16.3396 16.4369 18.5972 16.4369 21.383C16.4369 21.3838 16.4369 21.3845 16.4369 21.3853C17.2892 19.3781 20.5649 17.8823 24.4764 17.8823Z" fill="#D5761F"/>
<path d="M34.8711 27.1105C34.5332 27.9252 34.1431 28.6516 33.4697 29.2882C32.9238 29.8042 32.4661 30.2718 31.8096 30.6819C31.4756 30.8907 31.1415 31.1334 30.7645 31.2762C30.5595 31.3538 29.5183 32.0164 29.314 31.8913C29.215 31.8298 29.3178 31.2393 29.3163 31.1334C29.3063 30.387 29.3324 29.6399 29.3954 28.895C29.4092 28.7292 29.4384 28.5411 29.5943 28.4443C29.7701 29.0763 29.9836 30.1666 30.1587 30.7986C30.3821 29.775 30.4766 27.9966 30.5403 27.969C30.6117 27.9383 30.9104 29.8357 31.0456 30.2273C31.2275 29.7696 31.2567 28.4712 31.3059 27.9959C31.3197 27.8661 31.332 27.7287 31.4203 27.6242C31.4886 27.5444 31.5923 27.4945 31.6921 27.4453C32.4569 27.0706 33.3008 26.4609 33.9082 25.908C34.4342 25.4297 35.3249 23.7304 35.2466 23.4854C35.2473 23.4846 35.3387 25.9841 34.8711 27.1105Z" fill="#D2571C"/>
<path d="M14.4704 27.8692C14.7069 28.207 15.0616 28.8613 15.3595 29.16C16.0829 29.8856 16.7517 30.5828 17.7392 31.009C18.1907 31.2555 20.0159 32.4065 17.7323 30.2757C16.1743 28.8213 15.9554 28.3307 15.0209 26.593C14.7476 26.0847 14.0319 24.3769 13.7585 23.8686C13.6764 24.1527 13.8108 24.4115 13.8223 24.6925C13.8369 25.0565 13.7716 25.4197 13.8 25.7867C13.8545 26.4855 14.0488 27.2679 14.4704 27.8692Z" fill="#D2571C"/>
<path d="M24.4764 16.8771C26.5243 16.8771 28.4417 17.3724 29.8761 18.2724C31.2321 19.1232 31.9793 20.2274 31.9793 21.383C31.9793 22.5156 31.2375 23.5714 29.8914 24.3569C28.4809 25.1801 26.5581 25.6331 24.4772 25.6331C22.3963 25.6331 20.4735 25.1801 19.063 24.3569C17.7161 23.5714 16.9751 22.5156 16.9751 21.383C16.9751 20.2274 17.7223 19.1232 19.0783 18.2724C20.5112 17.3724 22.4285 16.8771 24.4764 16.8771ZM24.4764 16.3396C20.0359 16.3396 16.4369 18.5972 16.4369 21.383C16.4369 24.1681 20.0366 26.1699 24.4764 26.1699C28.917 26.1699 32.516 24.1681 32.516 21.383C32.5168 18.5979 28.917 16.3396 24.4764 16.3396Z" fill="#903C14"/>
<path opacity="0.54" d="M24.3628 15.1157C30.3783 15.1157 35.255 18.439 35.255 22.5394C35.255 22.6262 35.2519 22.7129 35.2473 22.7989C35.3103 22.4941 35.3425 22.1831 35.3425 21.8668C35.3425 17.9906 30.4773 14.8484 24.4764 14.8484C18.8741 14.8484 14.2623 17.5874 13.6741 21.105C14.6546 17.6911 19.0668 15.1157 24.3628 15.1157Z" fill="#FDDB39"/>
<path opacity="0.78" d="M24.4764 28.4858C19.42 28.4858 15.1607 26.4862 13.8776 23.4194C14.9718 26.5484 19.301 28.8858 24.4764 28.8858C29.6519 28.8858 33.9819 26.5484 35.0753 23.4194C33.7922 26.4855 29.5336 28.4858 24.4764 28.4858Z" fill="#FFE941"/>
<path d="M22.6512 28.8252C22.7702 28.7753 22.91 28.7776 23.0367 28.776C23.2417 28.7737 23.4475 28.7645 23.6518 28.7476C23.6809 28.7131 23.6356 28.6655 23.5949 28.647C23.4798 28.5948 23.3523 28.5764 23.2264 28.558C23.0643 28.5349 22.9023 28.5111 22.7395 28.4881C22.6412 28.4735 22.5383 28.4581 22.4562 28.4021C22.2704 28.2754 22.2143 28.0381 22.0139 27.9252C21.8119 27.8108 21.5754 27.774 21.3466 27.7647C20.8414 27.7448 20.3353 27.8538 19.8324 27.7617C19.0031 27.6104 18.1615 27.271 17.3813 26.9577C17.3568 27.0422 17.4374 27.1174 17.5096 27.1681C18.2237 27.6734 18.9509 28.1717 19.751 28.5249C20.5511 28.8782 21.4365 29.0832 22.3049 28.9741C22.4508 28.9557 22.5207 28.8797 22.6482 28.8259C22.6497 28.8259 22.6505 28.8259 22.6512 28.8252Z" fill="#FFF6CF"/>
<path d="M28.1476 32.7497C28.1476 32.8995 28.0447 28.4988 28.047 28.4988C28.047 28.4988 27.2891 27.7517 27.015 27.3401C27.2408 28.0036 27.4258 28.7092 27.4051 29.4011C27.3728 30.4707 27.4381 31.8298 27.4059 32.9002C27.6692 32.8918 27.9065 32.8457 28.1476 32.7497Z" fill="#903C14"/>
<path opacity="0.78" d="M27.0319 27.3248C27.1217 27.5282 27.2799 27.7018 27.4381 27.8699C27.6178 28.0619 27.7998 28.2523 27.9841 28.4412C28.0847 28.5449 28.2559 28.4466 28.1338 28.3337C28.0178 28.227 27.8904 28.1272 27.7721 28.0212C27.5203 27.7939 27.273 27.562 27.0319 27.3248Z" fill="#FFEC9D"/>
<path d="M20.0328 26.2666C20.1956 26.0854 20.4674 25.7322 20.6079 25.5387C20.4759 25.4304 20.2516 25.4389 20.2516 25.4389C20.2516 25.4389 20.0581 26.2382 20.0328 26.2666Z" fill="#903C14"/>
<path opacity="0.15" d="M16.4799 21.9044L13.8545 23.3518C14.4903 25.2584 16.3248 26.8771 18.8242 27.8623L21.5117 25.7783C18.7865 25.1862 16.7932 23.7749 16.4799 21.9044Z" fill="url(#paint5_linear)"/>
<path opacity="0.15" d="M30.991 18.4275L32.5821 17.1935C31.4502 16.375 30.0251 15.7292 28.4141 15.3237L26.3278 16.474C28.2336 16.7558 29.8776 17.463 30.991 18.4275Z" fill="url(#paint6_linear)"/>
<path d="M26.9474 17.7203C27.1356 17.764 27.3137 17.8447 27.4757 17.9898C27.5349 18.0428 27.5901 18.1019 27.6546 18.1487C27.9603 18.3706 27.9342 18.7285 27.9633 19.0725C27.9679 19.127 28.0378 20.0684 28.0447 20.1536C28.0716 20.493 28.0969 20.8324 28.1238 21.1718C28.1522 21.5358 28.1822 21.8998 28.2106 22.2637C28.2275 22.4826 28.2436 22.7014 28.259 22.9203C28.2666 23.0262 28.2682 23.0301 28.3649 23.0301C28.9762 23.0301 29.5881 23.0301 30.1994 23.0301C30.2884 23.0301 30.2892 23.0301 30.3038 23.123C30.3522 23.437 30.3998 23.7511 30.4474 24.0652C30.4574 24.1335 30.4535 24.1389 30.3883 24.1389C29.9583 24.1389 29.5275 24.1389 29.0975 24.1389C28.871 24.1389 28.6444 24.1373 28.4179 24.1397C28.368 24.1404 28.348 24.1235 28.3442 24.0675C28.3288 23.8448 28.3096 23.6221 28.292 23.3986C28.2835 23.2942 28.2751 23.1898 28.2682 23.0854C28.2651 23.0362 28.2336 23.0393 28.2029 23.0393C28.0086 23.0393 27.8144 23.0393 27.6193 23.0393C27.4911 23.0393 27.3629 23.0408 27.2346 23.0385C27.1824 23.037 27.164 23.0477 27.1671 23.1138C27.1801 23.3741 27.1855 23.6344 27.1939 23.8955C27.1962 23.9569 27.2001 24.0183 27.2039 24.0797C27.2062 24.1212 27.1901 24.1412 27.1509 24.1389C27.1356 24.1381 27.121 24.1389 27.1056 24.1389C25.7903 24.1389 24.4741 24.1389 23.1588 24.1389C23.1419 24.1389 23.125 24.1381 23.1081 24.1389C23.0751 24.1397 23.0605 24.1266 23.0651 24.0874C23.0997 23.7841 23.1342 23.48 23.1665 23.1767C23.1849 23.0078 23.1864 23.0424 23.0628 23.0416C22.7549 23.0401 22.4477 23.0408 22.1398 23.0408C22.0692 23.0408 22.0646 23.0354 22.0761 22.9594C22.2849 21.6026 22.4946 20.245 22.7034 18.8882C22.7249 18.7461 22.7495 18.6048 22.7672 18.4628C22.7756 18.3968 22.8033 18.3806 22.8608 18.3806C23.1135 18.3837 23.3669 18.3822 23.6195 18.3814C23.6948 18.3814 23.6963 18.3783 23.7055 18.2954C23.7278 18.0934 23.75 17.8923 23.7723 17.6903C24.448 17.6903 25.1245 17.6903 25.8002 17.6903C26.1849 17.6895 26.5842 17.6358 26.9474 17.7203Z" fill="#D5761F"/>
<path d="M29.7717 23.3994C29.7348 23.1798 29.6181 23.0815 29.3939 23.0815H28.4901H28.3304H27.7483C27.7368 22.9333 27.7245 22.7867 27.713 22.6446C27.6984 22.4718 27.6831 22.2991 27.6677 22.1263C27.6539 21.9696 27.6401 21.8138 27.627 21.6571C27.614 21.5074 27.6017 21.3577 27.5894 21.2072C27.5763 21.0505 27.5633 20.8931 27.5494 20.7364C27.5441 20.6773 27.5349 20.5668 27.4389 20.4831C27.349 20.404 27.25 20.404 27.1847 20.404H26.0053H24.8258C24.8197 20.404 24.8128 20.404 24.8066 20.404H24.7982C24.7936 20.404 24.7882 20.404 24.7828 20.404C24.6001 20.404 24.4634 20.5391 24.458 20.7249C24.4549 20.8271 24.4511 20.93 24.448 21.0321C24.4442 21.1488 24.4404 21.2655 24.4365 21.3822C24.435 21.4383 24.4311 21.5542 24.524 21.6494C24.617 21.7447 24.7337 21.7447 24.7897 21.7454H24.9249C24.994 21.7454 25.0631 21.7454 25.1322 21.7454C25.1606 21.7454 25.1883 21.7454 25.2167 21.7454C25.2159 22.1862 25.2167 22.6331 25.2174 23.08C25.2098 23.08 25.2021 23.08 25.1944 23.08C25.1453 23.08 25.0961 23.08 25.0462 23.08C24.9971 23.08 24.9487 23.08 24.8995 23.08H24.5701H24.2407C24.0549 23.08 23.8691 23.08 23.6832 23.08C23.6924 22.974 23.7017 22.8688 23.7101 22.7652L23.7216 22.6277C23.7316 22.5102 23.7408 22.392 23.7508 22.2745C23.7608 22.1501 23.7708 22.0257 23.7815 21.9013C23.793 21.7631 23.8053 21.6249 23.8168 21.4859C23.8261 21.3784 23.8353 21.2709 23.8445 21.1642C23.8529 21.0689 23.8606 20.9745 23.8683 20.8793C23.8767 20.7802 23.8844 20.6812 23.8936 20.5821C23.9136 20.3487 23.9336 20.1152 23.9543 19.8818L23.9566 19.8565C23.962 19.7966 23.9673 19.7375 23.9727 19.6776C23.9796 19.6015 23.9865 19.5248 23.9927 19.4472C24.1977 19.4472 24.4027 19.448 24.6085 19.448C24.8074 19.448 25.007 19.448 25.2059 19.4472C25.2059 19.4672 25.2059 19.4864 25.2059 19.5063C25.2059 19.5939 25.2059 19.6845 25.2051 19.7728C25.2036 19.9018 25.2566 19.9824 25.3011 20.0277C25.3457 20.073 25.4263 20.1268 25.5553 20.1268C25.8179 20.126 26.079 20.126 26.3401 20.126C26.6027 20.126 26.8653 20.126 27.1279 20.1268C27.2623 20.1268 27.3429 20.0692 27.3874 20.02C27.4312 19.9717 27.4819 19.8864 27.4696 19.7567C27.4535 19.5854 27.4373 19.4011 27.4235 19.2176C27.4082 19.0195 27.2638 18.8859 27.0642 18.8859H27.0588C26.9436 18.8874 26.8277 18.8874 26.7294 18.8874H26.6234H26.5174C26.5113 18.8874 26.5051 18.8874 26.499 18.8874C26.4944 18.7899 26.4906 18.6955 26.4898 18.601C26.4898 18.5634 26.489 18.4927 26.4529 18.416L26.3785 18.2539H26.1995H23.0651H22.8178L22.7879 18.4997L22.7687 18.6571C22.7595 18.7315 22.751 18.8053 22.7418 18.8797C22.6681 18.8797 22.5944 18.8797 22.5199 18.8797C22.3832 18.8797 22.2719 18.879 22.1698 18.8782H22.1636C21.964 18.8782 21.8242 18.9995 21.7974 19.1938C21.7851 19.2852 21.7697 19.3758 21.7528 19.4718C21.7474 19.5048 21.7413 19.537 21.7359 19.5701L21.4441 21.3085L21.1178 23.2512C21.1086 23.305 21.0878 23.4301 21.1808 23.5399C21.2737 23.6497 21.4011 23.6497 21.4556 23.6497H21.5278H21.7559H21.9832C22.0446 23.6497 22.1053 23.6497 22.1667 23.6497C22.1437 23.844 22.1176 24.0529 22.0891 24.2825C22.073 24.413 22.1291 24.499 22.1636 24.5382C22.1982 24.5773 22.2757 24.6434 22.4055 24.6434C22.4093 24.6434 22.4132 24.6434 22.417 24.6434H22.4232H22.4378C22.4447 24.6434 22.4523 24.6434 22.4593 24.6434H24.5525H25.4493H26.3462C26.3531 24.6434 26.36 24.6434 26.3669 24.6434H26.3754C26.3831 24.6441 26.3907 24.6441 26.3976 24.6441C26.4906 24.6441 26.5758 24.6088 26.6365 24.5443C26.6979 24.479 26.7286 24.39 26.7225 24.294L26.7202 24.2533C26.7171 24.2118 26.7148 24.1727 26.7132 24.135C26.7109 24.0629 26.7086 23.9899 26.7063 23.9177C26.7033 23.8302 26.701 23.7411 26.6971 23.6513C26.7132 23.6513 26.7294 23.6513 26.7455 23.6513C26.7816 23.6513 26.8169 23.6513 26.853 23.6513H26.9889H27.2316C27.2331 23.6659 27.2339 23.6797 27.2354 23.6935L27.2377 23.7204C27.2431 23.7818 27.2484 23.8425 27.2538 23.9039C27.2661 24.0414 27.2784 24.1834 27.2891 24.3224C27.3037 24.5159 27.4443 24.6457 27.6385 24.6457H27.6401H27.6431C27.746 24.6449 27.8497 24.6449 27.9533 24.6449C28.0125 24.6449 28.0716 24.6449 28.1315 24.6449C28.1914 24.6449 28.2505 24.6449 28.3104 24.6449H28.3473H28.6045H28.8195C29.0092 24.6449 29.1942 24.6449 29.4269 24.6449C29.4799 24.6449 29.605 24.6449 29.6972 24.5359C29.7893 24.4268 29.7686 24.3009 29.7609 24.2533C29.744 24.1496 29.7563 24.0298 29.7701 23.9039C29.7832 23.7511 29.8024 23.5799 29.7717 23.3994Z" fill="#D2571C"/>
<path d="M27.637 23.96C27.5088 23.96 27.4228 23.8809 27.4128 23.7526C27.402 23.6113 27.3897 23.4708 27.3774 23.3303L27.359 23.123C27.3544 23.0708 27.3498 23.0178 27.346 22.9656H26.853L26.6349 22.9663C26.6119 22.9663 26.5888 22.9663 26.5658 22.9663C26.572 23.0999 26.5758 23.2313 26.5804 23.3595C26.5827 23.4332 26.585 23.5069 26.5881 23.5806C26.5896 23.6221 26.5927 23.6643 26.595 23.7058L26.5973 23.7434C26.6019 23.8217 26.572 23.8717 26.5451 23.9001C26.5082 23.9392 26.456 23.9607 26.3984 23.9607C26.3953 23.9607 26.3854 23.9607 26.3823 23.96H26.3477H22.4147C22.331 23.96 22.2849 23.9262 22.2596 23.8978C22.2343 23.8693 22.2059 23.8187 22.2158 23.7403C22.2481 23.4823 22.2796 23.2251 22.3103 22.9663C22.1966 22.9656 22.0861 22.9656 21.9763 22.9656H21.458C21.4119 22.9656 21.3343 22.9656 21.279 22.9003C21.2238 22.835 21.2368 22.759 21.2437 22.7137L21.8619 19.0325L21.8787 18.9343C21.8949 18.8414 21.911 18.7461 21.9233 18.6525C21.9317 18.5903 21.9717 18.4451 22.1652 18.4451C22.2857 18.4467 22.4017 18.4467 22.5176 18.4467L22.8539 18.4459C22.8662 18.3399 22.9131 17.956 22.9131 17.956C22.9223 17.8792 22.9875 17.8209 23.0659 17.8209H26.2003C26.2602 17.8209 26.3147 17.8554 26.3401 17.9099C26.3646 17.9621 26.3646 18.0113 26.3654 18.0435C26.3662 18.1626 26.3723 18.2846 26.3785 18.4029L26.3808 18.4543C26.4307 18.4543 26.7286 18.4543 26.7286 18.4543C26.8392 18.4543 26.9505 18.4543 27.0611 18.4528C27.2016 18.4528 27.2899 18.5334 27.2999 18.6686C27.3137 18.849 27.3298 19.0295 27.3467 19.2099C27.3544 19.2944 27.3237 19.3474 27.2968 19.3773C27.2569 19.4211 27.2016 19.4426 27.131 19.4426C26.8684 19.4418 26.6057 19.4418 26.3439 19.4418C26.0821 19.4418 25.8202 19.4418 25.5584 19.4426C25.4885 19.4426 25.4332 19.4219 25.3925 19.3812C25.3518 19.3405 25.3318 19.2844 25.3326 19.2161C25.3334 19.1262 25.3334 19.0372 25.3334 18.9481C25.3334 18.8867 25.3334 18.8252 25.3334 18.7638C25.0877 18.7646 24.8435 18.7646 24.5993 18.7646C24.359 18.7646 24.1186 18.7646 23.879 18.7638C23.8698 18.8759 23.8598 18.9888 23.8499 19.1009L23.833 19.2882C23.8115 19.5301 23.7907 19.772 23.77 20.0147L23.7209 20.5967C23.7209 20.5967 23.6694 21.1956 23.6571 21.3338C23.6471 21.4552 23.5857 22.1946 23.5857 22.1946C23.5734 22.3436 23.5611 22.4956 23.5466 22.6477C23.7761 22.6477 24.9011 22.6477 24.9011 22.6477L25.1967 22.6469C25.2458 22.6469 25.295 22.6469 25.3441 22.6477C25.3426 22.1178 25.3426 21.5896 25.3434 21.0613C25.2727 21.062 25.2028 21.062 25.133 21.062L24.7905 21.0613C24.7398 21.0613 24.6707 21.0613 24.6147 21.0037C24.5586 20.9461 24.5609 20.8747 24.5624 20.8271C24.5655 20.7111 24.5701 20.5944 24.574 20.4777C24.577 20.3748 24.5809 20.2727 24.5839 20.1698C24.5878 20.0523 24.6692 19.9701 24.7836 19.9701C24.7859 19.9701 27.1855 19.9701 27.1855 19.9701C27.3444 19.9701 27.4112 20.0308 27.4251 20.1874C27.4389 20.3456 27.4896 20.9591 27.5026 21.1081C27.5157 21.2647 27.5295 21.4206 27.5433 21.5765C27.5587 21.7493 27.5733 21.922 27.5886 22.0948C27.604 22.2791 27.6193 22.4626 27.6331 22.6469H29.3946C29.5582 22.6469 29.6227 22.7007 29.6488 22.8596C29.6964 23.1437 29.7432 23.4278 29.7901 23.7119C29.797 23.7526 29.8093 23.8279 29.7548 23.8924C29.7002 23.9569 29.6219 23.9569 29.5805 23.9569H27.9503C27.8474 23.9569 27.7437 23.9569 27.6408 23.9577C27.6401 23.96 27.6378 23.96 27.637 23.96Z" fill="url(#paint7_linear)"/>
<path d="M26.1988 17.9752C26.2095 17.9975 26.2095 18.022 26.2095 18.0466C26.2111 18.214 26.2218 18.3806 26.2287 18.5473C26.231 18.6002 26.2548 18.6102 26.3001 18.6102C26.3009 18.6102 26.3017 18.6102 26.3017 18.6102C26.3731 18.6095 26.4445 18.6095 26.5167 18.6095C26.5873 18.6095 26.658 18.6095 26.7278 18.6095C26.8384 18.6095 26.949 18.6095 27.0603 18.6079C27.0611 18.6079 27.0619 18.6079 27.0634 18.6079C27.1187 18.6079 27.1402 18.6271 27.1448 18.6816C27.1586 18.8629 27.1747 19.0441 27.1916 19.2253C27.1962 19.2744 27.1763 19.2906 27.1287 19.2906C27.1287 19.2906 27.1287 19.2906 27.1279 19.2906C26.8653 19.2898 26.6027 19.2898 26.3401 19.2898C26.0782 19.2898 25.8171 19.2898 25.5553 19.2906C25.5553 19.2906 25.5553 19.2906 25.5545 19.2906C25.5015 19.2906 25.4831 19.2721 25.4839 19.2191C25.4862 19.0387 25.4831 18.859 25.4854 18.6786C25.4862 18.6287 25.4701 18.611 25.4186 18.611H25.4179C25.1476 18.6118 24.8773 18.6118 24.6077 18.6118C24.339 18.6118 24.0695 18.6118 23.8007 18.611C23.8007 18.611 23.8007 18.611 23.8 18.611C23.7554 18.611 23.7331 18.6217 23.7293 18.6709C23.714 18.8728 23.6948 19.074 23.6771 19.2752C23.6564 19.5171 23.6349 19.7597 23.6141 20.0016C23.5972 20.1959 23.5819 20.3901 23.565 20.5836C23.5443 20.8294 23.522 21.0751 23.5013 21.3208C23.4805 21.5627 23.4613 21.8053 23.4414 22.0472C23.4222 22.2768 23.4045 22.5056 23.3807 22.7344C23.3753 22.7897 23.3922 22.8012 23.4414 22.8012H23.4421C23.7078 22.8005 23.9727 22.8005 24.2384 22.8005C24.458 22.8005 24.6784 22.8005 24.898 22.8005C24.9963 22.8005 25.0946 22.7997 25.1929 22.7997C25.2712 22.7997 25.3495 22.7997 25.4278 22.8012C25.4286 22.8012 25.4294 22.8012 25.4309 22.8012C25.48 22.8012 25.4954 22.7828 25.4954 22.7337C25.4939 22.1486 25.4931 21.5634 25.4946 20.9783C25.4946 20.9261 25.4785 20.9069 25.4263 20.9069C25.4255 20.9069 25.4248 20.9069 25.424 20.9069C25.3265 20.9077 25.2282 20.9085 25.1307 20.9085C25.0163 20.9085 24.9026 20.9077 24.7882 20.9077C24.716 20.9077 24.7114 20.9046 24.7137 20.8324C24.7199 20.6136 24.7283 20.3947 24.7352 20.1759C24.736 20.1429 24.749 20.1252 24.7813 20.1252C24.7828 20.1252 24.7844 20.1252 24.7859 20.1252C24.7897 20.1252 24.7936 20.1252 24.7974 20.1252C24.8066 20.1252 24.8158 20.1252 24.8251 20.1252C25.2121 20.1252 25.5991 20.1252 25.9868 20.1252C26.3861 20.1252 26.7854 20.1252 27.1839 20.1252C27.2623 20.1252 27.2638 20.1252 27.2707 20.202C27.2968 20.5092 27.3222 20.8155 27.3483 21.1227C27.3767 21.4513 27.4059 21.7807 27.4343 22.1094C27.4512 22.3075 27.4673 22.5048 27.4819 22.703C27.4888 22.7989 27.4911 22.802 27.5863 22.802C28.1883 22.802 28.7911 22.802 29.3931 22.802C29.4814 22.802 29.4814 22.802 29.496 22.8865C29.5436 23.1706 29.5904 23.4547 29.6373 23.738C29.6473 23.7995 29.6434 23.8048 29.5789 23.8048C29.3417 23.8048 29.1044 23.8048 28.8671 23.8048C28.6805 23.8048 28.4939 23.8048 28.3073 23.8048C28.1883 23.8048 28.0693 23.8048 27.9503 23.8048C27.8466 23.8048 27.7422 23.8048 27.6385 23.8064C27.6378 23.8064 27.637 23.8064 27.6362 23.8064C27.5886 23.8064 27.5694 23.791 27.5656 23.7411C27.5502 23.5392 27.5318 23.338 27.5141 23.1368C27.5057 23.0424 27.498 22.9479 27.4911 22.8542C27.488 22.8143 27.4634 22.8128 27.4366 22.8128C27.4335 22.8128 27.4304 22.8128 27.4274 22.8128C27.2362 22.8128 27.0442 22.8128 26.853 22.8128C26.78 22.8128 26.7079 22.8135 26.6349 22.8135C26.5812 22.8135 26.5274 22.8135 26.4737 22.812C26.4714 22.812 26.4691 22.812 26.4668 22.812C26.4207 22.812 26.4038 22.8235 26.4069 22.8803C26.4199 23.1153 26.4245 23.351 26.433 23.5868C26.4353 23.6421 26.4391 23.6981 26.443 23.7534C26.4453 23.7887 26.4314 23.8072 26.3976 23.8072C26.3953 23.8072 26.393 23.8072 26.3907 23.8072C26.3854 23.8072 26.3808 23.8064 26.3754 23.8064C26.3654 23.8064 26.3554 23.8072 26.3462 23.8072C25.6981 23.8072 25.0508 23.8072 24.4027 23.8072C23.7546 23.8072 23.1073 23.8072 22.4593 23.8072C22.447 23.8072 22.4355 23.8072 22.4232 23.8072C22.4186 23.8072 22.414 23.8072 22.4093 23.8072C22.4086 23.8072 22.407 23.8072 22.4063 23.8072C22.3763 23.8072 22.3625 23.7949 22.3671 23.7603C22.4017 23.4862 22.4347 23.2113 22.4669 22.9372C22.48 22.8274 22.4846 22.8128 22.4408 22.8128C22.4247 22.8128 22.4009 22.8151 22.3694 22.8151C22.3679 22.8151 22.3663 22.8151 22.3656 22.8151C22.2389 22.8143 22.1122 22.8143 21.9847 22.8143C21.8327 22.8143 21.6806 22.8143 21.5286 22.8143C21.5048 22.8143 21.4802 22.8143 21.4564 22.8143C21.3865 22.8143 21.3827 22.8089 21.3942 22.7406C21.6 21.5135 21.8066 20.2865 22.0124 19.0594C22.0339 18.9312 22.0577 18.803 22.0746 18.6747C22.0822 18.6156 22.1091 18.601 22.1636 18.601C22.1644 18.601 22.1659 18.601 22.1667 18.601C22.2842 18.6025 22.4017 18.6025 22.5199 18.6025C22.6512 18.6025 22.7825 18.6018 22.9146 18.6018C22.9883 18.6018 22.9899 18.5987 22.9991 18.5242C23.0206 18.3415 23.0428 18.1595 23.0651 17.9767C24.1094 17.9752 25.1537 17.9752 26.1988 17.9752ZM26.1988 17.668H23.0643C22.9092 17.668 22.7779 17.784 22.7595 17.9383L22.7403 18.0996C22.7326 18.1641 22.7242 18.2286 22.7165 18.2939C22.6512 18.2939 22.5852 18.2939 22.5199 18.2939C22.4032 18.2939 22.2865 18.2939 22.1705 18.2923C22.1698 18.2923 22.1652 18.2923 22.1644 18.2923C21.9532 18.2923 21.7989 18.4259 21.7705 18.6325C21.7582 18.7239 21.7428 18.8145 21.7259 18.9105C21.7206 18.9427 21.7144 18.975 21.709 19.008L21.4449 20.5829L21.0917 22.6891C21.0817 22.7467 21.0594 22.8811 21.1608 23.0009C21.2621 23.1207 21.3988 23.1207 21.4564 23.1207H21.5286H21.7567H21.9847C22.0354 23.1207 22.0853 23.1207 22.136 23.1207C22.1137 23.3065 22.0891 23.5046 22.0623 23.7227C22.0446 23.8647 22.1053 23.9577 22.1437 24.0007C22.1813 24.0437 22.2658 24.1151 22.4063 24.1151C22.4093 24.1151 22.4147 24.1151 22.4178 24.1151H22.4239H22.4378H22.4593H24.4027H26.3462C26.3531 24.1151 26.36 24.1151 26.3669 24.1151H26.3746C26.3823 24.1158 26.39 24.1158 26.3976 24.1158C26.4982 24.1158 26.5904 24.0774 26.6564 24.0068C26.7232 23.9362 26.7562 23.8394 26.7493 23.7357L26.7463 23.6935C26.744 23.6543 26.7409 23.616 26.7394 23.5768C26.737 23.5054 26.7347 23.4332 26.7324 23.3618C26.7301 23.2827 26.7278 23.2028 26.7248 23.1222C26.7317 23.1222 26.7378 23.1222 26.7447 23.1222C26.7808 23.1222 26.8169 23.1222 26.8522 23.1222H26.9782H27.2047C27.2054 23.1276 27.2054 23.1337 27.2062 23.1391L27.2085 23.166C27.2139 23.2274 27.2193 23.2881 27.2246 23.3495C27.2369 23.487 27.2492 23.6282 27.26 23.7672C27.2753 23.9761 27.4274 24.1166 27.637 24.1166C27.6378 24.1166 27.6408 24.1166 27.6416 24.1166C27.7453 24.1158 27.8482 24.1158 27.951 24.1158H28.1292H28.3081H28.5884H28.8686C29.1059 24.1158 29.3432 24.1158 29.5805 24.1158C29.6327 24.1158 29.7709 24.1158 29.8723 23.9968C29.9728 23.8786 29.9506 23.7427 29.9421 23.692C29.8953 23.4079 29.8484 23.1238 29.8008 22.8396C29.7617 22.607 29.6327 22.4987 29.3954 22.4987H28.4264H27.776C27.7652 22.3582 27.7537 22.2207 27.7422 22.0871C27.7276 21.9159 27.7122 21.7447 27.6976 21.5734C27.6838 21.416 27.67 21.2578 27.6562 21.1004C27.6431 20.9491 27.6308 20.7986 27.6178 20.6474C27.6047 20.4915 27.5917 20.3356 27.5786 20.1797C27.5648 20.0162 27.485 19.8219 27.1862 19.8219H25.9891H24.8274C24.8204 19.8219 24.8143 19.8219 24.8074 19.8219H24.7997C24.7959 19.8219 24.7897 19.8219 24.7844 19.8219C24.5862 19.8219 24.4373 19.9686 24.4311 20.1698C24.4281 20.2727 24.4242 20.3748 24.4212 20.4769C24.4173 20.5936 24.4135 20.7103 24.4096 20.8271C24.4081 20.8862 24.4043 21.0106 24.5049 21.115C24.6054 21.2187 24.7306 21.2194 24.7905 21.2194H24.9279C24.9963 21.2194 25.0646 21.2194 25.1337 21.2194C25.1522 21.2194 25.1714 21.2194 25.1898 21.2194C25.189 21.6418 25.1898 22.0695 25.1906 22.4979H25.0477H24.9011H24.5778H24.2415C24.0656 22.4979 23.8906 22.4979 23.7147 22.4979C23.7232 22.402 23.7308 22.306 23.7385 22.2123L23.75 22.0764C23.76 21.9589 23.7692 21.8414 23.7792 21.7239C23.7892 21.5995 23.8 21.4744 23.8099 21.35C23.8215 21.2133 23.833 21.0766 23.8453 20.9392C23.8545 20.8301 23.8645 20.7211 23.8737 20.6128C23.8821 20.5176 23.8898 20.4224 23.8975 20.3279C23.9059 20.2289 23.9136 20.1298 23.922 20.0308C23.9412 19.8073 23.9604 19.5846 23.9796 19.3612L23.9842 19.3051C23.9896 19.246 23.995 19.1869 24.0004 19.127C24.0065 19.0594 24.0127 18.9903 24.0188 18.9212C24.2154 18.9212 24.4119 18.922 24.6085 18.922C24.7982 18.922 24.9878 18.922 25.1783 18.9212C25.1783 18.9312 25.1783 18.9419 25.1783 18.9519C25.1783 19.041 25.1783 19.1293 25.1775 19.2184C25.176 19.3574 25.2328 19.4441 25.2812 19.4933C25.3295 19.5424 25.4163 19.6008 25.5553 19.6008C25.8179 19.6 26.079 19.6 26.3401 19.6C26.6027 19.6 26.8653 19.6 27.1271 19.6008C27.2715 19.6008 27.359 19.5378 27.4074 19.4848C27.455 19.4326 27.5095 19.3405 27.4972 19.1999C27.4811 19.0287 27.465 18.8452 27.4512 18.6609C27.435 18.4474 27.2792 18.3031 27.0634 18.3031C27.0619 18.3031 27.058 18.3031 27.0572 18.3031C26.9474 18.3046 26.8384 18.3046 26.7286 18.3046H26.6234H26.5251C26.5213 18.2163 26.5174 18.1311 26.5167 18.0458C26.5167 18.0059 26.5159 17.9314 26.4775 17.8485C26.4276 17.7372 26.3186 17.668 26.1988 17.668Z" fill="#903C14"/>
<path d="M25.4854 18.6686C25.4854 18.6248 25.4854 18.5818 25.4854 18.538C25.4862 18.4874 25.4701 18.4705 25.4178 18.4705C24.8788 18.472 24.3398 18.472 23.8007 18.4705C23.7562 18.4705 23.7331 18.4812 23.7293 18.5304C23.7139 18.7323 23.6948 18.9335 23.6771 19.1347C23.6564 19.3766 23.6349 19.6192 23.6141 19.8611C23.5972 20.0553 23.5819 20.2496 23.565 20.4431C23.5442 20.6888 23.522 20.9346 23.5012 21.1803C23.4805 21.4222 23.4613 21.6648 23.4414 21.9067C23.4222 22.1363 23.4045 22.3651 23.3807 22.5939C23.3784 22.62 23.3807 22.6362 23.3891 22.6461C23.4083 22.4465 23.4245 22.2461 23.4414 22.0464C23.4613 21.8046 23.4805 21.5619 23.5012 21.32C23.522 21.0743 23.5435 20.8286 23.565 20.5829C23.5819 20.3886 23.5972 20.1943 23.6141 20.0008C23.6349 19.759 23.6556 19.5163 23.6771 19.2744C23.6948 19.0732 23.7139 18.8713 23.7293 18.6701C23.7331 18.6202 23.7554 18.6095 23.8007 18.6102C24.3398 18.611 24.8788 18.6118 25.4178 18.6102C25.4662 18.6102 25.4839 18.6256 25.4854 18.6686Z" fill="#FFE941"/>
<path d="M25.4962 20.8401C25.4962 20.7871 25.4793 20.7679 25.4255 20.7687C25.2136 20.771 25.0017 20.7695 24.7897 20.7695C24.7421 20.7695 24.7245 20.7679 24.7183 20.7464C24.7176 20.7756 24.716 20.804 24.7152 20.8332C24.7129 20.9061 24.7168 20.9084 24.7897 20.9084C25.0017 20.9084 25.2136 20.91 25.4255 20.9077C25.4793 20.9069 25.4962 20.9269 25.4962 20.9791C25.4954 21.5181 25.4962 22.0579 25.4969 22.597C25.4969 22.5962 25.4969 22.5955 25.4969 22.5947C25.4954 22.0103 25.4946 21.4252 25.4962 20.8401Z" fill="#FFE941"/>
<path d="M27.1287 19.1508C26.6042 19.15 26.0805 19.1493 25.5561 19.1508C25.5062 19.1508 25.4862 19.1339 25.4847 19.0878C25.4847 19.1316 25.4847 19.1754 25.4847 19.2191C25.4839 19.2721 25.5031 19.2906 25.5561 19.2906C26.0805 19.289 26.6042 19.289 27.1287 19.2906C27.177 19.2906 27.1962 19.2744 27.1916 19.2253C27.1886 19.1938 27.1862 19.1631 27.1832 19.1316C27.1732 19.1454 27.1555 19.1508 27.1287 19.1508Z" fill="#FFE941"/>
<path d="M26.3915 23.6666C26.3769 23.6659 26.3616 23.6666 26.347 23.6666C25.0516 23.6666 23.7554 23.6666 22.46 23.6666C22.4431 23.6666 22.4262 23.6659 22.4101 23.6666C22.3963 23.6666 22.3871 23.6643 22.3794 23.6597C22.3756 23.6927 22.3717 23.7265 22.3671 23.7595C22.3625 23.7956 22.3771 23.8072 22.4093 23.8064C22.4262 23.8056 22.4431 23.8064 22.4593 23.8064C23.7546 23.8064 25.0508 23.8064 26.3462 23.8064C26.3608 23.8064 26.3762 23.8056 26.3907 23.8064C26.4291 23.8087 26.4453 23.7903 26.443 23.7534C26.4407 23.7181 26.4383 23.6828 26.436 23.6474C26.4291 23.6605 26.4153 23.6682 26.3915 23.6666Z" fill="#FFE941"/>
<path d="M29.625 23.662C29.615 23.6651 29.6012 23.6659 29.5797 23.6659C29.1558 23.6659 28.732 23.6659 28.3081 23.6659C28.0854 23.6659 27.862 23.6651 27.6393 23.6666C27.5901 23.6674 27.5702 23.652 27.5663 23.6014C27.551 23.3994 27.5326 23.1982 27.5149 22.9971C27.5088 22.9256 27.5026 22.8542 27.4972 22.782C27.488 22.7682 27.4857 22.7444 27.4826 22.703C27.4819 22.6968 27.4819 22.6907 27.4811 22.6845C27.4688 22.6715 27.4481 22.6722 27.4274 22.6722C27.2362 22.6722 27.0442 22.6722 26.853 22.6722C26.7263 22.6722 26.6004 22.6738 26.4737 22.6715C26.4222 22.6707 26.4038 22.6799 26.4069 22.739C26.4084 22.7713 26.4099 22.8035 26.4115 22.835C26.4199 22.8143 26.4391 22.8097 26.4737 22.8105C26.6004 22.8128 26.7263 22.8112 26.853 22.8112C27.0442 22.8112 27.2362 22.8112 27.4274 22.8112C27.4573 22.8112 27.488 22.8089 27.4919 22.8527C27.4988 22.9471 27.5072 23.0416 27.5149 23.1353C27.5326 23.3364 27.551 23.5384 27.5663 23.7396C27.5702 23.7903 27.5901 23.8048 27.6393 23.8048C27.862 23.8025 28.0854 23.8041 28.3081 23.8041C28.732 23.8041 29.1558 23.8041 29.5797 23.8041C29.6442 23.8041 29.648 23.7987 29.6381 23.7373C29.6334 23.7135 29.6296 23.6881 29.625 23.662Z" fill="#FFE941"/>
<path d="M22.4646 22.8151C22.4654 22.8089 22.4662 22.802 22.4669 22.7959C22.4846 22.6431 22.4861 22.6738 22.3648 22.673C22.0615 22.6715 21.759 22.6722 21.4556 22.6722C21.4318 22.6722 21.4157 22.6715 21.405 22.6676C21.4011 22.6914 21.3973 22.7145 21.3935 22.7383C21.3819 22.8066 21.3858 22.812 21.4556 22.812C21.759 22.812 22.0615 22.8112 22.3648 22.8128C22.4209 22.8135 22.4508 22.8074 22.4646 22.8151Z" fill="#FFE941"/>
<path d="M24.4772 9C18.1796 9 13 12.3455 13 16.6294V21.2857L13.0832 21.2856L13.0933 21.344C13.8249 25.2864 18.8174 28.5328 24.4772 28.5328L24.6557 28.5317C30.2416 28.4644 35.1372 25.2449 35.8611 21.344L35.8712 21.2856L35.9544 21.2857V16.6294C35.9544 12.3457 30.7743 9 24.4772 9ZM24.648 10.2231C30.2727 10.2811 34.7322 13.1957 34.7322 16.6294V20.4739L34.7213 20.633C34.4837 24.1202 29.8554 27.3106 24.4772 27.3106L24.3161 27.3096C19.0069 27.2467 14.4683 24.0853 14.2331 20.633L14.2222 20.4739V16.6294C14.2222 13.1608 18.7718 10.2222 24.4772 10.2222L24.648 10.2231Z" fill="#903C14"/>
<path d="M24.4764 9.61034C18.4748 9.61034 13.6103 12.7525 13.6103 16.6287C13.6103 20.5049 18.4756 23.647 24.4764 23.647C30.4781 23.647 35.3425 20.5049 35.3425 16.6287C35.3433 12.7532 30.4781 9.61034 24.4764 9.61034ZM24.4764 20.8466C20.0359 20.8466 16.4369 18.9307 16.4369 16.1449C16.4369 13.3598 20.0366 11.1015 24.4764 11.1015C28.917 11.1015 32.516 13.3591 32.516 16.1449C32.5168 18.93 28.917 20.8466 24.4764 20.8466Z" fill="url(#paint8_linear)"/>
<path opacity="0.54" d="M25.9108 22.3385C26.1051 22.5781 26.2364 23.101 26.3224 23.3851C26.3316 23.4151 26.3477 23.4512 26.3838 23.455C26.4184 23.4588 26.4514 23.4281 26.4844 23.4373C26.4982 23.4412 26.5105 23.4512 26.5251 23.4512C26.5535 23.4512 26.5612 23.4174 26.5589 23.392C26.5458 23.2362 26.4399 22.7516 26.4821 22.5996C26.5405 22.7655 26.6656 23.2569 26.724 23.4228C26.7132 23.3928 26.0022 23.6946 25.91 23.4542C25.8187 23.2139 25.9177 22.5912 25.9108 22.3385Z" fill="#FDDB39"/>
<path opacity="0.54" d="M24.468 10.8735C19.9752 10.8735 16.3332 13.2454 16.3332 15.9798C16.3332 18.7142 19.9752 20.9318 24.468 20.9318C28.9608 20.9318 32.6028 18.715 32.6028 15.9798C32.6028 13.2454 28.9608 10.8735 24.468 10.8735ZM24.5179 20.802C20.1142 20.802 16.5444 18.6512 16.5444 15.9975C16.5444 13.3437 20.1142 11.1929 24.5179 11.1929C28.9216 11.1929 32.4914 13.3437 32.4914 15.9975C32.4914 18.6512 28.9216 20.802 24.5179 20.802Z" fill="#FDDB39"/>
<path d="M34.9525 18.4961C34.9525 18.4961 34.9525 18.4953 34.9517 18.4953C34.7951 18.8639 34.5923 19.2194 34.3489 19.5611C34.3359 19.5796 34.3213 19.598 34.3082 19.6164C34.2622 19.6794 34.2161 19.7416 34.1677 19.803C34.1424 19.8353 34.1155 19.8675 34.0894 19.899C34.051 19.9458 34.0126 19.9927 33.9727 20.0395C33.9389 20.0787 33.9036 20.1171 33.869 20.1562C33.8344 20.1946 33.7999 20.2323 33.7646 20.2699C33.7239 20.3129 33.6824 20.3559 33.6402 20.3981C33.6079 20.4304 33.5764 20.4626 33.5434 20.4949C33.4974 20.5402 33.4497 20.5847 33.4021 20.6292C31.4402 22.4529 28.176 23.6485 24.4772 23.6485C20.7784 23.6485 17.5142 22.4537 15.5523 20.6292C15.5047 20.5847 15.4571 20.5402 15.411 20.4949C15.378 20.4626 15.3465 20.4304 15.3142 20.3981C15.272 20.3559 15.2305 20.3129 15.1898 20.2699C15.1545 20.2323 15.12 20.1939 15.0854 20.1562C15.0509 20.1178 15.0155 20.0787 14.9818 20.0395C14.9418 19.9935 14.9034 19.9458 14.865 19.899C14.8389 19.8668 14.8121 19.8353 14.7867 19.803C14.7383 19.7416 14.6915 19.6786 14.6462 19.6164C14.6324 19.598 14.6186 19.5796 14.6055 19.5611C14.3621 19.2194 14.1601 18.8639 14.0027 18.4953C14.0027 18.4953 14.0027 18.4961 14.002 18.4961C13.7478 17.9018 13.6111 17.276 13.6111 16.6294V20.6746H13.6234C13.8776 24.4049 18.6391 27.9217 24.4772 27.9217C30.3153 27.9217 35.0769 24.4049 35.331 20.6746H35.3433V16.6294C35.3433 17.276 35.2059 17.9018 34.9525 18.4961Z" fill="#F28D2C"/>
<path d="M32.5168 16.1449C32.5168 18.93 28.917 20.8466 24.4772 20.8466C20.0366 20.8466 16.4376 18.9307 16.4376 16.1449C16.4376 13.3591 20.0374 11.1015 24.4772 11.1015C28.917 11.1015 32.5168 13.3598 32.5168 16.1449Z" fill="#F8AC32"/>
<path opacity="0.9" d="M24.4764 12.6442C28.388 12.6442 31.6645 14.1392 32.516 16.1472C32.516 16.1464 32.516 16.1457 32.516 16.1449C32.516 13.3598 28.9163 11.1015 24.4764 11.1015C20.0359 11.1015 16.4369 13.3591 16.4369 16.1449C16.4369 16.1457 16.4369 16.1464 16.4369 16.1472C17.2892 14.14 20.5649 12.6442 24.4764 12.6442Z" fill="#D5761F"/>
<path d="M34.8711 21.8724C34.5332 22.6871 34.1431 23.4135 33.4697 24.0501C32.9238 24.5661 32.4661 25.0337 31.8096 25.4438C31.4756 25.6526 31.1415 25.8953 30.7645 26.0381C30.5595 26.1157 29.5183 26.7783 29.314 26.6532C29.215 26.5917 29.3178 26.0013 29.3163 25.8953C29.3063 25.1489 29.3324 24.4018 29.3954 23.657C29.4092 23.4911 29.4384 23.303 29.5943 23.2062C29.7701 23.8382 29.9836 24.9285 30.1587 25.5605C30.3821 24.5369 30.4766 22.7585 30.5403 22.7309C30.6117 22.7002 30.9104 24.5976 31.0456 24.9892C31.2275 24.5316 31.2567 23.2331 31.3059 22.7578C31.3197 22.628 31.332 22.4906 31.4203 22.3861C31.4886 22.3063 31.5923 22.2564 31.6921 22.2072C32.4569 21.8325 33.3008 21.2228 33.9082 20.6699C34.4342 20.1916 35.3249 18.4923 35.2466 18.2473C35.2473 18.2466 35.3387 20.746 34.8711 21.8724Z" fill="#D2571C"/>
<path d="M14.4704 22.6311C14.7069 22.9689 15.0616 23.6232 15.3595 23.9219C16.0829 24.6475 16.7517 25.3447 17.7392 25.7709C18.1907 26.0174 20.0159 27.1684 17.7323 25.0376C16.1743 23.5832 15.9554 23.0926 15.0209 21.3549C14.7476 20.8466 14.0319 19.1388 13.7585 18.6305C13.6764 18.9146 13.8108 19.1734 13.8223 19.4544C13.8369 19.8184 13.7716 20.1816 13.8 20.5486C13.8545 21.2474 14.0488 22.0298 14.4704 22.6311Z" fill="#D2571C"/>
<path d="M24.4764 11.6391C26.5243 11.6391 28.4417 12.1343 29.8761 13.0343C31.2321 13.8851 31.9793 14.9893 31.9793 16.1449C31.9793 17.2775 31.2375 18.3333 29.8914 19.1189C28.4809 19.942 26.5581 20.395 24.4772 20.395C22.3963 20.395 20.4735 19.942 19.063 19.1189C17.7161 18.3333 16.9751 17.2775 16.9751 16.1449C16.9751 14.9893 17.7223 13.8851 19.0783 13.0343C20.5112 12.1343 22.4285 11.6391 24.4764 11.6391ZM24.4764 11.1015C20.0359 11.1015 16.4369 13.3591 16.4369 16.1449C16.4369 18.93 20.0366 20.9318 24.4764 20.9318C28.917 20.9318 32.516 18.93 32.516 16.1449C32.5168 13.3598 28.917 11.1015 24.4764 11.1015Z" fill="#903C14"/>
<path opacity="0.54" d="M24.3628 9.87756C30.3783 9.87756 35.255 13.2009 35.255 17.3013C35.255 17.3881 35.2519 17.4748 35.2473 17.5608C35.3103 17.256 35.3425 16.945 35.3425 16.6287C35.3425 12.7525 30.4773 9.61034 24.4764 9.61034C18.8741 9.61034 14.2623 12.3493 13.6741 15.8669C14.6546 12.453 19.0668 9.87756 24.3628 9.87756Z" fill="#FDDB39"/>
<path opacity="0.78" d="M24.4764 23.2477C19.42 23.2477 15.1607 21.2482 13.8776 18.1813C14.9718 21.3103 19.301 23.6477 24.4764 23.6477C29.6519 23.6477 33.9819 21.3103 35.0753 18.1813C33.7922 21.2474 29.5336 23.2477 24.4764 23.2477Z" fill="#FFE941"/>
<path d="M22.6512 23.5871C22.7702 23.5372 22.91 23.5395 23.0367 23.5379C23.2417 23.5356 23.4475 23.5264 23.6518 23.5095C23.6809 23.475 23.6356 23.4274 23.5949 23.4089C23.4798 23.3567 23.3523 23.3383 23.2264 23.3199C23.0643 23.2968 22.9023 23.273 22.7395 23.25C22.6412 23.2354 22.5383 23.22 22.4562 23.164C22.2704 23.0373 22.2143 22.8 22.0139 22.6871C21.8119 22.5727 21.5754 22.5359 21.3466 22.5266C20.8414 22.5067 20.3353 22.6157 19.8324 22.5236C19.0031 22.3723 18.1615 22.0329 17.3813 21.7196C17.3568 21.8041 17.4374 21.8793 17.5096 21.93C18.2237 22.4353 18.9509 22.9336 19.751 23.2868C20.5511 23.6401 21.4365 23.8451 22.3049 23.736C22.4508 23.7176 22.5207 23.6416 22.6482 23.5878C22.6497 23.5878 22.6505 23.5878 22.6512 23.5871Z" fill="#FFF6CF"/>
<path d="M28.1476 27.5116C28.1476 27.6614 28.0447 23.2607 28.047 23.2607C28.047 23.2607 27.2891 22.5136 27.015 22.102C27.2408 22.7655 27.4258 23.4711 27.4051 24.163C27.3728 25.2326 27.4381 26.5917 27.4059 27.6622C27.6692 27.6537 27.9065 27.6076 28.1476 27.5116Z" fill="#903C14"/>
<path opacity="0.78" d="M27.0319 22.0867C27.1217 22.2901 27.2799 22.4637 27.4381 22.6318C27.6178 22.8238 27.7998 23.0142 27.9841 23.2031C28.0847 23.3068 28.2559 23.2085 28.1338 23.0956C28.0178 22.9889 27.8904 22.8891 27.7721 22.7831C27.5203 22.5558 27.273 22.3239 27.0319 22.0867Z" fill="#FFEC9D"/>
<path d="M20.0328 21.0285C20.1956 20.8473 20.4674 20.4941 20.6079 20.3006C20.4759 20.1923 20.2516 20.2008 20.2516 20.2008C20.2516 20.2008 20.0581 21.0001 20.0328 21.0285Z" fill="#903C14"/>
<path opacity="0.15" d="M16.4799 16.6663L13.8545 18.1137C14.4903 20.0203 16.3248 21.639 18.8242 22.6242L21.5117 20.5402C18.7865 19.9481 16.7932 18.5368 16.4799 16.6663Z" fill="url(#paint9_linear)"/>
<path opacity="0.15" d="M30.991 13.1894L32.5821 11.9554C31.4502 11.1369 30.0251 10.4911 28.4141 10.0857L26.3278 11.2359C28.2336 11.5177 29.8776 12.2249 30.991 13.1894Z" fill="url(#paint10_linear)"/>
<path d="M26.9474 12.4822C27.1356 12.5259 27.3137 12.6066 27.4757 12.7517C27.5349 12.8047 27.5901 12.8638 27.6546 12.9106C27.9603 13.1326 27.9342 13.4904 27.9633 13.8344C27.9679 13.8889 28.0378 14.8303 28.0447 14.9155C28.0716 15.2549 28.0969 15.5943 28.1238 15.9337C28.1522 16.2977 28.1822 16.6617 28.2106 17.0256C28.2275 17.2445 28.2436 17.4633 28.259 17.6822C28.2666 17.7881 28.2682 17.792 28.3649 17.792C28.9762 17.792 29.5881 17.792 30.1994 17.792C30.2884 17.792 30.2892 17.792 30.3038 17.8849C30.3522 18.1989 30.3998 18.513 30.4474 18.8271C30.4574 18.8954 30.4535 18.9008 30.3883 18.9008C29.9583 18.9008 29.5275 18.9008 29.0975 18.9008C28.871 18.9008 28.6444 18.8992 28.4179 18.9016C28.368 18.9023 28.348 18.8854 28.3442 18.8294C28.3288 18.6067 28.3096 18.384 28.292 18.1606C28.2835 18.0561 28.2751 17.9517 28.2682 17.8473C28.2651 17.7981 28.2336 17.8012 28.2029 17.8012C28.0086 17.8012 27.8144 17.8012 27.6193 17.8012C27.4911 17.8012 27.3629 17.8027 27.2346 17.8004C27.1824 17.7989 27.164 17.8096 27.1671 17.8757C27.1801 18.136 27.1855 18.3963 27.1939 18.6574C27.1962 18.7188 27.2001 18.7802 27.2039 18.8417C27.2062 18.8831 27.1901 18.9031 27.1509 18.9008C27.1356 18.9 27.121 18.9008 27.1056 18.9008C25.7903 18.9008 24.4741 18.9008 23.1588 18.9008C23.1419 18.9008 23.125 18.9 23.1081 18.9008C23.0751 18.9016 23.0605 18.8885 23.0651 18.8493C23.0997 18.546 23.1342 18.2419 23.1665 17.9386C23.1849 17.7697 23.1864 17.8043 23.0628 17.8035C22.7549 17.802 22.4477 17.8027 22.1398 17.8027C22.0692 17.8027 22.0646 17.7973 22.0761 17.7213C22.2849 16.3645 22.4946 15.0069 22.7034 13.6501C22.7249 13.508 22.7495 13.3668 22.7672 13.2247C22.7756 13.1587 22.8033 13.1425 22.8608 13.1425C23.1135 13.1456 23.3669 13.1441 23.6195 13.1433C23.6948 13.1433 23.6963 13.1402 23.7055 13.0573C23.7278 12.8554 23.75 12.6542 23.7723 12.4522C24.448 12.4522 25.1245 12.4522 25.8002 12.4522C26.1849 12.4515 26.5842 12.3977 26.9474 12.4822Z" fill="#D5761F"/>
<path d="M29.7717 18.1613C29.7348 17.9417 29.6181 17.8434 29.3939 17.8434H28.4901H28.3304H27.7483C27.7368 17.6952 27.7245 17.5486 27.713 17.4065C27.6984 17.2337 27.6831 17.061 27.6677 16.8882C27.6539 16.7316 27.6401 16.5757 27.627 16.419C27.614 16.2693 27.6017 16.1196 27.5894 15.9691C27.5763 15.8124 27.5633 15.655 27.5494 15.4984C27.5441 15.4392 27.5349 15.3287 27.4389 15.245C27.349 15.1659 27.25 15.1659 27.1847 15.1659H26.0053H24.8258C24.8197 15.1659 24.8128 15.1659 24.8066 15.1659H24.7982C24.7936 15.1659 24.7882 15.1659 24.7828 15.1659C24.6001 15.1659 24.4634 15.301 24.458 15.4868C24.4549 15.589 24.4511 15.6919 24.448 15.794C24.4442 15.9107 24.4404 16.0274 24.4365 16.1441C24.435 16.2002 24.4311 16.3161 24.524 16.4114C24.617 16.5066 24.7337 16.5066 24.7897 16.5073H24.9249C24.994 16.5073 25.0631 16.5073 25.1322 16.5073C25.1606 16.5073 25.1883 16.5073 25.2167 16.5073C25.2159 16.9481 25.2167 17.395 25.2174 17.8419C25.2098 17.8419 25.2021 17.8419 25.1944 17.8419C25.1453 17.8419 25.0961 17.8419 25.0462 17.8419C24.9971 17.8419 24.9487 17.8419 24.8995 17.8419H24.5701H24.2407C24.0549 17.8419 23.8691 17.8419 23.6832 17.8419C23.6924 17.7359 23.7017 17.6307 23.7101 17.5271L23.7216 17.3896C23.7316 17.2721 23.7408 17.1539 23.7508 17.0364C23.7608 16.912 23.7708 16.7876 23.7815 16.6632C23.793 16.525 23.8053 16.3868 23.8168 16.2478C23.8261 16.1403 23.8353 16.0328 23.8445 15.9261C23.8529 15.8308 23.8606 15.7364 23.8683 15.6412C23.8767 15.5421 23.8844 15.4431 23.8936 15.344C23.9136 15.1106 23.9336 14.8772 23.9543 14.6437L23.9566 14.6184C23.962 14.5585 23.9673 14.4994 23.9727 14.4395C23.9796 14.3634 23.9865 14.2867 23.9927 14.2091C24.1977 14.2091 24.4027 14.2099 24.6085 14.2099C24.8074 14.2099 25.007 14.2099 25.2059 14.2091C25.2059 14.2291 25.2059 14.2483 25.2059 14.2682C25.2059 14.3558 25.2059 14.4464 25.2051 14.5347C25.2036 14.6637 25.2566 14.7443 25.3011 14.7896C25.3457 14.8349 25.4263 14.8887 25.5553 14.8887C25.8179 14.8879 26.079 14.8879 26.3401 14.8879C26.6027 14.8879 26.8653 14.8879 27.1279 14.8887C27.2623 14.8887 27.3429 14.8311 27.3874 14.7819C27.4312 14.7336 27.4819 14.6483 27.4696 14.5186C27.4535 14.3473 27.4373 14.163 27.4235 13.9795C27.4082 13.7814 27.2638 13.6478 27.0642 13.6478H27.0588C26.9436 13.6493 26.8277 13.6493 26.7294 13.6493H26.6234H26.5174C26.5113 13.6493 26.5051 13.6493 26.499 13.6493C26.4944 13.5518 26.4906 13.4574 26.4898 13.3629C26.4898 13.3253 26.489 13.2546 26.4529 13.1779L26.3785 13.0158H26.1995H23.0651H22.8178L22.7879 13.2616L22.7687 13.419C22.7595 13.4935 22.751 13.5672 22.7418 13.6417C22.6681 13.6417 22.5944 13.6417 22.5199 13.6417C22.3832 13.6417 22.2719 13.6409 22.1698 13.6401H22.1636C21.964 13.6401 21.8242 13.7614 21.7974 13.9557C21.7851 14.0471 21.7697 14.1377 21.7528 14.2337C21.7474 14.2667 21.7413 14.2989 21.7359 14.332L21.4441 16.0704L21.1178 18.0131C21.1086 18.0669 21.0878 18.192 21.1808 18.3018C21.2737 18.4116 21.4011 18.4116 21.4556 18.4116H21.5278H21.7559H21.9832C22.0446 18.4116 22.1053 18.4116 22.1667 18.4116C22.1437 18.6059 22.1176 18.8148 22.0891 19.0444C22.073 19.1749 22.1291 19.2609 22.1636 19.3001C22.1982 19.3392 22.2757 19.4053 22.4055 19.4053C22.4093 19.4053 22.4132 19.4053 22.417 19.4053H22.4232H22.4378C22.4447 19.4053 22.4523 19.4053 22.4593 19.4053H24.5525H25.4493H26.3462C26.3531 19.4053 26.36 19.4053 26.3669 19.4053H26.3754C26.3831 19.406 26.3907 19.406 26.3976 19.406C26.4906 19.406 26.5758 19.3707 26.6365 19.3062C26.6979 19.2409 26.7286 19.1519 26.7225 19.0559L26.7202 19.0152C26.7171 18.9737 26.7148 18.9346 26.7132 18.8969C26.7109 18.8248 26.7086 18.7518 26.7063 18.6796C26.7033 18.5921 26.701 18.503 26.6971 18.4132C26.7132 18.4132 26.7294 18.4132 26.7455 18.4132C26.7816 18.4132 26.8169 18.4132 26.853 18.4132H26.9889H27.2316C27.2331 18.4278 27.2339 18.4416 27.2354 18.4554L27.2377 18.4823C27.2431 18.5437 27.2484 18.6044 27.2538 18.6658C27.2661 18.8033 27.2784 18.9453 27.2891 19.0843C27.3037 19.2778 27.4443 19.4076 27.6385 19.4076H27.6401H27.6431C27.746 19.4068 27.8497 19.4068 27.9533 19.4068C28.0125 19.4068 28.0716 19.4068 28.1315 19.4068C28.1914 19.4068 28.2505 19.4068 28.3104 19.4068H28.3473H28.6045H28.8195C29.0092 19.4068 29.1942 19.4068 29.4269 19.4068C29.4799 19.4068 29.605 19.4068 29.6972 19.2978C29.7893 19.1887 29.7686 19.0628 29.7609 19.0152C29.744 18.9115 29.7563 18.7917 29.7701 18.6658C29.7832 18.513 29.8024 18.3418 29.7717 18.1613Z" fill="#D2571C"/>
<path d="M27.637 18.7219C27.5088 18.7219 27.4228 18.6428 27.4128 18.5145C27.402 18.3733 27.3897 18.2327 27.3774 18.0922L27.359 17.8849C27.3544 17.8327 27.3498 17.7797 27.346 17.7275H26.853L26.6349 17.7282C26.6119 17.7282 26.5888 17.7282 26.5658 17.7282C26.572 17.8619 26.5758 17.9932 26.5804 18.1214C26.5827 18.1951 26.585 18.2688 26.5881 18.3425C26.5896 18.384 26.5927 18.4262 26.595 18.4677L26.5973 18.5053C26.6019 18.5836 26.572 18.6336 26.5451 18.662C26.5082 18.7011 26.456 18.7226 26.3984 18.7226C26.3953 18.7226 26.3854 18.7226 26.3823 18.7219H26.3477H22.4147C22.331 18.7219 22.2849 18.6881 22.2596 18.6597C22.2343 18.6313 22.2059 18.5806 22.2158 18.5023C22.2481 18.2443 22.2796 17.987 22.3103 17.7282C22.1966 17.7275 22.0861 17.7275 21.9763 17.7275H21.458C21.4119 17.7275 21.3343 17.7275 21.279 17.6622C21.2238 17.5969 21.2368 17.5209 21.2437 17.4756L21.8619 13.7945L21.8787 13.6962C21.8949 13.6033 21.911 13.508 21.9233 13.4144C21.9317 13.3522 21.9717 13.207 22.1652 13.207C22.2857 13.2086 22.4017 13.2086 22.5176 13.2086L22.8539 13.2078C22.8662 13.1018 22.9131 12.7179 22.9131 12.7179C22.9223 12.6411 22.9875 12.5828 23.0659 12.5828H26.2003C26.2602 12.5828 26.3147 12.6173 26.3401 12.6718C26.3646 12.724 26.3646 12.7732 26.3654 12.8054C26.3662 12.9245 26.3723 13.0466 26.3785 13.1648L26.3808 13.2163C26.4307 13.2163 26.7286 13.2163 26.7286 13.2163C26.8392 13.2163 26.9505 13.2163 27.0611 13.2147C27.2016 13.2147 27.2899 13.2953 27.2999 13.4305C27.3137 13.6109 27.3298 13.7914 27.3467 13.9718C27.3544 14.0563 27.3237 14.1093 27.2968 14.1392C27.2569 14.183 27.2016 14.2045 27.131 14.2045C26.8684 14.2037 26.6057 14.2037 26.3439 14.2037C26.0821 14.2037 25.8202 14.2037 25.5584 14.2045C25.4885 14.2045 25.4332 14.1838 25.3925 14.1431C25.3518 14.1024 25.3318 14.0463 25.3326 13.978C25.3334 13.8881 25.3334 13.7991 25.3334 13.71C25.3334 13.6486 25.3334 13.5871 25.3334 13.5257C25.0877 13.5265 24.8435 13.5265 24.5993 13.5265C24.359 13.5265 24.1186 13.5265 23.879 13.5257C23.8698 13.6378 23.8598 13.7507 23.8499 13.8628L23.833 14.0502C23.8115 14.292 23.7907 14.5339 23.77 14.7766L23.7209 15.3586C23.7209 15.3586 23.6694 15.9575 23.6571 16.0958C23.6471 16.2171 23.5857 16.9565 23.5857 16.9565C23.5734 17.1055 23.5611 17.2575 23.5466 17.4096C23.7761 17.4096 24.9011 17.4096 24.9011 17.4096L25.1967 17.4088C25.2458 17.4088 25.295 17.4088 25.3441 17.4096C25.3426 16.8797 25.3426 16.3515 25.3434 15.8232C25.2727 15.8239 25.2028 15.8239 25.133 15.8239L24.7905 15.8232C24.7398 15.8232 24.6707 15.8232 24.6147 15.7656C24.5586 15.708 24.5609 15.6366 24.5624 15.589C24.5655 15.473 24.5701 15.3563 24.574 15.2396C24.577 15.1367 24.5809 15.0346 24.5839 14.9317C24.5878 14.8142 24.6692 14.732 24.7836 14.732C24.7859 14.732 27.1855 14.732 27.1855 14.732C27.3444 14.732 27.4112 14.7927 27.4251 14.9493C27.4389 15.1075 27.4896 15.721 27.5026 15.87C27.5157 16.0266 27.5295 16.1825 27.5433 16.3384C27.5587 16.5112 27.5733 16.6839 27.5886 16.8567C27.604 17.041 27.6193 17.2245 27.6331 17.4088H29.3946C29.5582 17.4088 29.6227 17.4626 29.6488 17.6215C29.6964 17.9056 29.7432 18.1897 29.7901 18.4738C29.797 18.5145 29.8093 18.5898 29.7548 18.6543C29.7002 18.7188 29.6219 18.7188 29.5805 18.7188H27.9503C27.8474 18.7188 27.7437 18.7188 27.6408 18.7196C27.6401 18.7219 27.6378 18.7219 27.637 18.7219Z" fill="url(#paint11_linear)"/>
<path d="M26.1988 12.7371C26.2095 12.7594 26.2095 12.7839 26.2095 12.8085C26.2111 12.9759 26.2218 13.1425 26.2287 13.3092C26.231 13.3621 26.2548 13.3721 26.3001 13.3721C26.3009 13.3721 26.3017 13.3721 26.3017 13.3721C26.3731 13.3714 26.4445 13.3714 26.5167 13.3714C26.5873 13.3714 26.658 13.3714 26.7278 13.3714C26.8384 13.3714 26.949 13.3714 27.0603 13.3698C27.0611 13.3698 27.0619 13.3698 27.0634 13.3698C27.1187 13.3698 27.1402 13.389 27.1448 13.4435C27.1586 13.6248 27.1747 13.806 27.1916 13.9872C27.1962 14.0363 27.1763 14.0525 27.1287 14.0525C27.1287 14.0525 27.1287 14.0525 27.1279 14.0525C26.8653 14.0517 26.6027 14.0517 26.3401 14.0517C26.0782 14.0517 25.8171 14.0517 25.5553 14.0525C25.5553 14.0525 25.5553 14.0525 25.5545 14.0525C25.5015 14.0525 25.4831 14.034 25.4839 13.981C25.4862 13.8006 25.4831 13.6209 25.4854 13.4405C25.4862 13.3906 25.4701 13.3729 25.4186 13.3729H25.4179C25.1476 13.3737 24.8773 13.3737 24.6077 13.3737C24.339 13.3737 24.0695 13.3737 23.8007 13.3729C23.8007 13.3729 23.8007 13.3729 23.8 13.3729C23.7554 13.3729 23.7331 13.3836 23.7293 13.4328C23.714 13.6347 23.6948 13.8359 23.6771 14.0371C23.6564 14.279 23.6349 14.5216 23.6141 14.7635C23.5972 14.9578 23.5819 15.152 23.565 15.3455C23.5443 15.5913 23.522 15.837 23.5013 16.0827C23.4805 16.3246 23.4613 16.5672 23.4414 16.8091C23.4222 17.0387 23.4045 17.2675 23.3807 17.4963C23.3753 17.5516 23.3922 17.5632 23.4414 17.5632H23.4421C23.7078 17.5624 23.9727 17.5624 24.2384 17.5624C24.458 17.5624 24.6784 17.5624 24.898 17.5624C24.9963 17.5624 25.0946 17.5616 25.1929 17.5616C25.2712 17.5616 25.3495 17.5616 25.4278 17.5632C25.4286 17.5632 25.4294 17.5632 25.4309 17.5632C25.48 17.5632 25.4954 17.5447 25.4954 17.4956C25.4939 16.9105 25.4931 16.3253 25.4946 15.7402C25.4946 15.688 25.4785 15.6688 25.4263 15.6688C25.4255 15.6688 25.4248 15.6688 25.424 15.6688C25.3265 15.6696 25.2282 15.6704 25.1307 15.6704C25.0163 15.6704 24.9026 15.6696 24.7882 15.6696C24.716 15.6696 24.7114 15.6665 24.7137 15.5943C24.7199 15.3755 24.7283 15.1567 24.7352 14.9378C24.736 14.9048 24.749 14.8871 24.7813 14.8871C24.7828 14.8871 24.7844 14.8871 24.7859 14.8871C24.7897 14.8871 24.7936 14.8871 24.7974 14.8871C24.8066 14.8871 24.8158 14.8871 24.8251 14.8871C25.2121 14.8871 25.5991 14.8871 25.9868 14.8871C26.3861 14.8871 26.7854 14.8871 27.1839 14.8871C27.2623 14.8871 27.2638 14.8871 27.2707 14.9639C27.2968 15.2711 27.3222 15.5774 27.3483 15.8846C27.3767 16.2132 27.4059 16.5427 27.4343 16.8713C27.4512 17.0694 27.4673 17.2668 27.4819 17.4649C27.4888 17.5608 27.4911 17.5639 27.5863 17.5639C28.1883 17.5639 28.7911 17.5639 29.3931 17.5639C29.4814 17.5639 29.4814 17.5639 29.496 17.6484C29.5436 17.9325 29.5904 18.2166 29.6373 18.5C29.6473 18.5614 29.6434 18.5668 29.5789 18.5668C29.3417 18.5668 29.1044 18.5668 28.8671 18.5668C28.6805 18.5668 28.4939 18.5668 28.3073 18.5668C28.1883 18.5668 28.0693 18.5668 27.9503 18.5668C27.8466 18.5668 27.7422 18.5668 27.6385 18.5683C27.6378 18.5683 27.637 18.5683 27.6362 18.5683C27.5886 18.5683 27.5694 18.5529 27.5656 18.503C27.5502 18.3011 27.5318 18.0999 27.5141 17.8987C27.5057 17.8043 27.498 17.7098 27.4911 17.6161C27.488 17.5762 27.4634 17.5747 27.4366 17.5747C27.4335 17.5747 27.4304 17.5747 27.4274 17.5747C27.2362 17.5747 27.0442 17.5747 26.853 17.5747C26.78 17.5747 26.7079 17.5754 26.6349 17.5754C26.5812 17.5754 26.5274 17.5754 26.4737 17.5739C26.4714 17.5739 26.4691 17.5739 26.4668 17.5739C26.4207 17.5739 26.4038 17.5854 26.4069 17.6422C26.4199 17.8772 26.4245 18.1129 26.433 18.3487C26.4353 18.404 26.4391 18.46 26.443 18.5153C26.4453 18.5506 26.4314 18.5691 26.3976 18.5691C26.3953 18.5691 26.393 18.5691 26.3907 18.5691C26.3854 18.5691 26.3808 18.5683 26.3754 18.5683C26.3654 18.5683 26.3554 18.5691 26.3462 18.5691C25.6981 18.5691 25.0508 18.5691 24.4027 18.5691C23.7546 18.5691 23.1073 18.5691 22.4593 18.5691C22.447 18.5691 22.4355 18.5691 22.4232 18.5691C22.4186 18.5691 22.414 18.5691 22.4093 18.5691C22.4086 18.5691 22.407 18.5691 22.4063 18.5691C22.3763 18.5691 22.3625 18.5568 22.3671 18.5222C22.4017 18.2481 22.4347 17.9732 22.4669 17.6991C22.48 17.5893 22.4846 17.5747 22.4408 17.5747C22.4247 17.5747 22.4009 17.577 22.3694 17.577C22.3679 17.577 22.3663 17.577 22.3656 17.577C22.2389 17.5762 22.1122 17.5762 21.9847 17.5762C21.8327 17.5762 21.6806 17.5762 21.5286 17.5762C21.5048 17.5762 21.4802 17.5762 21.4564 17.5762C21.3865 17.5762 21.3827 17.5708 21.3942 17.5025C21.6 16.2754 21.8066 15.0484 22.0124 13.8213C22.0339 13.6931 22.0577 13.5649 22.0746 13.4366C22.0822 13.3775 22.1091 13.3629 22.1636 13.3629C22.1644 13.3629 22.1659 13.3629 22.1667 13.3629C22.2842 13.3644 22.4017 13.3644 22.5199 13.3644C22.6512 13.3644 22.7825 13.3637 22.9146 13.3637C22.9883 13.3637 22.9899 13.3606 22.9991 13.2861C23.0206 13.1034 23.0428 12.9214 23.0651 12.7386C24.1094 12.7371 25.1537 12.7371 26.1988 12.7371ZM26.1988 12.43H23.0643C22.9092 12.43 22.7779 12.5459 22.7595 12.7002L22.7403 12.8615C22.7326 12.926 22.7242 12.9905 22.7165 13.0558C22.6512 13.0558 22.5852 13.0558 22.5199 13.0558C22.4032 13.0558 22.2865 13.0558 22.1705 13.0542C22.1698 13.0542 22.1652 13.0542 22.1644 13.0542C21.9532 13.0542 21.7989 13.1878 21.7705 13.3944C21.7582 13.4858 21.7428 13.5764 21.7259 13.6724C21.7206 13.7046 21.7144 13.7369 21.709 13.7699L21.4449 15.3448L21.0917 17.451C21.0817 17.5086 21.0594 17.643 21.1608 17.7628C21.2621 17.8826 21.3988 17.8826 21.4564 17.8826H21.5286H21.7567H21.9847C22.0354 17.8826 22.0853 17.8826 22.136 17.8826C22.1137 18.0684 22.0891 18.2665 22.0623 18.4846C22.0446 18.6266 22.1053 18.7196 22.1437 18.7626C22.1813 18.8056 22.2658 18.877 22.4063 18.877C22.4093 18.877 22.4147 18.877 22.4178 18.877H22.4239H22.4378H22.4593H24.4027H26.3462C26.3531 18.877 26.36 18.877 26.3669 18.877H26.3746C26.3823 18.8777 26.39 18.8777 26.3976 18.8777C26.4982 18.8777 26.5904 18.8393 26.6564 18.7687C26.7232 18.6981 26.7562 18.6013 26.7493 18.4976L26.7463 18.4554C26.744 18.4163 26.7409 18.3779 26.7394 18.3387C26.737 18.2673 26.7347 18.1951 26.7324 18.1237C26.7301 18.0446 26.7278 17.9647 26.7248 17.8841C26.7317 17.8841 26.7378 17.8841 26.7447 17.8841C26.7808 17.8841 26.8169 17.8841 26.8522 17.8841H26.9782H27.2047C27.2054 17.8895 27.2054 17.8956 27.2062 17.901L27.2085 17.9279C27.2139 17.9893 27.2193 18.05 27.2246 18.1114C27.2369 18.2489 27.2492 18.3901 27.26 18.5291C27.2753 18.738 27.4274 18.8785 27.637 18.8785C27.6378 18.8785 27.6408 18.8785 27.6416 18.8785C27.7453 18.8777 27.8482 18.8777 27.951 18.8777H28.1292H28.3081H28.5884H28.8686C29.1059 18.8777 29.3432 18.8777 29.5805 18.8777C29.6327 18.8777 29.7709 18.8777 29.8723 18.7587C29.9728 18.6405 29.9506 18.5046 29.9421 18.4539C29.8953 18.1698 29.8484 17.8857 29.8008 17.6015C29.7617 17.3689 29.6327 17.2606 29.3954 17.2606H28.4264H27.776C27.7652 17.1201 27.7537 16.9826 27.7422 16.849C27.7276 16.6778 27.7122 16.5066 27.6976 16.3353C27.6838 16.1779 27.67 16.0197 27.6562 15.8623C27.6431 15.7111 27.6308 15.5606 27.6178 15.4093C27.6047 15.2534 27.5917 15.0975 27.5786 14.9417C27.5648 14.7781 27.485 14.5838 27.1862 14.5838H25.9891H24.8274C24.8204 14.5838 24.8143 14.5838 24.8074 14.5838H24.7997C24.7959 14.5838 24.7897 14.5838 24.7844 14.5838C24.5862 14.5838 24.4373 14.7305 24.4311 14.9317C24.4281 15.0346 24.4242 15.1367 24.4212 15.2388C24.4173 15.3555 24.4135 15.4722 24.4096 15.589C24.4081 15.6481 24.4043 15.7725 24.5049 15.8769C24.6054 15.9806 24.7306 15.9813 24.7905 15.9813H24.9279C24.9963 15.9813 25.0646 15.9813 25.1337 15.9813C25.1522 15.9813 25.1714 15.9813 25.1898 15.9813C25.189 16.4037 25.1898 16.8314 25.1906 17.2598H25.0477H24.9011H24.5778H24.2415C24.0656 17.2598 23.8906 17.2598 23.7147 17.2598C23.7232 17.1639 23.7308 17.0679 23.7385 16.9742L23.75 16.8383C23.76 16.7208 23.7692 16.6033 23.7792 16.4858C23.7892 16.3614 23.8 16.2363 23.8099 16.1119C23.8215 15.9752 23.833 15.8385 23.8453 15.7011C23.8545 15.592 23.8645 15.483 23.8737 15.3747C23.8821 15.2795 23.8898 15.1843 23.8975 15.0898C23.9059 14.9908 23.9136 14.8917 23.922 14.7927C23.9412 14.5692 23.9604 14.3466 23.9796 14.1231L23.9842 14.067C23.9896 14.0079 23.995 13.9488 24.0004 13.8889C24.0065 13.8213 24.0127 13.7522 24.0188 13.6831C24.2154 13.6831 24.4119 13.6839 24.6085 13.6839C24.7982 13.6839 24.9878 13.6839 25.1783 13.6831C25.1783 13.6931 25.1783 13.7038 25.1783 13.7138C25.1783 13.8029 25.1783 13.8912 25.1775 13.9803C25.176 14.1193 25.2328 14.206 25.2812 14.2552C25.3295 14.3043 25.4163 14.3627 25.5553 14.3627C25.8179 14.3619 26.079 14.3619 26.3401 14.3619C26.6027 14.3619 26.8653 14.3619 27.1271 14.3627C27.2715 14.3627 27.359 14.2997 27.4074 14.2467C27.455 14.1945 27.5095 14.1024 27.4972 13.9619C27.4811 13.7906 27.465 13.6071 27.4512 13.4228C27.435 13.2093 27.2792 13.065 27.0634 13.065C27.0619 13.065 27.058 13.065 27.0572 13.065C26.9474 13.0665 26.8384 13.0665 26.7286 13.0665H26.6234H26.5251C26.5213 12.9782 26.5174 12.893 26.5167 12.8077C26.5167 12.7678 26.5159 12.6933 26.4775 12.6104C26.4276 12.4991 26.3186 12.43 26.1988 12.43Z" fill="#903C14"/>
<path d="M25.4854 13.4305C25.4854 13.3867 25.4854 13.3437 25.4854 13.2999C25.4862 13.2493 25.4701 13.2324 25.4178 13.2324C24.8788 13.2339 24.3398 13.2339 23.8007 13.2324C23.7562 13.2324 23.7331 13.2431 23.7293 13.2923C23.7139 13.4942 23.6948 13.6954 23.6771 13.8966C23.6564 14.1385 23.6349 14.3811 23.6141 14.623C23.5972 14.8173 23.5819 15.0115 23.565 15.205C23.5442 15.4507 23.522 15.6965 23.5012 15.9422C23.4805 16.1841 23.4613 16.4267 23.4414 16.6686C23.4222 16.8982 23.4045 17.127 23.3807 17.3558C23.3784 17.3819 23.3807 17.3981 23.3891 17.408C23.4083 17.2084 23.4245 17.008 23.4414 16.8083C23.4613 16.5665 23.4805 16.3238 23.5012 16.0819C23.522 15.8362 23.5435 15.5905 23.565 15.3448C23.5819 15.1505 23.5972 14.9562 23.6141 14.7627C23.6349 14.5209 23.6556 14.2782 23.6771 14.0363C23.6948 13.8352 23.7139 13.6332 23.7293 13.432C23.7331 13.3821 23.7554 13.3714 23.8007 13.3721C24.3398 13.3729 24.8788 13.3737 25.4178 13.3721C25.4662 13.3721 25.4839 13.3875 25.4854 13.4305Z" fill="#FFE941"/>
<path d="M25.4962 15.602C25.4962 15.549 25.4793 15.5298 25.4255 15.5306C25.2136 15.5329 25.0017 15.5314 24.7897 15.5314C24.7421 15.5314 24.7245 15.5298 24.7183 15.5083C24.7176 15.5375 24.716 15.5659 24.7152 15.5951C24.7129 15.6681 24.7168 15.6704 24.7897 15.6704C25.0017 15.6704 25.2136 15.6719 25.4255 15.6696C25.4793 15.6688 25.4962 15.6888 25.4962 15.741C25.4954 16.28 25.4962 16.8199 25.4969 17.3589C25.4969 17.3581 25.4969 17.3574 25.4969 17.3566C25.4954 16.7722 25.4946 16.1871 25.4962 15.602Z" fill="#FFE941"/>
<path d="M27.1287 13.9127C26.6042 13.9119 26.0805 13.9112 25.5561 13.9127C25.5062 13.9127 25.4862 13.8958 25.4847 13.8497C25.4847 13.8935 25.4847 13.9373 25.4847 13.981C25.4839 14.034 25.5031 14.0525 25.5561 14.0525C26.0805 14.0509 26.6042 14.0509 27.1287 14.0525C27.177 14.0525 27.1962 14.0363 27.1916 13.9872C27.1886 13.9557 27.1862 13.925 27.1832 13.8935C27.1732 13.9073 27.1555 13.9127 27.1287 13.9127Z" fill="#FFE941"/>
<path d="M26.3915 18.4285C26.3769 18.4278 26.3616 18.4285 26.347 18.4285C25.0516 18.4285 23.7554 18.4285 22.46 18.4285C22.4431 18.4285 22.4262 18.4278 22.4101 18.4285C22.3963 18.4285 22.3871 18.4262 22.3794 18.4216C22.3756 18.4546 22.3717 18.4884 22.3671 18.5214C22.3625 18.5575 22.3771 18.5691 22.4093 18.5683C22.4262 18.5675 22.4431 18.5683 22.4593 18.5683C23.7546 18.5683 25.0508 18.5683 26.3462 18.5683C26.3608 18.5683 26.3762 18.5675 26.3907 18.5683C26.4291 18.5706 26.4453 18.5522 26.443 18.5153C26.4407 18.48 26.4383 18.4447 26.436 18.4093C26.4291 18.4224 26.4153 18.4301 26.3915 18.4285Z" fill="#FFE941"/>
<path d="M29.625 18.4239C29.615 18.427 29.6012 18.4278 29.5797 18.4278C29.1558 18.4278 28.732 18.4278 28.3081 18.4278C28.0854 18.4278 27.862 18.427 27.6393 18.4285C27.5901 18.4293 27.5702 18.4139 27.5663 18.3633C27.551 18.1613 27.5326 17.9601 27.5149 17.759C27.5088 17.6875 27.5026 17.6161 27.4972 17.544C27.488 17.5301 27.4857 17.5063 27.4826 17.4649C27.4819 17.4587 27.4819 17.4526 27.4811 17.4464C27.4688 17.4334 27.4481 17.4341 27.4274 17.4341C27.2362 17.4341 27.0442 17.4341 26.853 17.4341C26.7263 17.4341 26.6004 17.4357 26.4737 17.4334C26.4222 17.4326 26.4038 17.4418 26.4069 17.501C26.4084 17.5332 26.4099 17.5655 26.4115 17.5969C26.4199 17.5762 26.4391 17.5716 26.4737 17.5724C26.6004 17.5747 26.7263 17.5731 26.853 17.5731C27.0442 17.5731 27.2362 17.5731 27.4274 17.5731C27.4573 17.5731 27.488 17.5708 27.4919 17.6146C27.4988 17.709 27.5072 17.8035 27.5149 17.8972C27.5326 18.0984 27.551 18.3003 27.5663 18.5015C27.5702 18.5522 27.5901 18.5668 27.6393 18.5668C27.862 18.5645 28.0854 18.566 28.3081 18.566C28.732 18.566 29.1558 18.566 29.5797 18.566C29.6442 18.566 29.648 18.5606 29.6381 18.4992C29.6334 18.4754 29.6296 18.45 29.625 18.4239Z" fill="#FFE941"/>
<path d="M22.4646 17.577C22.4654 17.5708 22.4662 17.5639 22.4669 17.5578C22.4846 17.405 22.4861 17.4357 22.3648 17.4349C22.0615 17.4334 21.759 17.4341 21.4556 17.4341C21.4318 17.4341 21.4157 17.4334 21.405 17.4295C21.4011 17.4533 21.3973 17.4764 21.3935 17.5002C21.3819 17.5685 21.3858 17.5739 21.4556 17.5739C21.759 17.5739 22.0615 17.5731 22.3648 17.5747C22.4209 17.5754 22.4508 17.5693 22.4646 17.577Z" fill="#FFE941"/>
<defs>
<linearGradient id="paint0_linear" x1="18.0079" y1="29.8037" x2="27.1753" y2="20.6363" gradientUnits="userSpaceOnUse">
<stop stop-color="white"/>
<stop offset="0.00102067" stop-color="#FDDB39"/>
<stop offset="0.8659" stop-color="#F9B634"/>
</linearGradient>
<linearGradient id="paint1_linear" x1="15.9606" y1="30.9718" x2="18.3932" y2="28.5391" gradientUnits="userSpaceOnUse">
<stop stop-color="white"/>
<stop offset="0.00102067" stop-color="#FDDB39" stop-opacity="0"/>
<stop offset="0.8659" stop-color="white"/>
</linearGradient>
<linearGradient id="paint2_linear" x1="28.0711" y1="22.4442" x2="29.7958" y2="20.7195" gradientUnits="userSpaceOnUse">
<stop stop-color="white"/>
<stop offset="0.00102067" stop-color="#FDDB39" stop-opacity="0"/>
<stop offset="0.8659" stop-color="white"/>
</linearGradient>
<linearGradient id="paint3_linear" x1="22.7172" y1="27.9122" x2="26.6383" y2="23.9911" gradientUnits="userSpaceOnUse">
<stop stop-color="#FDDB39"/>
<stop offset="0.2007" stop-color="#FCD438"/>
<stop offset="0.5574" stop-color="#FAC036"/>
<stop offset="0.6981" stop-color="#F9B634"/>
</linearGradient>
<linearGradient id="paint4_linear" x1="18.0079" y1="24.5656" x2="27.1753" y2="15.3982" gradientUnits="userSpaceOnUse">
<stop stop-color="white"/>
<stop offset="0.00102067" stop-color="#FDDB39"/>
<stop offset="0.8659" stop-color="#F9B634"/>
</linearGradient>
<linearGradient id="paint5_linear" x1="15.9606" y1="25.7337" x2="18.3932" y2="23.301" gradientUnits="userSpaceOnUse">
<stop stop-color="white"/>
<stop offset="0.00102067" stop-color="#FDDB39" stop-opacity="0"/>
<stop offset="0.8659" stop-color="white"/>
</linearGradient>
<linearGradient id="paint6_linear" x1="28.0711" y1="17.2062" x2="29.7958" y2="15.4814" gradientUnits="userSpaceOnUse">
<stop stop-color="white"/>
<stop offset="0.00102067" stop-color="#FDDB39" stop-opacity="0"/>
<stop offset="0.8659" stop-color="white"/>
</linearGradient>
<linearGradient id="paint7_linear" x1="22.7172" y1="22.6741" x2="26.6383" y2="18.753" gradientUnits="userSpaceOnUse">
<stop stop-color="#FDDB39"/>
<stop offset="0.2007" stop-color="#FCD438"/>
<stop offset="0.5574" stop-color="#FAC036"/>
<stop offset="0.6981" stop-color="#F9B634"/>
</linearGradient>
<linearGradient id="paint8_linear" x1="18.0079" y1="19.3275" x2="27.1753" y2="10.1601" gradientUnits="userSpaceOnUse">
<stop stop-color="white"/>
<stop offset="0.00102067" stop-color="#FDDB39"/>
<stop offset="0.8659" stop-color="#F9B634"/>
</linearGradient>
<linearGradient id="paint9_linear" x1="15.9606" y1="20.4956" x2="18.3932" y2="18.0629" gradientUnits="userSpaceOnUse">
<stop stop-color="white"/>
<stop offset="0.00102067" stop-color="#FDDB39" stop-opacity="0"/>
<stop offset="0.8659" stop-color="white"/>
</linearGradient>
<linearGradient id="paint10_linear" x1="28.0711" y1="11.9681" x2="29.7958" y2="10.2433" gradientUnits="userSpaceOnUse">
<stop stop-color="white"/>
<stop offset="0.00102067" stop-color="#FDDB39" stop-opacity="0"/>
<stop offset="0.8659" stop-color="white"/>
</linearGradient>
<linearGradient id="paint11_linear" x1="22.7172" y1="17.436" x2="26.6383" y2="13.5149" gradientUnits="userSpaceOnUse">
<stop stop-color="#FDDB39"/>
<stop offset="0.2007" stop-color="#FCD438"/>
<stop offset="0.5574" stop-color="#FAC036"/>
<stop offset="0.6981" stop-color="#F9B634"/>
</linearGradient>
</defs>
</svg>
