<?xml version="1.0" encoding="UTF-8"?>
<svg width="132px" height="143px" viewBox="0 0 132 143" version="1.1" xmlns="http://www.w3.org/2000/svg" xmlns:xlink="http://www.w3.org/1999/xlink">
    <!-- Generator: sketchtool 64 (101010) - https://sketch.com -->
    <title>4F3798B0-7B04-4143-85BC-8DA18BC84EFC</title>
    <desc>Created with sketchtool.</desc>
    <defs>
        <linearGradient x1="20.2353191%" y1="69.2269686%" x2="79.7668363%" y2="30.7761123%" id="linearGradient-1">
            <stop stop-color="#FFFFFF" offset="0%"></stop>
            <stop stop-color="#FDDB39" offset="0.1020666%"></stop>
            <stop stop-color="#F9B634" offset="86.59%"></stop>
        </linearGradient>
        <linearGradient x1="27.503911%" y1="64.2733576%" x2="67.0824308%" y2="33.4781575%" id="linearGradient-2">
            <stop stop-color="#FFFFFF" offset="0%"></stop>
            <stop stop-color="#FDDB39" stop-opacity="0" offset="0.1020666%"></stop>
            <stop stop-color="#FFFFFF" offset="86.59%"></stop>
        </linearGradient>
        <linearGradient x1="27.8741559%" y1="60.6497804%" x2="72.1294045%" y2="38.6879365%" id="linearGradient-3">
            <stop stop-color="#FFFFFF" offset="0%"></stop>
            <stop stop-color="#FDDB39" stop-opacity="0" offset="0.1020666%"></stop>
            <stop stop-color="#FFFFFF" offset="86.59%"></stop>
        </linearGradient>
        <linearGradient x1="17.2908834%" y1="79.0452397%" x2="77.7850378%" y2="35.6497579%" id="linearGradient-4">
            <stop stop-color="#FDDB39" offset="0%"></stop>
            <stop stop-color="#FCD438" offset="20.07%"></stop>
            <stop stop-color="#FAC036" offset="55.74%"></stop>
            <stop stop-color="#F9B634" offset="69.81%"></stop>
        </linearGradient>
    </defs>
    <g id="Wireframes" stroke="none" stroke-width="1" fill="none" fill-rule="evenodd">
        <g id="Coins" transform="translate(-348.000000, -177.000000)">
            <g id="3.-Icons-/-Coins-/-Floor-coin-Copy" transform="translate(351.000000, 181.000000)">
                <g id="3.-Icons-/-Coins-/-Floor-coin-x2">
                    <g id="3.-Icons-/-Coins-/-Floor-coin-Copy" transform="translate(0.000000, 30.000000)">
                        <g id="3.-Icons-/-Coins-/-Floor-coin">
                            <g id="Group-7" transform="translate(0.000000, 0.000000)">
                                <path d="M125.133444,40.3218039 C125.133444,18.1217643 97.2690517,0.126011118 62.9003295,0.126011118 C28.5272096,0.126011118 0.66721536,18.1217643 0.66721536,40.3218039 C0.66721536,40.3218039 0.66721536,40.3262017 0.66721536,40.3262017 L0.66721536,63.4893571 L0.737579986,63.4893571 C2.19324819,84.8538168 29.4639387,104.995691 62.9003295,104.995691 C96.3367204,104.995691 123.607411,84.8538168 125.063079,63.4893571 L125.133444,63.4893571 L125.133444,45.8190403 C125.133444,45.8190403 125.133444,42.1776709 125.133444,40.3218039 Z" id="Path" stroke="#903C14" stroke-width="7"></path>
                                <path d="M62.8959317,0.121613329 C28.5228118,0.121613329 0.66281757,18.1173665 0.66281757,40.3174061 C0.66281757,62.5174457 28.5272096,80.5131989 62.8959317,80.5131989 C97.2690517,80.5131989 125.129046,62.5174457 125.129046,40.3174061 C125.133444,18.1217643 97.2690517,0.121613329 62.8959317,0.121613329 Z M62.8959317,64.4744619 C37.4635171,64.4744619 16.8510794,53.501978 16.8510794,37.5467989 C16.8510794,21.5960177 37.4679149,8.66211985 62.8959317,8.66211985 C88.3283464,8.66211985 108.940785,21.5916199 108.940785,37.5467989 C108.945182,53.4975802 88.3283464,64.4744619 62.8959317,64.4744619 Z" id="Shape" fill="url(#linearGradient-1)" fill-rule="nonzero"></path>
                                <path d="M71.1110019,73.0193662 C72.2236425,74.3914764 72.9756645,77.3863708 73.4682168,79.0135528 C73.5209903,79.1850666 73.6133439,79.3917626 73.82004,79.4137516 C74.0179405,79.4357405 74.2070454,79.259829 74.3961504,79.3126024 C74.4753106,79.3345914 74.5456752,79.3917626 74.6292332,79.3917626 C74.7919514,79.3917626 74.8359293,79.1982599 74.8227359,79.0531329 C74.7479735,78.1603817 74.1410786,75.3853767 74.382957,74.5146145 C74.717189,75.4645369 75.4340286,78.279122 75.7682606,79.2290444 C75.7066915,79.0575307 71.6343388,80.7858618 71.1066041,79.4093538 C70.5832672,78.0328458 71.150582,74.4662388 71.1110019,73.0193662 Z" id="Path" fill="#FDDB39" fill-rule="nonzero" opacity="0.54"></path>
                                <path d="M62.8475561,7.35597647 C37.1160918,7.35597647 16.2573779,20.9407471 16.2573779,36.6012743 C16.2573779,52.2618014 37.1160918,64.9626165 62.8475561,64.9626165 C88.5790203,64.9626165 109.437734,52.2661992 109.437734,36.6012743 C109.437734,20.9407471 88.5790203,7.35597647 62.8475561,7.35597647 Z M63.1334124,64.2193901 C37.9120916,64.2193901 17.4667699,51.9011827 17.4667699,36.7024234 C17.4667699,21.5036641 37.9120916,9.18545675 63.1334124,9.18545675 C88.3547331,9.18545675 108.800055,21.5036641 108.800055,36.7024234 C108.800055,51.9011827 88.3547331,64.2193901 63.1334124,64.2193901 Z" id="Shape" fill="#FDDB39" fill-rule="nonzero" opacity="0.54"></path>
                                <path d="M122.894969,51.0128293 C122.894969,51.0128293 122.894969,51.0084315 122.890571,51.0084315 C121.993422,53.1193703 120.832406,55.1555467 119.438307,57.1125628 C119.363544,57.2181098 119.279986,57.3236567 119.205224,57.4292037 C118.941357,57.7898224 118.677489,58.1460433 118.400429,58.4978664 C118.255301,58.6825736 118.101379,58.8672807 117.951854,59.0475901 C117.731965,59.3158552 117.512075,59.5841203 117.28339,59.8523855 C117.089887,60.0766727 116.887589,60.2965622 116.689689,60.5208494 C116.491788,60.7407389 116.293888,60.9562306 116.091589,61.1717222 C115.858506,61.4179984 115.621026,61.6642746 115.379147,61.906153 C115.19444,62.0908602 115.014131,62.2755673 114.825026,62.4602744 C114.561159,62.719744 114.288496,62.9748158 114.015833,63.2298875 C102.779481,73.6746368 84.0844798,80.5219945 62.9003295,80.5219945 C41.7161792,80.5219945 23.0211776,73.6790345 11.7848263,63.2298875 C11.5121634,62.9748158 11.2395005,62.719744 10.9756331,62.4602744 C10.7865282,62.2755673 10.6062188,62.0908602 10.4215117,61.906153 C10.1796333,61.6642746 9.94215266,61.4179984 9.70906984,61.1717222 C9.50677154,60.9562306 9.30887103,60.7363411 9.11097052,60.5208494 C8.91307,60.30096 8.7107717,60.0766727 8.51726898,59.8523855 C8.28858395,59.5885181 8.06869449,59.3158552 7.84880503,59.0475901 C7.6992802,58.8628829 7.54535758,58.6825736 7.40023054,58.4978664 C7.12316982,58.1460433 6.85490468,57.7854246 6.59543513,57.4292037 C6.51627492,57.3236567 6.43711472,57.2181098 6.3623523,57.1125628 C4.96825314,55.1555467 3.8116346,53.1193703 2.91008782,51.0084315 C2.91008782,51.0084315 2.91008782,51.0128293 2.90569003,51.0128293 C1.45002183,47.6089405 0.66721536,44.0247424 0.66721536,40.3218039 L0.66721536,63.4893571 L0.737579986,63.4893571 C2.19324819,84.8538168 29.4639387,104.995691 62.9003295,104.995691 C96.3367204,104.995691 123.607411,84.8538168 125.063079,63.4893571 L125.133444,63.4893571 L125.133444,40.3218039 C125.133444,44.0247424 124.346239,47.6089405 122.894969,51.0128293 Z" id="Path" fill="#F28D2C" fill-rule="nonzero"></path>
                                <path d="M108.945182,37.5467989 C108.945182,53.4975802 88.3283464,64.4744619 62.9003295,64.4744619 C37.4679149,64.4744619 16.8554772,53.501978 16.8554772,37.5467989 C16.8554772,21.5916199 37.4723127,8.66211985 62.9003295,8.66211985 C88.3283464,8.66211985 108.945182,21.5960177 108.945182,37.5467989 Z" id="Path" fill="#F8AC32" fill-rule="nonzero"></path>
                                <path d="M62.8959317,17.4972782 C85.2982696,17.4972782 104.063636,26.0597737 108.940784,37.5599923 C108.940784,37.5555945 108.940784,37.5511967 108.940784,37.5467989 C108.940784,21.5960177 88.3239486,8.66211985 62.8959317,8.66211985 C37.4635171,8.66211985 16.8510794,21.5916199 16.8510794,37.5467989 C16.8510794,37.5511967 16.8510794,37.5555945 16.8510794,37.5599923 C21.7326254,26.0641715 40.4935938,17.4972782 62.8959317,17.4972782 Z" id="Path" fill="#D5761F" fill-rule="nonzero" opacity="0.9"></path>
                                <path d="M122.428803,70.3499082 C120.493776,75.0159624 118.259699,79.176271 114.402838,82.8220382 C111.27601,85.7773525 108.654928,88.4556061 104.894818,90.8040255 C102.98178,92.0002241 101.068742,93.3899255 98.909427,94.2079143 C97.7352173,94.652091 91.7718153,98.447383 90.6020033,97.7305434 C90.0346885,97.3787202 90.6239923,93.9968204 90.6151967,93.3899255 C90.5580255,89.1152744 90.7075503,84.8362256 91.068169,80.5703701 C91.1473292,79.6204477 91.3144452,78.5429893 92.2071964,77.9888679 C93.2142901,81.6082484 94.4368755,87.853109 95.4395714,91.4724894 C96.719328,85.6102365 97.2602561,75.4249568 97.6252726,75.2666364 C98.034267,75.0907249 99.745007,85.9576618 100.519018,88.2005343 C101.561294,85.579452 101.72841,78.1427905 102.009868,75.420559 C102.089029,74.6773327 102.159393,73.8901284 102.665139,73.2920291 C103.056542,72.834659 103.650244,72.5488027 104.221956,72.2673442 C108.602154,70.1212231 113.435325,66.6293785 116.913976,63.4629704 C119.926461,60.7231477 125.027897,50.9908404 124.579322,49.5879446 C124.58372,49.5835478 125.107057,63.8983515 122.428803,70.3499082 Z" id="Path" fill="#D2571C" fill-rule="nonzero"></path>
                                <path d="M5.58834141,74.6949238 C6.94286047,76.6299511 8.97463905,80.3768674 10.6809812,82.0876074 C14.8236986,86.2435181 18.654173,90.2367107 24.3097298,92.6774836 C26.8956298,94.089174 37.3491746,100.68146 24.2701497,88.477595 C15.3470355,80.1481824 14.0936656,77.3379951 8.74155623,67.3857983 C7.17594329,64.4744619 3.07720381,54.6937788 1.51159088,51.7824424 C1.04102744,53.4096244 1.81064054,54.8916793 1.87660737,56.5012702 C1.96016537,58.5858222 1.58635329,60.6659765 1.74907149,62.7681197 C2.06131452,66.7701078 3.17395517,71.2514549 5.58834141,74.6949238 Z" id="Path" fill="#D2571C" fill-rule="nonzero"></path>
                                <path d="M62.8959317,11.7405722 C74.6248354,11.7405722 85.6061149,14.5771462 93.821185,19.7313551 C101.587681,24.6041055 105.866729,30.9281263 105.866729,37.5467989 C105.866729,44.0335379 101.618465,50.080498 93.9091408,54.5794363 C85.8304021,59.2938663 74.8183381,61.8885619 62.9003295,61.8885619 C50.982321,61.8885619 39.9702569,59.2938663 31.8915183,54.5794363 C24.1777961,50.080498 19.9339296,44.0335379 19.9339296,37.5467989 C19.9339296,30.9281263 24.2129784,24.6041055 31.9794741,19.7313551 C40.1857486,14.5771462 51.1670281,11.7405722 62.8959317,11.7405722 M62.8959317,8.66211985 C37.4635171,8.66211985 16.8510794,21.5916199 16.8510794,37.5467989 C16.8510794,53.4975802 37.4679149,64.9626165 62.8959317,64.9626165 C88.3283464,64.9626165 108.940785,53.4975802 108.940785,37.5467989 C108.945182,21.5960177 88.3283464,8.66211985 62.8959317,8.66211985 L62.8959317,8.66211985 Z" id="Shape" fill="#903C14" fill-rule="nonzero"></path>
                                <path d="M62.2450589,1.65204395 C96.6973391,1.65204395 124.627698,20.6856754 124.627698,44.1698694 C124.627698,44.6668196 124.610107,45.1637697 124.58372,45.6563221 C124.944339,43.9103998 125.129046,42.1292952 125.129046,40.3174061 C125.129046,18.1173665 97.2646539,0.121613329 62.8959317,0.121613329 C30.8096622,0.121613329 4.39654055,15.8085272 1.02783407,35.9547993 C6.64381081,16.4022287 31.9135072,1.65204395 62.2450589,1.65204395 Z" id="Path" fill="#FDDB39" fill-rule="nonzero" opacity="0.54"></path>
                                <path d="M62.8959317,78.2263485 C33.9364902,78.2263485 9.54195385,66.7745056 2.19324819,49.2097358 C8.46009772,67.1307265 33.2548329,80.5175967 62.8959317,80.5175967 C92.5370306,80.5175967 117.336164,67.1307265 123.598615,49.2097358 C116.24991,66.7701078 91.859771,78.2263485 62.8959317,78.2263485 Z" id="Path" fill="#FFE941" fill-rule="nonzero" opacity="0.78"></path>
                                <path d="M52.4423869,80.1701713 C53.1240443,79.884315 53.9244419,79.8975084 54.6500771,79.8887128 C55.8242868,79.8755194 57.0028943,79.822746 58.1727062,79.7259946 C58.3398222,79.5280941 58.0803526,79.2554312 57.8472698,79.1498842 C57.1876014,78.8508346 56.4575684,78.7452876 55.736331,78.6397407 C54.8083975,78.507807 53.880464,78.3714756 52.9481327,78.2395419 C52.3852157,78.1559839 51.7959119,78.0680281 51.3253485,77.7469895 C50.2610835,77.0213543 49.9400449,75.6624375 48.792222,75.0159624 C47.6356034,74.3606919 46.2810844,74.149598 44.9705432,74.0968245 C42.0767979,73.982482 39.1786549,74.6069681 36.298103,74.0792334 C31.5484907,73.2128689 26.7285138,71.2690461 22.2603601,69.4747481 C22.1196308,69.9585049 22.5813987,70.3894883 22.9947908,70.6797424 C27.0847347,73.5734876 31.2494411,76.4276528 35.8319374,78.4506358 C40.4144336,80.4736188 45.4850845,81.6478285 50.458984,81.0233424 C51.294564,80.9177955 51.6947628,80.4824144 52.4247958,80.1745691 C52.4335914,80.1745691 52.4379892,80.1745691 52.4423869,80.1701713 Z" id="Path" fill="#FFF6CF" fill-rule="nonzero"></path>
                                <path d="M83.9217616,102.647272 C83.9217616,103.504841 83.3324579,78.3011109 83.3456513,78.3011109 C83.3456513,78.3011109 79.0050334,74.0220621 77.4350227,71.6648471 C78.7279727,75.4645369 79.7878398,79.5061052 79.6690995,83.4685132 C79.4843924,89.5946335 79.8582045,97.3787202 79.6734973,103.509238 C81.181939,103.460863 82.5408558,103.196995 83.9217616,102.647272 Z" id="Path" fill="#903C14" fill-rule="nonzero"></path>
                                <path d="M77.531774,71.5768913 C78.0463153,72.7423055 78.9522599,73.7362058 79.8582045,74.6993216 C80.8872871,75.7987689 81.9295632,76.8894206 82.9850326,77.9712768 C83.5611429,78.5649783 84.5418499,78.0020613 83.8426014,77.3555863 C83.1785353,76.7442936 82.4485023,76.172581 81.7712427,75.5656861 C80.3287679,74.2639405 78.9126798,72.9358082 77.531774,71.5768913 Z" id="Path" fill="#FFEC9D" fill-rule="nonzero" opacity="0.78"></path>
                                <path d="M37.445926,65.5167379 C38.3782573,64.4788597 39.9350746,62.4558767 40.73987,61.3476338 C39.9834503,60.7275455 38.6992959,60.7759212 38.6992959,60.7759212 C38.6992959,60.7759212 37.591053,65.3540197 37.445926,65.5167379 Z" id="Path" fill="#903C14" fill-rule="nonzero"></path>
                                <path d="M17.0973556,40.5328978 L2.06131452,48.8227303 C5.70268393,59.7424408 16.2090022,69.0129803 30.5238059,74.6553437 L45.9160679,62.719744 C30.3083142,59.3290486 18.8916536,51.2459121 17.0973556,40.5328978 Z" id="Path" fill="url(#linearGradient-2)" fill-rule="nonzero" opacity="0.15"></path>
                                <path d="M100.206775,20.6197085 L109.318994,13.5524614 C102.836653,8.86441815 94.6743561,5.16587748 85.4477945,2.84384481 L73.4990014,9.43173295 C84.414314,11.0457216 93.8299806,15.0960854 100.206775,20.6197085 Z" id="Path" fill="url(#linearGradient-3)" fill-rule="nonzero" opacity="0.15"></path>
                                <path d="M77.0480172,16.5693447 C78.1254755,16.8200187 79.1457626,17.2817866 80.0736961,18.1129687 C80.4123259,18.4164162 80.7289667,18.7550459 81.098381,19.0233111 C82.8487011,20.2942721 82.6991763,22.3436419 82.8662922,24.3138514 C82.892679,24.6260944 83.2928778,30.0177839 83.3324579,30.5059385 C83.4863805,32.4497613 83.6315076,34.3935841 83.7854302,36.3374069 C83.9481484,38.421959 84.1196622,40.506511 84.2823803,42.5910631 C84.3791317,43.844433 84.4714853,45.0978029 84.5594411,46.3511728 C84.603419,46.9580677 84.6122145,46.9800567 85.166336,46.9800567 C88.6669761,46.9800567 92.1720141,46.9800567 95.6726542,46.9800567 C96.1827978,46.9800567 96.1871956,46.9800567 96.2707536,47.5121891 C96.5478143,49.3108849 96.8204772,51.1095807 97.0931401,52.9082764 C97.1503114,53.2996797 97.1283224,53.3304642 96.7545104,53.3304642 C94.2917484,53.3304642 91.8245887,53.3304642 89.3618268,53.3304642 C88.064479,53.3304642 86.7671312,53.3216686 85.4697834,53.3350041 C85.1839271,53.3392598 85.0695846,53.2425084 85.0475957,52.9214698 C84.9596399,51.6461109 84.8496951,50.3707521 84.748546,49.0909954 C84.7001703,48.4928961 84.6517946,47.8947968 84.6122145,47.2966975 C84.5946234,47.015239 84.414314,47.0328301 84.2384025,47.0328301 C83.1257618,47.0328301 82.0131212,47.0328301 80.8960827,47.0328301 C80.1616519,47.0328301 79.4272211,47.0416257 78.6927903,47.0284323 C78.3937407,47.0196368 78.2881937,47.0812058 78.3057849,47.4594157 C78.3805473,48.9502662 78.4113318,50.4411167 78.4597075,51.936365 C78.4729009,52.2881882 78.4948898,52.6400113 78.5168788,52.9918344 C78.5300721,53.229315 78.4377186,53.3436575 78.2134313,53.3304642 C78.1254755,53.3260664 78.0419176,53.3304642 77.9539618,53.3304642 C70.420549,53.3304642 62.8827384,53.3304642 55.3493256,53.3304642 C55.2525742,53.3304642 55.1558229,53.3260664 55.0590715,53.3304642 C54.8699666,53.3350041 54.7864086,53.2600996 54.8127953,53.0358123 C55.0106958,51.2986856 55.2085963,49.5571611 55.3933035,47.8200344 C55.4988504,46.8525208 55.507646,47.0504213 54.7996019,47.0460235 C53.0360885,47.0372279 51.2769728,47.0416257 49.5134594,47.0416257 C49.1088628,47.0416257 49.082476,47.0108412 49.1484429,46.5754601 C50.3446415,38.8045666 51.545238,31.0292754 52.7414366,23.258382 C52.8645747,22.444791 53.005304,21.6355978 53.1064531,20.8220068 C53.1548288,20.443797 53.3131492,20.3514434 53.6429834,20.3514434 C55.089856,20.3690345 56.5411264,20.360239 57.9879991,20.3558412 C58.4189824,20.3558412 58.427778,20.33825 58.4805514,19.8632888 C58.6080873,18.7066703 58.7356232,17.5544495 58.8631591,16.3978309 C62.7332135,16.3978309 66.6076658,16.3978309 70.4777202,16.3978309 C72.6810126,16.3934332 74.9678629,16.0855879 77.0480172,16.5693447 Z" id="Path" fill="#D5761F" fill-rule="nonzero"></path>
                                <path d="M93.2230857,49.0953932 C93.0119918,47.8376255 92.3435278,47.2747085 91.0593734,47.2747085 L85.8831756,47.2747085 L84.9684355,47.2747085 L81.6349113,47.2747085 C81.5689444,46.4259352 81.4985798,45.5859575 81.432613,44.7723665 C81.349055,43.7828639 81.2610992,42.7933614 81.1731434,41.8038588 C81.0939832,40.9067098 81.014823,40.0139587 80.9400606,39.1168097 C80.8652982,38.2592408 80.7949336,37.4016719 80.7245689,36.5397052 C80.6498065,35.6425562 80.5750441,34.7410095 80.4958839,33.8438605 C80.4650994,33.5052307 80.4123259,32.8719491 79.8626023,32.3925901 C79.3480609,31.9396178 78.7807461,31.9396178 78.4069341,31.9396178 L71.6519299,31.9396178 L64.8969258,31.9396178 C64.8617435,31.9396178 64.8221634,31.9396178 64.7869811,31.9396178 L64.7386054,31.9396178 C64.7122187,31.9396178 64.6814341,31.9396178 64.6506496,31.9396178 C63.6039758,31.9396178 62.8211693,32.7136287 62.7903848,33.7778936 C62.7727936,34.3627996 62.7508047,34.9521033 62.7332135,35.5370093 C62.7112246,36.2054733 62.6892357,36.8739372 62.6672467,37.5424012 C62.6584511,37.8634398 62.6364622,38.5275059 63.1685947,39.0728318 C63.7007272,39.6181576 64.3691911,39.6181576 64.6902297,39.6225554 L65.4642406,39.6225554 C65.8600416,39.6225554 66.2558426,39.6225554 66.6516437,39.6225554 C66.8143619,39.6225554 66.9726823,39.6225554 67.1354005,39.6225554 C67.1310027,42.1468864 67.1354005,44.7063997 67.1397983,47.2659129 C67.0958204,47.2659129 67.0518425,47.2659129 67.0078646,47.2659129 C66.7264061,47.2659129 66.4449476,47.2659129 66.1590913,47.2659129 C65.8776328,47.2659129 65.6005721,47.2659129 65.3191136,47.2659129 L63.432462,47.2659129 L61.5458105,47.2659129 C60.4815455,47.2659129 59.4172805,47.2659129 58.3530156,47.2659129 C58.405789,46.659018 58.4585625,46.0565209 58.5069382,45.4628194 L58.572905,44.6756151 C58.6300763,44.0027534 58.6828497,43.3254939 58.740021,42.6526321 C58.7971923,41.9401903 58.8543635,41.2277485 58.9159326,40.5153066 C58.9818994,39.7237046 59.052264,38.9321025 59.1182309,38.1361027 C59.1710043,37.5204122 59.2237778,36.9047217 59.2765513,36.293429 C59.324927,35.7481032 59.3689048,35.2071751 59.4128827,34.6618493 C59.4612584,34.0945345 59.5052363,33.5272197 59.5580098,32.9599049 C59.6723523,31.622977 59.7866948,30.2860491 59.9054351,28.9491212 L59.9186285,28.8039941 C59.949413,28.4609666 59.9801975,28.1223368 60.0109821,27.7793093 C60.0505622,27.3439281 60.0901423,26.9041492 60.1253246,26.4599725 C61.2995343,26.4599725 62.473744,26.4643703 63.6523515,26.4643703 C64.7913789,26.4643703 65.934804,26.4643703 67.0738314,26.4599725 C67.0738314,26.574315 67.0738314,26.6842598 67.0738314,26.7986023 C67.0738314,27.2999502 67.0738314,27.8188894 67.0694336,28.3246351 C67.0606381,29.0634637 67.3640855,29.5252315 67.6191573,29.7847011 C67.8742291,30.0441707 68.3359969,30.3520159 69.0748255,30.3520159 C70.5788694,30.3476181 72.0741177,30.3476181 73.569366,30.3476181 C75.0734099,30.3476181 76.5774538,30.3476181 78.0814977,30.3520159 C78.8511108,30.3520159 79.3128786,30.0221817 79.5679504,29.7407232 C79.8186244,29.4636625 80.1088785,28.9755079 80.0385138,28.2322815 C79.9461603,27.2515746 79.8538067,26.1961052 79.7746465,25.1450336 C79.6866907,24.010404 78.8599063,23.2451886 77.7164812,23.2451886 L77.6856966,23.2451886 C77.0260283,23.2539842 76.3619621,23.2539842 75.7990451,23.2539842 L75.1921502,23.2539842 L74.5852553,23.2539842 C74.550073,23.2539842 74.5148907,23.2539842 74.4797083,23.2539842 C74.4533216,22.695465 74.4313327,22.1545369 74.4269349,21.6136089 C74.4269349,21.3981172 74.4225371,20.9935206 74.215841,20.5537417 L73.7892555,19.6258082 L72.7645706,19.6258082 L54.8127953,19.6258082 L53.3967072,19.6258082 L53.2251934,21.0331007 L53.1152487,21.9346475 C53.0624752,22.361233 53.0140995,22.7834208 52.9613261,23.2100063 C52.5391383,23.2100063 52.1169506,23.2100063 51.690365,23.2100063 C50.9075585,23.2100063 50.2698791,23.2056085 49.6849732,23.2012108 L49.6497908,23.2012108 C48.5063657,23.2012108 47.705968,23.8960614 47.5520454,25.0087021 C47.4816808,25.532039 47.393725,26.0509781 47.2969737,26.6007018 C47.2661891,26.7898067 47.2310068,26.9745138 47.2002223,27.1636188 L45.5290624,37.1202134 L43.660002,48.2466199 C43.6072286,48.5544652 43.4884883,49.2713048 44.0206207,49.9001886 C44.5527532,50.5290725 45.2827862,50.5290725 45.5950293,50.5290725 L46.0084214,50.5290725 L47.3145648,50.5290725 L48.6163104,50.5290725 C48.9681335,50.5290725 49.3155589,50.5290725 49.667382,50.5290725 C49.5354483,51.6417131 49.3859235,52.8379118 49.2232053,54.1528507 C49.1308517,54.9004749 49.4518903,55.3930273 49.6497908,55.6173145 C49.8476914,55.8416018 50.2918681,56.2198116 51.0350944,56.2198116 C51.0570834,56.2198116 51.0790723,56.2198116 51.1010613,56.2198116 L51.1362436,56.2198116 L51.2198016,56.2198116 C51.2593817,56.2198116 51.3033596,56.2198116 51.3429397,56.2198116 L63.3313129,56.2198116 L68.4679306,56.2198116 L73.6045483,56.2198116 C73.6441284,56.2198116 73.6837085,56.2198116 73.7232886,56.2198116 L73.7716643,56.2198116 C73.8156422,56.2242094 73.8596201,56.2242094 73.8992002,56.2242094 C74.4313327,56.2242094 74.9194873,56.0219111 75.2669126,55.6524968 C75.6187357,55.2786848 75.7946473,54.7685412 75.759465,54.2188176 L75.7462716,53.9857348 C75.7286805,53.7482541 75.7154871,53.5239669 75.7066915,53.3084752 C75.6934982,52.8950831 75.6803048,52.4772931 75.6671114,52.0639009 C75.6495203,51.5625529 75.6363269,51.0524094 75.6143379,50.5378681 C75.7066915,50.5378681 75.7990451,50.5378681 75.8913987,50.5378681 C76.0980948,50.5378681 76.3003931,50.5378681 76.5070891,50.5378681 L77.2854978,50.5378681 L78.6751992,50.5378681 C78.6839948,50.6214261 78.6883926,50.7005863 78.6971881,50.7797465 L78.7103815,50.9336691 C78.741166,51.2854922 78.7719506,51.6329176 78.8027351,51.9847407 C78.8730997,52.771945 78.9434643,53.5855359 79.0050334,54.3815358 C79.0885914,55.4897786 79.8933868,56.233005 81.0060274,56.233005 L81.014823,56.233005 L81.0324142,56.233005 C81.6217179,56.2286072 82.2154195,56.2286072 82.809121,56.2286072 C83.1477507,56.2286072 83.4863805,56.2286072 83.8294081,56.2286072 C84.1724356,56.2286072 84.5110654,56.2286072 84.8540929,56.2286072 L85.0651868,56.2286072 L86.5384462,56.2286072 L87.7698271,56.2286072 C88.8560811,56.2286072 89.9159482,56.2286072 91.2484784,56.2286072 C91.5519258,56.2286072 92.2687654,56.2286072 92.7965001,55.6041212 C93.3242348,54.9796351 93.2054945,54.2583977 93.1615166,53.9857348 C93.0647653,53.3920332 93.1351299,52.7059781 93.2142901,51.9847407 C93.2890525,51.1095807 93.3989972,50.1288737 93.2230857,49.0953932 Z" id="Path" fill="#D2571C" fill-rule="nonzero"></path>
                                <path d="M80.9972319,52.3057793 C80.2628011,52.3057793 79.7702487,51.852807 79.7130774,51.1183762 C79.6515084,50.309183 79.5811438,49.5043876 79.5107791,48.6995922 L79.4052322,47.5121891 C79.3788455,47.2131395 79.3524587,46.909692 79.3304698,46.6106424 L76.5070891,46.6106424 L75.258117,46.6150402 C75.1261834,46.6150402 74.9942497,46.6150402 74.862316,46.6150402 C74.8974983,47.3802555 74.9194873,48.1322774 74.945874,48.8667082 C74.9590674,49.288896 74.9722607,49.7110837 74.9898519,50.1332715 C74.9986475,50.3707521 75.0162386,50.6126305 75.029432,50.8501111 L75.0426254,51.0656028 C75.0690121,51.5141773 74.8974983,51.8000336 74.7435757,51.9627518 C74.5324818,52.187039 74.2334322,52.3101771 73.903598,52.3101771 C73.8860068,52.3101771 73.8288356,52.3101771 73.8112444,52.3057793 L73.6133439,52.3057793 C73.6133439,52.3057793 51.0878679,52.3057793 51.0878679,52.3057793 C50.6085089,52.3057793 50.3446415,52.1122766 50.1995145,51.9495584 C50.0543874,51.7868402 49.8916692,51.4965861 49.9488405,51.0480116 C50.1335476,49.5703545 50.313857,48.0970951 50.4897686,46.6150402 C49.8388958,46.6106424 49.2056141,46.6106424 48.5767303,46.6106424 L45.6082226,46.6106424 C45.3443553,46.6106424 44.9001786,46.6106424 44.5835377,46.2368303 C44.2668969,45.8630182 44.3416593,45.4276371 44.3812394,45.1681675 L47.9214597,24.0851664 L48.0182111,23.5222494 C48.1105646,22.9901169 48.2029182,22.444791 48.2732828,21.9082607 C48.3216585,21.5520398 48.5503436,20.7208577 49.6585864,20.7208577 C50.3490393,20.7296533 51.0131055,20.7296533 51.6771716,20.7296533 L53.6034033,20.7252555 C53.6737679,20.1183606 53.942033,17.919466 53.942033,17.919466 C53.9948065,17.4796871 54.3686186,17.1454551 54.8171931,17.1454551 L72.7689684,17.1454551 C73.1119959,17.1454551 73.424239,17.3433556 73.569366,17.6555986 C73.7100952,17.9546483 73.7100952,18.2361068 73.714493,18.420814 C73.7188908,19.1024713 73.7540731,19.8017197 73.7892555,20.4789793 L73.8024488,20.7736311 C74.0883051,20.7736311 75.7946473,20.7736311 75.7946473,20.7736311 C76.4279289,20.7736311 77.0656084,20.7736311 77.69889,20.7648356 L77.69889,20.7648356 C78.5036854,20.7648356 79.0094312,21.2266034 79.0666024,22.0006143 C79.1457626,23.0340948 79.2381162,24.0675752 79.3348676,25.1010557 C79.3788455,25.5848125 79.2029339,25.8882599 79.0490113,26.0597737 C78.8203262,26.3104477 78.5036854,26.4335858 78.0990888,26.4335858 C76.5950449,26.429188 75.091001,26.429188 73.5913549,26.429188 C72.0917088,26.429188 70.5920627,26.429188 69.0924166,26.4335858 C68.6922178,26.4335858 68.375577,26.3148455 68.1424942,26.0817626 C67.9094114,25.8486798 67.7950688,25.5276412 67.7994666,25.136238 C67.8038644,24.6216966 67.8038644,24.1115531 67.8038644,23.6014096 C67.8038644,23.2495864 67.8038644,22.8977633 67.8038644,22.5459402 C66.3965719,22.550338 64.998075,22.550338 63.599578,22.550338 C62.22307,22.550338 60.846562,22.550338 59.4744518,22.5459402 C59.4216783,23.1880174 59.3645071,23.8344924 59.3073358,24.4765696 L59.2105844,25.5496302 C59.0874463,26.9349337 58.968706,28.3202373 58.8499657,29.7099387 L58.5685072,33.0434629 C58.5685072,33.0434629 58.2738554,36.4737384 58.2034907,37.2653404 C58.1463195,37.9601911 57.7944963,42.1952621 57.7944963,42.1952621 C57.7241317,43.0484332 57.6537671,43.9191954 57.5702091,44.7899577 C58.885148,44.7899577 65.3279091,44.7899577 65.3279091,44.7899577 L67.021058,44.7855599 C67.3025165,44.7855599 67.583975,44.7855599 67.8654335,44.7899577 C67.8566379,41.7554832 67.8566379,38.7298042 67.8610357,35.7041253 C67.4564391,35.7085231 67.0562403,35.7085231 66.6560415,35.7085231 L64.6946275,35.7041253 C64.4043734,35.7041253 64.0085724,35.7041253 63.6875338,35.3742911 C63.3664952,35.0444569 63.3796885,34.6354625 63.3884841,34.3627996 C63.4060753,33.6987334 63.432462,33.0302695 63.454451,32.3618055 C63.4720421,31.7725018 63.4940311,31.1875958 63.5116222,30.5982921 C63.5336112,29.9254304 63.9997768,29.4548669 64.6550474,29.4548669 C64.6682408,29.4548669 78.4113318,29.4548669 78.4113318,29.4548669 C79.3216742,29.4548669 79.7042819,29.8022923 79.7834421,30.6994412 C79.8626023,31.6053858 80.1528563,35.1192193 80.2276188,35.9723904 C80.3023812,36.8695394 80.3815414,37.7622906 80.4607016,38.6550418 C80.5486574,39.6445444 80.6322154,40.6340469 80.7201711,41.6235495 C80.8081269,42.6790189 80.8960827,43.7300905 80.9752429,44.7855599 L91.0637712,44.7855599 C92.0005003,44.7855599 92.3699146,45.0934051 92.5194394,46.0037475 C92.7921023,47.6309294 93.0603675,49.2581114 93.3286326,50.8852934 C93.3682127,51.1183762 93.4385773,51.5493596 93.1263343,51.9187739 C92.8140913,52.2881882 92.3655168,52.2881882 92.1280362,52.2881882 L82.7915298,52.2881882 C82.2022261,52.2881882 81.6085245,52.2881882 81.0192208,52.2925859 C81.014823,52.3057793 81.0016296,52.3057793 80.9972319,52.3057793 Z" id="Path" fill="url(#linearGradient-4)" fill-rule="nonzero"></path>
                                <path d="M72.7601728,18.0294107 C72.8217418,18.1569466 72.8217418,18.2976759 72.8217418,18.4384051 C72.8305374,19.3971231 72.8921065,20.3514434 72.9316866,21.3057636 C72.9448799,21.6092111 73.0812114,21.6663823 73.340681,21.6663823 C73.3450787,21.6663823 73.3494765,21.6663823 73.3494765,21.6663823 C73.7584709,21.6619846 74.1674653,21.6619846 74.5808575,21.6619846 C74.9854541,21.6619846 75.3900507,21.6619846 75.7902495,21.6619846 C76.4235311,21.6619846 77.0568128,21.6619846 77.6944922,21.653189 C77.69889,21.653189 77.7032878,21.653189 77.7120834,21.653189 C78.0287242,21.653189 78.1518623,21.7631337 78.178249,22.0753767 C78.2574092,23.113255 78.3497628,24.1511332 78.4465142,25.1890114 C78.4729009,25.47047 78.3585584,25.5628235 78.0858954,25.5628235 C78.0858954,25.5628235 78.0858954,25.5628235 78.0814977,25.5628235 C76.5774538,25.5584257 75.0734099,25.5584257 73.569366,25.5584257 C72.0697199,25.5584257 70.5744716,25.5584257 69.0748255,25.5628235 C69.0748255,25.5628235 69.0748255,25.5628235 69.0704277,25.5628235 C68.7669802,25.5628235 68.6614333,25.4572766 68.6658311,25.1538291 C68.6790245,24.1203487 68.6614333,23.091266 68.6746267,22.0577856 C68.6790245,21.7719293 68.5866709,21.6707801 68.292019,21.6707801 C68.292019,21.6707801 68.2876212,21.6707801 68.2876212,21.6707801 C66.7395995,21.6751779 65.1915777,21.6751779 63.6479537,21.6751779 C62.1087275,21.6751779 60.5651035,21.6751779 59.0258773,21.6707801 C59.0258773,21.6707801 59.0258773,21.6707801 59.0214795,21.6707801 C58.7664077,21.6707801 58.6388719,21.7323492 58.6168829,22.0138077 C58.5289271,23.1704262 58.4189824,24.322647 58.3178332,25.4748677 C58.1990929,26.8601713 58.0759548,28.2498727 57.9572145,29.6351763 C57.8604632,30.7478169 57.7725074,31.8604576 57.675756,32.9687004 C57.5570157,34.375993 57.4294798,35.7832855 57.3107395,37.190578 C57.1919992,38.5758816 57.0820545,39.965583 56.967712,41.3508866 C56.8577672,42.6658255 56.7566181,43.9763667 56.6202866,45.2869078 C56.5895021,45.6035487 56.6862535,45.6695155 56.967712,45.6695155 C56.967712,45.6695155 56.9721098,45.6695155 56.9721098,45.6695155 C58.4937448,45.6651177 60.0109821,45.6651177 61.5326171,45.6651177 C62.7903848,45.6651177 64.0525503,45.6651177 65.310318,45.6651177 C65.873235,45.6651177 66.436152,45.6607199 66.999069,45.6607199 C67.4476435,45.6607199 67.896218,45.6607199 68.3447925,45.6695155 C68.3491903,45.6695155 68.3535881,45.6695155 68.3623836,45.6695155 C68.6438422,45.6695155 68.7317979,45.5639686 68.7317979,45.28251 C68.7230024,41.9313947 68.7186046,38.5802794 68.7274001,35.2291641 C68.7274001,34.9301144 68.6350466,34.8201697 68.3359969,34.8201697 C68.3315991,34.8201697 68.3272013,34.8201697 68.3228035,34.8201697 C67.7642843,34.8245675 67.2013673,34.8289653 66.6428481,34.8289653 C65.9875775,34.8289653 65.3367047,34.8245675 64.6814341,34.8245675 C64.268042,34.8245675 64.2416552,34.8069763 64.2548486,34.3935841 C64.2900309,33.1402142 64.3384066,31.8868443 64.3779867,30.6334744 C64.3823845,30.4443695 64.4571469,30.3432203 64.641854,30.3432203 C64.6506496,30.3432203 64.6594452,30.3432203 64.6682408,30.3432203 C64.6902297,30.3432203 64.7122187,30.3432203 64.7342076,30.3432203 C64.7869811,30.3432203 64.8397545,30.3432203 64.892528,30.3432203 C67.1090137,30.3432203 69.3254995,30.3432203 71.546383,30.3432203 C73.8332333,30.3432203 76.1200837,30.3432203 78.4025363,30.3432203 C78.8511108,30.3432203 78.8599063,30.3432203 78.8994864,30.7829992 C79.0490113,32.5421149 79.1941383,34.2968328 79.3436631,36.0559484 C79.5063813,37.9382022 79.6734973,39.8248537 79.8362155,41.7071075 C79.9329669,42.8417371 80.0253205,43.9719689 80.1088785,45.1065985 C80.1484586,45.6563221 80.1616519,45.6739133 80.7069778,45.6739133 C84.1548445,45.6739133 87.6071089,45.6739133 91.0549756,45.6739133 C91.5607214,45.6739133 91.5607214,45.6739133 91.6442794,46.1576701 C91.9169423,47.7848521 92.1852074,49.4120341 92.4534726,51.0348182 C92.5106438,51.3866414 92.4886549,51.4174259 92.1192406,51.4174259 C90.7603238,51.4174259 89.4014069,51.4174259 88.0424901,51.4174259 C86.9738273,51.4174259 85.9051645,51.4174259 84.8365018,51.4174259 C84.1548445,51.4174259 83.4731871,51.4174259 82.7915298,51.4174259 C82.1978283,51.4174259 81.599729,51.4174259 81.0060274,51.4262215 C81.0016296,51.4262215 80.9972319,51.4262215 80.9928341,51.4262215 C80.7201711,51.4262215 80.6102264,51.3382657 80.5882375,51.0524094 C80.5002817,49.8957909 80.3947347,48.7435701 80.2935856,47.5913493 C80.2452099,47.0504213 80.201232,46.5094932 80.1616519,45.9729629 C80.1440608,45.7442779 80.0033315,45.7354823 79.8494089,45.7354823 C79.8318177,45.7354823 79.8142266,45.7354823 79.7966354,45.7354823 C79.7966354,45.7354823 79.7966354,45.7354823 79.7966354,45.7354823 C78.7015859,45.7354823 77.6021386,45.7354823 76.5070891,45.7354823 C76.0892992,45.7354823 75.675907,45.7398801 75.258117,45.7398801 C74.9502718,45.7398801 74.6424265,45.7398801 74.3345813,45.7310845 C74.3213879,45.7310845 74.3081946,45.7310845 74.2950012,45.7310845 C74.0311339,45.7310845 73.9343825,45.7970514 73.9519737,46.1224878 C74.0267361,47.4682112 74.0531228,48.8183325 74.1014985,50.1684538 C74.1146918,50.4850946 74.1366808,50.8061332 74.1586697,51.122774 C74.1718631,51.3250723 74.0927029,51.4306193 73.8992002,51.4306193 C73.8860068,51.4306193 73.8728134,51.4306193 73.8596201,51.4306193 C73.8288356,51.4306193 73.8024488,51.4262215 73.7716643,51.4262215 C73.714493,51.4262215 73.6573218,51.4306193 73.6045483,51.4306193 C69.8928143,51.4306193 66.185478,51.4306193 62.473744,51.4306193 C58.7620099,51.4306193 55.0546737,51.4306193 51.3429397,51.4306193 C51.272575,51.4306193 51.2066082,51.4306193 51.1362436,51.4306193 C51.1098568,51.4306193 51.0834701,51.4306193 51.0570834,51.4306193 C51.0526856,51.4306193 51.04389,51.4306193 51.0394922,51.4306193 C50.8679784,51.4306193 50.7888182,51.3602546 50.815205,51.1623541 C51.0131055,49.5923434 51.2022104,48.0179349 51.3869176,46.4479242 C51.46168,45.8190403 51.4880667,45.7354823 51.2373927,45.7354823 C51.1450392,45.7354823 51.0087077,45.7486757 50.8283983,45.7486757 C50.8196028,45.7486757 50.8108072,45.7486757 50.8064094,45.7486757 C50.0807742,45.7442779 49.355139,45.7442779 48.625106,45.7442779 C47.7543437,45.7442779 46.8835815,45.7442779 46.0128192,45.7442779 C45.8764878,45.7442779 45.7357585,45.7442779 45.599427,45.7442779 C45.1992282,45.7442779 45.1772393,45.7134934 45.2432061,45.3220901 C46.4218136,38.2944231 47.6048189,31.266756 48.7834264,24.239089 C48.9065645,23.5046582 49.0428959,22.7702274 49.1396473,22.0357966 C49.1836252,21.6971669 49.3375478,21.6136089 49.6497908,21.6136089 C49.6541886,21.6136089 49.6629842,21.6136089 49.667382,21.6136089 C50.3402437,21.6224045 51.0131055,21.6224045 51.690365,21.6224045 C52.4423869,21.6224045 53.1944089,21.6180067 53.9508286,21.6180067 C54.3730164,21.6180067 54.381812,21.6004155 54.4345854,21.17383 C54.5577235,20.1271561 54.6852594,19.0848801 54.8127953,18.0382063 C60.7937885,18.0294107 66.7747818,18.0294107 72.7601728,18.0294107 M72.7601728,16.2702951 L54.8083975,16.2702951 C53.9200441,16.2702951 53.1680222,16.9343612 53.0624752,17.8183168 L52.9525305,18.7418526 C52.9085526,19.1112669 52.8601769,19.4806811 52.816199,19.8544932 C52.4423869,19.8544932 52.0641771,19.8544932 51.690365,19.8544932 C51.0219011,19.8544932 50.3534371,19.8544932 49.6893709,19.8456976 C49.6849732,19.8456976 49.6585864,19.8456976 49.6541886,19.8456976 C48.4447966,19.8456976 47.560841,20.6109129 47.3981228,21.7939182 C47.3277582,22.3172551 47.2398024,22.8361943 47.143051,23.3859179 C47.1122665,23.570625 47.0770842,23.7553322 47.0462997,23.9444371 L45.5334602,32.9643027 L43.5104772,45.0274383 C43.4533059,45.3572725 43.3257701,46.1268856 43.9062782,46.8129407 C44.4867864,47.4989958 45.2695929,47.4989958 45.599427,47.4989958 L46.0128192,47.4989958 L47.3189626,47.4989958 L48.625106,47.4989958 C48.9153601,47.4989958 49.2012163,47.4989958 49.4914704,47.4989958 C49.3639345,48.5632607 49.2232053,49.6978903 49.0692827,50.9468625 C48.9681335,51.7604535 49.3155589,52.2925859 49.5354483,52.5388621 C49.75094,52.7851383 50.2346968,53.1941327 51.0394922,53.1941327 C51.0570834,53.1941327 51.0878679,53.1941327 51.105459,53.1941327 L51.1406414,53.1941327 L51.2198016,53.1941327 L51.3429397,53.1941327 L62.473744,53.1941327 L73.6045483,53.1941327 C73.6441284,53.1941327 73.6837085,53.1941327 73.7232886,53.1941327 L73.7672665,53.1941327 C73.8112444,53.1985305 73.8552223,53.1985305 73.8992002,53.1985305 C74.4753106,53.1985305 75.0030453,52.978641 75.3812551,52.5740444 C75.7638628,52.1694478 75.9529677,51.6153264 75.9133876,51.0216249 L75.8957965,50.7797465 C75.8826031,50.5554592 75.8650119,50.3355698 75.8562163,50.1112825 C75.843023,49.7022881 75.8298296,49.288896 75.8166362,48.8799016 C75.8034429,48.4269293 75.7902495,47.9695592 75.7726584,47.5077914 C75.8122385,47.5077914 75.8474208,47.5077914 75.8870009,47.5077914 C76.093697,47.5077914 76.3003931,47.5077914 76.5026914,47.5077914 L77.2239288,47.5077914 L78.5212766,47.5077914 C78.5256744,47.5385759 78.5256744,47.5737582 78.5300721,47.6045427 L78.5432655,47.7584653 C78.57405,48.1102885 78.6048346,48.4577138 78.6356191,48.8095369 C78.7059837,49.5967412 78.7763483,50.4059344 78.8379174,51.2019342 C78.9258732,52.3981329 79.7966354,53.2029283 80.9972319,53.2029283 C81.0016296,53.2029283 81.0192208,53.2029283 81.0236186,53.2029283 C81.6173201,53.1985305 82.2066239,53.1985305 82.7959276,53.1985305 L83.8162147,53.1985305 L84.8408996,53.1985305 L86.4460926,53.1985305 L88.0512856,53.1985305 C89.4102025,53.1985305 90.7691193,53.1985305 92.1280362,53.1985305 C92.4270858,53.1985305 93.2186879,53.1985305 93.7991961,52.5168732 C94.3753064,51.8396137 94.2477705,51.061205 94.1993949,50.7709509 C93.9311297,49.1437689 93.6628646,47.5165869 93.3902017,45.8894049 C93.1659144,44.5568748 92.4270858,43.9367866 91.068169,43.9367866 L85.5181591,43.9367866 L81.7932317,43.9367866 C81.7316626,43.1319912 81.6656958,42.3447869 81.599729,41.5795716 C81.516171,40.5988646 81.4282152,39.6181576 81.3446572,38.6374506 C81.265497,37.7359039 81.1863368,36.8299593 81.1071766,35.9284125 C81.0324142,35.0620481 80.9620495,34.2000814 80.8872871,33.3337169 C80.8125247,32.4409657 80.7377623,31.5482145 80.6629999,30.6554634 C80.5838397,29.7187343 80.1264696,28.6060936 78.4157296,28.6060936 L71.5595764,28.6060936 L64.9057214,28.6060936 C64.8661413,28.6060936 64.830959,28.6060936 64.7913789,28.6060936 L64.747401,28.6060936 C64.725412,28.6060936 64.6902297,28.6060936 64.6594452,28.6060936 C63.5248156,28.6060936 62.6716445,29.4460713 62.6364622,30.5982921 C62.618871,31.1875958 62.5968821,31.7725018 62.5792909,32.3574078 C62.557302,33.0258717 62.535313,33.6943357 62.5133241,34.3627996 C62.5045285,34.7014294 62.4825396,35.4138712 63.0586499,36.0119705 C63.6347603,36.6056721 64.3515999,36.6100699 64.6946275,36.6100699 L65.4818318,36.6100699 C65.873235,36.6100699 66.2646382,36.6100699 66.6604393,36.6100699 C66.7659862,36.6100699 66.8759309,36.6100699 66.9814779,36.6100699 C66.9770801,39.0288539 66.9814779,41.4784224 66.9858756,43.9323888 L66.1678869,43.9323888 L65.3279091,43.9323888 L63.4764399,43.9323888 L61.5502083,43.9323888 C60.5431146,43.9323888 59.5404186,43.9323888 58.5333249,43.9323888 C58.5817006,43.3826651 58.6256785,42.8329415 58.6696564,42.2964112 L58.7356232,41.5180025 C58.7927945,40.8451408 58.8455679,40.1722791 58.9027392,39.4994173 C58.9599105,38.7869755 59.0214795,38.0701358 59.0786508,37.357694 C59.1446176,36.5748875 59.2105844,35.7920811 59.2809491,35.0048768 C59.3337225,34.3803908 59.3908938,33.7559047 59.4436673,33.1358164 C59.4920429,32.5904906 59.5360208,32.0451647 59.5799987,31.5042367 C59.6283744,30.9369219 59.6723523,30.3696071 59.720728,29.8022923 C59.8306727,28.5225356 59.9406174,27.2471768 60.0505622,25.9674201 L60.0769489,25.6463815 C60.1077334,25.3077518 60.1385179,24.969122 60.1693025,24.6260944 C60.2044848,24.239089 60.2396671,23.843288 60.2748494,23.4474869 C61.4006834,23.4474869 62.5265175,23.4518847 63.6523515,23.4518847 C64.7386054,23.4518847 65.8248593,23.4518847 66.915511,23.4474869 C66.915511,23.5046582 66.915511,23.5662273 66.915511,23.6233985 C66.915511,24.1335421 66.915511,24.6392878 66.9111132,25.1494313 C66.9023177,25.9454312 67.227754,26.4423814 67.5048148,26.7238399 C67.7818755,27.0052984 68.2788257,27.3395303 69.0748255,27.3395303 C70.5788694,27.3351326 72.0741177,27.3351326 73.569366,27.3351326 C75.0734099,27.3351326 76.5774538,27.3351326 78.0770999,27.3395303 C78.9038842,27.3395303 79.4052322,26.9789116 79.6822929,26.6754642 C79.9549558,26.3764145 80.2671989,25.8486798 80.1968342,25.0438844 C80.1044807,24.0631774 80.0121271,23.0121058 79.9329669,21.9566364 C79.8406133,20.734051 78.9478621,19.9072667 77.7120834,19.9072667 C77.7032878,19.9072667 77.6812988,19.9072667 77.6769011,19.9072667 C77.0480172,19.9160623 76.4235311,19.9160623 75.7946473,19.9160623 L75.1921502,19.9160623 L74.6292332,19.9160623 C74.6072442,19.4103165 74.5852553,18.9221619 74.5808575,18.4340073 C74.5808575,18.2053223 74.5764597,17.7787367 74.3565703,17.3037755 C74.070714,16.6660961 73.4462279,16.2702951 72.7601728,16.2702951 L72.7601728,16.2702951 Z" id="Shape" fill="#903C14" fill-rule="nonzero"></path>
                                <path d="M68.6746267,22.0006143 C68.6746267,21.7499403 68.6746267,21.5036641 68.6746267,21.2529902 C68.6790245,20.9627361 68.5866709,20.8659847 68.2876212,20.8659847 C65.2003733,20.8747803 62.1131253,20.8747803 59.0258773,20.8659847 C58.7708055,20.8659847 58.6388719,20.9275538 58.6168829,21.2090123 C58.5289271,22.3656308 58.4189824,23.5178516 58.3178332,24.6700723 C58.1990929,26.0553759 58.0759548,27.4450773 57.9572145,28.8303809 C57.8604632,29.9430215 57.7725074,31.0556622 57.675756,32.163905 C57.5570157,33.5711976 57.4294798,34.9784901 57.3107395,36.3857826 C57.1919992,37.7710862 57.0820545,39.1607876 56.967712,40.5460911 C56.8577672,41.8610301 56.7566181,43.1715713 56.6202866,44.4821124 C56.6070933,44.6316373 56.6202866,44.7239908 56.6686623,44.7811621 C56.778607,43.6377369 56.8709606,42.4899139 56.967712,41.3464888 C57.0820545,39.9611852 57.1919992,38.5714838 57.3107395,37.1861802 C57.4294798,35.7788877 57.5526179,34.3715952 57.675756,32.9643027 C57.7725074,31.851662 57.8604632,30.7390213 57.9572145,29.6307785 C58.0759548,28.2454749 58.1946951,26.8557735 58.3178332,25.47047 C58.4189824,24.3182492 58.5289271,23.1616307 58.6168829,22.0094099 C58.6388719,21.7235536 58.7664077,21.6619846 59.0258773,21.6663823 C62.1131253,21.6707801 65.2003733,21.6751779 68.2876212,21.6663823 C68.5646819,21.6663823 68.6658311,21.7543381 68.6746267,22.0006143 Z" id="Path" fill="#FFE941" fill-rule="nonzero"></path>
                                <path d="M68.7361957,34.437562 C68.7361957,34.1341146 68.6394444,34.0241698 68.3315991,34.0285676 C67.1178093,34.041761 65.9040195,34.0329654 64.6902297,34.0329654 C64.4175668,34.0329654 64.3164176,34.0241698 64.2812353,33.9010317 C64.2768375,34.0681477 64.268042,34.2308659 64.2636442,34.3979819 C64.2504508,34.8157719 64.2724397,34.8289653 64.6902297,34.8289653 C65.9040195,34.8289653 67.1178093,34.8377608 68.3315991,34.8245675 C68.6394444,34.8201697 68.7361957,34.9345122 68.7361957,35.2335619 C68.7317979,38.3208098 68.7361957,41.4124556 68.7405935,44.4997036 C68.7405935,44.4953058 68.7405935,44.490908 68.7405935,44.4865102 C68.7317979,41.1397927 68.7274001,37.7886773 68.7361957,34.437562 Z" id="Path" fill="#FFE941" fill-rule="nonzero"></path>
                                <path d="M78.0858954,24.7624259 C75.0822055,24.7580281 72.0829133,24.7536303 69.0792233,24.7624259 C68.793367,24.7624259 68.6790245,24.6656745 68.6702289,24.4018072 C68.6702289,24.6524812 68.6702289,24.9031552 68.6702289,25.1538291 C68.6658311,25.4572766 68.7757758,25.5628235 69.0792233,25.5628235 C72.0829133,25.5540279 75.0822055,25.5540279 78.0858954,25.5628235 C78.3629562,25.5628235 78.4729009,25.47047 78.4465142,25.1890114 C78.428923,25.0087021 78.4157296,24.8327905 78.3981385,24.6524812 C78.3409672,24.7316414 78.2398181,24.7624259 78.0858954,24.7624259 Z" id="Path" fill="#FFE941" fill-rule="nonzero"></path>
                                <path d="M73.8640179,50.6258239 C73.7804599,50.6214261 73.6925041,50.6258239 73.6089461,50.6258239 C66.1898758,50.6258239 58.7664077,50.6258239 51.3473375,50.6258239 C51.2505861,50.6258239 51.1538347,50.6214261 51.0614812,50.6258239 C50.982321,50.6258239 50.9295475,50.6126305 50.8855696,50.5862438 C50.8635806,50.7753487 50.8415917,50.9688514 50.815205,51.1579563 C50.7888182,51.3646524 50.8723762,51.4306193 51.0570834,51.4262215 C51.1538347,51.4218237 51.2505861,51.4262215 51.3429397,51.4262215 C58.7620099,51.4262215 66.185478,51.4262215 73.6045483,51.4262215 C73.6881063,51.4262215 73.7760621,51.4218237 73.8596201,51.4262215 C74.0795095,51.4394148 74.1718631,51.3338679 74.1586697,51.122774 C74.1454764,50.9204757 74.132283,50.7181774 74.1190896,50.5158791 C74.0795095,50.5906415 74.0003493,50.6346194 73.8640179,50.6258239 Z" id="Path" fill="#FFE941" fill-rule="nonzero"></path>
                                <path d="M92.383108,50.5994371 C92.3259367,50.6170283 92.2467765,50.6214261 92.1236384,50.6214261 C89.6960588,50.6214261 87.2684792,50.6214261 84.8408996,50.6214261 C83.5655407,50.6214261 82.2857841,50.6170283 81.0104252,50.6258239 C80.7289667,50.6302216 80.6146242,50.5422659 80.5926353,50.2520118 C80.5046795,49.0953932 80.3991325,47.9431725 80.2979834,46.7909517 C80.2628011,46.3819573 80.2276188,45.9729629 80.1968342,45.5595708 C80.1440608,45.4804106 80.1308674,45.3440791 80.1132762,45.1065985 C80.1088785,45.0714162 80.1088785,45.0362339 80.1044807,45.0010515 C80.034116,44.9262891 79.9153757,44.9306869 79.7966354,44.9306869 C78.7015859,44.9306869 77.6021386,44.9306869 76.5070891,44.9306869 C75.7814539,44.9306869 75.0602165,44.9394825 74.3345813,44.9262891 C74.0399294,44.9218913 73.9343825,44.9746648 73.9519737,45.3132946 C73.9607692,45.4980017 73.9695648,45.6827089 73.9783604,45.8630182 C74.0267361,45.7442779 74.1366808,45.7178912 74.3345813,45.722289 C75.0602165,45.7354823 75.7814539,45.7266867 76.5070891,45.7266867 C77.6021386,45.7266867 78.7015859,45.7266867 79.7966354,45.7266867 C79.9681492,45.7266867 80.1440608,45.7134934 80.1660497,45.9641674 C80.2056298,46.5050954 80.2540055,47.0460235 80.2979834,47.5825538 C80.3991325,48.7347745 80.5046795,49.8913931 80.5926353,51.0436138 C80.6146242,51.3338679 80.7289667,51.4174259 81.0104252,51.4174259 C82.2857841,51.4042325 83.5655407,51.4130281 84.8408996,51.4130281 C87.2684792,51.4130281 89.6960588,51.4130281 92.1236384,51.4130281 C92.4930527,51.4130281 92.5150416,51.3822436 92.4578704,51.0304205 C92.4314836,50.894089 92.4094947,50.748962 92.383108,50.5994371 Z" id="Path" fill="#FFE941" fill-rule="nonzero"></path>
                                <path d="M51.3737242,45.7486757 C51.378122,45.7134934 51.3825198,45.6739133 51.3869176,45.638731 C51.4880667,44.7635709 51.4968623,44.9394825 50.8020116,44.9350847 C49.0648849,44.9262891 47.332156,44.9306869 45.5950293,44.9306869 C45.4586978,44.9306869 45.3663442,44.9262891 45.3047752,44.9043002 C45.2827862,45.0406316 45.2607973,45.1725653 45.2388083,45.3088968 C45.1728415,45.7003 45.1948304,45.7310845 45.5950293,45.7310845 C47.332156,45.7310845 49.0648849,45.7266867 50.8020116,45.7354823 C51.1230502,45.7398801 51.294564,45.7046978 51.3737242,45.7486757 Z" id="Path" fill="#FFE941" fill-rule="nonzero"></path>
                            </g>
                        </g>
                    </g>
                    <g id="3.-Icons-/-Coins-/-Floor-coin-Copy-2">
                        <g id="3.-Icons-/-Coins-/-Floor-coin">
                            <g id="Group-7" transform="translate(0.000000, 0.000000)">
                                <path d="M125.133444,40.3218039 C125.133444,18.1217643 97.2690517,0.126011118 62.9003295,0.126011118 C28.5272096,0.126011118 0.66721536,18.1217643 0.66721536,40.3218039 C0.66721536,40.3218039 0.66721536,40.3262017 0.66721536,40.3262017 L0.66721536,63.4893571 L0.737579986,63.4893571 C2.19324819,84.8538168 29.4639387,104.995691 62.9003295,104.995691 C96.3367204,104.995691 123.607411,84.8538168 125.063079,63.4893571 L125.133444,63.4893571 L125.133444,45.8190403 C125.133444,45.8190403 125.133444,42.1776709 125.133444,40.3218039 Z" id="Path" stroke="#903C14" stroke-width="7"></path>
                                <path d="M62.8959317,0.121613329 C28.5228118,0.121613329 0.66281757,18.1173665 0.66281757,40.3174061 C0.66281757,62.5174457 28.5272096,80.5131989 62.8959317,80.5131989 C97.2690517,80.5131989 125.129046,62.5174457 125.129046,40.3174061 C125.133444,18.1217643 97.2690517,0.121613329 62.8959317,0.121613329 Z M62.8959317,64.4744619 C37.4635171,64.4744619 16.8510794,53.501978 16.8510794,37.5467989 C16.8510794,21.5960177 37.4679149,8.66211985 62.8959317,8.66211985 C88.3283464,8.66211985 108.940785,21.5916199 108.940785,37.5467989 C108.945182,53.4975802 88.3283464,64.4744619 62.8959317,64.4744619 Z" id="Shape" fill="url(#linearGradient-1)" fill-rule="nonzero"></path>
                                <path d="M71.1110019,73.0193662 C72.2236425,74.3914764 72.9756645,77.3863708 73.4682168,79.0135528 C73.5209903,79.1850666 73.6133439,79.3917626 73.82004,79.4137516 C74.0179405,79.4357405 74.2070454,79.259829 74.3961504,79.3126024 C74.4753106,79.3345914 74.5456752,79.3917626 74.6292332,79.3917626 C74.7919514,79.3917626 74.8359293,79.1982599 74.8227359,79.0531329 C74.7479735,78.1603817 74.1410786,75.3853767 74.382957,74.5146145 C74.717189,75.4645369 75.4340286,78.279122 75.7682606,79.2290444 C75.7066915,79.0575307 71.6343388,80.7858618 71.1066041,79.4093538 C70.5832672,78.0328458 71.150582,74.4662388 71.1110019,73.0193662 Z" id="Path" fill="#FDDB39" fill-rule="nonzero" opacity="0.54"></path>
                                <path d="M62.8475561,7.35597647 C37.1160918,7.35597647 16.2573779,20.9407471 16.2573779,36.6012743 C16.2573779,52.2618014 37.1160918,64.9626165 62.8475561,64.9626165 C88.5790203,64.9626165 109.437734,52.2661992 109.437734,36.6012743 C109.437734,20.9407471 88.5790203,7.35597647 62.8475561,7.35597647 Z M63.1334124,64.2193901 C37.9120916,64.2193901 17.4667699,51.9011827 17.4667699,36.7024234 C17.4667699,21.5036641 37.9120916,9.18545675 63.1334124,9.18545675 C88.3547331,9.18545675 108.800055,21.5036641 108.800055,36.7024234 C108.800055,51.9011827 88.3547331,64.2193901 63.1334124,64.2193901 Z" id="Shape" fill="#FDDB39" fill-rule="nonzero" opacity="0.54"></path>
                                <path d="M122.894969,51.0128293 C122.894969,51.0128293 122.894969,51.0084315 122.890571,51.0084315 C121.993422,53.1193703 120.832406,55.1555467 119.438307,57.1125628 C119.363544,57.2181098 119.279986,57.3236567 119.205224,57.4292037 C118.941357,57.7898224 118.677489,58.1460433 118.400429,58.4978664 C118.255301,58.6825736 118.101379,58.8672807 117.951854,59.0475901 C117.731965,59.3158552 117.512075,59.5841203 117.28339,59.8523855 C117.089887,60.0766727 116.887589,60.2965622 116.689689,60.5208494 C116.491788,60.7407389 116.293888,60.9562306 116.091589,61.1717222 C115.858506,61.4179984 115.621026,61.6642746 115.379147,61.906153 C115.19444,62.0908602 115.014131,62.2755673 114.825026,62.4602744 C114.561159,62.719744 114.288496,62.9748158 114.015833,63.2298875 C102.779481,73.6746368 84.0844798,80.5219945 62.9003295,80.5219945 C41.7161792,80.5219945 23.0211776,73.6790345 11.7848263,63.2298875 C11.5121634,62.9748158 11.2395005,62.719744 10.9756331,62.4602744 C10.7865282,62.2755673 10.6062188,62.0908602 10.4215117,61.906153 C10.1796333,61.6642746 9.94215266,61.4179984 9.70906984,61.1717222 C9.50677154,60.9562306 9.30887103,60.7363411 9.11097052,60.5208494 C8.91307,60.30096 8.7107717,60.0766727 8.51726898,59.8523855 C8.28858395,59.5885181 8.06869449,59.3158552 7.84880503,59.0475901 C7.6992802,58.8628829 7.54535758,58.6825736 7.40023054,58.4978664 C7.12316982,58.1460433 6.85490468,57.7854246 6.59543513,57.4292037 C6.51627492,57.3236567 6.43711472,57.2181098 6.3623523,57.1125628 C4.96825314,55.1555467 3.8116346,53.1193703 2.91008782,51.0084315 C2.91008782,51.0084315 2.91008782,51.0128293 2.90569003,51.0128293 C1.45002183,47.6089405 0.66721536,44.0247424 0.66721536,40.3218039 L0.66721536,63.4893571 L0.737579986,63.4893571 C2.19324819,84.8538168 29.4639387,104.995691 62.9003295,104.995691 C96.3367204,104.995691 123.607411,84.8538168 125.063079,63.4893571 L125.133444,63.4893571 L125.133444,40.3218039 C125.133444,44.0247424 124.346239,47.6089405 122.894969,51.0128293 Z" id="Path" fill="#F28D2C" fill-rule="nonzero"></path>
                                <path d="M108.945182,37.5467989 C108.945182,53.4975802 88.3283464,64.4744619 62.9003295,64.4744619 C37.4679149,64.4744619 16.8554772,53.501978 16.8554772,37.5467989 C16.8554772,21.5916199 37.4723127,8.66211985 62.9003295,8.66211985 C88.3283464,8.66211985 108.945182,21.5960177 108.945182,37.5467989 Z" id="Path" fill="#F8AC32" fill-rule="nonzero"></path>
                                <path d="M62.8959317,17.4972782 C85.2982696,17.4972782 104.063636,26.0597737 108.940784,37.5599923 C108.940784,37.5555945 108.940784,37.5511967 108.940784,37.5467989 C108.940784,21.5960177 88.3239486,8.66211985 62.8959317,8.66211985 C37.4635171,8.66211985 16.8510794,21.5916199 16.8510794,37.5467989 C16.8510794,37.5511967 16.8510794,37.5555945 16.8510794,37.5599923 C21.7326254,26.0641715 40.4935938,17.4972782 62.8959317,17.4972782 Z" id="Path" fill="#D5761F" fill-rule="nonzero" opacity="0.9"></path>
                                <path d="M122.428803,70.3499082 C120.493776,75.0159624 118.259699,79.176271 114.402838,82.8220382 C111.27601,85.7773525 108.654928,88.4556061 104.894818,90.8040255 C102.98178,92.0002241 101.068742,93.3899255 98.909427,94.2079143 C97.7352173,94.652091 91.7718153,98.447383 90.6020033,97.7305434 C90.0346885,97.3787202 90.6239923,93.9968204 90.6151967,93.3899255 C90.5580255,89.1152744 90.7075503,84.8362256 91.068169,80.5703701 C91.1473292,79.6204477 91.3144452,78.5429893 92.2071964,77.9888679 C93.2142901,81.6082484 94.4368755,87.853109 95.4395714,91.4724894 C96.719328,85.6102365 97.2602561,75.4249568 97.6252726,75.2666364 C98.034267,75.0907249 99.745007,85.9576618 100.519018,88.2005343 C101.561294,85.579452 101.72841,78.1427905 102.009868,75.420559 C102.089029,74.6773327 102.159393,73.8901284 102.665139,73.2920291 C103.056542,72.834659 103.650244,72.5488027 104.221956,72.2673442 C108.602154,70.1212231 113.435325,66.6293785 116.913976,63.4629704 C119.926461,60.7231477 125.027897,50.9908404 124.579322,49.5879446 C124.58372,49.5835478 125.107057,63.8983515 122.428803,70.3499082 Z" id="Path" fill="#D2571C" fill-rule="nonzero"></path>
                                <path d="M5.58834141,74.6949238 C6.94286047,76.6299511 8.97463905,80.3768674 10.6809812,82.0876074 C14.8236986,86.2435181 18.654173,90.2367107 24.3097298,92.6774836 C26.8956298,94.089174 37.3491746,100.68146 24.2701497,88.477595 C15.3470355,80.1481824 14.0936656,77.3379951 8.74155623,67.3857983 C7.17594329,64.4744619 3.07720381,54.6937788 1.51159088,51.7824424 C1.04102744,53.4096244 1.81064054,54.8916793 1.87660737,56.5012702 C1.96016537,58.5858222 1.58635329,60.6659765 1.74907149,62.7681197 C2.06131452,66.7701078 3.17395517,71.2514549 5.58834141,74.6949238 Z" id="Path" fill="#D2571C" fill-rule="nonzero"></path>
                                <path d="M62.8959317,11.7405722 C74.6248354,11.7405722 85.6061149,14.5771462 93.821185,19.7313551 C101.587681,24.6041055 105.866729,30.9281263 105.866729,37.5467989 C105.866729,44.0335379 101.618465,50.080498 93.9091408,54.5794363 C85.8304021,59.2938663 74.8183381,61.8885619 62.9003295,61.8885619 C50.982321,61.8885619 39.9702569,59.2938663 31.8915183,54.5794363 C24.1777961,50.080498 19.9339296,44.0335379 19.9339296,37.5467989 C19.9339296,30.9281263 24.2129784,24.6041055 31.9794741,19.7313551 C40.1857486,14.5771462 51.1670281,11.7405722 62.8959317,11.7405722 M62.8959317,8.66211985 C37.4635171,8.66211985 16.8510794,21.5916199 16.8510794,37.5467989 C16.8510794,53.4975802 37.4679149,64.9626165 62.8959317,64.9626165 C88.3283464,64.9626165 108.940785,53.4975802 108.940785,37.5467989 C108.945182,21.5960177 88.3283464,8.66211985 62.8959317,8.66211985 L62.8959317,8.66211985 Z" id="Shape" fill="#903C14" fill-rule="nonzero"></path>
                                <path d="M62.2450589,1.65204395 C96.6973391,1.65204395 124.627698,20.6856754 124.627698,44.1698694 C124.627698,44.6668196 124.610107,45.1637697 124.58372,45.6563221 C124.944339,43.9103998 125.129046,42.1292952 125.129046,40.3174061 C125.129046,18.1173665 97.2646539,0.121613329 62.8959317,0.121613329 C30.8096622,0.121613329 4.39654055,15.8085272 1.02783407,35.9547993 C6.64381081,16.4022287 31.9135072,1.65204395 62.2450589,1.65204395 Z" id="Path" fill="#FDDB39" fill-rule="nonzero" opacity="0.54"></path>
                                <path d="M62.8959317,78.2263485 C33.9364902,78.2263485 9.54195385,66.7745056 2.19324819,49.2097358 C8.46009772,67.1307265 33.2548329,80.5175967 62.8959317,80.5175967 C92.5370306,80.5175967 117.336164,67.1307265 123.598615,49.2097358 C116.24991,66.7701078 91.859771,78.2263485 62.8959317,78.2263485 Z" id="Path" fill="#FFE941" fill-rule="nonzero" opacity="0.78"></path>
                                <path d="M52.4423869,80.1701713 C53.1240443,79.884315 53.9244419,79.8975084 54.6500771,79.8887128 C55.8242868,79.8755194 57.0028943,79.822746 58.1727062,79.7259946 C58.3398222,79.5280941 58.0803526,79.2554312 57.8472698,79.1498842 C57.1876014,78.8508346 56.4575684,78.7452876 55.736331,78.6397407 C54.8083975,78.507807 53.880464,78.3714756 52.9481327,78.2395419 C52.3852157,78.1559839 51.7959119,78.0680281 51.3253485,77.7469895 C50.2610835,77.0213543 49.9400449,75.6624375 48.792222,75.0159624 C47.6356034,74.3606919 46.2810844,74.149598 44.9705432,74.0968245 C42.0767979,73.982482 39.1786549,74.6069681 36.298103,74.0792334 C31.5484907,73.2128689 26.7285138,71.2690461 22.2603601,69.4747481 C22.1196308,69.9585049 22.5813987,70.3894883 22.9947908,70.6797424 C27.0847347,73.5734876 31.2494411,76.4276528 35.8319374,78.4506358 C40.4144336,80.4736188 45.4850845,81.6478285 50.458984,81.0233424 C51.294564,80.9177955 51.6947628,80.4824144 52.4247958,80.1745691 C52.4335914,80.1745691 52.4379892,80.1745691 52.4423869,80.1701713 Z" id="Path" fill="#FFF6CF" fill-rule="nonzero"></path>
                                <path d="M83.9217616,102.647272 C83.9217616,103.504841 83.3324579,78.3011109 83.3456513,78.3011109 C83.3456513,78.3011109 79.0050334,74.0220621 77.4350227,71.6648471 C78.7279727,75.4645369 79.7878398,79.5061052 79.6690995,83.4685132 C79.4843924,89.5946335 79.8582045,97.3787202 79.6734973,103.509238 C81.181939,103.460863 82.5408558,103.196995 83.9217616,102.647272 Z" id="Path" fill="#903C14" fill-rule="nonzero"></path>
                                <path d="M77.531774,71.5768913 C78.0463153,72.7423055 78.9522599,73.7362058 79.8582045,74.6993216 C80.8872871,75.7987689 81.9295632,76.8894206 82.9850326,77.9712768 C83.5611429,78.5649783 84.5418499,78.0020613 83.8426014,77.3555863 C83.1785353,76.7442936 82.4485023,76.172581 81.7712427,75.5656861 C80.3287679,74.2639405 78.9126798,72.9358082 77.531774,71.5768913 Z" id="Path" fill="#FFEC9D" fill-rule="nonzero" opacity="0.78"></path>
                                <path d="M37.445926,65.5167379 C38.3782573,64.4788597 39.9350746,62.4558767 40.73987,61.3476338 C39.9834503,60.7275455 38.6992959,60.7759212 38.6992959,60.7759212 C38.6992959,60.7759212 37.591053,65.3540197 37.445926,65.5167379 Z" id="Path" fill="#903C14" fill-rule="nonzero"></path>
                                <path d="M17.0973556,40.5328978 L2.06131452,48.8227303 C5.70268393,59.7424408 16.2090022,69.0129803 30.5238059,74.6553437 L45.9160679,62.719744 C30.3083142,59.3290486 18.8916536,51.2459121 17.0973556,40.5328978 Z" id="Path" fill="url(#linearGradient-2)" fill-rule="nonzero" opacity="0.15"></path>
                                <path d="M100.206775,20.6197085 L109.318994,13.5524614 C102.836653,8.86441815 94.6743561,5.16587748 85.4477945,2.84384481 L73.4990014,9.43173295 C84.414314,11.0457216 93.8299806,15.0960854 100.206775,20.6197085 Z" id="Path" fill="url(#linearGradient-3)" fill-rule="nonzero" opacity="0.15"></path>
                                <path d="M77.0480172,16.5693447 C78.1254755,16.8200187 79.1457626,17.2817866 80.0736961,18.1129687 C80.4123259,18.4164162 80.7289667,18.7550459 81.098381,19.0233111 C82.8487011,20.2942721 82.6991763,22.3436419 82.8662922,24.3138514 C82.892679,24.6260944 83.2928778,30.0177839 83.3324579,30.5059385 C83.4863805,32.4497613 83.6315076,34.3935841 83.7854302,36.3374069 C83.9481484,38.421959 84.1196622,40.506511 84.2823803,42.5910631 C84.3791317,43.844433 84.4714853,45.0978029 84.5594411,46.3511728 C84.603419,46.9580677 84.6122145,46.9800567 85.166336,46.9800567 C88.6669761,46.9800567 92.1720141,46.9800567 95.6726542,46.9800567 C96.1827978,46.9800567 96.1871956,46.9800567 96.2707536,47.5121891 C96.5478143,49.3108849 96.8204772,51.1095807 97.0931401,52.9082764 C97.1503114,53.2996797 97.1283224,53.3304642 96.7545104,53.3304642 C94.2917484,53.3304642 91.8245887,53.3304642 89.3618268,53.3304642 C88.064479,53.3304642 86.7671312,53.3216686 85.4697834,53.3350041 C85.1839271,53.3392598 85.0695846,53.2425084 85.0475957,52.9214698 C84.9596399,51.6461109 84.8496951,50.3707521 84.748546,49.0909954 C84.7001703,48.4928961 84.6517946,47.8947968 84.6122145,47.2966975 C84.5946234,47.015239 84.414314,47.0328301 84.2384025,47.0328301 C83.1257618,47.0328301 82.0131212,47.0328301 80.8960827,47.0328301 C80.1616519,47.0328301 79.4272211,47.0416257 78.6927903,47.0284323 C78.3937407,47.0196368 78.2881937,47.0812058 78.3057849,47.4594157 C78.3805473,48.9502662 78.4113318,50.4411167 78.4597075,51.936365 C78.4729009,52.2881882 78.4948898,52.6400113 78.5168788,52.9918344 C78.5300721,53.229315 78.4377186,53.3436575 78.2134313,53.3304642 C78.1254755,53.3260664 78.0419176,53.3304642 77.9539618,53.3304642 C70.420549,53.3304642 62.8827384,53.3304642 55.3493256,53.3304642 C55.2525742,53.3304642 55.1558229,53.3260664 55.0590715,53.3304642 C54.8699666,53.3350041 54.7864086,53.2600996 54.8127953,53.0358123 C55.0106958,51.2986856 55.2085963,49.5571611 55.3933035,47.8200344 C55.4988504,46.8525208 55.507646,47.0504213 54.7996019,47.0460235 C53.0360885,47.0372279 51.2769728,47.0416257 49.5134594,47.0416257 C49.1088628,47.0416257 49.082476,47.0108412 49.1484429,46.5754601 C50.3446415,38.8045666 51.545238,31.0292754 52.7414366,23.258382 C52.8645747,22.444791 53.005304,21.6355978 53.1064531,20.8220068 C53.1548288,20.443797 53.3131492,20.3514434 53.6429834,20.3514434 C55.089856,20.3690345 56.5411264,20.360239 57.9879991,20.3558412 C58.4189824,20.3558412 58.427778,20.33825 58.4805514,19.8632888 C58.6080873,18.7066703 58.7356232,17.5544495 58.8631591,16.3978309 C62.7332135,16.3978309 66.6076658,16.3978309 70.4777202,16.3978309 C72.6810126,16.3934332 74.9678629,16.0855879 77.0480172,16.5693447 Z" id="Path" fill="#D5761F" fill-rule="nonzero"></path>
                                <path d="M93.2230857,49.0953932 C93.0119918,47.8376255 92.3435278,47.2747085 91.0593734,47.2747085 L85.8831756,47.2747085 L84.9684355,47.2747085 L81.6349113,47.2747085 C81.5689444,46.4259352 81.4985798,45.5859575 81.432613,44.7723665 C81.349055,43.7828639 81.2610992,42.7933614 81.1731434,41.8038588 C81.0939832,40.9067098 81.014823,40.0139587 80.9400606,39.1168097 C80.8652982,38.2592408 80.7949336,37.4016719 80.7245689,36.5397052 C80.6498065,35.6425562 80.5750441,34.7410095 80.4958839,33.8438605 C80.4650994,33.5052307 80.4123259,32.8719491 79.8626023,32.3925901 C79.3480609,31.9396178 78.7807461,31.9396178 78.4069341,31.9396178 L71.6519299,31.9396178 L64.8969258,31.9396178 C64.8617435,31.9396178 64.8221634,31.9396178 64.7869811,31.9396178 L64.7386054,31.9396178 C64.7122187,31.9396178 64.6814341,31.9396178 64.6506496,31.9396178 C63.6039758,31.9396178 62.8211693,32.7136287 62.7903848,33.7778936 C62.7727936,34.3627996 62.7508047,34.9521033 62.7332135,35.5370093 C62.7112246,36.2054733 62.6892357,36.8739372 62.6672467,37.5424012 C62.6584511,37.8634398 62.6364622,38.5275059 63.1685947,39.0728318 C63.7007272,39.6181576 64.3691911,39.6181576 64.6902297,39.6225554 L65.4642406,39.6225554 C65.8600416,39.6225554 66.2558426,39.6225554 66.6516437,39.6225554 C66.8143619,39.6225554 66.9726823,39.6225554 67.1354005,39.6225554 C67.1310027,42.1468864 67.1354005,44.7063997 67.1397983,47.2659129 C67.0958204,47.2659129 67.0518425,47.2659129 67.0078646,47.2659129 C66.7264061,47.2659129 66.4449476,47.2659129 66.1590913,47.2659129 C65.8776328,47.2659129 65.6005721,47.2659129 65.3191136,47.2659129 L63.432462,47.2659129 L61.5458105,47.2659129 C60.4815455,47.2659129 59.4172805,47.2659129 58.3530156,47.2659129 C58.405789,46.659018 58.4585625,46.0565209 58.5069382,45.4628194 L58.572905,44.6756151 C58.6300763,44.0027534 58.6828497,43.3254939 58.740021,42.6526321 C58.7971923,41.9401903 58.8543635,41.2277485 58.9159326,40.5153066 C58.9818994,39.7237046 59.052264,38.9321025 59.1182309,38.1361027 C59.1710043,37.5204122 59.2237778,36.9047217 59.2765513,36.293429 C59.324927,35.7481032 59.3689048,35.2071751 59.4128827,34.6618493 C59.4612584,34.0945345 59.5052363,33.5272197 59.5580098,32.9599049 C59.6723523,31.622977 59.7866948,30.2860491 59.9054351,28.9491212 L59.9186285,28.8039941 C59.949413,28.4609666 59.9801975,28.1223368 60.0109821,27.7793093 C60.0505622,27.3439281 60.0901423,26.9041492 60.1253246,26.4599725 C61.2995343,26.4599725 62.473744,26.4643703 63.6523515,26.4643703 C64.7913789,26.4643703 65.934804,26.4643703 67.0738314,26.4599725 C67.0738314,26.574315 67.0738314,26.6842598 67.0738314,26.7986023 C67.0738314,27.2999502 67.0738314,27.8188894 67.0694336,28.3246351 C67.0606381,29.0634637 67.3640855,29.5252315 67.6191573,29.7847011 C67.8742291,30.0441707 68.3359969,30.3520159 69.0748255,30.3520159 C70.5788694,30.3476181 72.0741177,30.3476181 73.569366,30.3476181 C75.0734099,30.3476181 76.5774538,30.3476181 78.0814977,30.3520159 C78.8511108,30.3520159 79.3128786,30.0221817 79.5679504,29.7407232 C79.8186244,29.4636625 80.1088785,28.9755079 80.0385138,28.2322815 C79.9461603,27.2515746 79.8538067,26.1961052 79.7746465,25.1450336 C79.6866907,24.010404 78.8599063,23.2451886 77.7164812,23.2451886 L77.6856966,23.2451886 C77.0260283,23.2539842 76.3619621,23.2539842 75.7990451,23.2539842 L75.1921502,23.2539842 L74.5852553,23.2539842 C74.550073,23.2539842 74.5148907,23.2539842 74.4797083,23.2539842 C74.4533216,22.695465 74.4313327,22.1545369 74.4269349,21.6136089 C74.4269349,21.3981172 74.4225371,20.9935206 74.215841,20.5537417 L73.7892555,19.6258082 L72.7645706,19.6258082 L54.8127953,19.6258082 L53.3967072,19.6258082 L53.2251934,21.0331007 L53.1152487,21.9346475 C53.0624752,22.361233 53.0140995,22.7834208 52.9613261,23.2100063 C52.5391383,23.2100063 52.1169506,23.2100063 51.690365,23.2100063 C50.9075585,23.2100063 50.2698791,23.2056085 49.6849732,23.2012108 L49.6497908,23.2012108 C48.5063657,23.2012108 47.705968,23.8960614 47.5520454,25.0087021 C47.4816808,25.532039 47.393725,26.0509781 47.2969737,26.6007018 C47.2661891,26.7898067 47.2310068,26.9745138 47.2002223,27.1636188 L45.5290624,37.1202134 L43.660002,48.2466199 C43.6072286,48.5544652 43.4884883,49.2713048 44.0206207,49.9001886 C44.5527532,50.5290725 45.2827862,50.5290725 45.5950293,50.5290725 L46.0084214,50.5290725 L47.3145648,50.5290725 L48.6163104,50.5290725 C48.9681335,50.5290725 49.3155589,50.5290725 49.667382,50.5290725 C49.5354483,51.6417131 49.3859235,52.8379118 49.2232053,54.1528507 C49.1308517,54.9004749 49.4518903,55.3930273 49.6497908,55.6173145 C49.8476914,55.8416018 50.2918681,56.2198116 51.0350944,56.2198116 C51.0570834,56.2198116 51.0790723,56.2198116 51.1010613,56.2198116 L51.1362436,56.2198116 L51.2198016,56.2198116 C51.2593817,56.2198116 51.3033596,56.2198116 51.3429397,56.2198116 L63.3313129,56.2198116 L68.4679306,56.2198116 L73.6045483,56.2198116 C73.6441284,56.2198116 73.6837085,56.2198116 73.7232886,56.2198116 L73.7716643,56.2198116 C73.8156422,56.2242094 73.8596201,56.2242094 73.8992002,56.2242094 C74.4313327,56.2242094 74.9194873,56.0219111 75.2669126,55.6524968 C75.6187357,55.2786848 75.7946473,54.7685412 75.759465,54.2188176 L75.7462716,53.9857348 C75.7286805,53.7482541 75.7154871,53.5239669 75.7066915,53.3084752 C75.6934982,52.8950831 75.6803048,52.4772931 75.6671114,52.0639009 C75.6495203,51.5625529 75.6363269,51.0524094 75.6143379,50.5378681 C75.7066915,50.5378681 75.7990451,50.5378681 75.8913987,50.5378681 C76.0980948,50.5378681 76.3003931,50.5378681 76.5070891,50.5378681 L77.2854978,50.5378681 L78.6751992,50.5378681 C78.6839948,50.6214261 78.6883926,50.7005863 78.6971881,50.7797465 L78.7103815,50.9336691 C78.741166,51.2854922 78.7719506,51.6329176 78.8027351,51.9847407 C78.8730997,52.771945 78.9434643,53.5855359 79.0050334,54.3815358 C79.0885914,55.4897786 79.8933868,56.233005 81.0060274,56.233005 L81.014823,56.233005 L81.0324142,56.233005 C81.6217179,56.2286072 82.2154195,56.2286072 82.809121,56.2286072 C83.1477507,56.2286072 83.4863805,56.2286072 83.8294081,56.2286072 C84.1724356,56.2286072 84.5110654,56.2286072 84.8540929,56.2286072 L85.0651868,56.2286072 L86.5384462,56.2286072 L87.7698271,56.2286072 C88.8560811,56.2286072 89.9159482,56.2286072 91.2484784,56.2286072 C91.5519258,56.2286072 92.2687654,56.2286072 92.7965001,55.6041212 C93.3242348,54.9796351 93.2054945,54.2583977 93.1615166,53.9857348 C93.0647653,53.3920332 93.1351299,52.7059781 93.2142901,51.9847407 C93.2890525,51.1095807 93.3989972,50.1288737 93.2230857,49.0953932 Z" id="Path" fill="#D2571C" fill-rule="nonzero"></path>
                                <path d="M80.9972319,52.3057793 C80.2628011,52.3057793 79.7702487,51.852807 79.7130774,51.1183762 C79.6515084,50.309183 79.5811438,49.5043876 79.5107791,48.6995922 L79.4052322,47.5121891 C79.3788455,47.2131395 79.3524587,46.909692 79.3304698,46.6106424 L76.5070891,46.6106424 L75.258117,46.6150402 C75.1261834,46.6150402 74.9942497,46.6150402 74.862316,46.6150402 C74.8974983,47.3802555 74.9194873,48.1322774 74.945874,48.8667082 C74.9590674,49.288896 74.9722607,49.7110837 74.9898519,50.1332715 C74.9986475,50.3707521 75.0162386,50.6126305 75.029432,50.8501111 L75.0426254,51.0656028 C75.0690121,51.5141773 74.8974983,51.8000336 74.7435757,51.9627518 C74.5324818,52.187039 74.2334322,52.3101771 73.903598,52.3101771 C73.8860068,52.3101771 73.8288356,52.3101771 73.8112444,52.3057793 L73.6133439,52.3057793 C73.6133439,52.3057793 51.0878679,52.3057793 51.0878679,52.3057793 C50.6085089,52.3057793 50.3446415,52.1122766 50.1995145,51.9495584 C50.0543874,51.7868402 49.8916692,51.4965861 49.9488405,51.0480116 C50.1335476,49.5703545 50.313857,48.0970951 50.4897686,46.6150402 C49.8388958,46.6106424 49.2056141,46.6106424 48.5767303,46.6106424 L45.6082226,46.6106424 C45.3443553,46.6106424 44.9001786,46.6106424 44.5835377,46.2368303 C44.2668969,45.8630182 44.3416593,45.4276371 44.3812394,45.1681675 L47.9214597,24.0851664 L48.0182111,23.5222494 C48.1105646,22.9901169 48.2029182,22.444791 48.2732828,21.9082607 C48.3216585,21.5520398 48.5503436,20.7208577 49.6585864,20.7208577 C50.3490393,20.7296533 51.0131055,20.7296533 51.6771716,20.7296533 L53.6034033,20.7252555 C53.6737679,20.1183606 53.942033,17.919466 53.942033,17.919466 C53.9948065,17.4796871 54.3686186,17.1454551 54.8171931,17.1454551 L72.7689684,17.1454551 C73.1119959,17.1454551 73.424239,17.3433556 73.569366,17.6555986 C73.7100952,17.9546483 73.7100952,18.2361068 73.714493,18.420814 C73.7188908,19.1024713 73.7540731,19.8017197 73.7892555,20.4789793 L73.8024488,20.7736311 C74.0883051,20.7736311 75.7946473,20.7736311 75.7946473,20.7736311 C76.4279289,20.7736311 77.0656084,20.7736311 77.69889,20.7648356 L77.69889,20.7648356 C78.5036854,20.7648356 79.0094312,21.2266034 79.0666024,22.0006143 C79.1457626,23.0340948 79.2381162,24.0675752 79.3348676,25.1010557 C79.3788455,25.5848125 79.2029339,25.8882599 79.0490113,26.0597737 C78.8203262,26.3104477 78.5036854,26.4335858 78.0990888,26.4335858 C76.5950449,26.429188 75.091001,26.429188 73.5913549,26.429188 C72.0917088,26.429188 70.5920627,26.429188 69.0924166,26.4335858 C68.6922178,26.4335858 68.375577,26.3148455 68.1424942,26.0817626 C67.9094114,25.8486798 67.7950688,25.5276412 67.7994666,25.136238 C67.8038644,24.6216966 67.8038644,24.1115531 67.8038644,23.6014096 C67.8038644,23.2495864 67.8038644,22.8977633 67.8038644,22.5459402 C66.3965719,22.550338 64.998075,22.550338 63.599578,22.550338 C62.22307,22.550338 60.846562,22.550338 59.4744518,22.5459402 C59.4216783,23.1880174 59.3645071,23.8344924 59.3073358,24.4765696 L59.2105844,25.5496302 C59.0874463,26.9349337 58.968706,28.3202373 58.8499657,29.7099387 L58.5685072,33.0434629 C58.5685072,33.0434629 58.2738554,36.4737384 58.2034907,37.2653404 C58.1463195,37.9601911 57.7944963,42.1952621 57.7944963,42.1952621 C57.7241317,43.0484332 57.6537671,43.9191954 57.5702091,44.7899577 C58.885148,44.7899577 65.3279091,44.7899577 65.3279091,44.7899577 L67.021058,44.7855599 C67.3025165,44.7855599 67.583975,44.7855599 67.8654335,44.7899577 C67.8566379,41.7554832 67.8566379,38.7298042 67.8610357,35.7041253 C67.4564391,35.7085231 67.0562403,35.7085231 66.6560415,35.7085231 L64.6946275,35.7041253 C64.4043734,35.7041253 64.0085724,35.7041253 63.6875338,35.3742911 C63.3664952,35.0444569 63.3796885,34.6354625 63.3884841,34.3627996 C63.4060753,33.6987334 63.432462,33.0302695 63.454451,32.3618055 C63.4720421,31.7725018 63.4940311,31.1875958 63.5116222,30.5982921 C63.5336112,29.9254304 63.9997768,29.4548669 64.6550474,29.4548669 C64.6682408,29.4548669 78.4113318,29.4548669 78.4113318,29.4548669 C79.3216742,29.4548669 79.7042819,29.8022923 79.7834421,30.6994412 C79.8626023,31.6053858 80.1528563,35.1192193 80.2276188,35.9723904 C80.3023812,36.8695394 80.3815414,37.7622906 80.4607016,38.6550418 C80.5486574,39.6445444 80.6322154,40.6340469 80.7201711,41.6235495 C80.8081269,42.6790189 80.8960827,43.7300905 80.9752429,44.7855599 L91.0637712,44.7855599 C92.0005003,44.7855599 92.3699146,45.0934051 92.5194394,46.0037475 C92.7921023,47.6309294 93.0603675,49.2581114 93.3286326,50.8852934 C93.3682127,51.1183762 93.4385773,51.5493596 93.1263343,51.9187739 C92.8140913,52.2881882 92.3655168,52.2881882 92.1280362,52.2881882 L82.7915298,52.2881882 C82.2022261,52.2881882 81.6085245,52.2881882 81.0192208,52.2925859 C81.014823,52.3057793 81.0016296,52.3057793 80.9972319,52.3057793 Z" id="Path" fill="url(#linearGradient-4)" fill-rule="nonzero"></path>
                                <path d="M72.7601728,18.0294107 C72.8217418,18.1569466 72.8217418,18.2976759 72.8217418,18.4384051 C72.8305374,19.3971231 72.8921065,20.3514434 72.9316866,21.3057636 C72.9448799,21.6092111 73.0812114,21.6663823 73.340681,21.6663823 C73.3450787,21.6663823 73.3494765,21.6663823 73.3494765,21.6663823 C73.7584709,21.6619846 74.1674653,21.6619846 74.5808575,21.6619846 C74.9854541,21.6619846 75.3900507,21.6619846 75.7902495,21.6619846 C76.4235311,21.6619846 77.0568128,21.6619846 77.6944922,21.653189 C77.69889,21.653189 77.7032878,21.653189 77.7120834,21.653189 C78.0287242,21.653189 78.1518623,21.7631337 78.178249,22.0753767 C78.2574092,23.113255 78.3497628,24.1511332 78.4465142,25.1890114 C78.4729009,25.47047 78.3585584,25.5628235 78.0858954,25.5628235 C78.0858954,25.5628235 78.0858954,25.5628235 78.0814977,25.5628235 C76.5774538,25.5584257 75.0734099,25.5584257 73.569366,25.5584257 C72.0697199,25.5584257 70.5744716,25.5584257 69.0748255,25.5628235 C69.0748255,25.5628235 69.0748255,25.5628235 69.0704277,25.5628235 C68.7669802,25.5628235 68.6614333,25.4572766 68.6658311,25.1538291 C68.6790245,24.1203487 68.6614333,23.091266 68.6746267,22.0577856 C68.6790245,21.7719293 68.5866709,21.6707801 68.292019,21.6707801 C68.292019,21.6707801 68.2876212,21.6707801 68.2876212,21.6707801 C66.7395995,21.6751779 65.1915777,21.6751779 63.6479537,21.6751779 C62.1087275,21.6751779 60.5651035,21.6751779 59.0258773,21.6707801 C59.0258773,21.6707801 59.0258773,21.6707801 59.0214795,21.6707801 C58.7664077,21.6707801 58.6388719,21.7323492 58.6168829,22.0138077 C58.5289271,23.1704262 58.4189824,24.322647 58.3178332,25.4748677 C58.1990929,26.8601713 58.0759548,28.2498727 57.9572145,29.6351763 C57.8604632,30.7478169 57.7725074,31.8604576 57.675756,32.9687004 C57.5570157,34.375993 57.4294798,35.7832855 57.3107395,37.190578 C57.1919992,38.5758816 57.0820545,39.965583 56.967712,41.3508866 C56.8577672,42.6658255 56.7566181,43.9763667 56.6202866,45.2869078 C56.5895021,45.6035487 56.6862535,45.6695155 56.967712,45.6695155 C56.967712,45.6695155 56.9721098,45.6695155 56.9721098,45.6695155 C58.4937448,45.6651177 60.0109821,45.6651177 61.5326171,45.6651177 C62.7903848,45.6651177 64.0525503,45.6651177 65.310318,45.6651177 C65.873235,45.6651177 66.436152,45.6607199 66.999069,45.6607199 C67.4476435,45.6607199 67.896218,45.6607199 68.3447925,45.6695155 C68.3491903,45.6695155 68.3535881,45.6695155 68.3623836,45.6695155 C68.6438422,45.6695155 68.7317979,45.5639686 68.7317979,45.28251 C68.7230024,41.9313947 68.7186046,38.5802794 68.7274001,35.2291641 C68.7274001,34.9301144 68.6350466,34.8201697 68.3359969,34.8201697 C68.3315991,34.8201697 68.3272013,34.8201697 68.3228035,34.8201697 C67.7642843,34.8245675 67.2013673,34.8289653 66.6428481,34.8289653 C65.9875775,34.8289653 65.3367047,34.8245675 64.6814341,34.8245675 C64.268042,34.8245675 64.2416552,34.8069763 64.2548486,34.3935841 C64.2900309,33.1402142 64.3384066,31.8868443 64.3779867,30.6334744 C64.3823845,30.4443695 64.4571469,30.3432203 64.641854,30.3432203 C64.6506496,30.3432203 64.6594452,30.3432203 64.6682408,30.3432203 C64.6902297,30.3432203 64.7122187,30.3432203 64.7342076,30.3432203 C64.7869811,30.3432203 64.8397545,30.3432203 64.892528,30.3432203 C67.1090137,30.3432203 69.3254995,30.3432203 71.546383,30.3432203 C73.8332333,30.3432203 76.1200837,30.3432203 78.4025363,30.3432203 C78.8511108,30.3432203 78.8599063,30.3432203 78.8994864,30.7829992 C79.0490113,32.5421149 79.1941383,34.2968328 79.3436631,36.0559484 C79.5063813,37.9382022 79.6734973,39.8248537 79.8362155,41.7071075 C79.9329669,42.8417371 80.0253205,43.9719689 80.1088785,45.1065985 C80.1484586,45.6563221 80.1616519,45.6739133 80.7069778,45.6739133 C84.1548445,45.6739133 87.6071089,45.6739133 91.0549756,45.6739133 C91.5607214,45.6739133 91.5607214,45.6739133 91.6442794,46.1576701 C91.9169423,47.7848521 92.1852074,49.4120341 92.4534726,51.0348182 C92.5106438,51.3866414 92.4886549,51.4174259 92.1192406,51.4174259 C90.7603238,51.4174259 89.4014069,51.4174259 88.0424901,51.4174259 C86.9738273,51.4174259 85.9051645,51.4174259 84.8365018,51.4174259 C84.1548445,51.4174259 83.4731871,51.4174259 82.7915298,51.4174259 C82.1978283,51.4174259 81.599729,51.4174259 81.0060274,51.4262215 C81.0016296,51.4262215 80.9972319,51.4262215 80.9928341,51.4262215 C80.7201711,51.4262215 80.6102264,51.3382657 80.5882375,51.0524094 C80.5002817,49.8957909 80.3947347,48.7435701 80.2935856,47.5913493 C80.2452099,47.0504213 80.201232,46.5094932 80.1616519,45.9729629 C80.1440608,45.7442779 80.0033315,45.7354823 79.8494089,45.7354823 C79.8318177,45.7354823 79.8142266,45.7354823 79.7966354,45.7354823 C79.7966354,45.7354823 79.7966354,45.7354823 79.7966354,45.7354823 C78.7015859,45.7354823 77.6021386,45.7354823 76.5070891,45.7354823 C76.0892992,45.7354823 75.675907,45.7398801 75.258117,45.7398801 C74.9502718,45.7398801 74.6424265,45.7398801 74.3345813,45.7310845 C74.3213879,45.7310845 74.3081946,45.7310845 74.2950012,45.7310845 C74.0311339,45.7310845 73.9343825,45.7970514 73.9519737,46.1224878 C74.0267361,47.4682112 74.0531228,48.8183325 74.1014985,50.1684538 C74.1146918,50.4850946 74.1366808,50.8061332 74.1586697,51.122774 C74.1718631,51.3250723 74.0927029,51.4306193 73.8992002,51.4306193 C73.8860068,51.4306193 73.8728134,51.4306193 73.8596201,51.4306193 C73.8288356,51.4306193 73.8024488,51.4262215 73.7716643,51.4262215 C73.714493,51.4262215 73.6573218,51.4306193 73.6045483,51.4306193 C69.8928143,51.4306193 66.185478,51.4306193 62.473744,51.4306193 C58.7620099,51.4306193 55.0546737,51.4306193 51.3429397,51.4306193 C51.272575,51.4306193 51.2066082,51.4306193 51.1362436,51.4306193 C51.1098568,51.4306193 51.0834701,51.4306193 51.0570834,51.4306193 C51.0526856,51.4306193 51.04389,51.4306193 51.0394922,51.4306193 C50.8679784,51.4306193 50.7888182,51.3602546 50.815205,51.1623541 C51.0131055,49.5923434 51.2022104,48.0179349 51.3869176,46.4479242 C51.46168,45.8190403 51.4880667,45.7354823 51.2373927,45.7354823 C51.1450392,45.7354823 51.0087077,45.7486757 50.8283983,45.7486757 C50.8196028,45.7486757 50.8108072,45.7486757 50.8064094,45.7486757 C50.0807742,45.7442779 49.355139,45.7442779 48.625106,45.7442779 C47.7543437,45.7442779 46.8835815,45.7442779 46.0128192,45.7442779 C45.8764878,45.7442779 45.7357585,45.7442779 45.599427,45.7442779 C45.1992282,45.7442779 45.1772393,45.7134934 45.2432061,45.3220901 C46.4218136,38.2944231 47.6048189,31.266756 48.7834264,24.239089 C48.9065645,23.5046582 49.0428959,22.7702274 49.1396473,22.0357966 C49.1836252,21.6971669 49.3375478,21.6136089 49.6497908,21.6136089 C49.6541886,21.6136089 49.6629842,21.6136089 49.667382,21.6136089 C50.3402437,21.6224045 51.0131055,21.6224045 51.690365,21.6224045 C52.4423869,21.6224045 53.1944089,21.6180067 53.9508286,21.6180067 C54.3730164,21.6180067 54.381812,21.6004155 54.4345854,21.17383 C54.5577235,20.1271561 54.6852594,19.0848801 54.8127953,18.0382063 C60.7937885,18.0294107 66.7747818,18.0294107 72.7601728,18.0294107 M72.7601728,16.2702951 L54.8083975,16.2702951 C53.9200441,16.2702951 53.1680222,16.9343612 53.0624752,17.8183168 L52.9525305,18.7418526 C52.9085526,19.1112669 52.8601769,19.4806811 52.816199,19.8544932 C52.4423869,19.8544932 52.0641771,19.8544932 51.690365,19.8544932 C51.0219011,19.8544932 50.3534371,19.8544932 49.6893709,19.8456976 C49.6849732,19.8456976 49.6585864,19.8456976 49.6541886,19.8456976 C48.4447966,19.8456976 47.560841,20.6109129 47.3981228,21.7939182 C47.3277582,22.3172551 47.2398024,22.8361943 47.143051,23.3859179 C47.1122665,23.570625 47.0770842,23.7553322 47.0462997,23.9444371 L45.5334602,32.9643027 L43.5104772,45.0274383 C43.4533059,45.3572725 43.3257701,46.1268856 43.9062782,46.8129407 C44.4867864,47.4989958 45.2695929,47.4989958 45.599427,47.4989958 L46.0128192,47.4989958 L47.3189626,47.4989958 L48.625106,47.4989958 C48.9153601,47.4989958 49.2012163,47.4989958 49.4914704,47.4989958 C49.3639345,48.5632607 49.2232053,49.6978903 49.0692827,50.9468625 C48.9681335,51.7604535 49.3155589,52.2925859 49.5354483,52.5388621 C49.75094,52.7851383 50.2346968,53.1941327 51.0394922,53.1941327 C51.0570834,53.1941327 51.0878679,53.1941327 51.105459,53.1941327 L51.1406414,53.1941327 L51.2198016,53.1941327 L51.3429397,53.1941327 L62.473744,53.1941327 L73.6045483,53.1941327 C73.6441284,53.1941327 73.6837085,53.1941327 73.7232886,53.1941327 L73.7672665,53.1941327 C73.8112444,53.1985305 73.8552223,53.1985305 73.8992002,53.1985305 C74.4753106,53.1985305 75.0030453,52.978641 75.3812551,52.5740444 C75.7638628,52.1694478 75.9529677,51.6153264 75.9133876,51.0216249 L75.8957965,50.7797465 C75.8826031,50.5554592 75.8650119,50.3355698 75.8562163,50.1112825 C75.843023,49.7022881 75.8298296,49.288896 75.8166362,48.8799016 C75.8034429,48.4269293 75.7902495,47.9695592 75.7726584,47.5077914 C75.8122385,47.5077914 75.8474208,47.5077914 75.8870009,47.5077914 C76.093697,47.5077914 76.3003931,47.5077914 76.5026914,47.5077914 L77.2239288,47.5077914 L78.5212766,47.5077914 C78.5256744,47.5385759 78.5256744,47.5737582 78.5300721,47.6045427 L78.5432655,47.7584653 C78.57405,48.1102885 78.6048346,48.4577138 78.6356191,48.8095369 C78.7059837,49.5967412 78.7763483,50.4059344 78.8379174,51.2019342 C78.9258732,52.3981329 79.7966354,53.2029283 80.9972319,53.2029283 C81.0016296,53.2029283 81.0192208,53.2029283 81.0236186,53.2029283 C81.6173201,53.1985305 82.2066239,53.1985305 82.7959276,53.1985305 L83.8162147,53.1985305 L84.8408996,53.1985305 L86.4460926,53.1985305 L88.0512856,53.1985305 C89.4102025,53.1985305 90.7691193,53.1985305 92.1280362,53.1985305 C92.4270858,53.1985305 93.2186879,53.1985305 93.7991961,52.5168732 C94.3753064,51.8396137 94.2477705,51.061205 94.1993949,50.7709509 C93.9311297,49.1437689 93.6628646,47.5165869 93.3902017,45.8894049 C93.1659144,44.5568748 92.4270858,43.9367866 91.068169,43.9367866 L85.5181591,43.9367866 L81.7932317,43.9367866 C81.7316626,43.1319912 81.6656958,42.3447869 81.599729,41.5795716 C81.516171,40.5988646 81.4282152,39.6181576 81.3446572,38.6374506 C81.265497,37.7359039 81.1863368,36.8299593 81.1071766,35.9284125 C81.0324142,35.0620481 80.9620495,34.2000814 80.8872871,33.3337169 C80.8125247,32.4409657 80.7377623,31.5482145 80.6629999,30.6554634 C80.5838397,29.7187343 80.1264696,28.6060936 78.4157296,28.6060936 L71.5595764,28.6060936 L64.9057214,28.6060936 C64.8661413,28.6060936 64.830959,28.6060936 64.7913789,28.6060936 L64.747401,28.6060936 C64.725412,28.6060936 64.6902297,28.6060936 64.6594452,28.6060936 C63.5248156,28.6060936 62.6716445,29.4460713 62.6364622,30.5982921 C62.618871,31.1875958 62.5968821,31.7725018 62.5792909,32.3574078 C62.557302,33.0258717 62.535313,33.6943357 62.5133241,34.3627996 C62.5045285,34.7014294 62.4825396,35.4138712 63.0586499,36.0119705 C63.6347603,36.6056721 64.3515999,36.6100699 64.6946275,36.6100699 L65.4818318,36.6100699 C65.873235,36.6100699 66.2646382,36.6100699 66.6604393,36.6100699 C66.7659862,36.6100699 66.8759309,36.6100699 66.9814779,36.6100699 C66.9770801,39.0288539 66.9814779,41.4784224 66.9858756,43.9323888 L66.1678869,43.9323888 L65.3279091,43.9323888 L63.4764399,43.9323888 L61.5502083,43.9323888 C60.5431146,43.9323888 59.5404186,43.9323888 58.5333249,43.9323888 C58.5817006,43.3826651 58.6256785,42.8329415 58.6696564,42.2964112 L58.7356232,41.5180025 C58.7927945,40.8451408 58.8455679,40.1722791 58.9027392,39.4994173 C58.9599105,38.7869755 59.0214795,38.0701358 59.0786508,37.357694 C59.1446176,36.5748875 59.2105844,35.7920811 59.2809491,35.0048768 C59.3337225,34.3803908 59.3908938,33.7559047 59.4436673,33.1358164 C59.4920429,32.5904906 59.5360208,32.0451647 59.5799987,31.5042367 C59.6283744,30.9369219 59.6723523,30.3696071 59.720728,29.8022923 C59.8306727,28.5225356 59.9406174,27.2471768 60.0505622,25.9674201 L60.0769489,25.6463815 C60.1077334,25.3077518 60.1385179,24.969122 60.1693025,24.6260944 C60.2044848,24.239089 60.2396671,23.843288 60.2748494,23.4474869 C61.4006834,23.4474869 62.5265175,23.4518847 63.6523515,23.4518847 C64.7386054,23.4518847 65.8248593,23.4518847 66.915511,23.4474869 C66.915511,23.5046582 66.915511,23.5662273 66.915511,23.6233985 C66.915511,24.1335421 66.915511,24.6392878 66.9111132,25.1494313 C66.9023177,25.9454312 67.227754,26.4423814 67.5048148,26.7238399 C67.7818755,27.0052984 68.2788257,27.3395303 69.0748255,27.3395303 C70.5788694,27.3351326 72.0741177,27.3351326 73.569366,27.3351326 C75.0734099,27.3351326 76.5774538,27.3351326 78.0770999,27.3395303 C78.9038842,27.3395303 79.4052322,26.9789116 79.6822929,26.6754642 C79.9549558,26.3764145 80.2671989,25.8486798 80.1968342,25.0438844 C80.1044807,24.0631774 80.0121271,23.0121058 79.9329669,21.9566364 C79.8406133,20.734051 78.9478621,19.9072667 77.7120834,19.9072667 C77.7032878,19.9072667 77.6812988,19.9072667 77.6769011,19.9072667 C77.0480172,19.9160623 76.4235311,19.9160623 75.7946473,19.9160623 L75.1921502,19.9160623 L74.6292332,19.9160623 C74.6072442,19.4103165 74.5852553,18.9221619 74.5808575,18.4340073 C74.5808575,18.2053223 74.5764597,17.7787367 74.3565703,17.3037755 C74.070714,16.6660961 73.4462279,16.2702951 72.7601728,16.2702951 L72.7601728,16.2702951 Z" id="Shape" fill="#903C14" fill-rule="nonzero"></path>
                                <path d="M68.6746267,22.0006143 C68.6746267,21.7499403 68.6746267,21.5036641 68.6746267,21.2529902 C68.6790245,20.9627361 68.5866709,20.8659847 68.2876212,20.8659847 C65.2003733,20.8747803 62.1131253,20.8747803 59.0258773,20.8659847 C58.7708055,20.8659847 58.6388719,20.9275538 58.6168829,21.2090123 C58.5289271,22.3656308 58.4189824,23.5178516 58.3178332,24.6700723 C58.1990929,26.0553759 58.0759548,27.4450773 57.9572145,28.8303809 C57.8604632,29.9430215 57.7725074,31.0556622 57.675756,32.163905 C57.5570157,33.5711976 57.4294798,34.9784901 57.3107395,36.3857826 C57.1919992,37.7710862 57.0820545,39.1607876 56.967712,40.5460911 C56.8577672,41.8610301 56.7566181,43.1715713 56.6202866,44.4821124 C56.6070933,44.6316373 56.6202866,44.7239908 56.6686623,44.7811621 C56.778607,43.6377369 56.8709606,42.4899139 56.967712,41.3464888 C57.0820545,39.9611852 57.1919992,38.5714838 57.3107395,37.1861802 C57.4294798,35.7788877 57.5526179,34.3715952 57.675756,32.9643027 C57.7725074,31.851662 57.8604632,30.7390213 57.9572145,29.6307785 C58.0759548,28.2454749 58.1946951,26.8557735 58.3178332,25.47047 C58.4189824,24.3182492 58.5289271,23.1616307 58.6168829,22.0094099 C58.6388719,21.7235536 58.7664077,21.6619846 59.0258773,21.6663823 C62.1131253,21.6707801 65.2003733,21.6751779 68.2876212,21.6663823 C68.5646819,21.6663823 68.6658311,21.7543381 68.6746267,22.0006143 Z" id="Path" fill="#FFE941" fill-rule="nonzero"></path>
                                <path d="M68.7361957,34.437562 C68.7361957,34.1341146 68.6394444,34.0241698 68.3315991,34.0285676 C67.1178093,34.041761 65.9040195,34.0329654 64.6902297,34.0329654 C64.4175668,34.0329654 64.3164176,34.0241698 64.2812353,33.9010317 C64.2768375,34.0681477 64.268042,34.2308659 64.2636442,34.3979819 C64.2504508,34.8157719 64.2724397,34.8289653 64.6902297,34.8289653 C65.9040195,34.8289653 67.1178093,34.8377608 68.3315991,34.8245675 C68.6394444,34.8201697 68.7361957,34.9345122 68.7361957,35.2335619 C68.7317979,38.3208098 68.7361957,41.4124556 68.7405935,44.4997036 C68.7405935,44.4953058 68.7405935,44.490908 68.7405935,44.4865102 C68.7317979,41.1397927 68.7274001,37.7886773 68.7361957,34.437562 Z" id="Path" fill="#FFE941" fill-rule="nonzero"></path>
                                <path d="M78.0858954,24.7624259 C75.0822055,24.7580281 72.0829133,24.7536303 69.0792233,24.7624259 C68.793367,24.7624259 68.6790245,24.6656745 68.6702289,24.4018072 C68.6702289,24.6524812 68.6702289,24.9031552 68.6702289,25.1538291 C68.6658311,25.4572766 68.7757758,25.5628235 69.0792233,25.5628235 C72.0829133,25.5540279 75.0822055,25.5540279 78.0858954,25.5628235 C78.3629562,25.5628235 78.4729009,25.47047 78.4465142,25.1890114 C78.428923,25.0087021 78.4157296,24.8327905 78.3981385,24.6524812 C78.3409672,24.7316414 78.2398181,24.7624259 78.0858954,24.7624259 Z" id="Path" fill="#FFE941" fill-rule="nonzero"></path>
                                <path d="M73.8640179,50.6258239 C73.7804599,50.6214261 73.6925041,50.6258239 73.6089461,50.6258239 C66.1898758,50.6258239 58.7664077,50.6258239 51.3473375,50.6258239 C51.2505861,50.6258239 51.1538347,50.6214261 51.0614812,50.6258239 C50.982321,50.6258239 50.9295475,50.6126305 50.8855696,50.5862438 C50.8635806,50.7753487 50.8415917,50.9688514 50.815205,51.1579563 C50.7888182,51.3646524 50.8723762,51.4306193 51.0570834,51.4262215 C51.1538347,51.4218237 51.2505861,51.4262215 51.3429397,51.4262215 C58.7620099,51.4262215 66.185478,51.4262215 73.6045483,51.4262215 C73.6881063,51.4262215 73.7760621,51.4218237 73.8596201,51.4262215 C74.0795095,51.4394148 74.1718631,51.3338679 74.1586697,51.122774 C74.1454764,50.9204757 74.132283,50.7181774 74.1190896,50.5158791 C74.0795095,50.5906415 74.0003493,50.6346194 73.8640179,50.6258239 Z" id="Path" fill="#FFE941" fill-rule="nonzero"></path>
                                <path d="M92.383108,50.5994371 C92.3259367,50.6170283 92.2467765,50.6214261 92.1236384,50.6214261 C89.6960588,50.6214261 87.2684792,50.6214261 84.8408996,50.6214261 C83.5655407,50.6214261 82.2857841,50.6170283 81.0104252,50.6258239 C80.7289667,50.6302216 80.6146242,50.5422659 80.5926353,50.2520118 C80.5046795,49.0953932 80.3991325,47.9431725 80.2979834,46.7909517 C80.2628011,46.3819573 80.2276188,45.9729629 80.1968342,45.5595708 C80.1440608,45.4804106 80.1308674,45.3440791 80.1132762,45.1065985 C80.1088785,45.0714162 80.1088785,45.0362339 80.1044807,45.0010515 C80.034116,44.9262891 79.9153757,44.9306869 79.7966354,44.9306869 C78.7015859,44.9306869 77.6021386,44.9306869 76.5070891,44.9306869 C75.7814539,44.9306869 75.0602165,44.9394825 74.3345813,44.9262891 C74.0399294,44.9218913 73.9343825,44.9746648 73.9519737,45.3132946 C73.9607692,45.4980017 73.9695648,45.6827089 73.9783604,45.8630182 C74.0267361,45.7442779 74.1366808,45.7178912 74.3345813,45.722289 C75.0602165,45.7354823 75.7814539,45.7266867 76.5070891,45.7266867 C77.6021386,45.7266867 78.7015859,45.7266867 79.7966354,45.7266867 C79.9681492,45.7266867 80.1440608,45.7134934 80.1660497,45.9641674 C80.2056298,46.5050954 80.2540055,47.0460235 80.2979834,47.5825538 C80.3991325,48.7347745 80.5046795,49.8913931 80.5926353,51.0436138 C80.6146242,51.3338679 80.7289667,51.4174259 81.0104252,51.4174259 C82.2857841,51.4042325 83.5655407,51.4130281 84.8408996,51.4130281 C87.2684792,51.4130281 89.6960588,51.4130281 92.1236384,51.4130281 C92.4930527,51.4130281 92.5150416,51.3822436 92.4578704,51.0304205 C92.4314836,50.894089 92.4094947,50.748962 92.383108,50.5994371 Z" id="Path" fill="#FFE941" fill-rule="nonzero"></path>
                                <path d="M51.3737242,45.7486757 C51.378122,45.7134934 51.3825198,45.6739133 51.3869176,45.638731 C51.4880667,44.7635709 51.4968623,44.9394825 50.8020116,44.9350847 C49.0648849,44.9262891 47.332156,44.9306869 45.5950293,44.9306869 C45.4586978,44.9306869 45.3663442,44.9262891 45.3047752,44.9043002 C45.2827862,45.0406316 45.2607973,45.1725653 45.2388083,45.3088968 C45.1728415,45.7003 45.1948304,45.7310845 45.5950293,45.7310845 C47.332156,45.7310845 49.0648849,45.7266867 50.8020116,45.7354823 C51.1230502,45.7398801 51.294564,45.7046978 51.3737242,45.7486757 Z" id="Path" fill="#FFE941" fill-rule="nonzero"></path>
                            </g>
                        </g>
                    </g>
                </g>
            </g>
        </g>
    </g>
</svg>