<?xml version="1.0" encoding="UTF-8"?>
<svg width="139px" height="131px" viewBox="0 0 139 131" version="1.1" xmlns="http://www.w3.org/2000/svg" xmlns:xlink="http://www.w3.org/1999/xlink">
    <!-- Generator: sketchtool 64 (101010) - https://sketch.com -->
    <title>B143FE48-40D6-46D3-8BBE-543CE1F432E5</title>
    <desc>Created with sketchtool.</desc>
    <defs>
        <linearGradient x1="-0.00379494528%" y1="50.0021561%" x2="99.9966707%" y2="50.0021561%" id="linearGradient-1">
            <stop stop-color="#FDDB39" offset="0%"></stop>
            <stop stop-color="#FCD438" offset="20.07%"></stop>
            <stop stop-color="#FAC036" offset="55.74%"></stop>
            <stop stop-color="#F9B634" offset="69.81%"></stop>
        </linearGradient>
        <linearGradient x1="-0.00158193118%" y1="50.0060292%" x2="99.9993186%" y2="50.0060292%" id="linearGradient-2">
            <stop stop-color="#FDDB39" offset="0%"></stop>
            <stop stop-color="#FCD438" offset="20.07%"></stop>
            <stop stop-color="#FAC036" offset="55.74%"></stop>
            <stop stop-color="#F9B634" offset="69.81%"></stop>
        </linearGradient>
        <linearGradient x1="35.14%" y1="50.38%" x2="64.32%" y2="50.38%" id="linearGradient-3">
            <stop stop-color="#FDDB39" offset="0%"></stop>
            <stop stop-color="#FCD438" offset="20.07%"></stop>
            <stop stop-color="#FAC036" offset="55.74%"></stop>
            <stop stop-color="#F9B634" offset="69.81%"></stop>
        </linearGradient>
        <linearGradient x1="-7.04312151e-05%" y1="49.9999305%" x2="99.9993573%" y2="49.9999305%" id="linearGradient-4">
            <stop stop-color="#FFFFFF" offset="0%"></stop>
            <stop stop-color="#FDDB39" offset="0.1020666%"></stop>
            <stop stop-color="#F9B634" offset="86.59%"></stop>
        </linearGradient>
        <linearGradient x1="-0.00181050527%" y1="50.00213%" x2="100.002535%" y2="50.00213%" id="linearGradient-5">
            <stop stop-color="#FDDB39" offset="0%"></stop>
            <stop stop-color="#FCD438" offset="20.07%"></stop>
            <stop stop-color="#FAC036" offset="55.74%"></stop>
            <stop stop-color="#F9B634" offset="69.81%"></stop>
        </linearGradient>
        <linearGradient x1="0.00474036445%" y1="49.9924305%" x2="100.000555%" y2="49.9924305%" id="linearGradient-6">
            <stop stop-color="#FDDB39" offset="0%"></stop>
            <stop stop-color="#FCD438" offset="20.07%"></stop>
            <stop stop-color="#FAC036" offset="55.74%"></stop>
            <stop stop-color="#F9B634" offset="69.81%"></stop>
        </linearGradient>
        <linearGradient x1="-0.0274678112%" y1="49.9536282%" x2="99.9635193%" y2="49.9536282%" id="linearGradient-7">
            <stop stop-color="#FDDB39" offset="0%"></stop>
            <stop stop-color="#FCD438" offset="20.07%"></stop>
            <stop stop-color="#FAC036" offset="55.74%"></stop>
            <stop stop-color="#F9B634" offset="69.81%"></stop>
        </linearGradient>
    </defs>
    <g id="Wireframes" stroke="none" stroke-width="1" fill="none" fill-rule="evenodd">
        <g id="Coins" transform="translate(-775.000000, -383.000000)">
            <g id="3.-Icons-/-Coins-/-Floor-coin-Copy-4" transform="translate(774.000000, 383.000000)">
                <g id="3.-Icons-/-Coins-/-Front-coin">
                    <g id="Group" transform="translate(0.770007, 0.372386)" fill-rule="nonzero">
                        <g id="Group-2" transform="translate(0.122321, 0.059326)">
                            <path d="M96.0385546,59.5941143 C91.7014373,59.5573745 87.3643201,59.515532 83.0272028,59.5002237 C80.2928448,59.4910388 80.6388372,59.2307986 80.6276434,61.9199471 C80.612379,65.5531041 80.6235729,65.5898438 84.2391941,65.6245425 C85.2842948,65.634748 85.7442613,65.850084 85.7208559,67.0226956 C85.6506398,70.5252223 85.6496222,74.02979 85.7198383,77.5323166 C85.7432436,78.6988049 85.2934534,78.9498601 84.2452998,78.9447574 C80.9319132,78.9294491 77.6175089,78.9437368 74.3071752,79.0621206 C73.070761,79.1060042 72.7766674,78.6712501 72.7807379,77.5139467 C72.8153371,67.5472582 72.8163547,57.8928579 72.7797202,47.9261694 C72.7756497,46.7709072 73.0341265,46.3208447 74.3000518,46.2871666 C77.6714431,46.1993993 81.0428343,46.2585912 84.4152432,46.2677761 C85.5152957,46.2708378 85.7289969,46.746414 85.6832038,47.6924635 C85.628252,48.8375203 85.7249264,49.9907415 85.6536927,51.1337572 C85.5885647,52.1818617 86.0129142,52.4982321 87.0162924,52.4798622 C89.1838334,52.4390403 91.3534096,52.4931294 93.5229859,52.5074171 C97.4306654,52.5329308 97.4306654,52.5329308 97.4286302,48.6997461 C97.4286302,46.4147353 97.4286302,46.4147353 95.0616347,46.3861599 C91.0817038,46.3381941 91.0817038,46.3381941 91.0684747,42.2570158 C91.0684747,42.0753579 91.0481222,41.891659 91.0725452,41.7140833 C91.2333299,40.506773 90.6817772,39.4719356 89.5227025,39.4607096 C85.2466427,39.4219287 69.8408196,39.4607096 67.3099865,39.4607096 C67.3038807,41.1313494 67.2194179,42.8060715 67.3181275,44.4695676 C67.3903789,45.7074944 66.9029365,45.9840633 65.7743905,45.9422208 C63.9996527,45.8758851 62.2177916,45.9646729 60.4389833,45.987125 C60.4389833,57.1070346 60.4389833,68.2269443 60.4389833,79.3458334 C61.1614969,79.3274635 61.8860459,79.2733744 62.6075419,79.296847 C64.1024329,79.3448129 66.0084443,78.6334897 66.9812937,79.521368 C67.978566,80.4327189 67.1888891,82.3789072 67.3160922,83.8648275 C67.3262685,83.9842319 67.3313566,84.1087389 67.3150746,84.2271227 C67.1949949,85.1599051 67.5684632,85.5079126 68.5301187,85.4844399 C75.6382285,85.3099259 82.747356,85.1660284 89.8564834,85.0405008 C90.7753987,85.024172 91.1559904,84.7016783 91.108162,83.7525671 C91.0491398,82.5472979 91.1397084,81.3338643 91.0796685,80.1285951 C91.034893,79.2121414 91.3422158,78.8314764 92.2926774,78.8222914 C93.9666703,78.8059626 95.6396456,78.6865583 97.312621,78.6100171 C97.3502731,72.6428629 97.3716432,66.6767293 97.4440581,60.7105957 C97.4561061,59.6022787 96.7824384,59.6002376 96.0385546,59.5941143 Z" id="Path" fill="url(#linearGradient-1)"></path>
                            <path d="M107.243622,78.5447019 C103.946518,78.6763528 100.64229,78.619202 97.3411145,78.6385925 C97.3604493,80.0173551 97.4825643,81.4042822 97.3665551,82.7697777 C97.2352815,84.3159105 97.6372433,84.9731445 99.3224301,84.7935278 C101.052392,84.6088083 102.810848,84.7057605 104.557093,84.6700413 C108.924739,84.582274 108.87284,84.5792123 108.91965,80.2704515 C108.933897,78.9590451 108.65405,78.4885717 107.243622,78.5447019 Z" id="Path" fill="url(#linearGradient-2)"></path>
                            <path d="M97.3400968,78.6089965 C97.3309382,78.6089965 97.320762,78.6100171 97.3116033,78.6100171 C97.3116033,78.619202 97.3116033,78.628387 97.3116033,78.6375719 C97.320762,78.6375719 97.3319558,78.6375719 97.3411145,78.6375719 C97.3411145,78.628387 97.3400968,78.619202 97.3400968,78.6089965 L97.3400968,78.6089965 Z" id="Path" fill="url(#linearGradient-3)"></path>
                            <path d="M69.4286815,3.62716807 C105.782313,3.62716807 135.25273,31.0973047 135.25273,64.9826168 C135.25273,98.8679289 105.782313,126.338065 69.4286815,126.338065 C33.0750501,126.338065 3.6046335,98.8679289 3.6046335,64.9826168 C3.6046335,31.0973047 33.0750501,3.62716807 69.4286815,3.62716807 M69.4286815,0.134846951 C60.1041847,0.134846951 51.0554642,1.83814442 42.5328558,5.19881462 C38.4318275,6.81536537 34.475302,8.8176839 30.7742003,11.1486194 C27.1036273,13.4601645 23.6518437,16.1146143 20.5134886,19.0405304 C17.3710629,21.9705286 14.5166251,25.1954657 12.0295499,28.6255333 C9.51499883,32.0954023 7.3545812,35.806121 5.6083369,39.654614 C1.96829269,47.6761347 0.122321145,56.1977248 0.122321145,64.9836373 C0.122321145,73.7695498 1.96829269,82.2911399 5.6083369,90.3126606 C7.3545812,94.1611536 9.51499883,97.8718723 12.0295499,101.341741 C14.5156075,104.77283 17.3700453,107.997767 20.5134886,110.926744 C23.6518437,113.85164 27.1036273,116.50711 30.7742003,118.818655 C34.475302,121.149591 38.4318275,123.150889 42.5328558,124.76846 C51.0554642,128.12811 60.1041847,129.832428 69.4286815,129.832428 C78.7531783,129.832428 87.8018988,128.12913 96.3245072,124.76846 C100.425535,123.151909 104.382061,121.149591 108.083163,118.818655 C111.753736,116.50711 115.205519,113.85266 118.343874,110.926744 C121.4863,107.996746 124.340738,104.771809 126.827813,101.341741 C129.342364,97.8718723 131.502782,94.1611536 133.249026,90.3126606 C136.88907,82.2911399 138.735042,73.7695498 138.735042,64.9836373 C138.735042,56.1977248 136.88907,47.6761347 133.249026,39.654614 C131.502782,35.806121 129.342364,32.0954023 126.827813,28.6255333 C124.341756,25.1944451 121.487318,21.969508 118.343874,19.0405304 C115.205519,16.1156349 111.753736,13.4601645 108.083163,11.1486194 C104.382061,8.8176839 100.425535,6.81638592 96.3245072,5.19881462 C87.8018988,1.83814442 78.7521607,0.134846951 69.4286815,0.134846951 L69.4286815,0.134846951 Z" id="Shape" fill="#903C14"></path>
                            <ellipse id="Oval" fill="#F28B2A" cx="69.4286815" cy="64.9826168" rx="65.824048" ry="61.3554487"></ellipse>
                            <path d="M23.1786481,45.0880207 C22.4367996,46.417797 22.1243888,47.9853613 22.2994202,49.4988365 C20.3069107,49.2090004 8.12187036,49.9386935 4.23963143,50.7000235 C4.71486225,48.441547 5.22570994,46.4218792 5.22570994,46.4218792 C5.22570994,46.4218792 18.4914679,45.146192 23.1786481,45.0880207 Z" id="Path" fill="#903C14"></path>
                            <ellipse id="Oval" fill="url(#linearGradient-4)" cx="77.4587595" cy="64.9826168" rx="57.79397" ry="58.7152866"></ellipse>
                            <ellipse id="Oval" fill="#F8AC32" cx="77.4160192" cy="64.9826168" rx="41.4814432" ry="43.7070825"></ellipse>
                            <path d="M76.5490028,20.0131142 C53.8325625,20.0131142 35.2975429,39.0075855 34.2514245,62.8547706 C35.2853314,41.1017535 52.0944592,23.8044564 72.679993,23.8044564 C93.9320711,23.8044564 111.753736,38.6810096 111.753736,64.9826168 C111.753736,90.8453876 93.9320711,106.159757 72.679993,106.159757 C52.0954769,106.159757 35.286349,88.8624595 34.2514245,67.1094424 C35.2975429,90.9566275 53.8325625,109.951099 76.5490028,109.951099 C99.9380932,109.951099 118.89848,89.817694 118.89848,64.9826168 C118.89848,40.1475395 99.9370755,20.0131142 76.5490028,20.0131142 Z" id="Path" fill="#D06F1C"></path>
                            <path d="M77.4160192,21.2755342 C100.325808,21.2755342 118.897462,40.8435544 118.897462,64.9826168 C118.897462,89.1216791 100.325808,108.689699 77.4160192,108.689699 C54.5062302,108.689699 35.9345761,89.1216791 35.9345761,64.9826168 C35.9345761,40.8435544 54.5062302,21.2755342 77.4160192,21.2755342 M77.4160192,18.9956262 C71.4954776,18.9956262 65.7530204,20.2172242 60.3463794,22.6267421 C55.1330871,24.9505338 50.4540479,28.2734436 46.4374825,32.5046427 C42.4290581,36.7276774 39.2825619,41.6446859 37.0855098,47.1178941 C34.8131534,52.7778628 33.6612021,58.7889006 33.6612021,64.9815962 C33.6612021,71.1742919 34.8131534,77.1853297 37.0855098,82.8452984 C39.2825619,88.3185065 42.4290581,93.2344945 46.4374825,97.4585497 C50.4530303,101.689749 55.1330871,105.013679 60.3463794,107.33645 C65.7530204,109.745968 71.4964953,110.967566 77.4160192,110.967566 C83.3355432,110.967566 89.079018,109.745968 94.485659,107.33645 C99.6989513,105.013679 104.377991,101.689749 108.394556,97.4585497 C112.40298,93.235515 115.549477,88.3185065 117.746529,82.8452984 C120.018885,77.1853297 121.170836,71.1742919 121.170836,64.9815962 C121.170836,58.7889006 120.018885,52.7778628 117.746529,47.1178941 C115.549477,41.6446859 112.40298,36.728698 108.394556,32.5046427 C104.379008,28.2734436 99.6989513,24.9495132 94.485659,22.6267421 C89.079018,20.2182447 83.3365608,18.9956262 77.4160192,18.9956262 L77.4160192,18.9956262 Z" id="Shape" fill="#903C14"></path>
                            <path d="M76.6355009,18.919085 C76.3760066,18.919085 76.1216004,18.9343932 75.8631236,18.9384754 C100.939436,19.3395514 121.146413,39.7934088 121.146413,64.9826168 C121.146413,90.1718248 100.939436,110.625682 75.8631236,111.026758 C76.1216004,111.03084 76.3760066,111.046149 76.6355009,111.046149 C80.6866656,111.046149 84.7388479,110.551182 88.6658623,109.549002 C98.5683701,107.022121 107.536698,101.24581 113.862254,93.1875492 C116.981275,89.2145491 119.437821,84.7261715 121.090444,79.9489783 C121.933037,77.5119056 122.567018,75.0033944 122.984244,72.459164 C123.578537,68.8351919 123.622295,65.0213977 123.250862,61.3586447 C123.01172,59.0011749 122.850935,56.396732 122.290224,54.0974335 C119.861153,44.1358478 114.012863,35.1886885 105.953274,28.8918967 C97.6148555,22.3767074 87.1872534,18.919085 76.6355009,18.919085 Z" id="Path" fill="#F7E93D"></path>
                            <path d="M22.4042356,64.9826168 C22.4042356,32.9128626 47.6087687,6.86639285 77.9177083,6.29488501 C77.5676453,6.28876172 77.2196176,6.26733017 76.8675194,6.26733017 C44.9497149,6.26733017 19.074567,32.5546497 19.074567,64.9826168 C19.074567,97.4095633 44.9497149,123.696883 76.8675194,123.696883 C77.2206352,123.696883 77.5676453,123.676472 77.9177083,123.670349 C47.6087687,123.098841 22.4042356,97.0513504 22.4042356,64.9826168 Z" id="Path" fill="#F5EC74"></path>
                            <path d="M87.3602496,81.574714 C89.0739299,81.5583852 90.7876102,81.4328576 92.5012905,81.3532547 C92.5399602,75.138107 92.5613304,68.9229592 92.635812,62.708832 C92.6539342,61.1402471 91.3778326,61.6964467 90.3815779,61.4831518 C88.6851972,61.1188156 77.7874523,59.6441212 77.7874523,59.6441212 C77.7874523,59.6441212 75.9302869,61.5341793 75.9302869,63.9273684 C75.9302869,67.9269027 77.0242336,67.8156628 79.0706773,67.8258683 C80.5116341,67.8330121 80.5482686,68.159588 80.4678762,70.7466815 C80.37629,73.6736181 81.3460865,82.3462496 79.7250101,81.6635018 C78.0398233,80.9542198 76.2752617,80.4378216 74.4862772,80.815425 C68.3927394,82.1043793 67.3720616,82.4197292 67.3812202,80.2112596 C67.4168371,69.8292074 67.4178547,60.8902124 67.3802026,50.5091808 C67.3761321,49.3049321 67.6407146,48.8364998 68.9371687,48.8018011 C72.3889523,48.7099516 75.8427711,48.7722051 79.2955724,48.7813901 C80.4220831,48.7844517 80.6408725,49.2794183 80.5940617,50.2652694 C80.5380924,51.458292 80.636802,52.1788001 80.563533,53.3697816 C80.4922992,54.5321877 80.9899178,54.8301882 82.1642569,54.7638525 C82.9875155,54.7169072 83.8199326,54.6689414 84.6442088,54.6934346 C92.6223879,54.9332638 92.6223879,55.2230999 92.6213702,50.1968925 C92.6213702,47.8169706 92.6213702,47.8169706 90.1973878,47.7873747 C86.1218001,47.7373677 86.1218001,47.7373677 86.108571,43.4867782 C86.108571,43.2979765 86.0882185,43.1061131 86.1126415,42.9213936 C86.2774967,41.6640764 85.7127149,40.5853553 84.5251467,40.5741293 C80.8097982,40.5404512 70.5958972,37.7410833 65.4864027,38.1288922 C64.5735932,38.1982896 63.4999989,40.4404373 63.0237505,40.8721298 C63.0176447,42.6121671 62.9311466,44.0593066 63.0318915,45.7922 L57.9071326,45.2860073 L55.6653049,46.3198242 L55.6653049,80.6266233 C55.6653049,81.4471453 56.329814,82.109482 57.1479844,82.0992765 C58.5207604,82.0829478 60.4827411,82.0625368 61.663186,82.0513107 C62.2157563,82.046208 62.6624936,82.5034142 62.653335,83.0667577 C62.6421412,83.7586904 62.6502822,85.5864949 62.6584231,86.8152368 C62.6624936,87.4785941 63.1947115,88.0082594 63.85515,88.0042006 C68.6247578,87.9684579 86.124853,87.8133344 86.1452055,87.4336899 L88.1763847,85.588536 L87.3602496,81.574714 Z" id="Path" fill="#D06F1C"></path>
                            <path d="M102.672451,80.7899113 C99.2969895,80.9266649 95.9123691,80.867473 92.5318192,80.8868635 C92.5511541,82.3227769 92.6773396,83.7668548 92.5572599,85.1905216 C92.4229334,86.8009491 92.8340538,87.4857379 94.5599456,87.2989773 C96.3306129,87.107114 98.1328266,87.2071279 99.9207935,87.1703881 C104.393255,87.0785386 104.340338,87.0764975 104.388167,82.5870993 C104.404449,81.2205832 104.117479,80.7307194 102.672451,80.7899113 Z" id="Path" fill="#D06F1C"></path>
                            <path d="M92.5318192,81.3512136 C92.521643,81.3512136 92.5124844,81.3522342 92.5023081,81.3532547 C92.5023081,81.3624397 92.5023081,81.3726452 92.5023081,81.3818301 C92.5124844,81.3818301 92.5226606,81.3818301 92.5328369,81.3818301 C92.5318192,81.3716246 92.5318192,81.3614191 92.5318192,81.3512136 L92.5318192,81.3512136 Z" id="Path" fill="#D06F1C"></path>
                            <path d="M68.4385325,86.6601132 C68.1373155,86.6601132 67.2214531,86.6601132 66.6088429,85.9610367 C66.2048459,85.4997482 66.0511845,84.8659868 66.152947,84.0781224 C66.152947,84.0730197 66.1549823,84.0454648 66.1488765,83.9679031 C66.09596,83.3433266 66.1661761,82.7177297 66.234357,82.1125437 C66.3025379,81.5053166 66.4063356,80.5878424 66.1916167,80.3908763 C66.0898543,80.2980063 65.8496948,80.2479994 65.4986142,80.2479994 C65.1393926,80.2479994 64.7221664,80.2990269 64.2805172,80.3520954 C63.7839163,80.4123079 63.2700157,80.4745614 62.7581504,80.4745614 C62.69404,80.4745614 62.6309473,80.4735409 62.5678545,80.4714998 C62.4548982,80.4674176 62.3419418,80.466397 62.2289854,80.466397 C61.8819754,80.466397 61.53293,80.4806847 61.1635322,80.4959929 C60.9315137,80.5051779 60.6994952,80.5153834 60.4674768,80.5204861 C60.4573005,80.5204861 60.4471243,80.5204861 60.4379657,80.5204861 C60.1326782,80.5204861 59.8396022,80.4010818 59.6208129,80.1867664 C59.3949001,79.9653071 59.267697,79.6622038 59.267697,79.3458334 L59.267697,45.987125 C59.267697,45.3451992 59.7826152,44.8216572 60.4227013,44.8134928 C60.9447428,44.806349 61.4800135,44.7941024 61.996967,44.7818558 C62.7734148,44.7634859 63.5763208,44.7440954 64.3710858,44.7440954 C64.894145,44.7440954 65.366323,44.7522598 65.8161132,44.7685886 C65.8710649,44.7706297 65.9229638,44.7716503 65.973845,44.7716503 C66.0460964,44.7716503 66.1051186,44.7696092 66.1519294,44.765527 C66.1539646,44.7083762 66.1539646,44.6338761 66.1478589,44.5379444 C66.0766251,43.328593 66.0979953,42.1161799 66.1183478,40.9435683 C66.1264888,40.454725 66.1356474,39.9485323 66.1376826,39.4556068 C66.1397179,38.8085783 66.6637947,38.2860568 67.3079512,38.2860568 C67.8920679,38.2860568 69.1610462,38.2840157 70.8207923,38.2809541 C73.873667,38.2758513 78.4875782,38.2687075 82.4237513,38.2687075 C85.8755349,38.2687075 88.2669534,38.2748308 89.5308435,38.2860568 C90.329679,38.2932007 91.0440517,38.6136533 91.5416702,39.1892433 C92.1176459,39.8556623 92.3689993,40.8323284 92.2306023,41.8681863 C92.2275494,41.8967617 92.2306023,41.9814674 92.2326375,42.0437209 C92.2346728,42.1141388 92.2377257,42.1855773 92.2377257,42.2559952 C92.2417962,43.4806549 92.2458667,44.7502187 92.4168276,45.0145411 C92.6732691,45.1829318 93.8934013,45.1972195 95.0738462,45.2115072 C96.4730804,45.227836 97.3166915,45.2380415 97.9486365,45.8544535 C98.5978812,46.4892354 98.5978812,47.3209834 98.5978812,48.6987256 C98.5988988,50.7112496 98.5988988,51.818546 97.9750948,52.6431502 C97.1874531,53.6841109 95.8045009,53.6841109 94.3411563,53.6841109 C94.0867501,53.6841109 93.8109737,53.6820698 93.5138273,53.6800287 C92.8656002,53.6759465 92.2173732,53.6677821 91.5701637,53.6596177 C90.6380193,53.6483917 89.6733109,53.6371656 88.7289551,53.6371656 C88.1153273,53.6371656 87.5617393,53.6422684 87.0376625,53.6514533 C87.0020456,53.6524739 86.968464,53.6524739 86.9348824,53.6524739 C86.6245068,53.6524739 85.6811685,53.6524739 85.045153,52.9727878 C84.4081198,52.2931016 84.4661244,51.3633809 84.4854593,51.0582365 C84.5200585,50.5030575 84.5119175,49.9386935 84.5027589,49.3406513 C84.4946179,48.7864928 84.4864769,48.2139644 84.5139528,47.6332717 C84.5180233,47.5557099 84.5190409,47.4924358 84.5180233,47.4414083 C84.4874945,47.4393672 84.4518777,47.4383467 84.4121903,47.4383467 C83.5360153,47.4363056 82.6598402,47.4301823 81.7836652,47.4250795 C80.6958242,47.4179357 79.5703311,47.4107918 78.4662081,47.4107918 C76.8726075,47.4107918 75.5588538,47.4261001 74.3305806,47.4577371 C74.1565667,47.4618193 74.0425927,47.476107 73.971359,47.4893742 C73.9601651,47.568977 73.9489712,47.702669 73.9499889,47.9190256 C73.9856057,57.7428371 73.9856057,67.4237717 73.9510065,77.5149672 C73.9499889,77.6864196 73.9581299,77.8037828 73.9672885,77.8813446 C74.012064,77.8854268 74.0700686,77.8884884 74.1433376,77.8884884 C74.1820073,77.8884884 74.2227123,77.8874679 74.2654526,77.8864473 C76.6202366,77.8027623 79.1459815,77.7629608 82.2161558,77.7629608 C82.893894,77.7629608 83.5726498,77.7650019 84.2503879,77.7680636 L84.2717581,77.7680636 C84.3918378,77.7680636 84.4803712,77.7639814 84.5454992,77.7578581 C84.548552,77.70581 84.5505873,77.6384538 84.5495697,77.5537481 C84.4793535,74.0644887 84.4793535,70.5129757 84.5505873,66.9961614 C84.5516049,66.9196201 84.5505873,66.8583871 84.5475344,66.8104213 C84.4742654,66.8032775 84.3704677,66.7971542 84.2269826,66.7961336 C82.2354907,66.7767432 81.0336757,66.7655171 80.2317873,65.9368308 C79.4441456,65.1224321 79.4482161,63.9824781 79.4563571,61.9128032 C79.4573747,61.6158233 79.4543219,61.3545625 79.451269,61.12698 C79.4390575,60.1360262 79.4298989,59.4206208 79.9773811,58.8644212 C80.5207927,58.3123039 81.2962229,58.3123039 81.8620223,58.3123039 C82.0156837,58.3123039 82.1876623,58.314345 82.3789758,58.3174066 C82.5733421,58.3194477 82.7900962,58.3225093 83.0302557,58.3235299 C86.6224715,58.3357765 90.2737096,58.3674135 93.8038504,58.39803 L96.0466956,58.4174205 C96.6359004,58.4225232 97.4306654,58.4296671 98.0300465,59.0419969 C98.424885,59.4461346 98.6202689,60.0115191 98.6123722,60.7228423 C98.5571762,65.2091788 98.5317356,69.7720566 98.5073126,74.1849135 C98.4991716,75.661649 98.4910306,77.1383844 98.4808543,78.6161404 C98.4767838,79.2407168 97.9862886,79.7530328 97.3635022,79.7816081 C96.8760599,79.8040602 96.3886176,79.829574 95.9001576,79.8561083 C94.7248009,79.9193824 93.5087391,79.983677 92.3008184,79.9959236 C92.2804659,79.9959236 92.261131,79.9969441 92.2428138,79.9969441 C92.2428138,80.0193962 92.2438314,80.0438894 92.244849,80.0704237 C92.2763954,80.7092878 92.2682544,81.3430492 92.2601134,81.955379 C92.2519724,82.5585239 92.244849,83.1279907 92.2733425,83.6933752 C92.3130299,84.4812396 92.130875,85.0803023 91.7177193,85.5242414 C91.0969682,86.1906603 90.1760176,86.2069891 89.8737831,86.2131124 C82.1489926,86.3498661 75.1752092,86.4947842 68.5555594,86.6570516 C68.5168896,86.6601132 68.4782199,86.6601132 68.4385325,86.6601132 Z" id="Path" fill="url(#linearGradient-5)"></path>
                            <path d="M82.4247689,39.4443808 C85.4338857,39.4443808 88.0959924,39.448463 89.5216848,39.4617301 C90.6807596,39.4719356 91.2323123,40.5077936 91.0715275,41.7151039 C91.0481222,41.8926795 91.067457,42.077399 91.067457,42.2580363 C91.0806862,46.3392146 91.0806862,46.3392146 95.0606171,46.3871805 C97.4276126,46.4157559 97.4276126,46.4157559 97.4276126,48.7007667 C97.4286302,52.2441153 97.4286302,52.5125198 94.3421739,52.5125198 C94.0898029,52.5125198 93.8170795,52.5104787 93.5219683,52.5084376 C91.9242972,52.4982321 90.3266261,52.4655745 88.7289551,52.4655745 C88.1580675,52.4655745 87.5861623,52.4696567 87.0152748,52.4808828 C86.9877989,52.4819033 86.9613406,52.4819033 86.9338648,52.4819033 C85.9895089,52.4819033 85.5895823,52.1553274 85.652675,51.1347777 C85.7239088,49.991762 85.6272344,48.8385409 85.6821862,47.6934841 C85.7279793,46.746414 85.514278,46.2718583 84.4142255,46.2687967 C82.4308746,46.2636939 80.4475237,46.2412419 78.4641728,46.2412419 C77.0751149,46.2412419 75.6870745,46.2524679 74.2980166,46.2892077 C73.0331088,46.3218653 72.7736145,46.7719277 72.777685,47.9282105 C72.8143195,57.894899 72.8133019,67.5492993 72.7787026,77.5159878 C72.7746321,78.6202226 73.0422675,79.0672234 74.1413023,79.0672234 C74.1942188,79.0672234 74.248153,79.0662028 74.3051399,79.0641617 C76.9387531,78.9702711 79.5754192,78.9416957 82.2120853,78.9416957 C82.8888058,78.9416957 83.566544,78.9437368 84.2432646,78.9467985 C84.2524232,78.9467985 84.2615818,78.9467985 84.2707404,78.9467985 C85.2995592,78.9467985 85.742226,78.6906405 85.7188206,77.5343577 C85.6486045,74.0318311 85.6486045,70.5272634 85.7198383,67.0247367 C85.7432436,65.8521251 85.2832772,65.6367891 84.2381764,65.6265836 C80.6225552,65.5918849 80.612379,65.5551452 80.6266257,61.9219882 C80.6357844,59.6992309 80.400713,59.4910388 81.8620223,59.4910388 C82.1693451,59.4910388 82.551972,59.5002237 83.0261852,59.5022648 C87.3633025,59.5175731 91.7004197,59.5594156 96.037537,59.5961554 C96.7824384,59.6022787 97.4550884,59.6043198 97.4420512,60.7136573 C97.3696079,66.6797909 97.3482378,72.6459246 97.3105857,78.6130787 C95.6376104,78.68962 93.9646351,78.8100448 92.2906422,78.8253531 C91.3401805,78.834538 91.0328578,79.2152031 91.0776333,80.1316567 C91.1366555,81.3369259 91.0460869,82.5503595 91.1061268,83.7556287 C91.1539552,84.70474 90.7733634,85.0272337 89.8544482,85.0435625 C82.7453207,85.1690901 75.6361933,85.3140081 68.5280835,85.4875016 C68.4975547,85.4885221 68.4680436,85.4885221 68.4385325,85.4885221 C67.5430226,85.4885221 67.1970301,85.1333708 67.3130394,84.2301843 C67.3283037,84.1118006 67.3242332,83.9883141 67.314057,83.8678892 C67.1868539,82.3819688 67.9765308,80.4357805 66.9792584,79.5244296 C66.600702,79.1784633 66.0806956,79.0753877 65.4975966,79.0753877 C64.6346507,79.0753877 63.6343254,79.3019498 62.7571328,79.3019498 C62.7062515,79.3019498 62.6553703,79.3009292 62.6055067,79.2999087 C62.4793212,79.2958265 62.3541533,79.2937854 62.2279678,79.2937854 C61.6316396,79.2937854 61.0332762,79.3325663 60.436948,79.3478745 C60.436948,68.2279649 60.436948,57.1090757 60.436948,45.9891661 C61.7476489,45.9718167 63.060385,45.9197687 64.3700682,45.9197687 C64.837158,45.9197687 65.3052655,45.9269125 65.7713377,45.9442619 C65.8405362,45.9473235 65.9076994,45.9483441 65.9728274,45.9483441 C66.9578883,45.9483441 67.3832555,45.6329942 67.3150746,44.4716087 C67.216365,42.8081126 67.3008279,41.13237 67.3069336,39.4627507 C68.9961909,39.4617301 76.4055177,39.4443808 82.4247689,39.4443808 M82.4247689,37.0960959 C78.4875782,37.0960959 73.873667,37.1032397 70.8197747,37.1083425 C69.1610462,37.1114041 67.8920679,37.1134452 67.3089689,37.1134452 C66.0196381,37.1134452 64.9725021,38.1595087 64.967414,39.4525452 C64.9653788,39.9373063 64.9572378,40.4394167 64.9480791,40.9241779 C64.9328148,41.7885835 64.9175504,42.6744206 64.9379029,43.5735249 C64.7547304,43.5714838 64.5664698,43.5704633 64.3710858,43.5704633 C63.5610564,43.5704633 62.751027,43.5898537 61.9674559,43.6082236 C61.4535553,43.6204702 60.9233727,43.6327168 60.4074369,43.6398606 C59.1262472,43.6561894 58.0964108,44.7022529 58.0964108,45.987125 L58.0964108,79.3458334 C58.0964108,79.9785742 58.3518346,80.5858013 58.8036601,81.0276993 C59.2412388,81.4553097 59.8284083,81.6941183 60.4379657,81.6941183 C60.4583182,81.6941183 60.477653,81.6941183 60.4980055,81.6930978 C60.7412179,81.6869745 60.9793421,81.676769 61.2093253,81.667584 C61.5665116,81.6532963 61.9043631,81.6390086 62.2279678,81.6390086 C62.3358361,81.6390086 62.4345457,81.6400292 62.5291848,81.6441114 C62.6034714,81.6461525 62.6797933,81.6481936 62.7571328,81.6481936 C63.3392142,81.6481936 63.9131546,81.5787962 64.4199318,81.5165427 C64.6692499,81.4859262 64.910427,81.4573508 65.1271811,81.4389809 C65.1108991,81.6247209 65.0885114,81.8186254 65.0701941,81.9788517 C64.999978,82.601387 64.9206033,83.3055663 64.9786079,84.0332183 C64.8605634,85.1231653 65.1129344,86.0324751 65.729615,86.7356339 C66.3676659,87.4643064 67.2794577,87.8337454 68.4385325,87.8337454 C68.4863609,87.8337454 68.5362245,87.8327248 68.5860881,87.8317043 C75.2006498,87.6694369 82.1713803,87.5245188 89.8951532,87.3877652 C91.0359107,87.3673542 91.9375263,87.0101618 92.5745595,86.3263935 C93.2065045,85.6477279 93.4995805,84.7414798 93.4436111,83.6341833 C93.4171529,83.1065591 93.4242763,82.5544417 93.4324173,81.9706873 C93.4354701,81.6992211 93.4395406,81.4246932 93.4395406,81.1460831 C94.2923103,81.1185283 95.1359213,81.0736241 95.9612151,81.0297404 C96.4394988,81.0042267 96.9350821,80.9776924 97.4174363,80.9552403 C98.6619916,80.8980895 99.6439996,79.8744782 99.6521406,78.6243048 C99.6612992,77.1485899 99.6694402,75.6738956 99.6785988,74.1981807 C99.7030218,69.7853237 99.7294801,65.222446 99.7837631,60.7391711 C99.7956257,59.7043337 99.4872853,58.8572774 98.8665342,58.2214749 C97.9272664,57.2601171 96.7162928,57.2499116 96.0650128,57.2448089 L96.0568718,57.2448089 L93.813009,57.2254184 C90.280833,57.1948019 86.6295949,57.1631649 83.0343262,57.1509183 C82.7982372,57.1498977 82.5855536,57.1468361 82.3942402,57.144795 C82.2049619,57.1427539 82.0258599,57.1396922 81.8620223,57.1396922 C81.1771608,57.1396922 80.0323328,57.1396922 79.1449639,58.0408376 C78.2535245,58.9460652 78.2677712,60.0625466 78.2810004,61.1422882 C78.2840532,61.3678297 78.2871061,61.6229671 78.2860885,61.908721 C78.2769299,64.1304578 78.2708241,65.5980082 79.3912291,66.7553116 C80.3752724,67.7717791 81.6574797,67.923841 83.3609838,67.9595603 C83.314173,70.8354694 83.3131554,73.7317895 83.3599662,76.5923903 C82.9641101,76.5913697 82.5835184,76.5903492 82.2120853,76.5903492 C79.516397,76.5903492 77.2358996,76.6209657 75.1233104,76.6842398 C75.1548567,67.1278123 75.1548567,57.9295977 75.1222927,48.6150405 C76.1246532,48.59565 77.2063885,48.5854445 78.4651905,48.5854445 C79.5662606,48.5854445 80.6897185,48.5925884 81.7765418,48.5997322 C82.2853543,48.6027939 82.8033254,48.6058555 83.3233317,48.6089172 C83.3243493,48.8630341 83.3274022,49.1120482 83.3314727,49.3580007 C83.3396137,49.9325702 83.3477547,50.4744821 83.3162083,50.9847569 C83.2439569,52.1400192 83.5390681,53.0799455 84.1913657,53.7759604 C84.8436632,54.4719753 85.766649,54.8250855 86.9338648,54.8250855 C86.9745698,54.8250855 87.0162924,54.8250855 87.058015,54.8240649 C87.5759861,54.8138594 88.1224506,54.8097772 88.7279374,54.8097772 C89.6651699,54.8097772 90.6258078,54.8210033 91.5548994,54.8322293 C92.1929502,54.8403937 92.8533887,54.8475376 93.5056863,54.8526403 C93.8058856,54.8546814 94.0847148,54.8567225 94.3411563,54.8567225 C95.947986,54.8567225 97.7685169,54.8567225 98.9072391,53.3503911 C99.7691674,52.2104371 99.7681498,50.8878047 99.7681498,48.6956639 C99.7681498,48.0629231 99.7681498,47.5618332 99.7162509,47.1056475 C99.6785988,46.7811127 99.5656424,45.7932205 98.7657893,45.0114795 C97.8000633,44.067471 96.6033364,44.0531833 95.088093,44.0348134 C94.5131349,44.0276695 93.8883132,44.0205257 93.4354701,43.9950119 C93.4120648,43.5214769 93.4100295,42.8591401 93.4079943,42.2478308 C93.4079943,42.1518992 93.4049414,42.0682141 93.4029061,42.0008578 C93.4018885,41.9824879 93.4018885,41.964118 93.4008709,41.9457481 C93.560638,40.6027047 93.2075222,39.3208943 92.4259863,38.4177078 C91.7055078,37.5849392 90.6807596,37.1195685 89.5410197,37.109363 C88.2740767,37.1022192 85.8796054,37.0960959 82.4247689,37.0960959 L82.4247689,37.0960959 Z" id="Shape" fill="#903C14"></path>
                            <path d="M98.8248115,85.9967559 C97.9516894,85.9967559 97.2749688,85.7416185 96.8129671,85.2374669 C96.1382818,84.50063 96.1311585,83.4790598 96.1993393,82.6707844 C96.2746436,81.7880089 96.2420796,80.8858429 96.2064627,79.9306084 C96.1911983,79.5142241 96.175934,79.0845727 96.169728,78.6559418 C96.1657577,78.3426331 96.2858374,78.0415709 96.5046268,77.8180705 C96.7234161,77.5945701 97.0215802,77.468022 97.3339911,77.4659809 C97.9333721,77.4629192 98.5317356,77.4618987 99.1311166,77.4618987 L101.206054,77.4629192 C103.018444,77.4629192 105.126962,77.4557754 107.196811,77.3731108 C107.28738,77.3690286 107.374896,77.3680081 107.458341,77.3680081 C108.015999,77.3680081 108.826029,77.4374055 109.420322,78.0405503 C110.023773,78.6528802 110.099078,79.4815665 110.089919,80.2857597 L110.087884,80.4357805 C110.062443,82.7626339 110.049214,84.0444443 109.154722,84.9159938 C108.277529,85.7712144 107.042132,85.7957076 104.57948,85.8457145 C104.279281,85.8518378 103.953641,85.8548995 103.554732,85.8548995 C103.327802,85.8548995 103.100871,85.8538789 102.873941,85.8528584 C102.650063,85.8518378 102.426186,85.8508173 102.202309,85.8508173 C101.311887,85.8508173 100.361425,85.8640844 99.4435275,85.9620572 C99.2257557,85.9845093 99.016125,85.9967559 98.8248115,85.9967559 Z" id="Path" fill="url(#linearGradient-6)"></path>
                            <path d="M107.458341,78.5406197 C108.683561,78.5406197 108.933897,79.0284425 108.91965,80.271472 C108.87284,84.5802329 108.924739,84.5832945 104.557093,84.6710618 C104.224329,84.6782057 103.890548,84.6802468 103.556767,84.6802468 C103.105959,84.6802468 102.655152,84.6771851 102.204344,84.6771851 C101.239635,84.6771851 100.275945,84.6935139 99.3214125,84.7955689 C99.1412929,84.8149593 98.97542,84.8241443 98.8237939,84.8241443 C97.5558333,84.8241443 97.247493,84.1526226 97.3655374,82.7718188 C97.4825643,81.4053027 97.3594317,80.0183757 97.3400968,78.6406336 C97.9384603,78.6375719 98.5368237,78.6365514 99.1351871,78.6365514 C99.8251368,78.6365514 100.515086,78.6375719 101.205036,78.6375719 C103.218916,78.6375719 105.231778,78.6273664 107.242605,78.546743 C107.317909,78.5416402 107.389143,78.5406197 107.458341,78.5406197 M107.458341,76.1923348 C107.359631,76.1923348 107.255834,76.1943759 107.150001,76.1984581 C105.101522,76.2801021 103.008267,76.2872459 101.206054,76.2872459 C100.861079,76.2872459 100.515086,76.2872459 100.170112,76.2862254 C99.8251368,76.2862254 99.4811796,76.2852048 99.1362047,76.2852048 C98.4147087,76.2852048 97.8570503,76.2862254 97.3278853,76.289287 C96.7030636,76.2923487 96.1067355,76.5464656 95.6691568,76.9934663 C95.2315781,77.4404671 94.9914186,78.0446325 94.9995596,78.6702295 C95.0056653,79.1121275 95.0219473,79.5489228 95.0372117,79.9714304 C95.0707933,80.8899251 95.1023397,81.7573924 95.0331412,82.5687294 C94.9507136,83.53519 94.9568193,84.9445691 95.9510389,86.030434 C96.6430238,86.7866614 97.6097674,87.1693675 98.8248115,87.1693675 C99.0609005,87.1693675 99.3041129,87.1561004 99.5686953,87.127525 C100.432659,87.0356755 101.346486,87.0224084 102.204344,87.0224084 C102.426186,87.0224084 102.649046,87.0234289 102.870888,87.0244495 C103.099854,87.02547 103.327802,87.0264906 103.55575,87.0264906 C103.961782,87.0264906 104.294545,87.0234289 104.602886,87.0173056 C107.196811,86.9652576 108.761919,86.9336205 109.969839,85.7559062 C110.832785,84.9139527 111.054627,83.8484988 111.146214,83.1208468 C111.236782,82.4003387 111.245941,81.5808373 111.257135,80.445986 L111.25917,80.2959652 C111.266293,79.686697 111.282575,78.258948 110.251721,77.2128845 C109.246308,76.1923348 107.89999,76.1923348 107.458341,76.1923348 L107.458341,76.1923348 Z" id="Shape" fill="#903C14"></path>
                            <path d="M97.3116033,79.8122246 C96.6654115,79.8122246 96.1413347,79.2866415 96.1413347,78.6385925 L96.1413347,78.6110376 C96.1413347,77.9956462 96.6155479,77.4843507 97.2281581,77.4404671 C97.2403696,77.4394466 97.2535987,77.438426 97.2668278,77.438426 C97.2912508,77.4363849 97.3166915,77.4363849 97.3411145,77.4363849 C97.9791653,77.4363849 98.4981539,77.9487009 98.5113831,78.5855239 C98.5124007,78.6038938 98.5124007,78.6212431 98.5124007,78.639613 C98.5124007,79.2876621 97.9883239,79.8132452 97.3421321,79.8132452 L97.3116033,79.8132452 L97.3116033,79.8122246 Z" id="Path" fill="url(#linearGradient-7)"></path>
                            <path d="M97.3400968,78.6089965 C97.3400968,78.619202 97.3411145,78.628387 97.3411145,78.6385925 C97.3319558,78.6385925 97.320762,78.6385925 97.3116033,78.6385925 C97.3116033,78.6294075 97.3116033,78.6202226 97.3116033,78.6110376 C97.320762,78.6100171 97.3309382,78.6100171 97.3400968,78.6089965 L97.3400968,78.6089965 M97.3400968,76.2607116 C97.2831098,76.2607116 97.2271405,76.2627527 97.1711711,76.2668349 C97.157942,76.2678555 97.1447128,76.268876 97.1314837,76.2698966 C95.9113515,76.3637872 94.9700485,77.3843369 94.9700485,78.6110376 L94.9700485,78.6385925 C94.9700485,79.9357112 96.0182021,80.9868774 97.3116033,80.9868774 L97.3411145,80.9868774 C98.6345157,80.9868774 99.6826693,79.9357112 99.6826693,78.6385925 C99.6826693,78.6100171 99.6826693,78.5824622 99.6816517,78.5549074 C99.6521406,77.2833025 98.6151808,76.2607116 97.3400968,76.2607116 L97.3400968,76.2607116 Z" id="Shape" fill="#903C14"></path>
                            <path d="M36.4423709,49.3631034 C32.7137933,49.3631034 21.5535012,50.5306123 21.1098168,48.5068622 C20.8126703,47.1566749 21.3499762,44.910445 22.4724165,45.0982262 C29.3088204,46.2463446 34.2015609,49.2069593 36.4423709,49.3631034 Z" id="Path" fill="#903C14"></path>
                            <path d="M94.8693036,52.5074171 C93.4110471,52.4972116 91.9527907,52.4798622 90.4955519,52.47578 C91.5040181,52.4859855 92.513502,52.5012938 93.5219683,52.5084376 C94.0368865,52.5104787 94.4805709,52.5135404 94.8693036,52.5074171 Z" id="Path" fill="#F5EC74"></path>
                            <path d="M80.2551926,46.2463446 C81.6422154,46.2534885 83.0282205,46.2647145 84.4152432,46.2677761 C85.5152957,46.2708378 85.7289969,46.746414 85.6832038,47.6924635 C85.628252,48.8375203 85.7249264,49.9907415 85.6536927,51.1337572 C85.5885647,52.1828823 86.0129142,52.4982321 87.0152748,52.4798622 C87.4518358,52.4716978 87.8883969,52.4788417 88.324958,52.4768006 C87.3968841,52.4716978 86.9989928,52.1451219 87.0620855,51.1337572 C87.1333192,49.9907415 87.0366449,48.8375203 87.0915966,47.6924635 C87.1373897,46.746414 86.9236885,46.2708378 85.823636,46.2677761 C83.9664706,46.2636939 82.1113404,46.2494063 80.2551926,46.2463446 Z" id="Path" fill="#F5EC74"></path>
                            <path d="M85.6465693,65.6245425 C82.0299304,65.5898438 82.0197542,65.5531041 82.0350186,61.9199471 C82.0431596,59.927834 81.8589695,59.5543129 82.8725238,59.4981826 C80.3142149,59.4798127 80.6378196,59.2848877 80.6276434,61.9199471 C80.612379,65.5531041 80.6235729,65.5898438 84.2391941,65.6245425 C85.2842948,65.634748 85.7432436,65.850084 85.7208559,67.0226956 C85.6506398,70.5252223 85.6496222,74.02979 85.7198383,77.5323166 C85.7432436,78.6998255 85.2924358,78.9488396 84.2442822,78.9447574 C81.2331302,78.9304697 78.2189253,78.9519012 75.2098085,79.0427302 C75.3593993,79.0600795 75.5222193,79.0692644 75.7145504,79.0621206 C79.0248842,78.9437368 82.340306,78.9294491 85.652675,78.9447574 C86.7008287,78.9488396 87.1516365,78.6988049 87.1272135,77.5323166 C87.0569974,74.02979 87.0569974,70.5252223 87.1282311,67.0226956 C87.1516365,65.850084 86.69167,65.634748 85.6465693,65.6245425 Z" id="Path" fill="#F5EC74"></path>
                            <path d="M68.7214322,84.2281432 C68.7377142,84.1097595 68.7326261,83.986273 68.7224498,83.8658481 C68.5952467,82.3799277 69.3859413,80.4337394 68.3876512,79.5223885 C67.8432219,79.0253808 67.004699,79.0325247 66.1112244,79.1243741 C66.4429701,79.1845866 66.7401166,79.3039909 66.9792584,79.5223885 C67.9775484,80.4337394 67.1868539,82.3799277 67.314057,83.8658481 C67.3242332,83.986273 67.3293214,84.1097595 67.3130394,84.2281432 C67.191942,85.1609257 67.566428,85.5089331 68.5280835,85.4854605 C68.9096928,85.4762755 69.2902845,85.4711728 69.6718939,85.4619878 C68.9269924,85.4089193 68.6145816,85.0609118 68.7214322,84.2281432 Z" id="Path" fill="#F5EC74"></path>
                            <path d="M61.8453409,45.9881455 C62.6604584,45.97794 63.4755759,45.9534468 64.2906935,45.9360975 C63.0064509,45.9381386 61.7222083,45.9707962 60.4379657,45.9881455 C60.4379657,57.1080552 60.4379657,68.2279649 60.4379657,79.346854 C60.9070907,79.3346074 61.3762158,79.3152169 61.8453409,79.3039909 C61.8453409,68.1993895 61.8453409,57.0937675 61.8453409,45.9881455 Z" id="Path" fill="#F5EC74"></path>
                            <path d="M66.1967049,45.9391591 C66.5243801,45.9422208 66.8530729,45.9309947 67.1807481,45.9432413 C68.3092941,45.9850839 68.7977541,45.7085149 68.7255027,44.4705881 C68.6267931,42.8070921 68.711256,41.13237 68.7173617,39.4617301 C70.3374205,39.4617301 77.2277586,39.4464219 83.1014894,39.4443398 C76.97437,39.4433602 69.0613189,39.4617301 67.3099865,39.4617301 C67.3038807,41.13237 67.2194179,42.8070921 67.3181275,44.4705881 C67.379185,45.5391037 67.020981,45.8901728 66.1967049,45.9391591 Z" id="Path" fill="#F5EC74"></path>
                            <path d="M24.2471543,51.9124366 C23.3302743,49.5876244 25.5680314,48.2945879 26.1989588,46.2820638 C26.4554003,45.4656241 26.518493,44.602239 26.5805681,43.7480389 C26.6843659,42.3141666 26.7881636,40.8792737 26.8909437,39.4454013 C26.3851842,39.756669 25.8794246,40.0679366 25.3726474,40.3792043 C23.6019801,41.4691514 21.6929158,42.734633 21.1179578,44.7369516 C20.7526304,46.0095771 21.3398,47.199538 21.1464513,48.40991 C20.9795608,49.456994 20.1888662,49.5110831 19.5029871,50.1407623 C18.8700244,50.7245167 18.4456748,51.5001345 18.0996823,52.2890194 C17.3303579,54.0433444 16.8978674,56.0711767 17.5562707,57.8714264 C17.905316,58.8256404 18.5382787,59.6543267 18.895465,60.6044585 C19.5620093,62.3761328 19.2068582,64.3468143 19.3116736,66.2368724 C19.4470177,68.6698629 20.3883207,71.0497848 21.9503749,72.9153497 C21.874053,71.0120245 21.7977312,69.1086993 21.7478676,67.2043535 C21.6725633,64.329465 21.6786691,61.1504526 23.2315646,58.6164277 C24.0517703,57.278487 25.0409017,55.8180804 25.0164787,54.1811186 C25.0073201,53.5055147 24.554477,52.6921366 24.2471543,51.9124366 Z" id="Path" fill="#FFFFFF"></path>
                            <path d="M77.4587595,6.26733017 C77.3213801,6.26733017 77.186036,6.27753567 77.0496743,6.27753567 C108.332481,6.50205661 133.626565,32.694465 133.626565,64.9815962 C133.626565,71.2957373 132.64761,77.6047756 130.698858,83.6096901 C129.757555,86.511113 128.592375,89.3390562 127.216546,92.0598417 C126.632429,93.2161246 126.09207,95.0092304 124.887202,95.1510868 C123.656894,95.2960049 121.305163,93.8100845 120.220375,93.2661315 C121.73053,94.4928323 123.239668,95.719533 124.749823,96.9452132 C124.398742,97.3228166 124.047662,97.70042 123.696581,98.0770028 C123.563272,98.2198798 123.423858,98.3678595 123.240685,98.4352158 C123.020878,98.5168598 122.774613,98.4678734 122.550736,98.398476 C121.375379,98.0310781 120.366913,97.0962546 119.136604,97.0595148 C120.050431,97.988215 121.094514,98.8893604 121.881139,99.9180745 C120.712905,101.322351 120.092154,102.997073 118.872022,104.400329 C117.434118,106.053619 115.879187,107.613019 114.256075,109.083631 C110.941671,112.086089 107.279239,114.701758 103.359348,116.848994 C95.3099352,121.257769 86.2215273,123.619321 77.0496743,123.685657 C77.186036,123.686677 77.3213801,123.695862 77.4587595,123.695862 C109.376564,123.695862 135.25273,97.4085428 135.25273,64.9805757 C135.251712,32.5546497 109.376564,6.26733017 77.4587595,6.26733017 Z" id="Path" fill="#FDDB39" opacity="0.54"></path>
                            <path d="M75.3166591,18.9384754 C51.2467777,18.9384754 31.7358558,39.5535796 31.7358558,64.9826168 C31.7358558,90.4126745 51.2477953,111.026758 75.3166591,111.026758 C99.3855228,111.026758 118.897462,90.411654 118.897462,64.9826168 C118.897462,89.1216791 100.325808,108.689699 77.4160192,108.689699 C54.5062302,108.689699 35.9345761,89.1216791 35.9345761,64.9826168 C35.9345761,40.844575 54.5062302,21.2765548 77.4160192,21.2765548" id="Path" fill="#FDDB39" opacity="0.54"></path>
                            <path d="M12.5811026,41.0262328 C14.3884044,37.4859459 19.2872506,29.9614328 22.7268227,27.982587 C22.1864639,29.1786712 19.5955909,34.901914 19.0552321,36.0969777 C21.9900623,32.2893067 25.4886566,27.5498739 28.7572678,25.119945 C28.0673181,27.0773594 25.1803163,32.4852523 24.4903666,34.4416461 C28.677893,28.9541503 35.042119,14.7654476 59.7836329,6.55512519 C47.0826567,7.64201063 28.7531973,16.1595185 18.8700244,29.8236586 C16.3056097,33.3690483 14.5552949,37.1583494 12.5811026,41.0262328 Z" id="Path" fill="#D2571C" opacity="0.72"></path>
                            <path d="M6.55778091,70.5293045 C7.58456442,71.4712718 14.6540045,71.341662 17.1085157,71.3957512 C14.0139184,72.100951 10.6008046,73.15722 7.66597441,74.3706536 C9.15170674,75.0207437 17.2347012,75.0176821 17.9734969,74.7962228 C16.3717553,75.2769017 10.1184504,77.2628915 9.14661862,78.5763389 C9.20157036,78.7192159 9.38372522,78.7539146 9.53636895,78.762079 C12.181176,78.9090381 15.5576554,78.2671124 18.206533,77.9946256 C16.1102257,79.3223608 14.0515706,80.7848085 12.1608235,82.3758455 C11.9237169,82.5758733 11.6601521,82.84836 11.7395268,83.1494222 C14.421986,83.2371895 16.8958321,81.7237143 19.5518331,81.3379465 C18.9046236,82.2646056 18.3123659,83.3729226 17.4707902,84.1260883 C16.6322673,84.8761923 15.8212202,85.6109881 15.0590192,86.4621266 C14.8748291,86.6682776 14.6875861,86.8836136 14.6021056,87.1458949 C14.5166251,87.4091967 14.5573301,87.7337315 14.7730666,87.9062044 C14.9603096,88.0572458 15.2238744,88.0582663 15.4640339,88.0460197 C16.6241263,87.9878484 17.7760776,87.7919028 18.8903769,87.4653269 C20.4666778,87.0030179 21.6176116,90.5698392 22.1640761,91.5740601 C23.1705071,93.4232962 24.0639818,95.3490735 25.1172235,97.1421793 C26.3210738,99.1904226 27.7253961,101.170289 29.1643177,103.057285 C33.5777568,108.841761 39.160447,113.560783 45.4697212,117.153118 C49.2318804,119.296272 53.2077409,121.048556 57.2843461,122.494675 C48.9896857,121.6119 40.7886468,118.316545 33.8504803,113.780201 C33.1615483,113.330139 32.4817748,112.864768 31.8121777,112.38613 C27.524924,109.323461 23.6528613,105.691324 20.2804525,101.640762 C17.3741158,98.1494619 14.8351417,94.3530169 12.6879532,90.3483799 C10.9946254,87.1918196 9.53535132,83.9036084 8.36915321,80.5153834 C7.94683888,79.2835799 6.55778091,73.5654399 6.55778091,70.5293045 Z" id="Path" fill="#D2571C" opacity="0.72"></path>
                            <path d="M38.6770751,34.9907018 C40.2208121,35.1539898 41.4511206,36.5715333 43.0029985,36.6072526 C42.2896435,35.3550381 41.5752708,34.101803 40.8619158,32.8495885 C42.2326565,33.5302952 43.6074677,34.2130429 44.8998513,35.0345855 C44.3198051,35.4336204 42.4433048,38.7228521 42.2031454,38.7300282 C41.9212633,38.7381604 40.6797609,37.1940687 40.5067647,37.0042464 C40.1923186,36.6572595 39.10346,35.035606 38.6770751,34.9907018 Z" id="Path" fill="#903C14"></path>
                        </g>
                    </g>
                    <g id="Group" transform="translate(55.770007, 45.372386)"></g>
                    <g id="Group" transform="translate(58.770007, 44.372386)">
                        <g></g>
                        <g transform="translate(36.679566, 39.204182)"></g>
                        <g transform="translate(36.679566, 39.204182)"></g>
                    </g>
                    <g id="Group" transform="translate(60.770007, 47.372386)"></g>
                </g>
            </g>
        </g>
    </g>
</svg>