<?xml version="1.0" encoding="iso-8859-1"?>
<!-- Generator: Adobe Illustrator 19.0.0, SVG Export Plug-In . SVG Version: 6.00 Build 0)  -->
<svg version="1.1" id="Capa_1" xmlns="http://www.w3.org/2000/svg" xmlns:xlink="http://www.w3.org/1999/xlink" x="0px" y="0px"
	 viewBox="0 0 512 512" style="enable-background:new 0 0 512 512;" xml:space="preserve">
<g>
	<g>
		<g>
			<rect x="117.333" y="266.667" width="21.333" height="21.333"/>
			<path d="M437.333,192.747V10.667C437.333,4.776,432.558,0,426.667,0H213.333c-5.891,0-10.667,4.776-10.667,10.667v151.68
				c-11.15,3.417-22.055,7.587-32.64,12.48l-33.6-42.667c-3.612-4.654-10.313-5.499-14.966-1.887
				c-2.594,2.013-4.117,5.11-4.127,8.394V209.6c-18.447,16.231-33.026,36.386-42.667,58.987L14.4,245.973
				c-5.518-2.062-11.664,0.74-13.725,6.259C0.224,253.437-0.004,254.714,0,256v96c0,5.891,4.776,10.667,10.667,10.667H71.04
				c12.781,34.75,36.517,64.401,67.627,84.48v54.187c0,5.891,4.776,10.667,10.667,10.667h64c5.891,0,10.667-4.776,10.667-10.667
				v-17.92c42.127,9.602,85.873,9.602,128,0v17.92c0,5.891,4.776,10.667,10.667,10.667h64c5.891,0,10.667-4.776,10.667-10.667
				v-54.187C484.907,415.147,512,368.747,512,320S484.8,225.067,437.333,192.747z M224,21.333h192v21.333H224V21.333z M224,64h192
				v203.627c-34.365-34.847-81.299-54.413-130.24-54.293c-21.044,0.008-41.932,3.616-61.76,10.667V64z M420.907,432.427
				c-3.052,1.958-4.901,5.333-4.907,8.96v49.28h-42.667v-21.333c0.22-5.887-4.374-10.838-10.261-11.057
				c-1.109-0.041-2.217,0.09-3.286,0.391c-46.958,13.126-96.616,13.126-143.573,0c-5.671-1.595-11.561,1.71-13.156,7.381
				c-0.3,1.068-0.432,2.177-0.391,3.286v21.333H160v-49.28c-0.006-3.627-1.854-7.002-4.907-8.96
				c-31.448-18.716-54.883-48.38-65.813-83.307c-1.287-4.792-5.708-8.063-10.667-7.893h-57.28V271.36l55.787,21.333
				c5.522,2.052,11.662-0.76,13.715-6.282c0.054-0.145,0.104-0.291,0.152-0.438c8.53-24.677,23.744-46.5,43.947-63.04
				c2.486-2.122,3.862-5.267,3.733-8.533v-44.907l19.947,25.387c3.17,4.048,8.776,5.259,13.333,2.88
				c9.921-4.995,20.187-9.273,30.72-12.8v48.213c-6.173,3.209-12.156,6.77-17.92,10.667l11.733,17.813
				c26.461-17.575,57.514-26.961,89.28-26.987c65.27-0.82,124.229,38.855,148.053,99.627l20.053-7.467
				c-4.31-11.38-9.855-22.254-16.533-32.427v-74.667c34.133,27.413,53.333,63.36,53.333,100.8
				C490.667,362.667,465.28,403.947,420.907,432.427z"/>
			<path d="M309.333,192h21.333v-10.667h10.667c5.891,0,10.667-4.776,10.667-10.667v-32c0-5.891-4.776-10.667-10.667-10.667h-32
				v-10.667H352V96h-21.333V85.333h-21.333V96h-10.667C292.776,96,288,100.776,288,106.667v32c0,5.891,4.776,10.667,10.667,10.667
				h32V160H288v21.333h21.333V192z"/>
			<rect x="384" y="74.667" width="21.333" height="21.333"/>
			<rect x="234.667" y="74.667" width="21.333" height="21.333"/>
			<path d="M219.733,407.467l-12.8,17.067c26.208,18.369,57.097,28.912,89.067,30.4c28.156,0.327,55.188-11.026,74.667-31.36
				l-15.04-15.04C298.667,465.067,222.933,409.813,219.733,407.467z"/>
		</g>
	</g>
</g>
<g>
</g>
<g>
</g>
<g>
</g>
<g>
</g>
<g>
</g>
<g>
</g>
<g>
</g>
<g>
</g>
<g>
</g>
<g>
</g>
<g>
</g>
<g>
</g>
<g>
</g>
<g>
</g>
<g>
</g>
</svg>
