<?xml version="1.0" encoding="UTF-8"?>
<svg width="107px" height="107px" viewBox="0 0 107 107" version="1.1" xmlns="http://www.w3.org/2000/svg" xmlns:xlink="http://www.w3.org/1999/xlink">
    <!-- Generator: sketchtool 54.1 (76490) - https://sketchapp.com -->
    <title>BC494F46-B845-4EF1-B87B-CAEEFED4E27D</title>
    <desc>Created with sketchtool.</desc>
    <g id="Design" stroke="none" stroke-width="1" fill="none" fill-rule="evenodd" opacity="0.119731">
        <g id="D---Bounty-List" transform="translate(-1033.000000, -136.000000)" fill="#FFFFFF" fill-rule="nonzero">
            <g id="hire" transform="translate(1033.000000, 136.000000)">
                <path d="M45.601689,87.4032372 C44.6288529,87.4032372 43.6560169,87.0308234 42.9149894,86.2897959 L20.114145,63.4889514 C18.6282899,62.0030964 18.6282899,59.6014075 20.114145,58.1155524 C21.6,56.6296974 24.001689,56.6296974 25.487544,58.1155524 L48.2883885,80.9163969 C49.7742435,82.4022519 49.7742435,84.8039409 48.2883885,86.2897959 C47.547361,87.0308234 46.574525,87.4032372 45.601689,87.4032372 Z" id="Path"></path>
                <path d="M19.0007037,106.403941 C18.0278677,106.403941 17.0550317,106.031527 16.3140042,105.2905 L1.11344124,90.0899367 C-0.372413793,88.6040816 -0.372413793,86.2023927 1.11344124,84.7165376 L23.9142857,61.9156932 C25.4001407,60.4298381 27.8018297,60.4298381 29.2876847,61.9156932 L44.4882477,77.1162562 C45.9741027,78.6021112 45.9741027,81.0038001 44.4882477,82.4896552 L21.6874032,105.2905 C20.9463758,106.031527 19.9735398,106.403941 19.0007037,106.403941 Z M9.17353976,87.4032372 L19.0007037,97.2304011 L36.4281492,79.8029557 L26.6009852,69.9757917 L9.17353976,87.4032372 Z" id="Shape"></path>
                <path d="M41.8015482,83.6030964 C40.824912,83.6030964 39.852076,83.2268825 39.1148487,82.4896552 L23.9142857,67.2890922 C22.5006334,65.8754398 22.4208304,63.6029557 23.7394792,62.1019001 L76.9414497,1.29964814 C77.6672766,0.471217452 78.7085151,0 79.8029557,0 L102.6038,0 C104.705278,0 106.403941,1.69866291 106.403941,3.80014075 L106.403941,26.6009852 C106.403941,27.6954258 105.932723,28.7404645 105.104293,29.4624912 L44.3020408,82.6644616 C43.5876144,83.2914849 42.6907811,83.6030964 41.8015482,83.6030964 Z M31.7995778,64.4275862 L41.9763547,74.6043631 L98.8036594,24.8757213 L98.8036594,7.60028149 L81.5282196,7.60028149 L31.7995778,64.4275862 Z" id="Shape"></path>
                <path d="M60.8022519,87.4032372 C59.8294159,87.4032372 58.8565799,87.0308234 58.1155524,86.2897959 C56.6296974,84.8039409 56.6296974,82.4022519 58.1155524,80.9163969 L80.9163969,58.1155524 C82.4022519,56.6296974 84.8039409,56.6296974 86.2897959,58.1155524 C87.775651,59.6014075 87.775651,62.0030964 86.2897959,63.4889514 L63.4889514,86.2897959 C62.747924,87.0308234 61.775088,87.4032372 60.8022519,87.4032372 Z" id="Path"></path>
                <path d="M87.4032372,106.403941 C86.4304011,106.403941 85.4575651,106.031527 84.7165376,105.2905 L61.9156932,82.4896552 C60.4298381,81.0038001 60.4298381,78.6021112 61.9156932,77.1162562 L77.1162562,61.9156932 C78.6021112,60.4298381 81.0038001,60.4298381 82.4896552,61.9156932 L105.2905,84.7165376 C106.776355,86.2023927 106.776355,88.6040816 105.2905,90.0899367 L90.0899367,105.2905 C89.3489092,106.031527 88.3760732,106.403941 87.4032372,106.403941 Z M69.9757917,79.8029557 L87.4032372,97.2304011 L97.2304011,87.4032372 L79.8029557,69.9757917 L69.9757917,79.8029557 Z" id="Shape"></path>
                <path d="M33.0384236,57.2377199 L1.29584799,29.4624912 C0.471217452,28.7404645 0,27.6954258 0,26.6009852 L0,3.80014075 C0,1.69866291 1.69866291,0 3.80014075,0 L26.6009852,0 C27.6954258,0 28.7404645,0.471217452 29.4624912,1.29964814 L56.0672766,31.7045742 L50.3442646,36.7055595 L24.8757213,7.60028149 L7.60028149,7.60028149 L7.60028149,24.8757213 L38.043209,51.514708 L33.0384236,57.2377199 Z" id="Path"></path>
                <path d="M64.6023927,83.6030964 C63.7131597,83.6030964 62.8163265,83.2914849 62.1019001,82.6644616 L50.7014778,72.6890922 L55.7024631,66.9660802 L64.4275862,74.6043631 L74.600563,64.4275862 L67.9921182,56.8767065 L73.7151302,51.8757213 L82.6644616,62.1019001 C83.9831105,63.6067558 83.9033075,65.8754398 82.4896552,67.2890922 L67.2890922,82.4896552 C66.5518649,83.2268825 65.5790289,83.6030964 64.6023927,83.6030964 Z" id="Path"></path>
                <rect id="Rectangle" x="19.0007037" y="19.0007037" width="7.60028149" height="7.60028149"></rect>
                <rect id="Rectangle" x="30.401126" y="30.401126" width="7.60028149" height="7.60028149"></rect>
                <rect id="Rectangle" x="79.8029557" y="19.0007037" width="7.60028149" height="7.60028149"></rect>
                <rect id="Rectangle" x="68.4025334" y="30.401126" width="7.60028149" height="7.60028149"></rect>
                <rect id="Rectangle" x="57.0021112" y="41.8015482" width="7.60028149" height="7.60028149"></rect>
                <rect id="Rectangle" x="45.601689" y="53.2019704" width="7.60028149" height="7.60028149"></rect>
                <polygon id="Rectangle" transform="translate(22.803328, 83.602920) rotate(45.000000) translate(-22.803328, -83.602920) " points="12.054733 79.8028156 33.5519231 79.8028156 33.5519231 87.4030242 12.054733 87.4030242"></polygon>
                <polygon id="Rectangle" transform="translate(83.602513, 83.602540) rotate(45.000000) translate(-83.602513, -83.602540) " points="79.8024086 72.8539449 87.4026172 72.8539449 87.4026172 94.3511349 79.8024086 94.3511349"></polygon>
            </g>
        </g>
    </g>
</svg>