<svg xmlns="http://www.w3.org/2000/svg" viewBox="0 0 90.717 90.717">
  <defs>
    <style>
      .cls-1 {
        fill: #043164;
      }
    </style>
  </defs>
  <g id="Group_89" data-name="Group 89" transform="translate(-912.336 -761.453)">
    <path id="Path_65" data-name="Path 65" class="cls-1" d="M969.5,786.362l-1.482-1.343-9.972,11.006-9.454-10.434V765.453H967.5v20.909h2l-1.482-1.343,1.482,1.343h2V761.453H944.595v25.68l13.454,14.849L971.5,787.133v-.771Z"/>
    <path id="Path_66" data-name="Path 66" class="cls-1" d="M978.144,818.62l1.343-1.482-11.005-9.972,10.433-9.454h20.138V816.62H978.144v2l1.343-1.482-1.343,1.482v2h24.909V793.712H977.372l-14.848,13.454,14.848,13.454h.771Z"/>
    <path id="Path_67" data-name="Path 67" class="cls-1" d="M945.886,827.261l1.482,1.343L957.34,817.6l9.455,10.434V848.17H947.886V827.261h-2l1.482,1.343-1.482-1.343h-2V852.17h26.909V826.489L957.34,811.642l-13.454,14.848v.771Z"/>
    <path id="Path_68" data-name="Path 68" class="cls-1" d="M937.245,795l-1.343,1.482,11.006,9.972-10.434,9.455H916.336V797h20.909v-2l-1.343,1.482L937.245,795v-2H912.336v26.909h25.68l14.849-13.455L938.016,793h-.771Z"/>
  </g>
</svg>
