<svg xmlns="http://www.w3.org/2000/svg" viewBox="0 0 106.663 87.464">
  <defs>
    <style>
      .cls-1 {
        fill: #043164;
      }
    </style>
  </defs>
  <g id="Group_86" data-name="Group 86" transform="translate(-349.443 -760.868)">
    <path id="Path_55" data-name="Path 55" class="cls-1" d="M349.443,819.693c.051-.564.1-1.129.154-1.692a26.948,26.948,0,0,1,3.617-11.076,27.792,27.792,0,0,1,24.241-13.851q25.211.008,50.422,0a27.288,27.288,0,0,1,17.728,6.232,26.808,26.808,0,0,1,9.8,16.472,27.205,27.205,0,0,1-6.315,23.349,26.933,26.933,0,0,1-11.17,7.811,27.556,27.556,0,0,1-4.708,1.326,1.533,1.533,0,0,0-.194.066H423.2a1.422,1.422,0,0,0-.175-.056,27.81,27.81,0,0,1-14.494-7.541.653.653,0,0,0-.4-.2q-5.463-.016-10.926,0a.532.532,0,0,0-.325.129c-.6.53-1.168,1.092-1.78,1.6a27.377,27.377,0,0,1-11.074,5.636c-.627.156-1.26.286-1.891.428h-9.76c-.448-.1-.9-.2-1.345-.3A27.837,27.837,0,0,1,349.6,823.814c-.058-.573-.1-1.147-.154-1.721Zm53.224-19.31v0q-12.573,0-25.146,0a20.832,20.832,0,0,0-8.763,1.846,20.533,20.533,0,0,0,6.682,39.134,20.5,20.5,0,0,0,18.082-7.905.52.52,0,0,1,.464-.226q8.693.009,17.385,0a.5.5,0,0,1,.443.213,20.314,20.314,0,0,0,12.819,7.707,20.537,20.537,0,0,0,23.714-23.41,19.463,19.463,0,0,0-4.981-10.509,19.915,19.915,0,0,0-15.127-6.83C419.715,800.341,411.191,800.383,402.667,800.383Z"/>
    <path id="Path_56" data-name="Path 56" class="cls-1" d="M456.106,761.882c-.05.439-.094.88-.15,1.319a18.717,18.717,0,0,1-18.612,16.4q-9.68-.008-19.359,0a11.29,11.29,0,0,0-8.551,3.623,11.111,11.111,0,0,0-3.1,7.455c0,.089-.006.178-.012.267a.416.416,0,0,1-.03.088h-7.284c.032-.6.04-1.2.1-1.786a18.246,18.246,0,0,1,3.34-8.981,18.577,18.577,0,0,1,11.909-7.653,19.159,19.159,0,0,1,3.713-.31q9.585,0,19.171,0a11.464,11.464,0,0,0,11.388-9.5c.114-.634.116-1.289.17-1.934h7.306Z"/>
    <path id="Path_57" data-name="Path 57" class="cls-1" d="M373.173,816.8v-.328q0-2.853,0-5.705a2.038,2.038,0,0,1,2.162-2.176q1.945-.007,3.892,0a2.045,2.045,0,0,1,2.157,2.16q0,2.853,0,5.705v.344h.338q2.813,0,5.625,0a2.065,2.065,0,0,1,2.25,2.256q0,1.879,0,3.759a2.073,2.073,0,0,1-2.2,2.2h-6.007v.323q0,2.826,0,5.652a2.072,2.072,0,0,1-2.223,2.235q-1.9,0-3.812,0a2.055,2.055,0,0,1-2.176-2.169q0-2.853,0-5.705v-.335H367.15a2.061,2.061,0,0,1-2.188-2.186q0-1.934,0-3.866a2.038,2.038,0,0,1,2.151-2.162c1.9-.006,3.8,0,5.7,0Z"/>
    <path id="Path_58" data-name="Path 58" class="cls-1" d="M423.957,820.918a4.1,4.1,0,1,1-4.084-4.111A4.105,4.105,0,0,1,423.957,820.918Z"/>
    <path id="Path_59" data-name="Path 59" class="cls-1" d="M436.277,816.807a4.105,4.105,0,1,1-4.105,4.1A4.084,4.084,0,0,1,436.277,816.807Z"/>
    <path id="Path_60" data-name="Path 60" class="cls-1" d="M432.168,829.119a4.1,4.1,0,1,1-4.1-4.1A4.11,4.11,0,0,1,432.168,829.119Z"/>
    <path id="Path_61" data-name="Path 61" class="cls-1" d="M432.168,812.686a4.1,4.1,0,1,1-4.131-4.09A4.108,4.108,0,0,1,432.168,812.686Z"/>
  </g>
</svg>
