<?xml version="1.0" encoding="UTF-8"?>
<svg width="38px" height="38px" viewBox="0 0 38 38" version="1.1" xmlns="http://www.w3.org/2000/svg" xmlns:xlink="http://www.w3.org/1999/xlink">
    <title>55B56B61-9768-4FEE-A386-46C61701701E</title>
    <g id="Page-1" stroke="none" stroke-width="1" fill="none" fill-rule="evenodd">
        <g id="Landing-v0-Copy-9" transform="translate(-548.000000, -2322.000000)">
            <g id="3.-Icons-/-Social-/-Instagram" transform="translate(548.000000, 2322.000000)">
                <g id="Icons-/-Instagram" transform="translate(0.000000, 0.000000)">
                    <rect id="Rectangle" x="0" y="-1.3500312e-13" width="38" height="38"></rect>
                    <path d="M19.001002,8.3125 C16.0984249,8.3125 15.7341554,8.32519154 14.5941436,8.37707099 C13.4563583,8.42917309 12.6797252,8.60930387 12.0001712,8.87359959 C11.2972381,9.146579 10.7009585,9.51173905 10.1069054,10.1060148 C9.51240703,10.7000678 9.14724698,11.2963475 8.87337694,11.9990579 C8.60841324,12.6788345 8.4280598,13.4556903 8.37684833,14.5930303 C8.32585951,15.7330421 8.3125,16.0975342 8.3125,19.0001113 C8.3125,21.9026884 8.3254142,22.2658446 8.37707099,23.4058564 C8.42939575,24.5436417 8.60952653,25.3202748 8.87359959,25.9998288 C9.14680166,26.7027619 9.51196171,27.2990415 10.1062374,27.8930946 C10.7000678,28.487593 11.2963475,28.8536437 11.9988353,29.1266231 C12.6788345,29.3909188 13.4556903,29.5710496 14.5932529,29.6231517 C15.7332648,29.6750311 16.0973116,29.6877227 18.999666,29.6877227 C21.9024658,29.6877227 22.2656219,29.6750311 23.4056338,29.6231517 C24.5434191,29.5710496 25.3209428,29.3909188 26.0009421,29.1266231 C26.7036525,28.8536437 27.2990415,28.487593 27.8928719,27.8930946 C28.4873703,27.2990415 28.8525304,26.7027619 29.1264004,26.0000514 C29.3891375,25.3202748 29.569491,24.5434191 29.622929,23.4060791 C29.6741405,22.2660672 29.6875,21.9026884 29.6875,19.0001113 C29.6875,16.0975342 29.6741405,15.7332648 29.622929,14.5932529 C29.569491,13.4554676 29.3891375,12.6788345 29.1264004,11.9992806 C28.8525304,11.2963475 28.4873703,10.7000678 27.8928719,10.1060148 C27.2983736,9.5115164 26.7038752,9.14635634 26.0002741,8.87359959 C25.3189389,8.60930387 24.5418605,8.42917309 23.4040752,8.37707099 C22.2640633,8.32519154 21.9011298,8.3125 18.9976621,8.3125 L19.001002,8.3125 Z M18.0422342,10.2384966 C18.3267918,10.2380513 18.6443029,10.2384966 19.001002,10.2384966 C21.8545942,10.2384966 22.1928126,10.2487389 23.3196876,10.2999504 C24.3617297,10.3475993 24.9272824,10.5217183 25.3040207,10.668005 C25.8027759,10.861718 26.1583617,11.0932829 26.5322054,11.4673493 C26.9062718,11.8414157 27.1378367,12.1976694 27.331995,12.6964246 C27.4782817,13.0727176 27.6526233,13.6382703 27.7000496,14.6803124 C27.7512611,15.8069648 27.762394,16.1454058 27.762394,18.9976621 C27.762394,21.8499184 27.7512611,22.1883594 27.7000496,23.3150117 C27.6524007,24.3570538 27.4782817,24.9226066 27.331995,25.2988996 C27.138282,25.7976548 26.9062718,26.1527952 26.5322054,26.5266389 C26.158139,26.9007053 25.8029986,27.1322703 25.3040207,27.3259832 C24.9277278,27.4729379 24.3617297,27.6466116 23.3196876,27.6942605 C22.1930352,27.745472 21.8545942,27.7566049 19.001002,27.7566049 C16.1471871,27.7566049 15.8089687,27.745472 14.6823164,27.6942605 C13.6402742,27.6461662 13.0747215,27.4720472 12.6977605,27.3257606 C12.1990053,27.1320476 11.8427516,26.9004827 11.4686852,26.5264163 C11.0946188,26.1523499 10.8630539,25.7969868 10.6688956,25.298009 C10.522609,24.921716 10.3482673,24.3561632 10.300841,23.3141211 C10.2496296,22.1874687 10.2393873,21.8490277 10.2393873,18.9949902 C10.2393873,16.1409526 10.2496296,15.8042929 10.300841,14.6776405 C10.34849,13.6355984 10.522609,13.0700457 10.6688956,12.6933074 C10.8626086,12.1945522 11.0946188,11.8382984 11.4686852,11.464232 C11.8427516,11.0901657 12.1990053,10.8586007 12.6977605,10.6644425 C13.0744988,10.5174878 13.6402742,10.3438141 14.6823164,10.2959425 C15.6682485,10.2514108 16.0503306,10.2380513 18.0422342,10.2358247 L18.0422342,10.2384966 Z M24.7059598,12.0130854 C23.9979056,12.0130854 23.4234465,12.5868766 23.4234465,13.2951535 C23.4234465,14.0032077 23.9979056,14.5776668 24.7059598,14.5776668 C25.4140141,14.5776668 25.9884732,14.0032077 25.9884732,13.2951535 C25.9884732,12.5870992 25.4140141,12.0126401 24.7059598,12.0126401 L24.7059598,12.0130854 Z M19.001002,13.5115776 C15.9699509,13.5115776 13.5124682,15.9690602 13.5124682,19.0001113 C13.5124682,22.0311624 15.9699509,24.4875318 19.001002,24.4875318 C22.0320531,24.4875318 24.4886451,22.0311624 24.4886451,19.0001113 C24.4886451,15.9690602 22.0318304,13.5115776 19.0007793,13.5115776 L19.001002,13.5115776 Z M19.001002,15.4375742 C20.9684131,15.4375742 22.5635391,17.0324776 22.5635391,19.0001113 C22.5635391,20.9675224 20.9684131,22.5626484 19.001002,22.5626484 C17.0333682,22.5626484 15.4384649,20.9675224 15.4384649,19.0001113 C15.4384649,17.0324776 17.0333682,15.4375742 19.001002,15.4375742 L19.001002,15.4375742 Z" id="Shape" fill="#FFFFFF" fill-rule="nonzero"></path>
                </g>
            </g>
        </g>
    </g>
</svg>
