<svg xmlns="http://www.w3.org/2000/svg" viewBox="0 0 1079.756 266.05">
  <defs>
    <style>
      .cls-1 {
        fill: #05d184;
      }

      .cls-2 {
        fill: #043164;
      }
    </style>
  </defs>
  <g id="Group_91" data-name="Group 91" transform="translate(-162.716 338.514)">
    <g id="Group_90" data-name="Group 90" transform="translate(162.716 -338.514)">
      <path id="Path_38" data-name="Path 38" class="cls-1" d="M473.535,159.025v-18.14H370.169v36.279h30.807V255.77H323.543V62.28h77.433V98.559h72.559V62.28H433.512V26h-142.5V62.28H250.984V255.77h40.023V292.05h142.5V255.77h40.023V159.025Z" transform="translate(-250.984 -26)"/>
      <path id="Path_39" data-name="Path 39" class="cls-1" d="M338.29,78.682h-36.28v36.279H374.57V78.682Z" transform="translate(-79.459 151.088)"/>
    </g>
    <g id="Group_89" data-name="Group 89" transform="translate(487.284 -219.498)">
      <g id="Group_64" data-name="Group 64" transform="translate(0 0)">
        <path id="Path_40" data-name="Path 40" class="cls-2" d="M365.051,127.913c-4.113,4.667-8.553,7.776-14.327,7.776-14.881,0-25.323-7.109-25.323-26.875V80.159c0-19.766,10.441-26.871,25.323-26.871,15.658,0,24.1,8.993,24.655,27.207H360.049c0-10.328-3.773-13.66-9.325-13.66-6.106,0-10,2.442-10,11.327v32.65c0,8.884,3.891,11.327,10,11.327,5.775,0,9.325-4.218,9.325-11.1v-4.885H349.28V93.488h26.1v41.089h-8Z" transform="translate(-325.401 -53.288)"/>
        <path id="Path_41" data-name="Path 41" class="cls-2" d="M342.179,133.723l19.88-80.181h19.653l19.326,80.181H386.378l-3.886-16.879H361.278l-4.331,16.879Zm21.877-30.43h15.217L371.828,70.87h-.218Z" transform="translate(-269.002 -52.434)"/>
        <path id="Path_42" data-name="Path 42" class="cls-2" d="M361.35,133.723V53.542h21.432l13.883,52.639h.222L410.77,53.542H432.2v80.181H419.1V70.643h-.222l-16.329,63.08H391l-16.321-63.08h-.222v63.08Z" transform="translate(-204.56 -52.434)"/>
        <path id="Path_43" data-name="Path 43" class="cls-2" d="M384.518,133.723V53.542H426.5V67.093H399.844V85.525h20.32V99.076h-20.32v21.1h27.761v13.551Z" transform="translate(-126.681 -52.434)"/>
        <path id="Path_44" data-name="Path 44" class="cls-2" d="M400.812,133.723V53.542h15.326v66.63h24.651v13.551Z" transform="translate(-71.909 -52.434)"/>
        <path id="Path_45" data-name="Path 45" class="cls-2" d="M414.432,133.723l19.88-80.181h19.657l19.326,80.181H458.631l-3.886-16.879h-21.21L429.2,133.723Zm21.881-30.43h15.213L444.086,70.87h-.222Z" transform="translate(-26.126 -52.434)"/>
        <path id="Path_46" data-name="Path 46" class="cls-2" d="M433.6,133.723V53.542h16.77L471.7,101.073h.222V53.542H485.91v80.181H471.251L447.817,81.97H447.6v51.753Z" transform="translate(38.317 -52.434)"/>
        <path id="Path_47" data-name="Path 47" class="cls-2" d="M467.54,110.811c0,8.884,3.886,11.327,9.992,11.327s10-2.442,10-11.327v-5.33h15.326v3.332c0,19.766-10.441,26.875-25.323,26.875s-25.318-7.109-25.318-26.875V80.159c0-19.766,10.437-26.871,25.318-26.871s25.323,7.1,25.323,26.871v.222H487.529v-2.22c0-8.884-3.89-11.327-10-11.327s-9.992,2.442-9.992,11.327Z" transform="translate(100.877 -53.288)"/>
        <path id="Path_48" data-name="Path 48" class="cls-2" d="M470.239,133.723V53.542h41.979V67.093H485.565V85.525H505.89V99.076H485.565v21.1H513.33v13.551Z" transform="translate(161.468 -52.434)"/>
        <path id="Path_49" data-name="Path 49" class="cls-2" d="M522.518,133.723l-13.329-32.65h-7.327v32.65h-15.33V53.542h22.213c18.436,0,27.211,8.884,27.211,23.988,0,10-3.555,17.215-12.107,20.434l15.1,35.76ZM501.863,88.412h7.886c6.773,0,10.882-3.328,10.882-11.1s-4.109-11.1-10.882-11.1h-7.886Z" transform="translate(216.236 -52.434)"/>
      </g>
    </g>
  </g>
</svg>
