<?xml version="1.0" encoding="UTF-8"?>
<svg width="1000px" height="674px" viewBox="0 0 1000 674" version="1.1" xmlns="http://www.w3.org/2000/svg" xmlns:xlink="http://www.w3.org/1999/xlink">
    <!-- Generator: Sketch 64 (93537) - https://sketch.com -->
    <title>Logo / Logomark / Green</title>
    <desc>Created with Sketch.</desc>
    <g id="Logo-/-Logomark-/-Green" stroke="none" stroke-width="1" fill="none" fill-rule="evenodd">
        <g id="logomark-green" transform="translate(129.000000, 33.000000)" fill="#05D184">
            <path d="M269.192592,342.75519 L339.057552,342.75519 L339.057552,520.322463 L163.726984,520.322463 L163.726984,82.5020303 L338.812173,82.5020303 L338.812173,164.62866 L502.940645,164.62866 L502.940645,82.5020303 L412.436597,82.5020303 L412.436597,0 L90.0527066,0 L90.0527066,82.0174404 L0,82.0174404 L0,520.322463 L90.5982721,520.322463 L90.5982721,603.11831 L413.073381,603.11831 L413.073381,520.322463 L502.940645,520.322463 L502.940645,260.573741 L269.192592,260.573741 L269.192592,342.75519 Z M502.940645,602.995752 L667,602.995752 L667,520.814303 L502.940645,520.814303 L502.940645,602.995752 Z" id="Fill-166-Copy"></path>
        </g>
    </g>
</svg>