<?xml version="1.0" encoding="UTF-8"?>
<svg width="320px" height="320px" viewBox="0 0 320 320" version="1.1" xmlns="http://www.w3.org/2000/svg" xmlns:xlink="http://www.w3.org/1999/xlink">
    <!-- Generator: Sketch 51.2 (57519) - http://www.bohemiancoding.com/sketch -->
    <title>iPhone SE</title>
    <desc>Created with Sketch.</desc>
    <defs>
        <polygon id="path-1" points="0 0.583182463 318.691556 0.583182463 318.691556 319.274159 0 319.274159"></polygon>
    </defs>
    <g id="iPhone-SE" stroke="none" stroke-width="1" fill="none" fill-rule="evenodd">
        <g id="Group-6">
            <rect id="Rectangle-5" fill="#F2F2F2" fill-rule="nonzero" x="5.07936508" y="5.80498866" width="309.115646" height="307.664399" rx="57"></rect>
            <path d="M159.345923,162.663546 C133.69658,162.663546 112.906014,141.87298 112.906014,116.223637 C112.906014,90.5742948 133.69658,69.7837279 159.345923,69.7837279 C184.995265,69.7837279 205.785832,90.5742948 205.785832,116.223637 C205.757533,141.858467 184.980753,162.635247 159.345923,162.663546 M159.345923,58.1737506 C127.284971,58.1737506 101.296036,84.1626848 101.296036,116.223637 C101.296036,148.28459 127.284971,174.273524 159.345923,174.273524 C191.406875,174.273524 217.39581,148.28459 217.39581,116.223637 C217.361705,84.1771973 191.392363,58.2078549 159.345923,58.1737506" id="Fill-1" fill="#666666"></path>
            <g id="Group-5" transform="translate(0.000000, 0.142948)">
                <mask id="mask-2" fill="white">
                    <use xlink:href="#path-1"></use>
                </mask>
                <g id="Clip-4"></g>
                <path d="M308.532825,273.057016 C308.5321,278.019556 307.52058,282.736109 305.691283,287.044136 C302.948426,293.503637 298.350875,299.037243 292.585796,302.938921 C287.641397,306.28332 281.862531,308.426086 275.627247,308.972481 L275.627247,258.739011 C274.279764,218.223819 241.04185,185.787719 200.20956,185.740553 L118.939719,185.740553 C77.2816689,185.788444 43.5227574,219.547356 43.4748662,261.205406 L43.4748662,299.385542 C43.4589025,299.369578 43.4429388,299.352889 43.4277007,299.3362 L43.4277007,308.996426 C39.4853878,308.690939 35.7223039,307.756336 32.2298776,306.273887 C25.7703764,303.531029 20.2374966,298.933478 16.3358186,293.169125 C12.433415,287.400417 10.1607619,280.49756 10.158585,273.057016 L10.158585,46.7996009 C10.1593107,41.8370612 11.1708299,37.1212336 13.000127,32.8132063 C15.7429841,26.3537052 20.3405351,20.8208254 26.1056145,16.9184218 C31.8735964,13.0160181 38.7771791,10.7433651 46.2169977,10.7419138 L272.474413,10.7419138 C277.436952,10.7426395 282.153506,11.7541587 286.461533,13.5834558 C292.921034,16.3255873 298.453914,20.9231383 302.355592,26.6882177 C306.257995,32.4569252 308.531374,39.3597823 308.532825,46.7996009 L308.532825,273.057016 Z M264.064435,309.115429 L55.0848435,309.115429 L55.0848435,261.205406 C55.1269297,225.956063 83.6903764,197.393342 118.939719,197.350531 L200.20956,197.350531 C235.458902,197.393342 264.021624,225.956063 264.064435,261.205406 L264.064435,309.115429 Z M298.281941,8.5069932 C290.913234,3.51470295 282.003302,0.581006803 272.474413,0.583183673 L46.2169977,0.583183673 C39.8670658,0.58245805 33.7841633,1.88495238 28.2578141,4.23307029 C19.9653878,7.75742404 12.9166803,13.6211882 7.9236644,20.9927982 C2.93137415,28.3615057 -0.00159637188,37.270712 -0.000145124717,46.7996009 L-0.000145124717,273.057016 C-0.000870748299,279.406948 1.30162358,285.48985 3.65046712,291.0162 C7.17482086,299.308626 13.0378594,306.358059 20.410195,311.350349 C27.7781769,316.342639 36.6881088,319.27561 46.2169977,319.274159 L272.474413,319.274159 C278.82507,319.274884 284.907247,317.97239 290.433596,315.624272 C298.726023,312.099918 305.775456,306.236154 310.767746,298.863819 C315.760036,291.495837 318.693007,282.58663 318.691556,273.057016 L318.691556,46.7996009 C318.692281,40.4496689 317.389787,34.3674921 315.040943,28.8404172 C311.51659,20.5487166 305.653551,13.4992834 298.281941,8.5069932 Z" id="Fill-3" fill="#666666" mask="url(#mask-2)"></path>
            </g>
        </g>
    </g>
</svg>