<?xml version="1.0" encoding="UTF-8"?>
<svg width="22px" height="22px" viewBox="0 0 22 22" version="1.1" xmlns="http://www.w3.org/2000/svg" xmlns:xlink="http://www.w3.org/1999/xlink">
    <!-- Generator: sketchtool 54.1 (76490) - https://sketchapp.com -->
    <title>612A9447-090D-428D-8244-4DDBA3F972C5</title>
    <desc>Created with sketchtool.</desc>
    <g id="Design" stroke="none" stroke-width="1" fill="none" fill-rule="evenodd" stroke-linecap="round" stroke-linejoin="round">
        <g id="D---Timer-(1)" transform="translate(-1145.000000, -193.000000)" stroke="#00FBB7" stroke-width="2">
            <g id="Group" transform="translate(431.000000, 178.000000)">
                <g id="icon-/-pause" transform="translate(715.000000, 16.000000)">
                    <g id="icon-/-stop">
                        <path d="M10,20 C15.5228475,20 20,15.5228475 20,10 C20,4.4771525 15.5228475,0 10,0 C4.4771525,0 0,4.4771525 0,10 C0,15.5228475 4.4771525,20 10,20 Z M8,7 L12,7 C12.5522847,7 13,7.44771525 13,8 L13,12 C13,12.5522847 12.5522847,13 12,13 L8,13 C7.44771525,13 7,12.5522847 7,12 L7,8 C7,7.44771525 7.44771525,7 8,7 Z" id="Oval-3"></path>
                    </g>
                </g>
            </g>
        </g>
    </g>
</svg>