<svg width="16" height="18" viewBox="0 0 16 18" fill="none" xmlns="http://www.w3.org/2000/svg">
<path d="M12.9382 1.35001C12.1506 0.449791 10.688 0 8.66311 0H3.0377C2.70001 0 2.36274 0.337765 2.25015 0.674757L0 15.4128C0 15.7508 0.225106 15.9753 0.449721 15.9753H3.93736L4.83743 10.4628V10.6879C4.95016 10.35 5.28729 10.013 5.62513 10.013H7.3129C10.5754 10.013 13.0499 8.66297 13.8376 4.94988V4.61239C13.7252 4.61239 13.7252 4.61239 13.8376 4.61239C13.9503 3.15022 13.7252 2.25001 12.9382 1.35001Z" fill="#263B80"/>
<path d="M13.8377 4.94988V4.61239C13.8384 4.60123 13.8389 4.59085 13.8396 4.57976C13.6396 4.4407 13.4522 4.3437 13.3089 4.28081C12.6258 3.99856 11.9272 3.94536 11.6048 3.93729L11.6031 3.93588H9.96243C9.96243 3.93588 9.96384 3.93672 9.96454 3.93722H6.52302C5.9379 3.95848 5.77659 4.43025 5.73434 4.63549L4.83749 10.4629V10.6012V10.6879C4.95022 10.35 5.28736 10.013 5.62519 10.013H7.31296C10.5754 10.013 13.05 8.6629 13.8377 4.94988Z" fill="#232C65"/>
<path d="M14.9429 6.00683C14.6887 5.3054 14.2388 4.85722 13.8397 4.57968C13.839 4.59077 13.8385 4.60116 13.8378 4.61232V4.94981C13.0501 8.66283 10.5755 10.0129 7.31305 10.0129H5.62528C5.28744 10.0129 4.95031 10.3499 4.83758 10.6878V10.601C4.82474 10.6298 4.81287 10.6588 4.80319 10.6878L4.1676 14.5657L3.93744 15.9753H3.9366L3.67836 17.5506C3.67836 17.7755 3.79102 18 4.12815 18H6.93254C7.49674 18 7.67398 17.5611 7.72844 17.3246L7.75224 17.1777V17.1776L8.29075 13.8376C8.29075 13.8376 8.36095 13.0501 9.1292 13.0501H9.41621C12.2288 13.0501 14.4789 11.9253 15.0413 8.55031C15.1977 7.60939 15.19 6.72405 14.9429 6.00683Z" fill="#139AD6"/>
</svg>
