<?xml version="1.0" encoding="UTF-8"?>
<svg width="25px" height="25px" viewBox="0 0 25 25" version="1.1" xmlns="http://www.w3.org/2000/svg" xmlns:xlink="http://www.w3.org/1999/xlink">
    <!-- Generator: Sketch 56.3 (81716) - https://sketch.com -->
    <title>shield copy 2</title>
    <desc>Created with Sketch.</desc>
    <g id="Page-1" stroke="none" stroke-width="1" fill="none" fill-rule="evenodd">
        <g id="shield-copy-2" fill-rule="nonzero">
            <path d="M22.8426191,2.86865234 L22.8426191,14.7007813 C22.8426191,14.7740234 22.8426191,14.8472168 22.8426191,14.920459 C22.7222656,19.8630859 19.1058594,24.0217773 14.227832,24.8272461 C13.0876953,25.0223633 11.9221191,25.0223633 10.7819824,24.8272461 C5.90395508,24.0218262 2.28754883,19.8631348 2.16723936,14.9205078 C2.16723936,14.8472656 2.16723936,14.7740723 2.16723936,14.7008301 L2.16723936,2.86865234 C2.15878906,2.39311523 2.53740234,2.00029297 3.01289062,1.99169922 C3.07319336,1.99042969 3.13349609,1.99599609 3.1925293,2.00722656 C6.90541992,2.64902344 9.34335937,1.88662109 10.7819824,1.05102539 C11.1950684,0.815429687 11.5818359,0.53671875 11.9363281,0.219726562 C12.2615234,-0.0658691406 12.7482422,-0.0658691406 13.0734375,0.219726562 C13.4279297,0.536767578 13.8147461,0.815429687 14.2277832,1.05102539 C15.6664062,1.88662109 18.1043457,2.64902344 21.8172363,2.00292969 C22.2841309,1.9125 22.7364258,2.21787109 22.8268555,2.68476562 C22.8385254,2.74545898 22.8437012,2.80708008 22.8426191,2.86865234 Z" id="Path" fill="#E35036"></path>
            <path d="M22.8424316,6.89169922 L22.8424316,10.3375488 L14.6585449,10.3375488 C14.4208008,10.3375488 14.227832,10.5305176 14.227832,10.7682617 L14.227832,24.8358887 C13.0876953,25.0310059 11.9221191,25.0310059 10.7819824,24.8358887 L10.7819824,10.7682617 C10.7819824,10.5305176 10.5890137,10.3375488 10.3512695,10.3375488 L2.16738281,10.3375488 L2.16738281,6.89169922 L10.3512695,6.89169922 C10.5890137,6.89169922 10.7819824,6.69873047 10.7819824,6.46098633 L10.7819824,1.05097656 C11.1950684,0.815380859 11.5818359,0.536669922 11.9363281,0.219677734 C12.2615234,-0.0659179688 12.7482422,-0.0659179688 13.0734375,0.219677734 C13.4279297,0.53671875 13.8147461,0.815380859 14.2277832,1.05097656 L14.2277832,6.4609375 C14.2277832,6.69868164 14.420752,6.89165039 14.6584961,6.89165039 L22.8424316,6.89165039 L22.8424316,6.89169922 Z" id="Path" fill-opacity="0.625546329" fill="#FFFFFF" opacity="0.600000024"></path>
            <polygon id="Path" fill="#CBB292" points="7.33613281 19.4689941 5.87163086 20.9248535 5.25571289 21.5321777 4.57084961 22.2084473 3.95488281 22.8157715 3.24848633 23.5178711 1.4222168 21.7087891 2.13720703 20.9980957 2.75317383 20.3907715 3.43803711 19.714502 4.0496582 19.1028809 5.50551758 17.6599121"></polygon>
            <g id="Group" transform="translate(2.099609, 19.091797)" fill="#7F6E5D">
                <polygon id="Path" points="3.77202148 1.83305664 3.15610352 2.44038086 1.33842773 0.622705078 1.95004883 0.0110839844"></polygon>
                <polygon id="Path" points="2.47124023 3.11665039 1.85527344 3.72397461 0.0375976563 1.90629883 0.653564453 1.29897461"></polygon>
            </g>
            <path d="M24.565332,0 L20.1029785,0 C19.8010254,0.00087890625 19.5197754,0.152929687 19.3535156,0.404882813 L17.9277832,2.18378906 L14.227832,6.80981445 L12.5048828,8.96347656 L10.8293457,11.0525391 L10.7819824,11.1128418 L9.33041992,12.9219238 L6.31533203,16.7123535 L8.39575195,18.7712402 L10.7819824,16.8501953 L12.5048828,15.4675293 L14.0684082,14.2141113 L14.2277832,14.0849121 L15.6793457,12.9219238 L18.9098145,10.3375488 L22.8423828,7.18891602 L24.5652832,5.7890625 C24.8258789,5.6296875 24.9882812,5.34926758 24.9959961,5.04389648 L24.9959961,0.430712891 C24.9959961,0.19296875 24.8030762,0 24.565332,0 Z" id="Path" fill="#FFFFFF"></path>
            <path d="M6.90541992,18.5213867 C6.66894531,18.5472168 6.45615234,18.3766602 6.43032227,18.1401855 C6.4144043,17.9945801 6.47338867,17.8511719 6.58666992,17.7589844 L22.5021484,1.85644531 C22.6783203,1.68115234 22.9634766,1.68115234 23.1396484,1.85644531 C23.314502,2.0175293 23.325293,2.29018555 23.164209,2.46508789 C23.1564453,2.47368164 23.148291,2.48188477 23.1396484,2.48964844 L7.24570312,18.3878418 C7.1578125,18.4804688 7.03291016,18.5295898 6.90541992,18.5213867 Z" id="Path" fill-opacity="0.300453453" fill="#5E5F62"></path>
            <g id="Group" transform="translate(0.000000, 15.917969)" fill="#B19046">
                <path d="M8.97290039,4.42973633 L8.74462891,4.65371094 C8.46982422,4.92421875 8.02875977,4.92421875 7.75395508,4.65371094 L4.48041992,1.41459961 C4.20908203,1.1440918 4.20864258,0.705175781 4.47915039,0.433837891 C4.47958984,0.433398437 4.4800293,0.432958984 4.48041992,0.432568359 L4.70869141,0.20859375 C4.98349609,-0.0619140625 5.42456055,-0.0619140625 5.69936523,0.20859375 L6.2980957,0.798681641 L8.37851562,2.85756836 L8.97290039,3.46489258 C9.23779297,3.73193359 9.23779297,4.16264648 8.97290039,4.42973633 Z" id="Path"></path>
                <path d="M0.216162109,6.84179688 L2.27075195,8.87915039 C2.54555664,9.1496582 2.98662109,9.1496582 3.26142578,8.87915039 L3.49404297,8.63364258 C3.76538086,8.36660156 3.7684082,7.93027344 3.50136719,7.65888672 C3.4987793,7.65629883 3.49619141,7.65371094 3.49404297,7.6515625 L1.43515625,5.61850586 C1.16035156,5.34799805 0.719287109,5.34799805 0.444482422,5.61850586 L0.216210938,5.84677734 C-0.05859375,6.11040039 -0.0676269531,6.54628906 0.195556641,6.82109375 C0.202392578,6.82802734 0.209277344,6.83491211 0.216162109,6.84179688 Z" id="Path"></path>
            </g>
        </g>
    </g>
</svg>