<?xml version="1.0" encoding="UTF-8"?>
<svg width="177px" height="170px" viewBox="0 0 177 170" version="1.1" xmlns="http://www.w3.org/2000/svg" xmlns:xlink="http://www.w3.org/1999/xlink">
    <!-- Generator: sketchtool 64 (101010) - https://sketch.com -->
    <title>92AE0B19-A539-40B6-8B07-9C7629790368</title>
    <desc>Created with sketchtool.</desc>
    <defs>
        <linearGradient x1="41.912656%" y1="34.9077006%" x2="96.9083816%" y2="92.3139849%" id="linearGradient-1">
            <stop stop-color="#FFFFFF" offset="0%"></stop>
            <stop stop-color="#F9DAA7" offset="24.25%"></stop>
            <stop stop-color="#F4BD62" offset="44.95%"></stop>
            <stop stop-color="#F1AB38" offset="59.82%"></stop>
            <stop stop-color="#F0A428" offset="67.4%"></stop>
        </linearGradient>
        <linearGradient x1="17.7147331%" y1="25.8415562%" x2="49.5164923%" y2="52.807185%" id="linearGradient-2">
            <stop stop-color="#F1E62D" offset="0%"></stop>
            <stop stop-color="#FCEA10" stop-opacity="0" offset="77.43%"></stop>
        </linearGradient>
        <linearGradient x1="0.00579338216%" y1="50.0029056%" x2="100.001286%" y2="50.0029056%" id="linearGradient-3">
            <stop stop-color="#FDDB39" offset="0%"></stop>
            <stop stop-color="#FCD438" offset="20.07%"></stop>
            <stop stop-color="#FAC036" offset="55.74%"></stop>
            <stop stop-color="#F9B634" offset="69.81%"></stop>
        </linearGradient>
    </defs>
    <g id="Wireframes" stroke="none" stroke-width="1" fill="none" fill-rule="evenodd">
        <g id="Coins" transform="translate(-419.000000, -363.000000)">
            <g id="3.-Icons-/-Coins-/-Floor-coin-Copy-3" transform="translate(422.000000, 365.000000)">
                <g id="3.-Icons-/-Coins-/-Ticket" transform="translate(0.000000, -0.000000)">
                    <path d="M107.243593,4.33301269 C107.907208,4.46285779 143.725858,11.0549936 155.538215,12.4699723 C155.680892,12.4866191 155.820252,12.4966071 155.959611,12.4966071 C158.046682,12.4966071 159.350686,10.625506 159.350686,10.625506 C159.350686,10.625506 160.077346,12.1004131 162.668764,15.000287 C161.653432,16.2754325 161.003089,17.7636571 160.850458,19.3817268 C160.69119,21.0464075 161.079405,22.6445011 161.885698,24.0661384 C162.519451,25.1781452 164.224943,25.4378354 165.684897,25.4378354 C166.968993,25.4378354 168.063959,25.2347443 168.063959,25.2347443 C168.063959,25.2347443 169.54714,27.4620872 171.382037,29.6095254 C170.572426,32.1797925 169.699771,34.7367421 168.80389,37.2870331 C164.812243,48.6334971 160.083982,59.7602233 154.539474,70.6405768 C149.489359,80.5487567 143.822082,90.2039051 137.458009,99.5693991 C129.663844,111.03905 121.003661,122.022613 111.212014,132.370269 C106.636384,137.204502 102.548513,142.581421 97.15,146.906261 C89.773913,152.812549 82.394508,158.718836 74.9786041,164.59183 C74.4477117,163.829406 73.7907323,163.110264 72.9977117,162.457709 C70.6020595,160.483398 67.4764302,159.491248 64.3839817,159.491248 C61.4010297,159.491248 58.4446224,160.413481 56.1982838,162.264606 C54.8245995,163.396589 54.8146453,163.553069 54.1410755,164.578512 C53.3712815,164.139037 51.5297483,162.790645 50.026659,161.808483 C49.8375286,161.508841 50.7533181,158.256055 48.6695652,156.721219 C38.3768879,149.15358 7.50549199,131.914146 7.50549199,131.914146 C7.52208238,131.727702 7.53203661,131.541258 7.53203661,131.354814 C7.53203661,129.057554 6.27448513,127.019985 4.33340961,125.738181 C4.8576659,125.418562 5.39851259,125.112261 5.93604119,124.812618 C16.6467963,118.85639 26.5213959,112.047846 35.6494279,104.480207 C45.7363844,96.1201806 54.6387872,86.9378015 62.4462243,77.0129748 C67.9243707,70.0512798 72.8085812,62.7966011 77.0291762,55.2522678 C81.671167,46.9554989 85.7026316,38.4356628 88.6988558,29.6128547 C90.3943936,24.6221418 91.7979405,19.5615123 93.3574371,14.5375058 C93.782151,13.1691382 94.0741419,11.7708063 94.505492,10.4057681 C95.7530892,10.9983945 97.1997712,11.3379893 98.7426773,11.3379893 C103.434439,11.3379893 107.240275,8.20173078 107.243593,4.33301269 M104.927574,1.51304348 L104.924256,4.32968333 C104.920938,6.90660915 102.147025,9.00410691 98.7426773,9.00410691 C97.5979405,9.00410691 96.4764302,8.75773416 95.5009153,8.2949529 L93.0953089,7.1529819 L92.2923341,9.69661411 C92.0534325,10.4523792 91.860984,11.1981562 91.6718535,11.9206276 C91.4993135,12.5898293 91.3334096,13.2190786 91.1409611,13.8383398 C90.5934783,15.6029014 90.0592677,17.3907686 89.5416476,19.1220366 C88.5827231,22.3282117 87.5906178,25.6442558 86.5022883,28.8570897 C83.7648741,36.9141446 80.005492,45.1709611 75.0051487,54.1069675 C70.9172769,61.4115867 66.0795195,68.6296425 60.6245995,75.5647025 C52.8437071,85.4562356 43.9413043,94.5820155 34.1728833,102.679023 C25.0216247,110.266638 15.1437071,117.025242 4.81453089,122.76839 C4.30686499,123.051386 3.71292906,123.384322 3.12894737,123.740564 L0,125.654947 L3.06258581,127.675869 C4.42963387,128.578126 5.21601831,129.916529 5.21601831,131.348155 C5.21601831,131.451365 5.20938215,131.567893 5.19942792,131.701067 L5.06338673,133.209268 L6.38398169,133.945057 C6.69256293,134.118184 37.2487414,151.197808 47.3058352,158.59565 C47.8599542,159.001832 47.7670481,160.293624 47.7139588,160.986131 C47.6675057,161.61871 47.6144165,162.337852 48.0789474,163.063653 L48.3477117,163.486482 L48.7657895,163.759489 C49.4061785,164.175659 50.109611,164.665076 50.7898169,165.134516 C51.7354691,165.7904 52.4820366,166.306451 52.9996568,166.599435 L54.8909611,167.678148 L56.0887872,165.856987 C56.1750572,165.723813 56.251373,165.607285 56.3210526,165.497416 C56.7159039,164.888143 56.7557208,164.821556 57.6814645,164.062461 C59.4367277,162.617518 61.8191076,161.818472 64.3939359,161.818472 C67.0948513,161.818472 69.6298627,162.684106 71.5344394,164.255564 C72.1416476,164.754968 72.6625858,165.31763 73.0872998,165.923574 L74.4974828,167.947826 L76.4286041,166.419649 C83.5823799,160.756405 90.7062929,155.056538 98.6099542,148.724093 C102.538558,145.577846 105.777002,141.922207 108.912586,138.386425 C110.213272,136.918177 111.557094,135.399988 112.907551,133.971692 C122.440389,123.897044 131.10389,113.06996 139.38913,100.881168 C145.653661,91.6654948 151.450343,81.8472077 156.619908,71.7026431 C162.091419,60.9621229 166.932494,49.645623 171.007094,38.0627743 C172.072197,35.0330553 172.901716,32.5693278 173.611785,30.3086913 L174,29.0734982 L173.160526,28.0913365 C171.44508,26.0837315 170.024943,23.9595989 170.01167,23.9396227 L169.162243,22.6644772 L167.659153,22.9408142 C167.655835,22.9408142 166.740046,23.103953 165.701487,23.103953 C164.596568,23.103953 164.045767,22.9208381 163.873227,22.8242866 C163.305835,21.7955139 163.07357,20.710142 163.179748,19.6014646 C163.285927,18.4794698 163.730549,17.4207328 164.500343,16.4518886 L165.728032,14.9103943 L164.417391,13.4421458 C162.147826,10.901843 161.447712,9.57675709 161.441076,9.56343964 L161.454348,9.58674518 L157.217162,11.49114 C156.85881,10.5955417 157.137529,9.72990772 157.485927,9.26046775 C157.479291,9.27045583 156.792449,10.1627247 155.979519,10.1627247 C155.933066,10.1627247 155.883295,10.1593954 155.833524,10.1527366 C143.938215,8.7277699 108.023341,2.10234047 107.704805,2.04241196 L104.927574,1.51304348 L104.927574,1.51304348 Z" id="Shape" fill="#903C14" fill-rule="nonzero"></path>
                    <path d="M168.409589,25.4541102 C168.409589,25.4541102 163.418358,26.3770749 162.226174,24.2845773 C161.415888,22.8618122 161.03067,21.262451 161.19007,19.5964498 C161.342829,17.9770965 161.993715,16.4876914 163.009894,15.2115345 C160.416313,12.3093603 159.689048,10.8332832 159.689048,10.8332832 C159.689048,10.8332832 158.20463,12.9591008 155.873396,12.6825446 C144.051185,11.2664435 108.205975,4.66907853 107.538485,4.53913043 C107.531843,8.41091735 103.722833,11.5463317 99.0271569,11.5463317 C97.4829636,11.5463317 96.0350748,11.2064675 94.7864368,10.613371 C94.3547269,11.982824 94.0624924,13.3789331 93.6374242,14.7483861 C92.0766266,19.7763779 90.6719088,24.8410217 88.9749566,29.8356935 C85.9762328,38.6688321 81.9414051,47.1920945 77.2955418,55.4954448 C73.0714259,63.0457625 68.1831408,70.3061959 62.7004244,77.2734132 C54.8864741,87.2061126 45.9766447,96.3957756 35.8812734,104.762434 C26.7456265,112.336076 16.8627893,119.150021 6.14309897,125.110973 C5.60512195,125.410853 5.06382408,125.714066 4.53913043,126.03727 C6.48182525,127.320091 7.74042582,129.362608 7.74042582,131.658358 C7.74042582,131.848282 7.73046328,132.034874 7.71385905,132.218135 C7.71385905,132.218135 38.6143295,149.471244 48.9122725,157.044885 C50.9977636,158.577606 50.0778894,161.836305 50.2704984,162.136185 C51.7748416,163.119126 53.6145902,164.465255 54.3883472,164.908411 C55.062479,163.882154 55.0724415,163.72555 56.4472717,162.592669 C61.0267181,158.817511 68.5550756,158.904143 73.264035,162.785926 C74.0577171,163.438998 74.7152446,164.158711 75.2465799,164.921739 C82.6686704,159.044087 90.0542315,153.133114 97.4364718,147.222142 C102.836167,142.897203 106.93077,137.516019 111.510216,132.674619 C121.310032,122.318755 129.97744,111.326479 137.778107,99.8477302 C144.147489,90.4781391 149.819494,80.8119998 154.873821,70.8959604 C160.422955,60.0069762 165.15516,48.8714238 169.150138,37.5159593 C170.046766,34.9636453 170.923469,32.4046674 171.730435,29.8323615 C169.890686,27.6832199 168.409589,25.4541102 168.409589,25.4541102 Z" id="Path" fill="#DB5A14" fill-rule="nonzero"></path>
                    <path d="M158.133065,15.0568851 C158.286224,13.438295 158.938814,11.9495917 159.957652,10.674036 C159.161893,10.5241666 158.259588,10.3543145 157.270715,10.1644799 C157.264056,10.1977842 157.257397,10.2344189 157.247408,10.2677233 C156.944421,11.2968269 155.752446,11.9429308 154.580449,11.7098005 C153.408451,11.4766702 152.705919,10.4542275 153.005577,9.42845429 C153.012236,9.40514126 153.022225,9.38182823 153.028884,9.3585152 C152.519465,9.26193266 151.996727,9.16201969 151.460672,9.05877628 C151.454013,9.07875888 151.454013,9.09874147 151.447354,9.11872407 C151.144366,10.1478277 149.952391,10.7939316 148.780394,10.5608013 C147.608397,10.327671 146.905864,9.30855872 147.205523,8.27945509 C147.208852,8.26946379 147.212182,8.25947249 147.215511,8.24615076 C146.676126,8.14290736 146.126752,8.03966395 145.574049,7.93309011 C145.57072,7.93975098 145.57072,7.94974228 145.56739,7.95640314 C145.264402,8.98550677 144.072428,9.63161067 142.90043,9.39848039 C141.731763,9.16535012 141.025901,8.14623779 141.325559,7.11713416 C140.819469,7.02055162 140.31005,6.92063865 139.797301,6.8240561 C139.490984,7.84649887 138.302339,8.4859419 137.133671,8.25614206 C135.974992,8.02634222 135.275789,7.02721248 135.552141,6.00810015 C135.05271,5.91151761 134.553279,5.81493507 134.050519,5.71835253 C134.04386,5.74832642 134.037201,5.77830031 134.030542,5.81160464 C133.727554,6.84070827 132.535579,7.48681216 131.363582,7.25368189 C130.191585,7.02055162 129.489052,6.00143929 129.788711,4.97233566 C129.79537,4.94902263 129.805358,4.92904004 129.812017,4.90572701 C129.332564,4.8124749 128.853111,4.72255322 128.373657,4.62930112 C128.366998,4.64928371 128.363669,4.67259674 128.360339,4.69257933 C128.057351,5.72168296 126.865377,6.36778686 125.693379,6.13465659 C124.521382,5.90152631 123.81885,4.88241398 124.118508,3.85331035 C124.121837,3.83998862 124.128497,3.82666689 124.131826,3.81334516 C123.662361,3.72342349 123.196226,3.63350181 122.73342,3.54358013 C122.730091,3.55357143 122.730091,3.56356273 122.726761,3.57355403 C122.423773,4.60265766 121.231799,5.24876155 120.059801,5.01563128 C118.887804,4.78250101 118.185272,3.76338868 118.48493,2.73428505 C118.48493,2.73095461 118.48493,2.73095461 118.48826,2.72762418 C118.018795,2.63770251 117.555989,2.54778083 117.096513,2.46118959 C116.790195,3.48696278 115.60155,4.12640581 114.432883,3.89660597 C113.274204,3.66680614 112.571671,2.66101553 112.851352,1.6419032 C112.345262,1.54532066 111.852491,1.44873812 111.373037,1.35548601 C111.053402,2.36127661 109.874745,2.98739791 108.719396,2.76092851 C107.570705,2.5344591 106.874832,1.54865109 107.131206,0.539530058 C106.075743,0.336373678 105.136813,0.156530325 104.337724,0 C104.331065,3.86996252 100.512085,7.00389946 95.804119,7.00389946 C94.2558839,7.00389946 92.8042055,6.66419535 91.5522993,6.07137837 C91.1194594,7.44018611 90.8264601,8.83563731 90.4002792,10.204445 C88.8353965,15.2300676 87.427002,20.292325 85.7256082,25.2846432 C82.7190357,34.1136197 78.6736473,42.6328659 74.015624,50.9323036 C69.780452,58.4790635 64.8793724,65.7360758 59.3823056,72.7000101 C51.5479033,82.6280293 42.6147536,91.813362 32.4929588,100.176078 C23.3334005,107.746151 13.4246962,114.556885 2.67694834,120.515029 C2.13756323,120.814768 1.59484858,121.117837 1.06878162,121.440889 C3.01656119,122.723106 4.278456,124.764661 4.278456,127.059329 C4.278456,129.753649 2.54376683,132.091612 0,133.270585 C0.123192896,133.347185 0.249715331,133.427116 0.38289684,133.507046 C0.625953095,133.650255 1.32515602,134.053237 2.38061949,134.659376 C3.17637901,133.780141 4.62139839,133.54035 5.65022555,134.129837 C6.67905271,134.719323 6.90546128,135.914949 6.18295159,136.830818 C6.63243918,137.087261 7.101904,137.353695 7.58801651,137.633452 C8.38377603,136.760878 9.82546588,136.521087 10.854293,137.110574 C11.8797907,137.69673 12.1095288,138.885694 11.3936782,139.801563 C11.8764611,140.077989 12.3692327,140.357745 12.8719929,140.644163 C13.671082,139.77825 15.1061127,139.54512 16.1282808,140.131276 C17.1471194,140.714102 17.380187,141.896405 16.6776545,142.808944 C17.1338012,143.068717 17.5932774,143.331822 18.0594127,143.594926 C18.8585018,142.739005 20.2868735,142.509205 21.305712,143.092031 C22.321221,143.674856 22.5542887,144.847168 21.8650743,145.759707 C22.3145619,146.01615 22.7640495,146.269263 23.2135371,146.525706 C23.2201962,146.515715 23.2268553,146.509054 23.2335144,146.499063 C24.0159557,145.576533 25.5042591,145.313429 26.556393,145.916237 C27.608527,146.519046 27.8249469,147.754636 27.0425055,148.677166 C27.039176,148.683827 27.0325169,148.687157 27.0291874,148.690487 C27.4586978,148.933609 27.8882081,149.180061 28.3177185,149.423183 C28.321048,149.416522 28.3243776,149.413191 28.3310366,149.40653 C29.113478,148.484001 30.6017814,148.220897 31.6539153,148.823705 C32.7060492,149.426513 32.9224692,150.662103 32.1400278,151.584633 C32.1400278,151.587964 32.1366983,151.587964 32.1366983,151.591294 C32.55622,151.831085 32.9757418,152.067546 33.391934,152.304007 C34.1743754,151.381477 35.6626787,151.121703 36.7114831,151.724511 C37.756958,152.323989 37.9767075,153.552919 37.2075843,154.475449 C37.6304356,154.71524 38.0466278,154.951701 38.4594905,155.188161 C39.2485909,154.282284 40.716917,154.029171 41.7623919,154.628649 C42.8012077,155.224796 43.0242867,156.437073 42.2718112,157.356273 C42.7279578,157.616046 43.1674568,157.865829 43.6002967,158.112281 C44.3927267,157.219725 45.8510642,156.973273 46.8865505,157.56609 C47.9187072,158.155577 48.1451157,159.361193 47.4092879,160.277062 C48.5213535,160.909844 49.4835899,161.456035 50.2560427,161.895652 C50.7887687,160.456905 51.7410165,159.10475 53.1194451,157.972403 C57.7108777,154.199023 65.2589397,154.285614 69.9802243,158.165568 C70.7759838,158.818333 71.4352322,159.537706 71.9679583,160.300375 C79.4094751,154.425492 86.8143671,148.517305 94.2159295,142.609118 C95.1382114,141.873092 95.9905731,141.070458 96.8329461,140.271154 C98.5576467,138.632581 106.658412,129.826918 108.32651,128.07178 C118.151976,117.720796 126.84207,106.733699 134.663154,95.2603596 C141.049207,85.8951835 146.736058,76.2335989 151.803614,66.322232 C157.367272,55.4383787 162.111863,44.3080734 166.117297,32.9579596 C167.016272,30.4068483 167.89527,27.8490762 168.704348,25.2779823 C162.344931,24.7018175 157.643623,20.192412 158.133065,15.0568851 Z" id="Path" fill="#F2AA29" fill-rule="nonzero"></path>
                    <path d="M111.965217,113.478261 C113.477108,111.46193 114.992458,109.442418 116.504348,107.426087 C114.992458,109.442418 113.477108,111.458749 111.965217,113.478261 Z" id="Path" fill="#FFFFFF" fill-rule="nonzero"></path>
                    <path d="M158.139725,16.6434783 C155.199743,25.1222942 151.860216,33.4978723 148.08785,41.7568918 C143.136828,52.600185 137.50325,63.1937095 131.103878,73.4975023 C123.266146,86.1158187 114.466178,98.2445883 104.417633,109.723959 C102.71291,111.672155 94.4390085,121.429787 92.6643649,123.251434 C91.7986851,124.143941 90.8098124,124.956522 89.9674393,125.859019 C81.6835494,134.737465 74.2120667,141.487882 67.8959336,146.892877 L8.93314976,116.893987 C6.87882497,118.13284 4.79453435,119.341721 2.67694834,120.517299 C2.13756323,120.817021 1.59484858,121.120074 1.06878162,121.443108 C3.01656119,122.725254 4.278456,124.766698 4.278456,127.06124 C4.278456,129.755412 2.54376683,132.093247 0,133.272155 C0.123192896,133.348751 0.249715331,133.428677 0.38289684,133.508603 C0.625953095,133.651804 1.32515602,134.054764 2.38061949,134.66087 C3.17637901,133.781684 4.62139839,133.541906 5.65022555,134.13136 C6.67905271,134.720814 6.90546128,135.916374 6.18295159,136.832192 C6.63243918,137.088622 7.101904,137.355042 7.58801651,137.634783 C8.38377603,136.762257 9.82546588,136.522479 10.854293,137.111933 C11.8797907,137.698057 12.1095288,138.886957 11.3936782,139.802775 C11.8764611,140.079186 12.3692327,140.358927 12.8719929,140.645328 C13.671082,139.779463 15.1061127,139.546346 16.1282808,140.13247 C17.1471194,140.715264 17.380187,141.897502 16.6776545,142.809991 C17.1338012,143.06975 17.5932774,143.33284 18.0594127,143.59593 C18.8585018,142.740056 20.2868735,142.510268 21.305712,143.093062 C22.321221,143.675856 22.5542887,144.848104 21.8650743,145.760592 C22.3145619,146.017021 22.7640495,146.27012 23.2135371,146.526549 C23.2201962,146.516559 23.2268553,146.509898 23.2335144,146.499907 C24.0159557,145.577428 25.5042591,145.314339 26.556393,145.917114 C27.608527,146.519889 27.8249469,147.755412 27.0425055,148.677891 C27.039176,148.684551 27.0325169,148.687882 27.0291874,148.691212 C27.4586978,148.93432 27.8882081,149.180759 28.3177185,149.423867 C28.321048,149.417206 28.3243776,149.413876 28.3310366,149.407216 C29.113478,148.484736 30.6017814,148.221647 31.6539153,148.824422 C32.7060492,149.427197 32.9224692,150.66272 32.1400278,151.585199 C32.1400278,151.588529 32.1366983,151.588529 32.1366983,151.591859 C32.55622,151.831637 32.9757418,152.068085 33.391934,152.304533 C34.1743754,151.382054 35.6626787,151.122294 36.7114831,151.725069 C37.756958,152.324514 37.9767075,153.553377 37.2075843,154.475856 C37.6304356,154.715634 38.0466278,154.952081 38.4594905,155.188529 C39.2485909,154.282701 40.716917,154.029602 41.7623919,154.629047 C42.8012077,155.225162 43.0242867,156.437373 42.2718112,157.356522 C42.7279578,157.616281 43.1674568,157.86605 43.6002967,158.112488 C44.3927267,157.219981 45.8510642,156.973543 46.8865505,157.566327 C47.9187072,158.155782 48.1451157,159.361332 47.4092879,160.277151 C48.5213535,160.909898 49.4835899,161.456059 50.2560427,161.895652 C50.7887687,160.456984 51.7410165,159.104903 53.1194451,157.972618 C57.7108777,154.199445 65.2589397,154.286031 69.9802243,158.165772 C70.7759838,158.818501 71.4352322,159.537835 71.9679583,160.300463 C79.4094751,154.425902 86.8143671,148.518039 94.2159295,142.610176 C95.1382114,141.874191 95.9905731,141.0716 96.8329461,140.27234 C98.5576467,138.633858 106.658412,129.828677 108.32651,128.073636 C118.151976,117.723219 126.84207,106.736725 134.663154,95.2640148 C141.049207,85.8993525 146.736058,76.2382979 151.803614,66.3274746 C157.367272,55.4442183 162.111863,44.3145236 166.117297,32.9650324 C167.016272,30.4140611 167.89527,27.8564292 168.704348,25.2854764 C163.004179,24.7626272 158.642485,21.092692 158.139725,16.6434783 Z" id="Path" fill="#F7A526" fill-rule="nonzero" opacity="0.37"></path>
                    <path d="M108.738042,8.34380956 C106.950126,12.5208865 101.589696,14.8167859 95.4132601,14.1333245 C80.7118825,63.3657671 56.759119,95.1765804 13.5406512,120.832924 C13.059672,121.118252 12.5753757,121.410216 12.1043478,121.718769 C15.2058343,124.568737 14.5822199,129.130676 12.9104026,131.950783 C12.4692286,132.697282 47.1859746,151.057841 47.8626625,150.536951 C54.7622261,145.261691 67.3340269,145.281597 72.7375793,149.982883 C86.1187519,139.46554 89.1903845,137.76684 101.433793,123.954949 C110.214151,114.051394 119.326218,104.449758 126.318661,93.4712448 C132.024069,84.5066205 137.676404,76.1226066 142.204242,66.6370918 C148.364093,53.7309525 154.218771,42.7391686 158.113043,29.1628389 C151.651337,28.575593 147.282719,21.6746239 148.334239,16.2002975 C148.490143,15.3973963 108.943702,7.86273239 108.738042,8.34380956 Z" id="Path" stroke="#903C14" stroke-width="4"></path>
                    <path d="M3.43496898,123.891225 C3.97033201,124.834751 4.2729285,125.898302 4.2729285,127.021865 C4.2729285,129.719082 2.54048045,132.05956 0,133.239801 C0.123033739,133.316483 0.249392714,133.3965 0.382402161,133.476516 C0.625144403,133.619879 1.323444,134.023294 2.37754387,134.630085 C3.17227532,133.749905 4.61542783,133.509856 5.64292581,134.099977 C6.67042379,134.690097 6.89653985,135.887008 6.1749636,136.803862 C6.62387048,137.060581 7.09272879,137.327302 7.57821327,137.607359 C8.37294472,136.733848 9.81277199,136.493799 10.84027,137.083919 C11.8644427,137.670706 12.093884,138.860949 11.3789582,139.777803 C11.8611175,140.054526 12.3532524,140.334583 12.8553631,140.621308 C13.6534198,139.754465 15.0865966,139.521084 16.1074441,140.10787 C17.1249664,140.691322 17.3577329,141.874897 16.6561081,142.788417 C17.1116654,143.04847 17.570548,143.311858 18.0360811,143.575245 C18.8341378,142.718403 20.2606641,142.488356 21.2781864,143.071809 C22.2923834,143.655261 22.5251499,144.828834 21.836826,145.742354 C22.2857329,145.999073 22.7346398,146.252458 23.1835467,146.509177 C23.1901972,146.499175 23.1968476,146.492507 23.2034981,146.482505 C23.9849286,145.558983 25.4713092,145.295596 26.5220838,145.899053 C27.5728585,146.502509 27.7889988,147.739428 27.0075683,148.66295 C27.0042431,148.669618 26.9975926,148.672952 26.9942674,148.676286 C27.4232228,148.919669 27.8521783,149.166386 28.2811338,149.409769 C28.284459,149.403101 28.2877842,149.399767 28.2944347,149.393099 C29.0758652,148.469577 30.5622458,148.20619 31.6130204,148.809647 C32.6637951,149.413103 32.8799354,150.650023 32.0985049,151.573545 C32.0985049,151.576879 32.0951797,151.576879 32.0951797,151.580213 C32.5141594,151.820262 32.9331392,152.056977 33.3487937,152.293692 C34.1302242,151.37017 35.6166048,151.110117 36.6640542,151.713573 C37.7081784,152.313696 37.9276439,153.543947 37.1595144,154.467469 C37.5818194,154.707518 37.9974739,154.944233 38.4098032,155.180948 C39.1978842,154.274096 40.6643133,154.020711 41.7084375,154.620833 C42.7459112,155.217622 42.968702,156.431203 42.2171986,157.351391 C42.672756,157.611444 43.1116872,157.861495 43.5439679,158.108212 C44.3353741,157.214696 45.7918275,156.967979 46.825976,157.561434 C47.8567992,158.151554 48.0829153,159.358467 47.3480381,160.275321 C48.4586669,160.908784 49.4196602,161.455562 50.191115,161.895652 C50.7231528,160.455358 51.6741703,159.101748 53.0508181,157.968184 C57.6363188,154.190746 65.1746293,154.27743 69.8898142,158.161556 C70.6845456,158.815023 71.3429424,159.53517 71.8749802,160.298659 C79.306883,154.417459 86.7022083,148.502918 94.0942084,142.588377 C95.0152988,141.851559 95.8665593,141.048062 96.707844,140.247899 C98.4303163,138.607564 106.520616,129.79243 108.186559,128.035405 C117.999331,117.673289 126.678198,106.674377 134.489178,95.188698 C140.866981,85.8134503 146.546484,76.1414754 151.607493,66.2194494 C156.715056,56.2007371 161.134295,45.9719818 164.921739,35.5565217 C149.362959,53.106772 108.622165,85.3933646 3.43496898,123.891225 Z" id="Path" fill="url(#linearGradient-1)" fill-rule="nonzero" opacity="0.59"></path>
                    <polygon id="Path" fill="#8C4C3E" points="115.745785 42.3652174 116.289766 45.2379273 119.530435 46.5049162 116.312985 47.8077325 115.818758 50.6869565 113.287918 48.6219927 109.74209 49.1333481 111.393935 46.5505148 109.695652 43.9904807 113.248115 44.4594946"></polygon>
                    <polygon id="Path" fill="#8C4C3E" points="125.695318 48.4173913 126.115419 50.5077386 128.608696 51.4276183 126.132496 52.3760459 125.753381 54.4695652 123.806576 52.9692097 121.077633 53.3403336 122.351595 51.4625103 121.043478 49.6005469 123.775837 49.9399508"></polygon>
                    <polygon id="Path" fill="#8C4C3E" points="104.051087 43.1217391 104.426087 45.2097391 106.669565 46.1310145 104.442391 47.0791884 104.103261 49.173913 102.348913 47.6709565 99.8934783 48.0441739 101.038043 46.1646377 99.8608696 44.301913 102.322826 44.6448696"></polygon>
                    <polygon id="Path" fill="#8C4C3E" points="58.7238068 123.313043 58.9293967 120.356418 55.9826087 118.542577 59.5804313 117.781828 60.8345294 114.991304 62.8527366 117.482843 66.573913 117.569216 64.2233356 119.868076 65.2684174 122.711752 61.7973753 121.642052"></polygon>
                    <polygon id="Path" fill="#8C4C3E" points="50.3761218 116.504348 50.5210881 114.35165 48.4173913 113.03408 50.9863288 112.481765 51.883097 110.452174 53.3260172 112.26217 55.9826087 112.325387 54.3070681 113.99564 55.0521274 116.065158 52.5742153 115.286593"></polygon>
                    <polygon id="Path" fill="#8C4C3E" points="70.0454646 125.582609 70.1926727 123.428338 68.0869565 122.114296 70.6566983 121.561514 71.5527477 119.530435 72.9928272 121.340401 75.6521739 121.403576 73.9720812 123.074558 74.7209225 125.143542 72.2407857 124.366488"></polygon>
                    <path d="M158.133065,15.0568851 C158.286224,13.438295 158.938814,11.9495917 159.957652,10.674036 C159.161893,10.5241666 158.259588,10.3543145 157.270715,10.1644799 C157.264056,10.1977842 157.257397,10.2344189 157.247408,10.2677233 C156.944421,11.2968269 155.752446,11.9429308 154.580449,11.7098005 C153.408451,11.4766702 152.705919,10.4542275 153.005577,9.42845429 C153.012236,9.40514126 153.022225,9.38182823 153.028884,9.3585152 C152.519465,9.26193266 151.996727,9.16201969 151.460672,9.05877628 C151.454013,9.07875888 151.454013,9.09874147 151.447354,9.11872407 C151.144366,10.1478277 149.952391,10.7939316 148.780394,10.5608013 C147.608397,10.327671 146.905864,9.30855872 147.205523,8.27945509 C147.208852,8.26946379 147.212182,8.25947249 147.215511,8.24615076 C146.676126,8.14290736 146.126752,8.03966395 145.574049,7.93309011 C145.57072,7.93975098 145.57072,7.94974228 145.56739,7.95640314 C145.264402,8.98550677 144.072428,9.63161067 142.90043,9.39848039 C141.731763,9.16535012 141.025901,8.14623779 141.325559,7.11713416 C140.819469,7.02055162 140.31005,6.92063865 139.797301,6.8240561 C139.490984,7.84649887 138.302339,8.4859419 137.133671,8.25614206 C135.974992,8.02634222 135.275789,7.02721248 135.552141,6.00810015 C135.05271,5.91151761 134.553279,5.81493507 134.050519,5.71835253 C134.04386,5.74832642 134.037201,5.77830031 134.030542,5.81160464 C133.727554,6.84070827 132.535579,7.48681216 131.363582,7.25368189 C130.191585,7.02055162 129.489052,6.00143929 129.788711,4.97233566 C129.79537,4.94902263 129.805358,4.92904004 129.812017,4.90572701 C129.332564,4.8124749 128.853111,4.72255322 128.373657,4.62930112 C128.366998,4.64928371 128.363669,4.67259674 128.360339,4.69257933 C128.057351,5.72168296 126.865377,6.36778686 125.693379,6.13465659 C124.521382,5.90152631 123.81885,4.88241398 124.118508,3.85331035 C124.121837,3.83998862 124.128497,3.82666689 124.131826,3.81334516 C123.662361,3.72342349 123.196226,3.63350181 122.73342,3.54358013 C122.730091,3.55357143 122.730091,3.56356273 122.726761,3.57355403 C122.423773,4.60265766 121.231799,5.24876155 120.059801,5.01563128 C118.887804,4.78250101 118.185272,3.76338868 118.48493,2.73428505 C118.48493,2.73095461 118.48493,2.73095461 118.48826,2.72762418 C118.018795,2.63770251 117.555989,2.54778083 117.096513,2.46118959 C116.790195,3.48696278 115.60155,4.12640581 114.432883,3.89660597 C113.274204,3.66680614 112.571671,2.66101553 112.851352,1.6419032 C112.345262,1.54532066 111.852491,1.44873812 111.373037,1.35548601 C111.053402,2.36127661 109.874745,2.98739791 108.719396,2.76092851 C107.570705,2.5344591 106.874832,1.54865109 107.131206,0.539530058 C106.075743,0.336373678 105.136813,0.156530325 104.337724,0 C104.331065,3.86996252 100.512085,7.00389946 95.804119,7.00389946 C94.2558839,7.00389946 92.8042055,6.66419535 91.5522993,6.07137837 C91.1194594,7.44018611 90.8264601,8.83563731 90.4002792,10.204445 C88.8353965,15.2300676 87.427002,20.292325 85.7256082,25.2846432 C82.7190357,34.1136197 78.6736473,42.6328659 74.015624,50.9323036 C69.780452,58.4790635 64.8793724,65.7360758 59.3823056,72.7000101 C51.5479033,82.6280293 42.6147536,91.813362 32.4929588,100.176078 C23.3334005,107.746151 13.4246962,114.556885 2.67694834,120.515029 C2.13756323,120.814768 1.59484858,121.117837 1.06878162,121.440889 C3.01656119,122.723106 4.278456,124.764661 4.278456,127.059329 C4.278456,129.753649 2.54376683,132.091612 0,133.270585 C0.123192896,133.347185 0.249715331,133.427116 0.38289684,133.507046 C0.625953095,133.650255 1.32515602,134.053237 2.38061949,134.659376 C3.17637901,133.780141 4.62139839,133.54035 5.65022555,134.129837 C6.67905271,134.719323 6.90546128,135.914949 6.18295159,136.830818 C6.63243918,137.087261 7.101904,137.353695 7.58801651,137.633452 C8.38377603,136.760878 9.82546588,136.521087 10.854293,137.110574 C11.8797907,137.69673 12.1095288,138.885694 11.3936782,139.801563 C11.8764611,140.077989 12.3692327,140.357745 12.8719929,140.644163 C13.671082,139.77825 15.1061127,139.54512 16.1282808,140.131276 C17.1471194,140.714102 17.380187,141.896405 16.6776545,142.808944 C17.1338012,143.068717 17.5932774,143.331822 18.0594127,143.594926 C18.8585018,142.739005 20.2868735,142.509205 21.305712,143.092031 C22.321221,143.674856 22.5542887,144.847168 21.8650743,145.759707 C22.3145619,146.01615 22.7640495,146.269263 23.2135371,146.525706 C23.2201962,146.515715 23.2268553,146.509054 23.2335144,146.499063 C24.0159557,145.576533 25.5042591,145.313429 26.556393,145.916237 C27.608527,146.519046 27.8249469,147.754636 27.0425055,148.677166 C27.039176,148.683827 27.0325169,148.687157 27.0291874,148.690487 C27.4586978,148.933609 27.8882081,149.180061 28.3177185,149.423183 C28.321048,149.416522 28.3243776,149.413191 28.3310366,149.40653 C29.113478,148.484001 30.6017814,148.220897 31.6539153,148.823705 C32.7060492,149.426513 32.9224692,150.662103 32.1400278,151.584633 C32.1400278,151.587964 32.1366983,151.587964 32.1366983,151.591294 C32.55622,151.831085 32.9757418,152.067546 33.391934,152.304007 C34.1743754,151.381477 35.6626787,151.121703 36.7114831,151.724511 C37.756958,152.323989 37.9767075,153.552919 37.2075843,154.475449 C37.6304356,154.71524 38.0466278,154.951701 38.4594905,155.188161 C39.2485909,154.282284 40.716917,154.029171 41.7623919,154.628649 C42.8012077,155.224796 43.0242867,156.437073 42.2718112,157.356273 C42.7279578,157.616046 43.1674568,157.865829 43.6002967,158.112281 C44.3927267,157.219725 45.8510642,156.973273 46.8865505,157.56609 C47.9187072,158.155577 48.1451157,159.361193 47.4092879,160.277062 C48.5213535,160.909844 49.4835899,161.456035 50.2560427,161.895652 C50.7887687,160.456905 51.7410165,159.10475 53.1194451,157.972403 C57.7108777,154.199023 65.2589397,154.285614 69.9802243,158.165568 C70.7759838,158.818333 71.4352322,159.537706 71.9679583,160.300375 C79.4094751,154.425492 86.8143671,148.517305 94.2159295,142.609118 C95.1382114,141.873092 95.9905731,141.070458 96.8329461,140.271154 C98.5576467,138.632581 106.658412,129.826918 108.32651,128.07178 C118.151976,117.720796 126.84207,106.733699 134.663154,95.2603596 C141.049207,85.8951835 146.736058,76.2335989 151.803614,66.322232 C157.367272,55.4383787 162.111863,44.3080734 166.117297,32.9579596 C167.016272,30.4068483 167.89527,27.8490762 168.704348,25.2779823 C162.344931,24.7018175 157.643623,20.192412 158.133065,15.0568851 Z" id="Path" stroke="#903C14" stroke-width="2"></path>
                    <path d="M107.629396,5.78998801 C107.47302,5.96986832 107.336607,6.17306644 107.196867,6.36294009 C105.832738,8.2316966 104.082661,9.16440929 101.93,9.77067254 C100.669012,10.1237709 99.378081,10.3636113 98.0738409,10.4835315 C97.7610895,10.5135116 94.0646336,10.2070488 94.0546522,10.2370289 C92.0916378,16.0131854 91.2365621,21.36629 89.0273391,27.0425129 C87.5234705,30.9066084 79.9508931,48.3816469 73.3232242,59.3376899 C68.0896283,67.9919313 61.2989295,76.2630942 53.7130435,85.4869565 C54.5015764,84.9439845 95.9877223,60.7101101 96.7762551,60.1604758 C100.146651,57.8120385 103.517047,55.4636012 106.887443,53.118495 C116.675897,46.2996989 126.464352,39.4809029 136.252807,32.6621069 C145.771763,26.0298535 136.858347,29.3909503 146.377303,22.7620279 C148.124053,21.5428392 151.833817,14.5008583 153.573913,13.2816696 C140.32523,10.9598812 127.079873,8.63809284 113.83119,6.31630446 C112.746541,6.1264308 111.695164,5.78332578 110.607189,5.6101077 C110.004976,5.51350532 108.624211,5.10377796 108.091868,5.40357847 C107.908876,5.50351197 107.762481,5.64008776 107.629396,5.78998801 Z" id="Path" fill="url(#linearGradient-2)" fill-rule="nonzero"></path>
                    <path d="M162.396453,46.0756169 L156.6,44.8754788 L163.045334,44.6347826 L164.921739,50.7558209 L164.272858,52.2 C164.272858,52.2033412 162.811202,47.5465381 162.396453,46.0756169 Z" id="Path" fill="#903C14" fill-rule="nonzero"></path>
                    <path d="M94.7944947,109.644463 C98.9642528,111.529575 101.045822,112.491975 105.162631,114.357244 C103.329261,116.374645 101.65143,118.246528 99.923959,120.085339 C99.7651111,120.254007 99.1826687,120.346609 98.9477061,120.244086 C95.1419745,118.587171 93.1861594,117.69753 89.2712199,115.954628 C91.1244457,113.811553 92.8552262,111.810688 94.6819774,109.694071 C92.8519169,108.890418 89.3340972,107.27319 87.5536767,106.611747 C87.1830315,106.472844 86.3226052,106.763879 86.0049094,107.074757 C84.56535,108.486938 83.2217613,109.965263 81.8847913,111.443588 C81.4049382,111.976049 80.9912717,112.26047 80.1341547,111.873526 C73.4757791,108.86396 66.8008568,105.88416 59.930684,102.80845 C61.6250619,101.058934 63.2267785,99.4053267 64.947631,97.6260453 C63.1109519,96.9646024 61.5224726,96.3924543 59.7652174,95.7574691 C60.1193159,95.3374528 60.3873718,94.970352 60.708377,94.6396305 C68.2337975,86.8941341 75.0046904,78.7451575 80.246672,69.7892205 C81.1931409,68.1719926 82.1363005,66.5415358 82.9007561,64.8614708 C83.3342786,63.9056858 83.8902463,63.7270962 84.9790165,64.0346672 C85.9585787,64.3124732 86.9778529,64.5572071 88.0004365,64.6365802 C88.4703616,64.6729596 89.2414359,64.3819247 89.4433051,64.0545105 C90.3401341,62.6191794 91.0251657,61.0945535 91.9219947,59.6592224 C92.1337919,59.3185793 92.9578155,58.9349424 93.3549353,59.02093 C100.26813,60.5554775 107.154849,62.1594766 114.048187,63.7568612 C114.190488,63.7899333 116.129757,64.1173476 116.381266,64.2529434 C115.186597,66.3067236 113.998547,68.3571966 112.688052,70.6127169 C114.822571,71.2377805 116.563279,72.1538789 118.773913,72.8020929 C117.49982,74.9848545 116.344863,77.0088698 115.120411,79.0064274 C114.9748,79.2478541 114.372502,79.5355817 114.13423,79.462823 C110.51713,78.3549062 105.433996,76.6549979 101.697761,75.4577862 C102.971854,73.2816391 104.153285,71.2675454 105.424068,69.0947054 C104.560333,68.8598932 103.762784,68.6350026 102.955307,68.4299553 C100.549423,67.8247351 99.9669803,67.576694 97.6206641,66.8424923 C95.9957821,66.3331813 95.4133397,66.7928841 94.6852867,67.9404876 C90.6412833,74.3068756 86.6700851,80.7162573 82.2819111,86.9205918 C79.5153097,90.8330266 76.0603673,94.41474 72.9131927,98.1419707 C72.5756409,98.5421437 72.218233,98.9357022 71.7152146,99.5144648 C75.6764848,101.088699 77.6554652,102.371898 81.6068074,103.942825 C86.130664,99.7459698 89.2811479,94.8810572 92.683141,89.8970849 C91.157539,89.3480873 89.741145,88.8387762 88.1725217,88.2732426 C89.5525131,86.136782 90.8530805,84.0796945 92.2264532,82.052372 C92.3687545,81.8440175 93.0173835,81.6588135 93.2854394,81.7514155 C98.2626744,83.471167 105.040186,86.0375655 110.202744,87.863148 C105.433996,95.387061 101.247692,102.907667 94.7944947,109.644463 Z" id="Path" fill="#D2571C" fill-rule="nonzero"></path>
                    <path d="M159.352479,51.4298937 L152.817391,49.4231202 L160.624977,49.173913 L162.652174,56.4533854 C162.652174,56.4533854 162.174987,58.07979 161.342449,59.7652174 C161.366139,58.7552726 159.352479,51.4298937 159.352479,51.4298937 Z" id="Path" fill="#903C14" fill-rule="nonzero"></path>
                    <path d="M172.460383,30.7323676 C172.470348,30.6587483 172.480313,30.585129 172.486957,30.5115097 C171.606722,30.4144661 170.93575,30.5683974 170.015655,30.3006909 C169.152029,30.0497161 168.318297,29.7083903 167.527746,29.2834063 C165.969896,28.4535163 164.578128,27.3157638 163.422197,25.9772315 C161.090405,23.2767425 159.701959,19.6861296 160.004228,16.0854776 C160.073983,15.2522412 160.196884,14.3353466 159.974334,13.5589978 C155.483474,12.6421032 150.995937,11.7252085 146.505078,10.8083139 C142.658617,10.0219262 138.77894,9.23553842 134.866047,9.07826087 C131.345107,9.79102933 127.840775,11.0894057 124.293262,13.0603945 C110.913691,20.489249 96.335007,26.194743 82.3608619,32.4891913 C82.2446044,32.7602441 82.128347,33.0346432 82.0154112,33.305696 C95.8732989,32.3888013 108.080331,23.474176 121.519692,19.5556227 C107.203418,26.0073485 91.1532465,37.5019948 77.228926,44.7735717 C75.9467724,47.8689277 76.5878492,46.3329618 75.2591927,49.3680839 C74.6380457,50.7869282 68.0080496,60.8393059 67.3304348,62.2380722 C82.3243238,58.4232551 103.044723,44.8940396 117.331102,38.9308781 C124.459344,35.95599 131.584265,32.6899711 139.207432,31.485292 C124.054104,40.3329907 109.704613,50.572763 96.3881533,62.033946 C111.116311,56.5727341 126.249709,52.2225041 141.622265,49.0334508 C135.301182,56.4054176 125.575416,60.8694229 121.280534,69.6 C134.032315,65.644637 145.249497,57.9279981 156.250774,50.3184418 C159.901257,47.7919621 163.551741,45.2688286 167.202225,42.7423489 C168.016027,42.1801653 168.590671,41.9325368 169.082274,41.0457592 C169.676848,39.971587 170.165129,38.8338345 170.583656,37.6793504 C171.367563,35.4975427 172.161436,33.0446822 172.460383,30.7323676 Z" id="Path" fill="#DB5A14" fill-rule="nonzero" opacity="0.4"></path>
                    <path d="M99.9939574,118.773913 C99.7882155,118.773913 99.6057026,118.740741 99.4563738,118.674397 C96.3669275,117.327613 93.3438495,115.98083 90.1482138,114.554433 L87.9215559,113.56259 C87.7290877,113.476342 87.5897142,113.307165 87.5432563,113.101499 C87.4967985,112.895832 87.5532116,112.683531 87.6892667,112.524306 L92.5308373,106.92487 C92.321777,106.831988 92.1160351,106.739107 91.9102933,106.646225 C90.5962001,106.055763 89.3551121,105.498473 88.0642478,105.017479 C87.7821824,105.024113 87.3242408,105.216511 87.2080962,105.332613 C85.7612663,106.752375 84.4106706,108.245116 83.1032142,109.684781 C82.711641,110.116018 82.2570179,110.514082 81.5601503,110.514082 C81.2581743,110.514082 80.9362879,110.437786 80.5812172,110.275243 C75.4808101,107.969788 70.4733187,105.72736 65.1671697,103.352244 L60.3222807,101.182794 C60.1264941,101.09323 59.9838022,100.914101 59.9406627,100.7018 C59.8975233,100.489499 59.9638917,100.270564 60.1165388,100.114655 L64.4337995,95.6563368 L60.2028177,94.1304242 C59.9970758,94.0574458 59.8444286,93.8882685 59.7880155,93.6792848 C59.7316025,93.4703011 59.7813787,93.2447315 59.9207522,93.0788714 C60.0368968,92.9428661 60.1430862,92.8101781 60.2426387,92.6841244 C60.4583358,92.4154311 60.6640777,92.1633238 60.8996853,91.9211681 C69.3351016,83.2400522 75.7097809,75.1294949 80.3953859,67.125088 C81.3975478,65.4100949 82.2868836,63.8609619 83.0235722,62.2421676 C83.2890456,61.6583402 83.7702161,60.8854323 84.8852042,60.8854323 C85.1772249,60.8854323 85.4991114,60.9385075 85.894003,61.0479752 C86.7534731,61.2901309 87.7722271,61.5488726 88.7942996,61.6284854 C88.7942996,61.6284854 88.797618,61.6284854 88.797618,61.6284854 C89.1161861,61.6284854 89.5442619,61.4493565 89.640496,61.3398889 C90.0685718,60.6532282 90.4667818,59.9101751 90.8517182,59.1870252 C91.2466098,58.4506065 91.6547752,57.684333 92.1160351,56.9479143 C92.4545137,56.4038933 93.4002626,55.9826087 93.9876224,55.9826087 C94.0838565,55.9826087 94.1734537,55.9925603 94.2597326,56.0124635 C100.352346,57.3658817 106.524602,58.7955954 112.494435,60.1788684 L115.016432,60.7626958 C115.212218,60.8091367 115.358229,60.8987011 115.500921,60.9849483 C115.557334,61.0181203 115.620384,61.0579268 115.700026,61.1010504 C115.855991,61.1872976 115.975454,61.3332545 116.021912,61.5057489 C116.071688,61.6782434 116.048459,61.8640067 115.955544,62.016598 L112.676948,67.6624746 L118.295028,69.3078065 C118.490814,69.3641989 118.650098,69.5101558 118.726422,69.6992363 C118.802746,69.8883168 118.786154,70.1039348 118.683283,70.2797465 C118.384625,70.7939127 118.089286,71.2981273 117.800584,71.7957075 C116.851516,73.4310878 115.955544,74.9735864 115.013113,76.5127678 C114.741003,76.9572728 114.000996,77.3022618 113.546373,77.3022618 C113.44682,77.3022618 113.353905,77.288993 113.264307,77.2624554 C110.32419,76.3601766 107.447122,75.4379946 104.404134,74.4594202 L102.280347,73.7793939 C102.087879,73.7196843 101.935231,73.5737275 101.862226,73.384647 C101.789221,73.1955665 101.809132,72.9865828 101.908684,72.8107711 L105.210509,67.174846 C104.656333,67.0222548 104.122068,66.8762979 103.584485,66.7402927 C102.827886,66.547895 102.067968,66.3687661 101.308051,66.1896372 C99.6621157,65.8015247 97.9597677,65.3968261 96.323788,64.8859771 C95.9454885,64.7665579 95.6401941,64.7101654 95.3946312,64.7101654 C94.9665554,64.7101654 94.6811716,64.8561223 94.1369512,65.7119603 C93.523044,66.680583 92.9091368,67.6492058 92.2985481,68.6178286 C88.9203994,73.9585228 85.4261062,79.4849803 81.6796133,84.7792336 C79.7416577,87.5225591 77.4419946,90.1365138 75.2153367,92.660904 C74.2330853,93.7788009 73.2176496,94.9331869 72.2486718,96.0776214 C72.0628405,96.2965567 71.8736907,96.5121748 71.6579936,96.7576477 L82.1873311,100.947273 C86.1262922,97.2154215 88.9934046,92.9959414 92.0264379,88.5309883 L92.4113743,87.9637469 L88.6947471,86.6269148 C88.5055973,86.5572535 88.3562685,86.4079795 88.2899002,86.2155818 C88.2235319,86.0231841 88.2500792,85.8142004 88.359587,85.6450232 L89.2721517,84.225261 C90.3440004,82.5567087 91.3561176,80.9810381 92.4312848,79.3954158 C92.719987,78.9674968 93.443402,78.7784164 93.864841,78.7784164 C94.0108513,78.7784164 94.143588,78.7983196 94.2597326,78.838126 C98.3612962,80.254571 102.383218,81.6776504 106.640747,83.1836598 L109.40167,84.158917 C109.59082,84.225261 109.740148,84.3778522 109.806517,84.5669327 C109.872885,84.7593304 109.849656,84.9683141 109.740148,85.1374914 C108.907226,86.4511031 108.077621,87.7879352 107.277883,89.0783266 C103.654171,94.9166009 99.9143154,100.95059 94.8504108,106.400752 L106.225945,111.552366 C106.418413,111.638613 106.557786,111.814425 106.600926,112.023408 C106.644065,112.232392 106.584334,112.44801 106.441642,112.603919 L105.270241,113.89431 C103.86655,115.443443 102.542502,116.906329 101.178632,118.355946 C100.810288,118.763961 100.076918,118.773913 99.9939574,118.773913 Z" id="Path" fill="url(#linearGradient-3)" fill-rule="nonzero"></path>
                    <path d="M94.0071347,56.5570266 C94.0537427,56.5570266 94.0970216,56.5603539 94.1336422,56.570336 C101.088227,58.1142259 108.016178,59.7279902 114.950787,61.3350998 C115.09394,61.3683733 115.21379,61.4715211 115.466805,61.6112698 C114.264983,63.6775536 113.06982,65.74051 111.751479,68.009762 C113.898777,68.638631 115.979493,69.2475359 118.203362,69.8963689 C116.921641,72.0924193 115.759769,74.1287569 114.527986,76.1384758 C114.39482,76.3547535 113.898777,76.6109593 113.622458,76.6109593 C113.589167,76.6109593 113.559204,76.607632 113.5359,76.6009773 C109.897145,75.4863153 106.285022,74.3150885 102.526417,73.1105881 C103.808138,70.9211924 104.996643,68.8948369 106.275035,66.7087685 C105.406128,66.4725268 104.603804,66.246267 103.791492,66.0399714 C101.371204,65.4310665 98.9009781,64.9286368 96.5439433,64.1899653 C96.0978379,64.0502166 95.7283028,63.9836697 95.412034,63.9836697 C94.5764185,63.9836697 94.1236548,64.4561532 93.5909916,65.2979725 C89.5227761,71.7031195 85.5278019,78.1515219 81.1100263,84.3936288 C78.3268609,88.3298827 74.8512333,91.9334017 71.6852162,95.6833241 C71.3456434,96.0859333 70.9860957,96.4818879 70.4800657,97.064174 C74.4650525,98.6479921 78.3368483,100.191882 82.3118477,101.772373 C86.8627891,97.5499669 90.0321354,92.6554365 93.4544966,87.6411214 C91.9197607,87.0887815 90.4948865,86.5763697 88.9168717,86.0073931 C90.3051253,83.8579256 91.6134793,81.7883145 92.9950746,79.7486495 C93.1115947,79.5756273 93.5710167,79.4192419 93.8806272,79.4192419 C93.9505392,79.4192419 94.0104639,79.4258966 94.0570719,79.4425334 C99.0641063,81.1727549 104.047837,82.9462319 109.241303,84.7796013 C104.447334,92.3426657 100.235965,99.9090574 93.7408031,106.686867 C97.935526,108.583456 101.860588,110.363588 106.002045,112.236886 C104.157698,114.266569 102.469822,116.149848 100.732008,117.999854 C100.618817,118.119639 100.289232,118.202823 100.0229,118.202823 C99.9163674,118.202823 99.8198222,118.189513 99.7499102,118.159567 C95.9213932,116.492565 92.1195094,114.785635 88.1811306,113.032122 C90.0454519,110.876 91.7865949,108.862954 93.624283,106.73345 C91.7832657,105.924904 90.0754142,105.109704 88.2843341,104.440907 C88.2177512,104.417615 88.1378517,104.404306 88.0479648,104.404306 C87.6251634,104.404306 86.9892967,104.647202 86.7262942,104.903408 C85.278116,106.324186 83.9264831,107.811511 82.5815084,109.298836 C82.2519231,109.661517 81.9556291,109.911069 81.5294985,109.911069 C81.3297498,109.911069 81.1000388,109.854504 80.8237198,109.731392 C74.1254796,106.703504 67.4105938,103.705563 60.4992884,100.611128 C62.2038107,98.8509604 63.815117,97.1872859 65.5462725,95.3971721 C63.6985969,94.7317023 62.1006072,94.1560709 60.3328311,93.5172199 C60.6890497,93.0946465 60.9587104,92.7253108 61.2816375,92.3925759 C68.8521137,84.5999244 75.6635447,76.4013363 80.9369107,67.3908751 C81.8890462,65.7638014 82.8378526,64.1234183 83.6068851,62.433125 C83.9164956,61.7510185 84.2893599,61.4615391 84.8686312,61.4615391 C85.1083296,61.4615391 85.3813195,61.5114493 85.6975883,61.6012877 C86.6830153,61.8807851 87.708392,62.1270089 88.7370979,62.2068653 C88.763731,62.2101926 88.7903642,62.2101926 88.8203265,62.2101926 C89.2963943,62.2101926 89.9955148,61.9306953 90.1919343,61.6245792 C91.0941327,60.1805097 91.7832657,58.6466018 92.6854641,57.2025323 C92.8885419,56.9030709 93.5810041,56.5570266 94.0071347,56.5570266 M94.0071347,55.226087 C93.2147982,55.226087 92.0429391,55.7418261 91.5668713,56.5071163 C91.0941327,57.2657519 90.6779895,58.0410243 90.2784921,58.7896778 C89.9056278,59.4884211 89.5494093,60.1505636 89.1565702,60.7927419 C89.0633541,60.8359975 88.9135426,60.8825803 88.8369722,60.8859077 C87.8748493,60.8093787 86.8994097,60.5631548 86.0704526,60.3302404 C85.6143597,60.2004738 85.2348371,60.1405815 84.8786186,60.1405815 C83.7666841,60.1405815 82.9343978,60.7295223 82.4050637,61.8907671 C81.6793101,63.4878947 80.7937575,65.0251299 79.798343,66.7254053 C75.1242232,74.7077157 68.7588976,82.8031559 60.3361603,91.4709002 C60.0764869,91.7370881 59.8634217,92.0032761 59.6337106,92.2861007 C59.5338363,92.4092126 59.4306328,92.5356519 59.320771,92.6687459 C59.0411228,93.0014808 58.9412484,93.4506729 59.0544394,93.8699189 C59.1676303,94.2891649 59.48057,94.6285545 59.8900548,94.7749578 L63.1659337,95.9561667 L62.0340243,97.1240663 L59.550482,99.6894524 C59.2475298,100.002223 59.1176931,100.441433 59.2009218,100.867334 C59.2841504,101.293235 59.5671277,101.652588 59.963296,101.828938 C61.6045646,102.564282 63.2358457,103.292971 64.8571394,104.018333 C70.1637969,106.394061 75.1774895,108.640021 80.2843982,110.945874 C80.7271746,111.145515 81.1399886,111.245336 81.539486,111.245336 C82.6281165,111.245336 83.2939455,110.509991 83.580252,110.193893 C84.8752895,108.763133 86.216935,107.28579 87.6451383,105.881649 C87.7217086,105.831739 87.8781784,105.775174 87.9913694,105.748555 C89.1465827,106.184438 90.275163,106.686867 91.4570095,107.219243 L87.1857162,112.160357 C86.9093972,112.479782 86.8028645,112.90901 86.8927514,113.321601 C86.9859675,113.734193 87.2656157,114.07691 87.6517965,114.246604 L89.8257284,115.214863 C93.0549992,116.655605 96.1078253,118.016491 99.2305635,119.377377 C99.4636037,119.480525 99.7365936,119.530435 100.032888,119.530435 C100.289232,119.530435 101.168126,119.483852 101.714106,118.908221 C103.085714,117.450842 104.414043,115.980153 105.822271,114.426281 C106.208452,114.000381 106.601291,113.567825 107.000788,113.125288 C107.287095,112.80919 107.403615,112.376634 107.317057,111.960716 C107.230499,111.544797 106.950851,111.195425 106.561341,111.019076 L100.751983,108.39047 L95.984647,106.231021 C100.791933,100.900607 104.404055,95.0777466 107.906316,89.4345626 C108.70864,88.1402238 109.537597,86.8026295 110.373212,85.4883266 C110.589607,85.1456097 110.639544,84.7230363 110.506378,84.3403912 C110.373212,83.957746 110.073589,83.6549573 109.690738,83.5218633 L106.980814,82.5635868 C102.686216,81.0429883 98.6313174,79.6089008 94.4931899,78.1814681 C94.3067578,78.1182485 94.1003508,78.084975 93.8806272,78.084975 C93.4078886,78.084975 92.3791827,78.2746339 91.8897984,78.9966686 C90.8078262,80.5937961 89.7891078,82.1776143 88.7104647,83.8579256 C88.4075125,84.3270818 88.1045603,84.8028927 87.7949498,85.2787036 C87.5752262,85.6180932 87.5219599,86.0406665 87.6517965,86.426639 C87.7816332,86.8126115 88.0812563,87.1154003 88.4607788,87.2518216 L91.3837683,88.3032639 C88.4774246,92.5789074 85.7109049,96.6282912 82.0088955,100.211846 L76.5724014,98.0490693 L72.7139221,96.5151614 C73.676045,95.377208 74.6881052,94.2292726 75.6635447,93.117938 C77.9073886,90.5691886 80.2244736,87.9339282 82.1919984,85.1555917 C85.9605908,79.8251785 89.472839,74.2751603 92.8685671,68.9048189 C93.4811298,67.9365603 94.0936925,66.9683018 94.7062552,66.0033705 C95.1490315,65.3079546 95.2655516,65.3079546 95.4053757,65.3079546 C95.5252249,65.3079546 95.7516068,65.3345734 96.1377876,65.4543579 C97.7990311,65.9767518 99.5201991,66.3826883 101.181443,66.7753155 C101.9305,66.951665 102.706191,67.1346692 103.458578,67.3243281 C103.718251,67.3908751 103.977925,67.4574221 104.240927,67.5272964 L101.367875,72.4318089 C101.164797,72.7811806 101.128176,73.2037539 101.274659,73.5797443 C101.417812,73.9557348 101.727422,74.2485415 102.113603,74.3716534 L104.240927,75.05376 C107.297082,76.0353279 110.183451,76.960331 113.139732,77.8686973 C113.292873,77.9152802 113.452672,77.9385716 113.619129,77.9385716 C114.274971,77.9385716 115.240423,77.5159983 115.659895,76.8305644 C116.608701,75.2833471 117.507571,73.7328024 118.459706,72.0924193 C118.752671,71.5899896 119.045636,71.0809052 119.348588,70.5651661 C119.554995,70.2124671 119.588286,69.7832391 119.435146,69.4039213 C119.282005,69.0246035 118.965736,68.7351241 118.572897,68.6186669 L116.352357,67.9698338 L113.748966,67.2078709 L114.887533,65.244735 L116.612031,62.2767396 C116.791804,61.9672961 116.838412,61.594633 116.741867,61.2485887 C116.645322,60.9025444 116.412282,60.6097377 116.096013,60.4400429 C116.02943,60.4034421 115.972835,60.3701686 115.926227,60.3402225 C115.766428,60.240402 115.546704,60.107308 115.243752,60.0374337 L112.816805,59.4751117 C106.794381,58.0809524 100.562222,56.636883 94.4166196,55.2726698 C94.2901121,55.2393964 94.150288,55.226087 94.0071347,55.226087 L94.0071347,55.226087 Z" id="Shape" fill="#903C14" fill-rule="nonzero"></path>
                    <path d="M94.5652174,64.307063 C93.6592617,64.2637601 93.1880321,64.7400915 92.6338394,65.6161414 C88.5786094,72.0282938 84.5963867,78.4837491 80.1960307,84.7326831 C77.421749,88.6732422 73.9572153,92.2807025 70.8013038,96.0347263 C70.4628149,96.4377758 70.1044149,96.8341634 69.6,97.4170864 C73.5722671,99.0026368 77.4317045,100.548215 81.394016,102.130435 C81.5566235,101.977209 81.7159124,101.823984 81.8752013,101.670758 C78.0987268,100.161821 74.4018968,98.6861929 70.6088297,97.1705933 C71.1165631,96.5876703 71.4716446,96.1912827 71.8101336,95.7882331 C74.966045,92.0342093 78.4305787,88.4234181 81.2048605,84.4861899 C85.608535,78.2339249 89.5907576,71.7818007 93.6459877,65.3696482 C93.9446544,64.886655 94.2267285,64.5302392 94.5652174,64.307063 Z" id="Path" fill="#FFE36D" fill-rule="nonzero"></path>
                    <path d="M84.5477888,61.5711695 C85.5074907,61.7814903 86.5060994,61.9715392 87.5079503,62.0323549 C87.7965093,62.0500928 88.2017888,61.9690052 88.5130435,61.8423059 C88.506559,61.8423059 88.5000745,61.8423059 88.4935901,61.8423059 C87.4917391,61.7814903 86.4931304,61.5939753 85.5334286,61.3811205 C84.8201366,61.2240134 84.343528,61.2392173 83.973913,61.479946 C84.1489938,61.4976839 84.3338012,61.5255577 84.5477888,61.5711695 Z" id="Path" fill="#FFE36D" fill-rule="nonzero"></path>
                    <path d="M85.5642402,104.905042 C84.0700883,106.337188 82.6755466,107.836413 81.2878745,109.335639 C81.1710902,109.459736 81.0611755,109.570417 80.9478261,109.660974 C81.5557913,109.795133 81.9233184,109.526815 82.3320634,109.084091 C83.7231703,107.584865 85.1142773,106.08564 86.6084292,104.653494 C86.7011696,104.56629 86.8419977,104.479087 87,104.401946 C86.5637763,104.375114 85.8493313,104.630016 85.5642402,104.905042 Z" id="Path" fill="#FFE36D" fill-rule="nonzero"></path>
                    <path d="M111.586957,67.9729625 C112.900915,65.7468811 114.095423,63.7231707 115.289931,61.6961962 C115.037757,61.5623702 114.918307,61.4579207 114.775629,61.4252802 C107.864073,59.8520085 100.959153,58.2656807 94.0276888,56.751162 C93.7854691,56.6989372 93.3806636,56.8229711 93.0521739,57.0024937 C99.9703661,58.5137484 106.86865,60.0968122 113.766934,61.6668198 C113.909611,61.6994603 114.029062,61.8006458 114.281236,61.9377359 C113.08341,63.9647103 111.89222,65.9884207 110.578261,68.2145021 C112.718421,68.8314074 114.79222,69.4287284 117.008696,70.0652179 C115.731236,72.2194903 114.573227,74.2170883 113.345538,76.1885739 C113.312357,76.2407987 113.259268,76.2930234 113.192906,76.3452482 C113.249314,76.3615685 113.309039,76.3811528 113.365446,76.397473 C113.604348,76.4692821 114.208238,76.1820458 114.354233,75.9470342 C115.581922,73.9755486 116.739931,71.9779506 118.017391,69.8236783 C115.800915,69.1871887 113.730435,68.5898678 111.586957,67.9729625 Z" id="Path" fill="#FFE36D" fill-rule="nonzero"></path>
                    <path d="M94.0447006,79.4585402 C93.8063636,79.375788 93.2545971,79.5214319 93.0521739,79.7067968 C97.962569,81.4280422 102.85011,83.1890087 107.943339,85.0161769 C103.339843,92.3844313 99.2783198,99.7526858 93.1305313,106.389411 C93.2970407,106.465543 93.4570203,106.538365 93.6235297,106.611187 C93.4994639,106.756831 93.3786629,106.899164 93.2545971,107.044808 C97.1757304,108.845496 100.874851,110.543571 104.769865,112.331018 C102.987235,114.32369 101.351525,116.174029 99.6701067,117.987957 C99.9215032,118.067399 100.443886,117.978027 100.594071,117.815832 C102.301608,115.975424 103.953643,114.101914 105.762392,112.082761 C101.700868,110.215872 97.8482979,108.448285 93.7378009,106.561535 C100.107602,99.8188875 104.234423,92.2917489 108.93913,84.7679203 C103.845901,82.9407521 98.9550957,81.1764755 94.0447006,79.4585402 Z" id="Path" fill="#FFE36D" fill-rule="nonzero"></path>
                </g>
            </g>
        </g>
    </g>
</svg>