<?xml version="1.0" encoding="UTF-8"?>
<svg width="48px" height="48px" viewBox="0 0 48 48" version="1.1" xmlns="http://www.w3.org/2000/svg" xmlns:xlink="http://www.w3.org/1999/xlink">
    <title>0849BF0A-3F6D-4D32-8E60-91461CE8EAB1</title>
    <g id="Page-1" stroke="none" stroke-width="1" fill="none" fill-rule="evenodd">
        <g id="Landing-v0-Copy-9" transform="translate(-776.000000, -2318.000000)">
            <g id="3.-Icons-/-Social-/-Tiktok" transform="translate(776.000000, 2318.000000)">
                <g id="Icons-/-tiktok" transform="translate(0.000000, 0.000000)">
                    <rect id="Rectangle" x="0" y="-1.70530257e-13" width="48" height="48"></rect>
                    <g id="Group" transform="translate(14.147323, 12.131056)">
                        <path d="M0.807059438,20.1718095 L0.907059438,20.3885842 C0.894559438,20.3650512 0.857059438,20.2896251 0.807059438,20.1718095 Z M3.86652371,15.2267225 C4.00324109,14.0527905 4.46522605,13.3976392 5.33262638,12.7234806 C6.57715729,11.8136908 8.12806908,12.3274935 8.12806908,12.3274935 L8.12806908,9.26798397 C8.50519966,9.2585557 8.88233024,9.28213391 9.2547844,9.33870349 L9.2547844,13.2749964 C9.2547844,13.2749964 7.70387261,12.7611937 6.45929644,13.6709835 C5.5919112,14.3451421 5.12992624,15.0004442 4.99320886,16.1742254 C4.98848718,16.810671 5.10162636,17.6450347 5.62960917,18.3615828 C5.49761347,18.2908331 5.36561776,18.2107305 5.22891547,18.1211243 C4.07394553,17.3102936 3.86181712,16.0892956 3.86652371,15.2267225 Z M15.6706807,3.61102529 C14.8174604,2.63519237 14.492223,1.64522461 14.3744074,0.952254711 L15.4492296,0.952254711 C15.4492296,0.952254711 15.2369805,2.77190975 16.797396,4.55855833 L16.8209289,4.58213653 C16.3967324,4.30871686 16.0100982,3.9787276 15.6706807,3.61102529 Z M20.8515497,6.38293504 L20.8515497,10.2390952 C20.8515497,10.2390952 19.4796995,10.1825256 18.4614469,9.91382763 C17.0425308,9.53669705 16.132741,8.95685124 16.132741,8.95685124 C16.132741,8.95685124 15.5009719,8.5420076 15.453906,8.51372281 L15.453906,16.4806063 C15.453906,16.9238101 15.3360904,18.0315181 14.9824928,18.955488 C14.5204324,20.1623058 13.8038843,20.9591073 13.6718886,21.1193124 C13.6718886,21.1193124 12.7998118,22.1941345 11.2677566,22.9153591 C9.88655354,23.5659847 8.670232,23.5518046 8.30728153,23.5659847 C8.30728153,23.5659847 6.20945498,23.6507637 4.31908041,22.373347 C3.90895845,22.0904991 3.52710619,21.7699381 3.17826041,21.4163404 L3.18768867,21.4256933 C5.07806324,22.7079372 7.1758898,22.6184819 7.1758898,22.6184819 C7.53884026,22.6043018 8.75516181,22.6184819 10.1363648,21.9678562 C11.6684201,21.2466317 12.5404968,20.1718095 12.5404968,20.1718095 C12.6724926,20.0114536 13.3890407,19.214803 13.851101,18.0079851 C14.2046987,17.0840152 14.3225143,15.9761564 14.3225143,15.5331034 L14.3225143,7.57089636 C14.3744074,7.59918116 15.0013493,8.01402479 15.0013493,8.01402479 C15.0013493,8.01402479 15.9111391,8.5938706 17.3300552,8.97100118 C18.3483078,9.23969917 19.720158,9.29626876 19.720158,9.29626876 L19.720158,6.27451754 C20.1915712,6.38293504 20.5922347,6.41121983 20.8515497,6.38293504 L20.8515497,6.38293504 Z" id="Shape" fill="#EE1D52"></path>
                        <path d="M19.720158,6.26979587 L19.720158,9.29156217 C19.720158,9.29156217 18.3483078,9.23499258 17.3300552,8.9662795 C15.9111391,8.58914893 15.0013493,8.0093182 15.0013493,8.0093182 C15.0013493,8.0093182 14.3695802,7.59447457 14.3225143,7.56618977 L14.3225143,15.5331034 C14.3225143,15.9761564 14.2046987,17.0840152 13.851101,18.0079851 C13.3890407,19.214803 12.6724926,20.0114536 12.5404968,20.1718095 C12.5404968,20.1718095 11.6684201,21.2466317 10.1363648,21.9678562 C8.75516181,22.6184819 7.53884026,22.6043018 7.1758898,22.6184819 C7.1758898,22.6184819 5.07806324,22.7032608 3.18770376,21.4256933 L3.17827549,21.4163404 C2.98028194,21.213595 2.79171665,21.0014968 2.61728621,20.7798949 C2.01387729,20.0114536 1.64617498,19.1063402 1.55189233,18.8471761 L1.55189233,18.8423488 C1.4010401,18.3946194 1.08990737,17.3102936 1.1323421,16.268508 C1.20776822,14.4252446 1.83003367,13.2891765 1.99502076,13.0063285 C2.42872093,12.2332109 2.99913847,11.5401957 3.66854525,10.9603499 C4.26252591,10.4606519 4.93663927,10.0599582 5.65790905,9.78181684 C6.440455,9.45182758 7.27952528,9.27741223 8.12806908,9.26326229 L8.12806908,12.3228171 C8.12806908,12.3228171 6.57715729,11.8088635 5.33262638,12.7188042 C4.46522605,13.392812 4.00324109,14.048114 3.86652371,15.2218953 C3.86181712,16.0846192 4.07394553,17.3056171 5.23362206,18.1211243 C5.37033944,18.2107305 5.50233514,18.2908331 5.63433084,18.3615828 C5.83704607,18.634927 6.08216586,18.8753855 6.3650138,19.0734544 C7.50112721,19.8228883 8.44863007,19.8747815 9.66495161,19.3891882 C10.4757824,19.0639507 11.0838677,18.3332225 11.3667156,17.5177154 C11.5459281,17.0085891 11.5411008,16.4994628 11.5411008,15.97148 L11.5411008,0.952254711 L14.3695802,0.952254711 C14.4875466,1.64522461 14.8081076,2.63519237 15.6660042,3.61102529 C16.0100982,3.9787276 16.3967324,4.30871686 16.8162525,4.58213653 C16.9388954,4.71883882 17.5751901,5.37881733 18.3955245,5.78895438 C18.8150446,6.00108279 19.2629248,6.16136328 19.720158,6.26979587 L19.720158,6.26979587 Z" id="Path" fill="#FFFFFF"></path>
                        <g fill="#69C9D0">
                            <path d="M0.42522227,17.9137025 L0.52522227,18.1164479 C0.511887514,18.0929149 0.471883247,18.0221652 0.42522227,17.9137025 Z" id="Path"></path>
                            <path d="M5.65789396,9.78653851 C4.93193268,10.0646648 4.26251082,10.4653736 3.66854525,10.9650716 C2.99441679,11.5449174 2.42872093,12.2425637 1.99502076,13.0156814 C1.83003367,13.2985293 1.20776822,14.429921 1.13232702,16.2778609 C1.08990737,17.3244737 1.40576177,18.4039722 1.55189233,18.8518525 L1.55189233,18.8565289 C1.64617498,19.1111675 2.01387729,20.0209573 2.61728621,20.7893986 C2.79170156,21.0108496 2.98026685,21.2230987 3.17827549,21.4256933 C2.53715351,20.9826403 1.97145764,20.449981 1.48589448,19.8417448 C0.887207229,19.0828073 0.519489829,18.1823703 0.425207185,17.9183789 L0.425207185,17.9090261 C0.274370038,17.4611458 -0.0414843636,16.3769708 0.00565695868,15.330358 C0.0810830744,13.4870946 0.703348529,12.3510264 0.8683507,12.0681785 C1.30203578,11.2950608 1.86773165,10.5973693 2.5418601,10.0175385 C3.13584076,9.51784052 3.80996921,9.11713174 4.5312239,8.83900548 C4.9837806,8.65044019 5.45519382,8.51372281 5.93603531,8.42416184 C6.6620871,8.29687273 7.40216814,8.28744446 8.13289635,8.39115537 L8.13289635,9.26798397 C7.27952528,9.28213391 6.440455,9.45654926 5.65790905,9.78653851 L5.65789396,9.78653851 Z" id="Path"></path>
                            <path d="M14.3744074,0.952254711 L11.5459281,0.952254711 L11.5459281,15.97148 C11.5459281,16.4994628 11.5459281,17.0085891 11.3713921,17.5177154 C11.0838677,18.3285461 10.4757824,19.0639507 9.66962803,19.3891882 C8.45345734,19.8794579 7.50112721,19.8228883 6.36973547,19.0734544 C6.08688754,18.8800619 5.84175266,18.6397543 5.63905252,18.3662592 C6.60544208,18.8800619 7.46809057,18.870709 8.5382363,18.4416853 C9.34906704,18.1164479 9.95715239,17.3810433 10.2400003,16.5702125 C10.4192128,16.0610862 10.4145364,15.5519599 10.4145364,15.0239771 L10.4145364,0.00472167484 L14.3225143,0.00472167484 C14.3178378,0.00472167484 14.2752975,0.377130579 14.3744074,0.952254711 Z M19.720158,5.43540201 L19.720158,6.26979587 C19.2629248,6.16136328 18.8150446,6.00109787 18.3955245,5.78895438 C17.5800173,5.38353901 16.9435718,4.71885391 16.8162525,4.58213653 C16.9624283,4.67641917 17.1086041,4.76127355 17.2641328,4.84142134 C18.2635288,5.33639769 19.2393919,5.48724992 19.720158,5.43540201 Z" id="Shape"></path>
                        </g>
                    </g>
                </g>
            </g>
        </g>
    </g>
</svg>
