<?xml version="1.0" encoding="UTF-8"?>
<svg width="40px" height="40px" viewBox="0 0 40 40" version="1.1" xmlns="http://www.w3.org/2000/svg" xmlns:xlink="http://www.w3.org/1999/xlink">
    <title>93EC5669-C96B-4766-8051-5A54A9F8A7FC</title>
    <g id="Page-1" stroke="none" stroke-width="1" fill="none" fill-rule="evenodd">
        <g id="Landing-v0-Copy-9" transform="translate(-621.000000, -2320.000000)">
            <g id="3.-Icons-/-Social-/-Twitter" transform="translate(621.000000, 2320.000000)">
                <g id="Icons-/-Twitter" transform="translate(0.000000, 0.000000)">
                    <rect id="Rectangle" x="0" y="-1.42108547e-13" width="40" height="40"></rect>
                    <path d="M20.4581294,16.2678241 L20.5076076,17.0836973 L19.68297,16.9837944 C16.6812892,16.6008335 14.0589416,15.3020966 11.8324201,13.1208847 L10.7438984,12.0386039 L10.4635216,12.8378266 C9.86978256,14.6194272 10.2491159,16.5009307 11.4860723,17.7663667 C12.1457823,18.4656865 11.9973476,18.5655894 10.8593477,18.1493276 C10.4635216,18.0161238 10.1171738,17.9162209 10.0841883,17.9661723 C9.96873907,18.0827257 10.3645651,19.5979187 10.6779274,20.1973358 C11.106739,21.0298594 11.9808548,21.8457326 12.9374344,22.3285963 L13.7455793,22.7115572 L12.7889997,22.7282077 C11.8654056,22.7282077 11.8324201,22.7448582 11.9313766,23.0945181 C12.2612316,24.1767988 13.564159,25.3256815 15.0155212,25.8251957 L16.0380718,26.1748556 L15.1474632,26.7076708 C13.8280431,27.4735925 12.2777244,27.9065048 10.7274057,27.9398058 C9.98523183,27.9564563 9.375,28.0230582 9.375,28.0730096 C9.375,28.2395143 11.3871157,29.1719408 12.5581011,29.5382512 C16.0710573,30.620532 20.2437236,30.1543187 23.3773465,28.3061162 C25.603868,26.9907288 27.8303895,24.3766045 28.8694329,21.8457326 C29.4301865,20.4970443 29.9909401,18.0327742 29.9909401,16.8505906 C29.9909401,16.0846689 30.0404183,15.984766 30.9640124,15.06899 C31.5082732,14.5361749 32.0195486,13.9534083 32.1185051,13.7869036 C32.2834326,13.4705446 32.2669398,13.4705446 31.4258095,13.7536026 C30.0239256,14.2531168 29.8260125,14.1865149 30.5187081,13.4372436 C31.0299834,12.9044285 31.6402153,11.9387011 31.6402153,11.655643 C31.6402153,11.6056916 31.392824,11.688944 31.1124472,11.8387982 C30.8155777,12.0053029 30.1558676,12.25506 29.661085,12.4049143 L28.7704764,12.6879723 L27.9623316,12.1385067 C27.5170272,11.8387982 26.8903027,11.5057888 26.5604476,11.4058859 C25.7193173,11.1727793 24.4328826,11.2060802 23.674216,11.4724878 C21.612622,12.2217591 20.3096946,14.153214 20.4581294,16.2678241 Z" id="Shape" fill="#FFFFFF" fill-rule="nonzero"></path>
                </g>
            </g>
        </g>
    </g>
</svg>
