<?xml version="1.0" encoding="utf-8"?>
<!-- Generator: Adobe Illustrator 23.0.5, SVG Export Plug-In . SVG Version: 6.00 Build 0)  -->
<svg version="1.1" id="Layer_1" xmlns="http://www.w3.org/2000/svg" xmlns:xlink="http://www.w3.org/1999/xlink" x="0px" y="0px"
	 viewBox="0 0 494.1 494.1" style="enable-background:new 0 0 494.1 494.1;" xml:space="preserve">
<style type="text/css">
	.st0{fill:#FFFFFF;}
</style>
<path class="st0" d="M362.8,168.2H131.6v-21.7C131.6,83.4,183.5,32,247.3,32c48.4,0,92.1,30.5,108.8,76c3,8.3,12.2,12.5,20.5,9.5
	c8.3-3.1,12.6-12.3,9.5-20.6C364.8,39,309.1,0,247.3,0C165.9,0,99.6,65.7,99.6,146.5v27.2c-36.1,13-62,47.6-62,88.1v138.8
	c0,51.6,42,93.6,93.6,93.6h231.6c51.6,0,93.6-42,93.6-93.6V261.7C456.4,210.1,414.4,168.2,362.8,168.2z M424.4,400.5
	c0,33.9-27.6,61.6-61.6,61.6H131.2c-33.9,0-61.6-27.6-61.6-61.6V261.7c0-33.9,27.6-61.6,61.6-61.6h231.6c33.9,0,61.6,27.6,61.6,61.6
	V400.5z"/>
</svg>
