<svg xmlns="http://www.w3.org/2000/svg" viewBox="0 0 45.055 39.432">
  <defs>
    <style>
      .cls-1 {
        fill: #fff;
      }

      .cls-2 {
        fill: #15e194;
      }
    </style>
  </defs>
  <g id="Group_8" data-name="Group 8" transform="translate(-3990.708 -449.506)">
    <g id="Group_6" data-name="Group 6">
      <path id="Path_13" data-name="Path 13" class="cls-1" d="M4035.763,482.107c-.1.9-.159,1.811-.308,2.705a5.137,5.137,0,0,1-6.916,3.818,14.482,14.482,0,0,1-6.356-4.7,6.906,6.906,0,0,0-3.224-2.511,10.74,10.74,0,0,0-2.614-.424c-2.055-.061-4.113-.009-6.17-.025a6.916,6.916,0,0,0-5.418,2.362,20.762,20.762,0,0,1-5.226,4.428,6.954,6.954,0,0,1-4.234,1.083,4.817,4.817,0,0,1-4.4-4.274,20.428,20.428,0,0,1,.7-8.5,22.948,22.948,0,0,1,4.749-9.51,8.305,8.305,0,0,1,5.312-3.076,7.64,7.64,0,0,1,3.7.632c.937.365,1.853.788,2.761,1.222a11.271,11.271,0,0,0,10.118.024c1.035-.486,2.08-.96,3.147-1.371,3.066-1.182,5.7-.36,7.979,1.847a19.184,19.184,0,0,1,4.48,7.254A28.109,28.109,0,0,1,4035.763,482.107Z"/>
      <path id="Path_14" data-name="Path 14" class="cls-1" d="M4014.693,464.133h-2.985a8.515,8.515,0,0,1,2.948-6.3,8.788,8.788,0,0,1,5.707-2.142c1.521-.031,3.053.053,4.562-.093a6.156,6.156,0,0,0,5.612-6.02l3.052-.073a9.1,9.1,0,0,1-4.524,7.858,9.647,9.647,0,0,1-5.2,1.368c-1.206,0-2.413-.027-3.618.017a5.526,5.526,0,0,0-5.437,4.909A4.435,4.435,0,0,1,4014.693,464.133Z"/>
    </g>
    <g id="Group_7" data-name="Group 7">
      <rect id="Rectangle_8" data-name="Rectangle 8" class="cls-2" width="3.302" height="11.454" transform="translate(4000.535 467.882)"/>
      <rect id="Rectangle_9" data-name="Rectangle 9" class="cls-2" width="3.302" height="11.454" transform="translate(4007.913 471.957) rotate(90)"/>
    </g>
    <rect id="Rectangle_10" data-name="Rectangle 10" class="cls-2" width="4.13" height="4.13" transform="translate(4021.934 466.971)"/>
    <rect id="Rectangle_11" data-name="Rectangle 11" class="cls-2" width="4.13" height="4.13" transform="translate(4026.038 471.091)"/>
    <rect id="Rectangle_12" data-name="Rectangle 12" class="cls-2" width="4.13" height="4.13" transform="translate(4021.923 475.204)"/>
    <rect id="Rectangle_13" data-name="Rectangle 13" class="cls-2" width="4.13" height="4.13" transform="translate(4017.812 471.091)"/>
  </g>
</svg>
