<svg xmlns="http://www.w3.org/2000/svg" viewBox="0 0 27.292 54.629">
  <defs>
    <style>
      .cls-1 {
        fill: #fff;
      }
    </style>
  </defs>
  <g id="Group_9" data-name="Group 9" transform="translate(-3946.333 -450.07)">
    <path id="Path_15" data-name="Path 15" class="cls-1" d="M3972.474,483.359h-26.127c0,.7,0,1.37,0,2.037.021,2.5-.091,5.013.1,7.5a13.045,13.045,0,0,0,26.03-1.366v-8.173Z"/>
    <path id="Path_16" data-name="Path 16" class="cls-1" d="M3946.348,468.164q0,6.12,0,12.24v.5H3958.2v-2.331h-2.318V466.7h2.317v-2.334h-8.07c-.03,0-.057.007-.086.007v-.006h-3.713v3.26h.059A4.867,4.867,0,0,0,3946.348,468.164Z"/>
    <path id="Path_17" data-name="Path 17" class="cls-1" d="M3961.115,464.366h-.477v2.347h2.316v11.864h-2.309v2.346h11.829v-.447q0-6.213,0-12.425a4.173,4.173,0,0,0-.038-.424h.041v-3.26h-3.713Q3964.938,464.363,3961.115,464.366Z"/>
    <path id="Path_18" data-name="Path 18" class="cls-1" d="M3968.911,450.071a10.7,10.7,0,0,0-10.434,8.381,13.151,13.151,0,0,0-.219,3.51h2.352c0-.492-.006-.958,0-1.425a8.241,8.241,0,0,1,7.34-8.013c1.7-.152,3.423-.064,5.136-.085.177,0,.354,0,.539,0v-2.368C3972.031,450.071,3970.471,450.069,3968.911,450.071Z"/>
    <path id="Path_19" data-name="Path 19" class="cls-1" d="M3958.275,469.115v7.048h2.312v-7.048Z"/>
  </g>
</svg>
