<?xml version="1.0" encoding="UTF-8"?>
<svg width="320px" height="320px" viewBox="0 0 320 320" version="1.1" xmlns="http://www.w3.org/2000/svg" xmlns:xlink="http://www.w3.org/1999/xlink">
    <!-- Generator: Sketch 51.2 (57519) - http://www.bohemiancoding.com/sketch -->
    <title>iPhone SE</title>
    <desc>Created with Sketch.</desc>
    <defs>
        <polygon id="path-1" points="0 0.547243243 153.957881 0.547243243 153.957881 158.13427 0 158.13427"></polygon>
        <polygon id="path-3" points="0.379285695 0.435891892 85.8912432 0.435891892 85.8912432 72.275027 0.379285695 72.275027"></polygon>
    </defs>
    <g id="iPhone-SE" stroke="none" stroke-width="1" fill="none" fill-rule="evenodd">
        <g id="Group-13" transform="translate(81.000000, 0.000000)">
            <path d="M87.1453405,172.055308 L87.1453405,155.745686 L87.1453405,155.719741 L87.1453405,155.690335 L87.1453405,139.375524 C87.1453405,133.9632 82.7570162,129.571416 77.3412324,129.571416 C71.9271784,129.571416 67.5371243,133.9632 67.5371243,139.375524 L67.5371243,155.643632 L67.5371243,155.716281 L67.5371243,155.78893 L67.5371243,172.055308 C67.5371243,177.471092 71.9271784,181.859416 77.3412324,181.859416 C82.7570162,181.859416 87.1453405,177.471092 87.1453405,172.055308" id="Fill-1" fill="#15E194"></path>
            <path d="M57.3716757,139.376216 C57.3076757,130.440432 63.2717838,122.584 71.8944865,120.241946 L71.8944865,80.3664865 L53.4918919,80.3664865 C24.2594595,80.3664865 0,103.979027 0,133.211459 L0,150.808 L57.3716757,150.808 L57.3716757,139.376216 Z" id="Fill-3" fill="#15E194"></path>
            <path d="M101.739935,80.3659676 L101.413016,80.3659676 L82.0625297,80.3659676 L82.0625297,119.911049 C91.039827,122.083589 97.3516108,130.137211 97.311827,139.373968 L97.311827,150.809211 L153.957016,150.809211 L153.957016,133.210941 C154.129989,104.198184 130.750962,80.5406703 101.739935,80.3659676" id="Fill-5" fill="#15E194"></path>
            <g id="Group-9" transform="translate(0.000000, 160.428973)">
                <mask id="mask-2" fill="white">
                    <use xlink:href="#path-1"></use>
                </mask>
                <g id="Clip-8"></g>
                <path d="M97.3126919,11.6278919 C97.3126919,22.6566486 88.3717189,31.5993514 77.3412324,31.5993514 C66.3124757,31.5993514 57.3715027,22.6566486 57.3715027,11.6278919 L57.3715027,0.547243243 L-0.000172972973,0.547243243 L-0.000172972973,104.939892 C-0.000172972973,134.170595 24.2610162,158.13427 53.4917189,158.13427 L101.412151,158.13427 C130.646314,158.13427 153.957881,134.170595 153.957881,104.939892 L153.957881,0.547243243 L97.3126919,0.547243243 L97.3126919,11.6278919 Z" id="Fill-7" fill="#15E194" mask="url(#mask-2)"></path>
            </g>
            <g id="Group-12" transform="translate(71.918919, 0.293838)">
                <mask id="mask-4" fill="white">
                    <use xlink:href="#path-3"></use>
                </mask>
                <g id="Clip-11"></g>
                <path d="M75.5135568,1.20562162 L75.5135568,36.5612973 C75.511827,39.9948108 74.1193946,43.0927568 71.8396108,45.3794595 C69.5529081,47.6575135 66.4549622,49.0499459 63.0231784,49.0516757 C59.5931243,49.0499459 56.4951784,47.6575135 54.2084757,45.3794595 C51.9286919,43.0927568 50.5379892,39.9948108 50.5362595,36.5612973 L50.5362595,25.5135135 C50.5379892,18.6118919 47.7012324,12.3191351 43.1728,7.79935135 C38.6495568,3.26745946 32.3585297,0.434162162 25.4586378,0.435891892 C18.5570162,0.434162162 12.2642595,3.26745946 7.74101622,7.79935135 C3.21258378,12.3208649 0.377556757,18.6118919 0.379286486,25.5135135 L0.379285695,72.275027 L10.7576649,72.275027 L10.7576649,25.5135135 C10.7593946,21.4745946 12.4009081,17.8231351 15.0802595,15.1368649 C17.7682595,12.4557838 21.4197189,10.816 25.4586378,10.8142703 C29.495827,10.816 33.1455568,12.4557838 35.8352865,15.1368649 C38.5146378,17.8248649 40.1561514,21.4763243 40.1578811,25.5135135 L40.1578811,36.5612973 C40.1561514,42.8540541 42.7420973,48.595027 46.8692324,52.716973 C50.9894486,56.8458378 56.7321514,59.4317838 63.0231784,59.4300541 C69.3159351,59.4317838 75.0569081,56.8458378 79.1788541,52.716973 C83.3077189,48.595027 85.8936649,42.8540541 85.8919351,36.5612973 L85.8919351,1.20562162 L75.5135568,1.20562162 Z" id="Fill-10" fill="#15E194" mask="url(#mask-4)"></path>
            </g>
        </g>
    </g>
</svg>