<?xml version="1.0" encoding="UTF-8"?>
<svg width="320px" height="320px" viewBox="0 0 320 320" version="1.1" xmlns="http://www.w3.org/2000/svg" xmlns:xlink="http://www.w3.org/1999/xlink">
    <!-- Generator: Sketch 51.2 (57519) - http://www.bohemiancoding.com/sketch -->
    <title>iPhone SE</title>
    <desc>Created with Sketch.</desc>
    <defs>
        <polygon id="path-1" points="0 -2.84217094e-14 319.176649 -2.84217094e-14 319.176649 249.766054 0 249.766054"></polygon>
    </defs>
    <g id="iPhone-SE" stroke="none" stroke-width="1" fill="none" fill-rule="evenodd">
        <g id="Group-3" transform="translate(0.000000, 35.000000)">
            <mask id="mask-2" fill="white">
                <use xlink:href="#path-1"></use>
            </mask>
            <g id="Clip-2"></g>
            <path d="M276.620108,170.674854 C267.807135,170.674854 260.661622,163.529341 260.661622,154.714638 C260.661622,145.903395 267.807135,138.757881 276.620108,138.757881 C285.433081,138.757881 292.578595,145.903395 292.578595,154.714638 C292.578595,163.529341 285.433081,170.674854 276.620108,170.674854 Z M244.701405,202.591827 C235.890162,202.591827 228.742919,195.446314 228.742919,186.63507 C228.742919,177.820368 235.890162,170.674854 244.701405,170.674854 C253.516108,170.674854 260.661622,177.820368 260.661622,186.63507 C260.661622,195.446314 253.516108,202.591827 244.701405,202.591827 Z M212.784432,170.674854 C203.971459,170.674854 196.825946,163.529341 196.825946,154.714638 C196.825946,145.903395 203.971459,138.757881 212.784432,138.757881 C221.597405,138.757881 228.742919,145.903395 228.742919,154.714638 C228.742919,163.529341 221.597405,170.674854 212.784432,170.674854 Z M244.701405,106.840908 C253.516108,106.840908 260.661622,113.986422 260.661622,122.797665 C260.661622,131.612368 253.516108,138.757881 244.701405,138.757881 C235.890162,138.757881 228.742919,131.612368 228.742919,122.797665 C228.742919,113.986422 235.890162,106.840908 244.701405,106.840908 Z M106.392216,170.674854 L90.4337297,170.674854 L90.4337297,186.63507 L58.515027,186.63507 L58.515027,170.674854 L42.5565405,170.674854 L42.5565405,138.757881 L58.515027,138.757881 L58.515027,122.797665 L90.4337297,122.797665 L90.4337297,138.757881 L106.392216,138.757881 L106.392216,170.674854 Z M254.40173,78.2259892 C237.652757,71.7239351 219.215568,75.6936649 199.704216,79.8865297 C188.41427,82.5779892 176.932324,84.383827 165.360432,85.2867459 C165.360432,85.2850162 165.360432,85.2832865 165.362162,85.279827 L164.777514,85.4251243 L164.777514,25.0765838 C164.779243,21.0376649 166.420757,17.3879351 169.100108,14.6999351 C171.788108,12.0188541 175.437838,10.3790703 179.476757,10.3773405 C183.515676,10.3790703 187.165405,12.0188541 189.853405,14.6999351 C192.534486,17.3879351 194.17427,21.0376649 194.176,25.0765838 L194.176,36.1260973 C194.17427,42.4188541 196.760216,48.159827 200.889081,52.2800432 C205.011027,56.4071784 210.752,58.9948541 217.044757,58.9931243 C223.335784,58.9948541 229.076757,56.4071784 233.198703,52.2800432 C237.327568,48.159827 239.913514,42.4188541 239.911784,36.1260973 L239.911784,0.766962162 L229.533405,0.766962162 L229.533405,36.1260973 C229.531676,39.5561514 228.140973,42.6540973 225.859459,44.9425297 C223.572757,47.2205838 220.474811,48.6130162 217.044757,48.6147459 C213.612973,48.6130162 210.515027,47.2205838 208.226595,44.9425297 C205.946811,42.6540973 204.556108,39.5561514 204.554378,36.1260973 L204.554378,25.0765838 C204.556108,18.1766919 201.721081,11.8822054 197.192649,7.36069189 C192.671135,2.83225946 186.376649,-0.00276756757 179.476757,-0.00103783784 C172.576865,-0.00276756757 166.282378,2.83225946 161.760865,7.36069189 C157.232432,11.8822054 154.397405,18.1766919 154.399135,25.0765838 L154.399135,85.3005838 C142.661189,84.4357189 131.013189,82.6143135 119.574486,79.8467459 C100.173838,75.6296649 81.8490811,71.6564757 65.1814054,78.0755027 C24.3788108,93.7797189 0,156.423611 0,207.912476 C0,228.719395 4.06486486,240.995286 12.7654054,246.544259 C25.7695135,254.824476 45.0940541,245.793557 69.5645405,234.361773 C94.7943784,222.577124 126.176865,207.912476 159.588324,207.912476 C192.999784,207.912476 224.38227,222.577124 249.594811,234.361773 C267.438703,242.69907 282.544432,249.758097 294.46227,249.758097 C298.665514,249.873989 302.809946,248.765232 306.393946,246.565016 C315.111784,240.995286 319.176649,228.719395 319.176649,207.912476 C319.176649,156.539503 294.944865,93.9872865 254.40173,78.2259892 Z" id="Fill-1" fill="#15E194" mask="url(#mask-2)"></path>
        </g>
    </g>
</svg>