<?xml version="1.0" encoding="UTF-8"?>
<svg width="320px" height="320px" viewBox="0 0 320 320" version="1.1" xmlns="http://www.w3.org/2000/svg" xmlns:xlink="http://www.w3.org/1999/xlink">
    <!-- Generator: Sketch 51.2 (57519) - http://www.bohemiancoding.com/sketch -->
    <title>iPhone SE</title>
    <desc>Created with Sketch.</desc>
    <defs>
        <polygon id="path-1" points="0.00168421053 0 319.047298 0 319.047298 319.083228 0.00168421053 319.083228"></polygon>
    </defs>
    <g id="iPhone-SE" stroke="none" stroke-width="1" fill="none" fill-rule="evenodd">
        <g id="Group-3">
            <mask id="mask-2" fill="white">
                <use xlink:href="#path-1"></use>
            </mask>
            <g id="Clip-2"></g>
            <path d="M218.926596,174.906386 C208.686596,163.411649 193.444491,146.942877 173.318175,126.928842 C168.916772,122.552702 164.265544,117.991298 159.381333,113.264281 C159.381333,113.264281 152.026947,120.618667 142.455018,130.288842 L142.455018,130.280421 C130.205193,142.653754 114.317474,158.799719 105.503439,168.222877 C89.8037895,184.975158 44.8269474,237.589895 42.2978246,267.091649 C42.2978246,267.091649 32.290807,243.692351 54.2501053,189.724632 C68.5967719,154.446035 111.951158,101.472 130.053614,84.2088421 C130.053614,84.2088421 113.51186,66.0081404 92.7539649,53.4355088 L92.6304561,53.3962105 C92.6304561,53.3962105 92.3946667,53.2109474 92.0213333,52.9751579 C82.0395789,47.0214737 71.1427368,42.434807 60.6501053,41.8284912 C49.9357193,42.5835789 43.1539649,50.4179649 43.1539649,50.4179649 C16.3806316,78.9653333 0.00168421053,117.331649 0.00168421053,159.540772 C0.00168421053,247.647439 71.4262456,319.083228 159.54414,319.083228 C206.303439,319.083228 248.377825,298.923228 277.568,266.867088 C277.556772,266.816561 274.205193,245.786386 252.742737,215.616561 C247.695719,208.548491 229.256421,186.48814 218.926596,174.906386 M276.563088,51.1505965 C275.855719,50.3702456 275.089404,49.637614 274.382035,48.832 C268.540632,42.4235789 261.360281,40.8712982 254.890105,41.2923509 C248.998175,43.1421754 221.781333,52.9498947 188.234667,84.6214737 C188.234667,84.6214737 225.997474,121.337263 249.121684,158.872702 C272.223439,196.40814 286.036772,225.909895 277.542737,266.85586 C303.322386,238.519018 319.047298,200.874105 319.047298,159.529544 C319.047298,117.690947 302.940632,79.6109474 276.563088,51.1505965 M71.0641404,27.069193 C70.9069474,27.1955088 70.7806316,27.3302456 70.6318596,27.4565614 C71.5357193,26.4993684 72.8381754,25.472 73.6943158,24.9105965 C98.6683509,8.68042105 127.524491,-0.00168421053 159.54414,-0.00168421053 C189.489404,-0.00168421053 217.53993,8.27340351 241.483789,22.6565614 C243.218526,23.6867368 247.956772,26.9344561 250.398877,29.8846316 L250.398877,29.8986667 C227.297123,4.42778947 159.392561,59.074807 159.392561,59.074807 C135.906246,40.9695439 114.306246,28.6327018 98.2220351,24.2425263 C84.7820351,20.5625263 75.4795789,23.6334035 71.0641404,27.069193" id="Fill-1" fill="#15E194" mask="url(#mask-2)"></path>
        </g>
    </g>
</svg>