<?xml version="1.0" encoding="UTF-8"?>
<svg width="118px" height="140px" viewBox="0 0 118 140" version="1.1" xmlns="http://www.w3.org/2000/svg" xmlns:xlink="http://www.w3.org/1999/xlink">
    <!-- Generator: sketchtool 64 (101010) - https://sketch.com -->
    <title>E037522A-7072-47E7-A146-37DECDBF9AB3</title>
    <desc>Created with sketchtool.</desc>
    <g id="Page-1" stroke="none" stroke-width="1" fill="none" fill-rule="evenodd">
        <g id="Landing-Features" transform="translate(0.000000, -1693.000000)" fill="#00FBB7">
            <g id="Group-2" transform="translate(48.000000, 1763.000000) rotate(16.000000) translate(-48.000000, -1763.000000) translate(-24.000000, 1691.000000)">
                <circle id="Oval-Copy-39" cx="72" cy="2" r="2"></circle>
                <circle id="Oval-Copy-38" cx="72" cy="22" r="2"></circle>
                <circle id="Oval-Copy-37" cx="82" cy="12" r="2"></circle>
                <circle id="Oval-Copy-36" cx="62" cy="12" r="2"></circle>
                <circle id="Oval-Copy-55" cx="72" cy="42" r="2"></circle>
                <circle id="Oval-Copy-54" cx="72" cy="62" r="2"></circle>
                <circle id="Oval-Copy-53" cx="82" cy="52" r="2"></circle>
                <circle id="Oval-Copy-52" cx="62" cy="52" r="2"></circle>
                <circle id="Oval-Copy-59" cx="52" cy="22" r="2"></circle>
                <circle id="Oval-Copy-58" cx="52" cy="42" r="2"></circle>
                <circle id="Oval-Copy-57" cx="62" cy="32" r="2"></circle>
                <circle id="Oval-Copy-56" cx="42" cy="32" r="2"></circle>
                <circle id="Oval-Copy-63" cx="92" cy="22" r="2"></circle>
                <circle id="Oval-Copy-62" cx="92" cy="42" r="2"></circle>
                <circle id="Oval-Copy-61" cx="102" cy="32" r="2"></circle>
                <circle id="Oval-Copy-60" cx="82" cy="32" r="2"></circle>
                <circle id="Oval-Copy-79" cx="112" cy="42" r="2"></circle>
                <circle id="Oval-Copy-78" cx="112" cy="62" r="2"></circle>
                <circle id="Oval-Copy-77" cx="122" cy="52" r="2"></circle>
                <circle id="Oval-Copy-76" cx="102" cy="52" r="2"></circle>
                <circle id="Oval-Copy-75" cx="112" cy="82" r="2"></circle>
                <circle id="Oval-Copy-74" cx="112" cy="102" r="2"></circle>
                <circle id="Oval-Copy-73" cx="122" cy="92" r="2"></circle>
                <circle id="Oval-Copy-72" cx="102" cy="92" r="2"></circle>
                <circle id="Oval-Copy-71" cx="92" cy="62" r="2"></circle>
                <circle id="Oval-Copy-70" cx="92" cy="82" r="2"></circle>
                <circle id="Oval-Copy-69" cx="102" cy="72" r="2"></circle>
                <circle id="Oval-Copy-68" cx="82" cy="72" r="2"></circle>
                <circle id="Oval-Copy-67" cx="132" cy="62" r="2"></circle>
                <circle id="Oval-Copy-66" cx="132" cy="82" r="2"></circle>
                <circle id="Oval-Copy-65" cx="142" cy="72" r="2"></circle>
                <circle id="Oval-Copy-64" cx="122" cy="72" r="2"></circle>
                <circle id="Oval-Copy-111" cx="32" cy="42" r="2"></circle>
                <circle id="Oval-Copy-110" cx="32" cy="62" r="2"></circle>
                <circle id="Oval-Copy-109" cx="42" cy="52" r="2"></circle>
                <circle id="Oval-Copy-108" cx="22" cy="52" r="2"></circle>
                <circle id="Oval-Copy-107" cx="32" cy="82" r="2"></circle>
                <circle id="Oval-Copy-106" cx="32" cy="102" r="2"></circle>
                <circle id="Oval-Copy-105" cx="42" cy="92" r="2"></circle>
                <circle id="Oval-Copy-101" cx="22" cy="72" r="2"></circle>
                <circle id="Oval-Copy-99" cx="52" cy="62" r="2"></circle>
                <circle id="Oval-Copy-98" cx="52" cy="82" r="2"></circle>
                <circle id="Oval-Copy-97" cx="62" cy="72" r="2"></circle>
                <circle id="Oval-Copy-96" cx="42" cy="72" r="2"></circle>
                <circle id="Oval-Copy-95" cx="72" cy="82" r="2"></circle>
                <circle id="Oval-Copy-94" cx="72" cy="102" r="2"></circle>
                <circle id="Oval-Copy-93" cx="82" cy="92" r="2"></circle>
                <circle id="Oval-Copy-92" cx="62" cy="92" r="2"></circle>
                <circle id="Oval-Copy-91" cx="72" cy="122" r="2"></circle>
                <circle id="Oval-Copy-89" cx="82" cy="132" r="2"></circle>
                <circle id="Oval-Copy-88" cx="62" cy="132" r="2"></circle>
                <circle id="Oval-Copy-87" cx="52" cy="102" r="2"></circle>
                <circle id="Oval-Copy-86" cx="52" cy="122" r="2"></circle>
                <circle id="Oval-Copy-85" cx="62" cy="112" r="2"></circle>
                <circle id="Oval-Copy-84" cx="42" cy="112" r="2"></circle>
                <circle id="Oval-Copy-83" cx="92" cy="102" r="2"></circle>
                <circle id="Oval-Copy-82" cx="92" cy="122" r="2"></circle>
                <circle id="Oval-Copy-81" cx="102" cy="112" r="2"></circle>
                <circle id="Oval-Copy-80" cx="82" cy="112" r="2"></circle>
                <circle id="Oval-Copy-90" cx="72" cy="142" r="2"></circle>
            </g>
        </g>
    </g>
</svg>