<?xml version="1.0" encoding="UTF-8"?>
<svg width="94px" height="104px" viewBox="0 0 94 104" version="1.1" xmlns="http://www.w3.org/2000/svg" xmlns:xlink="http://www.w3.org/1999/xlink">
    <!-- Generator: sketchtool 64 (101010) - https://sketch.com -->
    <title>5566A393-C136-493B-886F-59C6B0A636CB</title>
    <desc>Created with sketchtool.</desc>
    <g id="Page-1" stroke="none" stroke-width="1" fill="none" fill-rule="evenodd">
        <g id="Landing-Features" transform="translate(-1185.000000, -1963.000000)" fill="#00FBB7">
            <g id="Group-3" transform="translate(1185.000000, 1963.000000)">
                <circle id="Oval" transform="translate(22.000000, 72.000000) rotate(-90.000000) translate(-22.000000, -72.000000) " cx="22" cy="72" r="2"></circle>
                <circle id="Oval-Copy" transform="translate(42.000000, 72.000000) rotate(-90.000000) translate(-42.000000, -72.000000) " cx="42" cy="72" r="2"></circle>
                <circle id="Oval-Copy-2" transform="translate(32.000000, 62.000000) rotate(-90.000000) translate(-32.000000, -62.000000) " cx="32" cy="62" r="2"></circle>
                <circle id="Oval-Copy-3" transform="translate(32.000000, 82.000000) rotate(-90.000000) translate(-32.000000, -82.000000) " cx="32" cy="82" r="2"></circle>
                <circle id="Oval-Copy-57" transform="translate(12.000000, 82.000000) rotate(-90.000000) translate(-12.000000, -82.000000) " cx="12" cy="82" r="2"></circle>
                <circle id="Oval-Copy-56" transform="translate(22.000000, 92.000000) rotate(-90.000000) translate(-22.000000, -92.000000) " cx="22" cy="92" r="2"></circle>
                <circle id="Oval-Copy-7" transform="translate(22.000000, 32.000000) rotate(-90.000000) translate(-22.000000, -32.000000) " cx="22" cy="32" r="2"></circle>
                <circle id="Oval-Copy-6" transform="translate(42.000000, 32.000000) rotate(-90.000000) translate(-42.000000, -32.000000) " cx="42" cy="32" r="2"></circle>
                <circle id="Oval-Copy-5" transform="translate(32.000000, 22.000000) rotate(-90.000000) translate(-32.000000, -22.000000) " cx="32" cy="22" r="2"></circle>
                <circle id="Oval-Copy-59" transform="translate(12.000000, 22.000000) rotate(-90.000000) translate(-12.000000, -22.000000) " cx="12" cy="22" r="2"></circle>
                <circle id="Oval-Copy-58" transform="translate(22.000000, 12.000000) rotate(-90.000000) translate(-22.000000, -12.000000) " cx="22" cy="12" r="2"></circle>
                <circle id="Oval-Copy-4" transform="translate(32.000000, 42.000000) rotate(-90.000000) translate(-32.000000, -42.000000) " cx="32" cy="42" r="2"></circle>
                <circle id="Oval-Copy-31" transform="translate(2.000000, 52.000000) rotate(-90.000000) translate(-2.000000, -52.000000) " cx="2" cy="52" r="2"></circle>
                <circle id="Oval-Copy-30" transform="translate(22.000000, 52.000000) rotate(-90.000000) translate(-22.000000, -52.000000) " cx="22" cy="52" r="2"></circle>
                <circle id="Oval-Copy-29" transform="translate(12.000000, 42.000000) rotate(-90.000000) translate(-12.000000, -42.000000) " cx="12" cy="42" r="2"></circle>
                <circle id="Oval-Copy-28" transform="translate(12.000000, 62.000000) rotate(-90.000000) translate(-12.000000, -62.000000) " cx="12" cy="62" r="2"></circle>
                <circle id="Oval-Copy-35" transform="translate(82.000000, 52.000000) rotate(-90.000000) translate(-82.000000, -52.000000) " cx="82" cy="52" r="2"></circle>
                <circle id="Oval-Copy-33" transform="translate(92.000000, 42.000000) rotate(-90.000000) translate(-92.000000, -42.000000) " cx="92" cy="42" r="2"></circle>
                <circle id="Oval-Copy-32" transform="translate(92.000000, 62.000000) rotate(-90.000000) translate(-92.000000, -62.000000) " cx="92" cy="62" r="2"></circle>
                <circle id="Oval-Copy-11" transform="translate(62.000000, 32.000000) rotate(-90.000000) translate(-62.000000, -32.000000) " cx="62" cy="32" r="2"></circle>
                <circle id="Oval-Copy-10" transform="translate(92.000000, 22.000000) rotate(-90.000000) translate(-92.000000, -22.000000) " cx="92" cy="22" r="2"></circle>
                <circle id="Oval-Copy-9" transform="translate(82.000000, 12.000000) rotate(-90.000000) translate(-82.000000, -12.000000) " cx="82" cy="12" r="2"></circle>
                <circle id="Oval-Copy-53" transform="translate(82.000000, 32.000000) rotate(-90.000000) translate(-82.000000, -32.000000) " cx="82" cy="32" r="2"></circle>
                <circle id="Oval-Copy-52" transform="translate(72.000000, 22.000000) rotate(-90.000000) translate(-72.000000, -22.000000) " cx="72" cy="22" r="2"></circle>
                <circle id="Oval-Copy-8" transform="translate(72.000000, 42.000000) rotate(-90.000000) translate(-72.000000, -42.000000) " cx="72" cy="42" r="2"></circle>
                <circle id="Oval-Copy-15" transform="translate(62.000000, 72.000000) rotate(-90.000000) translate(-62.000000, -72.000000) " cx="62" cy="72" r="2"></circle>
                <circle id="Oval-Copy-14" transform="translate(92.000000, 82.000000) rotate(-90.000000) translate(-92.000000, -82.000000) " cx="92" cy="82" r="2"></circle>
                <circle id="Oval-Copy-13" transform="translate(72.000000, 62.000000) rotate(-90.000000) translate(-72.000000, -62.000000) " cx="72" cy="62" r="2"></circle>
                <circle id="Oval-Copy-12" transform="translate(82.000000, 92.000000) rotate(-90.000000) translate(-82.000000, -92.000000) " cx="82" cy="92" r="2"></circle>
                <circle id="Oval-Copy-55" transform="translate(82.000000, 72.000000) rotate(-90.000000) translate(-82.000000, -72.000000) " cx="82" cy="72" r="2"></circle>
                <circle id="Oval-Copy-54" transform="translate(72.000000, 82.000000) rotate(-90.000000) translate(-72.000000, -82.000000) " cx="72" cy="82" r="2"></circle>
                <circle id="Oval-Copy-19" transform="translate(42.000000, 52.000000) rotate(-90.000000) translate(-42.000000, -52.000000) " cx="42" cy="52" r="2"></circle>
                <circle id="Oval-Copy-18" transform="translate(62.000000, 52.000000) rotate(-90.000000) translate(-62.000000, -52.000000) " cx="62" cy="52" r="2"></circle>
                <circle id="Oval-Copy-17" transform="translate(52.000000, 42.000000) rotate(-90.000000) translate(-52.000000, -42.000000) " cx="52" cy="42" r="2"></circle>
                <circle id="Oval-Copy-16" transform="translate(52.000000, 62.000000) rotate(-90.000000) translate(-52.000000, -62.000000) " cx="52" cy="62" r="2"></circle>
                <circle id="Oval-Copy-23" transform="translate(42.000000, 12.000000) rotate(-90.000000) translate(-42.000000, -12.000000) " cx="42" cy="12" r="2"></circle>
                <circle id="Oval-Copy-22" transform="translate(62.000000, 12.000000) rotate(-90.000000) translate(-62.000000, -12.000000) " cx="62" cy="12" r="2"></circle>
                <circle id="Oval-Copy-21" transform="translate(52.000000, 2.000000) rotate(-90.000000) translate(-52.000000, -2.000000) " cx="52" cy="2" r="2"></circle>
                <circle id="Oval-Copy-20" transform="translate(52.000000, 22.000000) rotate(-90.000000) translate(-52.000000, -22.000000) " cx="52" cy="22" r="2"></circle>
                <circle id="Oval-Copy-27" transform="translate(42.000000, 92.000000) rotate(-90.000000) translate(-42.000000, -92.000000) " cx="42" cy="92" r="2"></circle>
                <circle id="Oval-Copy-26" transform="translate(62.000000, 92.000000) rotate(-90.000000) translate(-62.000000, -92.000000) " cx="62" cy="92" r="2"></circle>
                <circle id="Oval-Copy-25" transform="translate(52.000000, 82.000000) rotate(-90.000000) translate(-52.000000, -82.000000) " cx="52" cy="82" r="2"></circle>
                <circle id="Oval-Copy-24" transform="translate(52.000000, 102.000000) rotate(-90.000000) translate(-52.000000, -102.000000) " cx="52" cy="102" r="2"></circle>
            </g>
        </g>
    </g>
</svg>