<?xml version="1.0" encoding="UTF-8"?>
<svg width="98px" height="98px" viewBox="0 0 98 98" version="1.1" xmlns="http://www.w3.org/2000/svg" xmlns:xlink="http://www.w3.org/1999/xlink">
    <!-- Generator: sketchtool 64 (101010) - https://sketch.com -->
    <title>4C29BA38-93BE-4173-99E6-E1D09E2C7CF1</title>
    <desc>Created with sketchtool.</desc>
    <g id="Page-1" stroke="none" stroke-width="1" fill="none" fill-rule="evenodd">
        <g id="Landing-Features" transform="translate(-1177.000000, -958.000000)" fill="#00FBB7">
            <g id="Group-5" transform="translate(1226.000000, 1007.000000) rotate(16.000000) translate(-1226.000000, -1007.000000) translate(1184.000000, 965.000000)">
                <g id="Group">
                    <circle id="Oval-Copy-39" cx="12" cy="2" r="2"></circle>
                    <circle id="Oval-Copy-38" cx="12" cy="22" r="2"></circle>
                    <circle id="Oval-Copy-37" cx="22" cy="12" r="2"></circle>
                    <circle id="Oval-Copy-36" cx="2" cy="12" r="2"></circle>
                    <circle id="Oval-Copy-43" cx="32" cy="22" r="2"></circle>
                    <circle id="Oval-Copy-42" cx="32" cy="42" r="2"></circle>
                    <circle id="Oval-Copy-41" cx="42" cy="32" r="2"></circle>
                    <circle id="Oval-Copy-40" cx="22" cy="32" r="2"></circle>
                    <circle id="Oval-Copy-47" cx="52" cy="42" r="2"></circle>
                    <circle id="Oval-Copy-46" cx="52" cy="62" r="2"></circle>
                    <circle id="Oval-Copy-45" cx="62" cy="52" r="2"></circle>
                    <circle id="Oval-Copy-44" cx="42" cy="52" r="2"></circle>
                    <circle id="Oval-Copy-51" cx="72" cy="62" r="2"></circle>
                    <circle id="Oval-Copy-50" cx="72" cy="82" r="2"></circle>
                    <circle id="Oval-Copy-49" cx="82" cy="72" r="2"></circle>
                    <circle id="Oval-Copy-48" cx="62" cy="72" r="2"></circle>
                </g>
                <g id="Group-Copy" transform="translate(42.000000, 42.000000) scale(-1, 1) translate(-42.000000, -42.000000) ">
                    <circle id="Oval-Copy-39" cx="12" cy="2" r="2"></circle>
                    <circle id="Oval-Copy-38" cx="12" cy="22" r="2"></circle>
                    <circle id="Oval-Copy-37" cx="22" cy="12" r="2"></circle>
                    <circle id="Oval-Copy-36" cx="2" cy="12" r="2"></circle>
                    <circle id="Oval-Copy-43" cx="32" cy="22" r="2"></circle>
                    <circle id="Oval-Copy-42" cx="32" cy="42" r="2"></circle>
                    <circle id="Oval-Copy-41" cx="42" cy="32" r="2"></circle>
                    <circle id="Oval-Copy-40" cx="22" cy="32" r="2"></circle>
                    <circle id="Oval-Copy-47" cx="52" cy="42" r="2"></circle>
                    <circle id="Oval-Copy-46" cx="52" cy="62" r="2"></circle>
                    <circle id="Oval-Copy-45" cx="62" cy="52" r="2"></circle>
                    <circle id="Oval-Copy-44" cx="42" cy="52" r="2"></circle>
                    <circle id="Oval-Copy-51" cx="72" cy="62" r="2"></circle>
                    <circle id="Oval-Copy-50" cx="72" cy="82" r="2"></circle>
                    <circle id="Oval-Copy-49" cx="82" cy="72" r="2"></circle>
                    <circle id="Oval-Copy-48" cx="62" cy="72" r="2"></circle>
                </g>
            </g>
        </g>
    </g>
</svg>