<?xml version="1.0" encoding="UTF-8"?>
<svg width="38px" height="26px" viewBox="0 0 38 26" version="1.1" xmlns="http://www.w3.org/2000/svg" xmlns:xlink="http://www.w3.org/1999/xlink">
    <!-- Generator: sketchtool 63.1 (101010) - https://sketch.com -->
    <title>64AB8D7E-6957-434B-9469-13BC23FE1BC8</title>
    <desc>Created with sketchtool.</desc>
    <defs>
        <polygon id="path-1" points="6.41419828e-05 0.127717073 37.2168293 0.127717073 37.2168293 25.0242049 6.41419828e-05 25.0242049"></polygon>
    </defs>
    <g id="Page-1" stroke="none" stroke-width="1" fill="none" fill-rule="evenodd">
        <g id="Landing-v0" transform="translate(-921.000000, -2321.000000)">
            <g id="Group-12-Copy-2" transform="translate(921.000000, 2321.000000)">
                <g id="Group-3" transform="translate(0.000000, 0.799483)">
                    <mask id="mask-2" fill="white">
                        <use xlink:href="#path-1"></use>
                    </mask>
                    <g id="Clip-2"></g>
                    <path d="M23.6910537,17.5558146 C25.1517366,17.5558146 25.9543707,17.6855707 26.5614439,18.4251805 L26.6772976,18.5697659 C29.3604683,21.9248878 31.8452976,23.8499122 33.4950537,23.8499122 C33.9584683,23.8499122 34.3820293,23.5968878 34.7555415,23.0973268 C36.1884195,21.1806439 36.7074439,15.7373756 34.8472976,9.42381463 C32.7647122,2.35766829 28.982322,1.30200976 26.9127122,1.30200976 C25.1165171,1.30200976 23.9264683,1.99527805 23.3777854,2.4086439 C22.4453951,3.10932683 20.9087122,3.63761951 19.8030049,3.63761951 L17.4145659,3.63761951 C16.3079317,3.63761951 14.7712488,3.10932683 13.8397854,2.4086439 C13.2901756,1.99527805 12.1001268,1.30200976 10.3039317,1.30200976 C8.23524878,1.30200976 4.45193171,2.35766829 2.36934634,9.42381463 C0.5092,15.7373756 1.02822439,21.1806439 2.46202927,23.0973268 C2.83461463,23.5968878 3.25910244,23.8499122 3.72251707,23.8499122 C5.37041951,23.8499122 7.85524878,21.9258146 10.5384195,18.5716195 L10.6561268,18.4251805 C11.2632,17.6855707 12.0649073,17.5558146 13.5265171,17.5558146 C14.8880293,17.5558146 18.6129561,17.5845463 18.6129561,17.5845463 C18.6036878,17.5845463 22.3286146,17.5558146 23.6910537,17.5558146 M33.4950537,25.0242049 C30.882322,25.0242049 27.8469561,21.9137659 25.7597366,19.3038146 L25.6531512,19.171278 C25.4029073,18.8663512 25.0609073,18.7310341 23.6910537,18.7310341 C22.3313951,18.7310341 18.6129561,18.758839 18.6129561,18.758839 C18.6036878,18.758839 14.8861756,18.7310341 13.5265171,18.7310341 C12.1566634,18.7310341 11.8137366,18.8663512 11.5634927,19.171278 L11.4559805,19.3047415 C9.36876098,21.9146927 6.33339512,25.0242049 3.72251707,25.0242049 C2.8809561,25.0242049 2.11910244,24.6015707 1.52129756,23.8017171 C-0.396312195,21.2371805 -0.514019512,15.051522 1.24232195,9.09200976 C3.54085854,1.29181463 7.90715122,0.127717073 10.3039317,0.127717073 C12.3346146,0.127717073 13.7313463,0.857131707 14.5460293,1.46976585 C15.2735902,2.01752195 16.5609561,2.4624 17.4145659,2.4624 L19.8030049,2.4624 C20.6566146,2.4624 21.9430537,2.01752195 22.6715415,1.46976585 C23.3379317,0.96835122 24.7745171,0.127717073 26.9127122,0.127717073 C29.3104195,0.127717073 33.6757854,1.29181463 35.974322,9.09200976 C37.7306634,15.051522 37.6138829,21.2371805 35.6962732,23.8017171 C35.0975415,24.6015707 34.3366146,25.0242049 33.4950537,25.0242049" id="Fill-1" fill="#00FBB7" mask="url(#mask-2)"></path>
                </g>
                <path d="M7.36514146,10.1111512 C7.24743415,10.1111512 7.15197073,10.2066146 7.15197073,10.324322 L7.15197073,11.2854439 C7.15197073,11.4031512 7.24743415,11.4986146 7.36514146,11.4986146 L9.97138537,11.4986146 L9.97138537,14.1048585 C9.97138537,14.2225659 10.0668488,14.3189561 10.1845561,14.3189561 L11.145678,14.3189561 C11.2633854,14.3189561 11.3588488,14.2225659 11.3588488,14.1048585 L11.3588488,11.4986146 L13.9650927,11.4986146 C14.0828,11.4986146 14.1782634,11.4031512 14.1782634,11.2854439 L14.1782634,10.324322 C14.1782634,10.2066146 14.0828,10.1111512 13.9650927,10.1111512 L11.3588488,10.1111512 L11.3588488,7.50583415 C11.3588488,7.38812683 11.2633854,7.29173659 11.145678,7.29173659 L10.1845561,7.29173659 C10.0668488,7.29173659 9.97138537,7.38812683 9.97138537,7.50583415 L9.97138537,10.1111512 L7.36514146,10.1111512 Z M11.145678,15.4932488 L10.1845561,15.4932488 C9.41899512,15.4932488 8.79616585,14.8704195 8.79616585,14.1048585 L8.79616585,12.6738341 L7.36514146,12.6738341 C6.59958049,12.6738341 5.97675122,12.0510049 5.97675122,11.2854439 L5.97675122,10.324322 C5.97675122,9.55876098 6.59958049,8.93593171 7.36514146,8.93593171 L8.79616585,8.93593171 L8.79616585,7.50583415 C8.79616585,6.74027317 9.41899512,6.11651707 10.1845561,6.11651707 L11.145678,6.11651707 C11.911239,6.11651707 12.5340683,6.74027317 12.5340683,7.50583415 L12.5340683,8.93593171 L13.9650927,8.93593171 C14.7306537,8.93593171 15.3534829,9.55876098 15.3534829,10.324322 L15.3534829,11.2854439 C15.3534829,12.0510049 14.7306537,12.6738341 13.9650927,12.6738341 L12.5340683,12.6738341 L12.5340683,14.1048585 C12.5340683,14.8704195 11.911239,15.4932488 11.145678,15.4932488 L11.145678,15.4932488 Z" id="Fill-4" fill="#00FBB7"></path>
                <path d="M25.7069073,6.05293659 C24.9682244,6.05293659 24.3667122,6.65444878 24.3667122,7.39313171 C24.3667122,8.13181463 24.9682244,8.73332683 25.7069073,8.73332683 C26.4455902,8.73332683 27.0471024,8.13181463 27.0471024,7.39313171 C27.0471024,6.65444878 26.4455902,6.05293659 25.7069073,6.05293659 M25.7069073,9.90854634 C24.3203707,9.90854634 23.1914927,8.77966829 23.1914927,7.39313171 C23.1914927,6.00659512 24.3203707,4.87771707 25.7069073,4.87771707 C27.0934439,4.87771707 28.222322,6.00659512 28.222322,7.39313171 C28.222322,8.77966829 27.0934439,9.90854634 25.7069073,9.90854634" id="Fill-6" fill="#00FBB7"></path>
                <path d="M25.7069073,11.563678 C24.9682244,11.563678 24.3667122,12.1651902 24.3667122,12.9038732 C24.3667122,13.6425561 24.9682244,14.2440683 25.7069073,14.2440683 C26.4455902,14.2440683 27.0471024,13.6425561 27.0471024,12.9038732 C27.0471024,12.1651902 26.4455902,11.563678 25.7069073,11.563678 M25.7069073,15.4192878 C24.3203707,15.4192878 23.1914927,14.2904098 23.1914927,12.9038732 C23.1914927,11.5173366 24.3203707,10.3884585 25.7069073,10.3884585 C27.0934439,10.3884585 28.222322,11.5173366 28.222322,12.9038732 C28.222322,14.2904098 27.0934439,15.4192878 25.7069073,15.4192878" id="Fill-8" fill="#00FBB7"></path>
                <path d="M30.5553366,9.06476098 C29.8166537,9.06476098 29.2151415,9.66627317 29.2151415,10.4049561 C29.2151415,11.143639 29.8166537,11.7451512 30.5553366,11.7451512 C31.2940195,11.7451512 31.8955317,11.143639 31.8955317,10.4049561 C31.8955317,9.66627317 31.2940195,9.06476098 30.5553366,9.06476098 M30.5553366,12.9203707 C29.1688,12.9203707 28.039922,11.7914927 28.039922,10.4049561 C28.039922,9.01841951 29.1688,7.88954146 30.5553366,7.88954146 C31.9418732,7.88954146 33.0707512,9.01841951 33.0707512,10.4049561 C33.0707512,11.7914927 31.9418732,12.9203707 30.5553366,12.9203707" id="Fill-10" fill="#00FBB7"></path>
            </g>
        </g>
    </g>
</svg>