<?xml version="1.0" encoding="UTF-8"?>
<svg width="35px" height="37px" viewBox="0 0 35 37" version="1.1" xmlns="http://www.w3.org/2000/svg" xmlns:xlink="http://www.w3.org/1999/xlink">
    <!-- Generator: sketchtool 63.1 (101010) - https://sketch.com -->
    <title>018E1768-36BB-4FAF-AFBD-C5D380821297</title>
    <desc>Created with sketchtool.</desc>
    <g id="Page-1" stroke="none" stroke-width="1" fill="none" fill-rule="evenodd" stroke-linecap="round" stroke-linejoin="round">
        <g id="Landing-v0" transform="translate(-323.000000, -2316.000000)" stroke="#00FBB7">
            <g id="Group-27" transform="translate(323.000000, 2317.000000)">
                <polygon id="Stroke-3" points="10.3629043 4.15805217 10.3629043 11.8679217 16.7201652 15.3854435 16.7201652 7.7650087"></polygon>
                <polygon id="Stroke-5" points="16.720387 15.3850739 23.9343 10.9665522 23.9343 3.79698696 16.720387 7.76537826"></polygon>
                <polygon id="Stroke-7" points="10.3629043 4.15805217 17.3964696 0.1904 23.9348174 3.79735652 16.7201652 7.7650087"></polygon>
                <polygon id="Stroke-9" points="0.674013043 20.8400043 0.674013043 28.5498739 7.03127391 32.0673957 7.03127391 24.4469609"></polygon>
                <polygon id="Stroke-11" points="7.03149565 32.0670261 14.2454087 27.6485043 14.2454087 20.4789391 7.03149565 24.4473304"></polygon>
                <polygon id="Stroke-13" points="0.674013043 20.8400043 7.70757826 16.8723522 14.2459261 20.4793087 7.03127391 24.4469609"></polygon>
                <polygon id="Stroke-15" points="20.0170565 20.8400043 20.0170565 28.5498739 26.3743174 32.0673957 26.3743174 24.4469609"></polygon>
                <polygon id="Stroke-17" points="26.3745391 32.0670261 33.5884522 27.6485043 33.5884522 20.4789391 26.3745391 24.4473304"></polygon>
                <polygon id="Stroke-19" points="20.0170565 20.8400043 27.0506217 16.8723522 33.5889696 20.4793087 26.3743174 24.4469609"></polygon>
                <polyline id="Stroke-21" points="9.2327 30.7188522 16.9728739 35.2238522 24.2104391 30.8703739"></polyline>
                <polyline id="Stroke-23" points="2.81704783 19.6310826 2.81704783 10.6957348 10.3628304 6.54773478"></polyline>
                <polyline id="Stroke-25" points="31.2437087 19.1854609 31.2437087 10.6359391 23.9344478 6.5478087"></polyline>
            </g>
        </g>
    </g>
</svg>