<?xml version="1.0" encoding="UTF-8"?>
<svg width="102px" height="93px" viewBox="0 0 102 93" version="1.1" xmlns="http://www.w3.org/2000/svg" xmlns:xlink="http://www.w3.org/1999/xlink">
    <title>32B1669A-5D9E-4C12-8E30-8606BB633957</title>
    <g id="Page-1" stroke="none" stroke-width="1" fill="none" fill-rule="evenodd">
        <g id="Landing-v0-Copy-9" transform="translate(-289.000000, -903.000000)" fill-rule="nonzero">
            <g id="browse" transform="translate(289.000000, 903.000000)">
                <path d="M44.1423729,39.7785593 C43.5545763,39.7785593 42.9840678,39.4731356 42.6671186,38.9314407 C42.200339,38.1188983 42.4769492,37.0816102 43.2894915,36.6090678 L48.8677966,33.3877119 C50.1183051,32.6673729 51.6684746,32.6673729 52.9132203,33.3877119 L58.3186441,36.5111017 C59.1311864,36.9778814 59.4077966,38.0209322 58.9410169,38.8334746 C58.4742373,39.6460169 57.4311864,39.9226271 56.6186441,39.4558475 L51.2132203,36.3324576 C51.0115254,36.2172034 50.7637288,36.2172034 50.5620339,36.3324576 L44.9837288,39.5538136 C44.7244068,39.7036441 44.4305085,39.7785593 44.1423729,39.7785593 Z" id="Path" fill="#552D86"></path>
                <path d="M44.1423729,39.7785593 C43.5545763,39.7785593 42.9840678,39.4731356 42.6671186,38.9314407 C42.200339,38.1188983 42.4769492,37.0816102 43.2894915,36.6090678 L48.8677966,33.3877119 C50.1183051,32.6673729 51.6684746,32.6673729 52.9132203,33.3877119 L58.3186441,36.5111017 C59.1311864,36.9778814 59.4077966,38.0209322 58.9410169,38.8334746 C58.4742373,39.6460169 57.4311864,39.9226271 56.6186441,39.4558475 L51.2132203,36.3324576 C51.0115254,36.2172034 50.7637288,36.2172034 50.5620339,36.3324576 L44.9837288,39.5538136 C44.7244068,39.7036441 44.4305085,39.7785593 44.1423729,39.7785593 Z" id="Path" fill="#8652B0"></path>
                <path d="M68.0345763,30.2412712 C67.3142373,30.2412712 66.5881356,30.0568644 65.9484746,29.6822881 L56.5840678,24.2768644 C55.2932203,23.5334746 54.4979661,22.144661 54.4979661,20.6578814 L54.4979661,9.8470339 C54.4979661,8.36025424 55.2989831,6.97144068 56.5840678,6.22805085 L65.9484746,0.822627119 C67.239322,0.0792372881 68.8355932,0.0792372881 70.1264407,0.822627119 L79.4908475,6.22805085 C80.7816949,6.97144068 81.5769492,8.36025424 81.5769492,9.8470339 L81.5769492,20.6578814 C81.5769492,22.144661 80.7759322,23.5334746 79.4908475,24.2768644 L70.1264407,29.6822881 C69.4810169,30.0568644 68.7549153,30.2412712 68.0345763,30.2412712 Z M68.0345763,3.76737288 C67.919322,3.76737288 67.8040678,3.79618644 67.700339,3.85957627 L58.3359322,9.265 C58.1284746,9.38601695 58.0016949,9.605 58.0016949,9.8470339 L58.0016949,20.6578814 C58.0016949,20.8941525 58.1284746,21.1188983 58.3359322,21.2399153 L67.700339,26.645339 C67.9077966,26.7663559 68.1613559,26.7663559 68.3688136,26.645339 L77.7332203,21.2399153 C77.940678,21.1188983 78.0674576,20.8999153 78.0674576,20.6578814 L78.0674576,9.8470339 C78.0674576,9.61076271 77.940678,9.38601695 77.7332203,9.265 L68.3688136,3.85957627 C68.2650847,3.80194915 68.1498305,3.76737288 68.0345763,3.76737288 Z" id="Shape" fill="#8652B0"></path>
                <path d="M93.1484746,63.7572034 C92.8372881,63.7572034 92.520339,63.6765254 92.2264407,63.5094068 L90.2037288,62.3395763 C89.9905085,62.2185593 89.7311864,62.2127966 89.5179661,62.3280508 L87.6854237,63.4690678 C86.8210169,64.005 85.6857627,63.7399153 85.1440678,62.8755085 C84.6081356,62.0111017 84.8732203,60.8758475 85.7376271,60.3341525 L87.6047458,59.1700847 C87.6220339,59.1585593 87.639322,59.1470339 87.6566102,59.1412712 C89.0108475,58.3575424 90.6935593,58.3575424 92.0477966,59.1412712 L94.0705085,60.3111017 C94.9522034,60.8182203 95.2518644,61.9477119 94.7447458,62.8294068 C94.4047458,63.4287288 93.7823729,63.7572034 93.1484746,63.7572034 Z" id="Path" fill="#7D539C"></path>
                <path d="M89.8522034,77.3687288 C89.0915254,77.3687288 88.3308475,77.1727966 87.6566102,76.7809322 L80.2054237,72.4761864 C78.8511864,71.6924576 78.0098305,70.2344915 78.0098305,68.6727966 L78.0098305,60.0633051 C78.0098305,58.5016102 78.8511864,57.0436441 80.2054237,56.2599153 L87.6566102,51.9551695 C89.0108475,51.1714407 90.6935593,51.1714407 92.0477966,51.9551695 L99.4989831,56.2599153 C100.85322,57.0436441 101.694576,58.5016102 101.694576,60.0633051 L101.694576,68.6727966 C101.694576,70.2344915 100.85322,71.6924576 99.4989831,72.4761864 L92.0477966,76.7809322 C91.3735593,77.1727966 90.6128814,77.3687288 89.8522034,77.3687288 Z M89.8522034,55.0612712 C89.7311864,55.0612712 89.6101695,55.0900847 89.500678,55.1534746 L82.0494915,59.4582203 C81.8305085,59.585 81.6979661,59.8155085 81.6979661,60.0690678 L81.6979661,68.6785593 C81.6979661,68.9321186 81.8305085,69.1626271 82.0494915,69.2894068 L89.500678,73.5941525 C89.719661,73.7209322 89.9905085,73.7209322 90.2037288,73.5941525 L97.6549153,69.2894068 C97.8738983,69.1626271 98.0064407,68.9321186 98.0064407,68.6785593 L98.0064407,60.0690678 C98.0064407,59.8155085 97.8738983,59.585 97.6549153,59.4582203 L90.2037288,55.1534746 C90.0942373,55.0900847 89.9732203,55.0612712 89.8522034,55.0612712 Z" id="Shape" fill="#7D539C"></path>
                <path d="M14.1762712,26.7202542 C13.8823729,26.7202542 13.5884746,26.645339 13.3176271,26.4897458 L11.4274576,25.3948305 C11.2315254,25.2795763 10.9837288,25.2795763 10.7820339,25.3833051 L9.06474576,26.4494068 C8.2579661,26.9507627 7.19186441,26.7029661 6.69050847,25.8961864 C6.18915254,25.0894068 6.43694915,24.0233051 7.24372881,23.5219492 L8.98983051,22.4327966 C9.00711864,22.4212712 9.02440678,22.4155085 9.0359322,22.4039831 C10.3037288,21.6721186 11.8769492,21.6721186 13.1447458,22.4039831 L15.0349153,23.4988983 C15.8589831,23.9772034 16.1413559,25.0317797 15.6688136,25.8558475 C15.3518644,26.4090678 14.7755932,26.7202542 14.1762712,26.7202542 Z" id="Path" fill="#8652B0"></path>
                <path d="M11.0932203,39.4616102 C10.3844068,39.4616102 9.66983051,39.2772034 9.0359322,38.9141525 L2.05728814,34.8860169 C0.789491525,34.1541525 -1.04823118e-12,32.7883898 -1.04823118e-12,31.324661 L-1.04823118e-12,23.2683898 C-1.04823118e-12,21.804661 0.789491525,20.4388983 2.05728814,19.7070339 L9.0359322,15.6788983 C10.3037288,14.9470339 11.8769492,14.9470339 13.1447458,15.6788983 L20.1233898,19.7070339 C21.3911864,20.4388983 22.180678,21.804661 22.180678,23.2683898 L22.180678,31.324661 C22.180678,32.7883898 21.3911864,34.1541525 20.1233898,34.8860169 L13.1447458,38.9141525 C12.5166102,39.2772034 11.8020339,39.4616102 11.0932203,39.4616102 Z M11.0932203,18.5775424 C10.9779661,18.5775424 10.8627119,18.6063559 10.7647458,18.6639831 L3.78610169,22.6921186 C3.58440678,22.8073729 3.45762712,23.0263559 3.45762712,23.2626271 L3.45762712,31.3188983 C3.45762712,31.5551695 3.58440678,31.7741525 3.78610169,31.8894068 L10.7647458,35.9175424 C10.9664407,36.0327966 11.22,36.0327966 11.4216949,35.9175424 L18.400339,31.8894068 C18.6020339,31.7741525 18.7288136,31.5551695 18.7288136,31.3188983 L18.7288136,23.2626271 C18.7288136,23.0263559 18.6020339,22.8073729 18.400339,22.6921186 L11.4216949,18.6639831 C11.3237288,18.6063559 11.2084746,18.5775424 11.0932203,18.5775424 Z" id="Shape" fill="#8652B0"></path>
                <path d="M23.8922034,15.2697458 C23.540678,15.2697458 23.1891525,15.1775424 22.8779661,14.9988983 L18.3254237,12.3711017 C17.6972881,12.0080508 17.3111864,11.3338136 17.3111864,10.6134746 L17.3111864,5.35211864 C17.3111864,4.62601695 17.7030508,3.95177966 18.3254237,3.59449153 L22.8779661,0.966694915 C23.5061017,0.603644068 24.2840678,0.603644068 24.9122034,0.966694915 L29.4647458,3.59449153 C30.0928814,3.95754237 30.4789831,4.63177966 30.4789831,5.35211864 L30.4789831,10.6134746 C30.4789831,11.3395763 30.0871186,12.0138136 29.4647458,12.3711017 L24.9122034,14.9988983 C24.5952542,15.1775424 24.2437288,15.2697458 23.8922034,15.2697458 Z" id="Path" fill="#1C1C3B"></path>
                <path d="M64.8650847,82.2497458 C64.3579661,82.2497458 63.8508475,82.1172034 63.3955932,81.8578814 L56.8088136,78.0544915 C55.9040678,77.5300847 55.339322,76.5561864 55.339322,75.5073729 L55.339322,67.9005932 C55.339322,66.8517797 55.9040678,65.8778814 56.8088136,65.3534746 L63.3955932,61.5500847 C64.300339,61.025678 65.4298305,61.025678 66.3345763,61.5500847 L72.9213559,65.3534746 C73.8261017,65.8778814 74.3908475,66.8517797 74.3908475,67.9005932 L74.3908475,75.5073729 C74.3908475,76.5561864 73.8261017,77.5300847 72.9213559,78.0544915 L66.3345763,81.8578814 C65.8850847,82.1172034 65.3779661,82.2497458 64.8650847,82.2497458 Z" id="Path" fill="#1C1C3B"></path>
                <path d="M82.4701695,51.7534746 C81.8650847,51.7534746 81.2657627,51.5978814 80.7240678,51.2866949 L72.9040678,46.7744915 C71.8264407,46.1521186 71.1579661,44.9938136 71.1579661,43.7548305 L71.1579661,34.724661 C71.1579661,33.4799153 71.8264407,32.3273729 72.9040678,31.705 L80.7240678,27.1927966 C81.8016949,26.5704237 83.1386441,26.5704237 84.2105085,27.1927966 L92.0305085,31.705 C93.1081356,32.3273729 93.7766102,33.485678 93.7766102,34.724661 L93.7766102,43.7548305 C93.7766102,44.9995763 93.1081356,46.1521186 92.0305085,46.7744915 L84.2105085,51.2866949 C83.6745763,51.5978814 83.0694915,51.7534746 82.4701695,51.7534746 Z" id="Path" fill="#1C1C3B"></path>
                <path d="M25.2579661,58.1731356 C26.9810169,56.2944915 28.5369492,54.5887288 30.0986441,52.8944915 C31.6084746,51.2521186 33.1125424,49.6097458 34.6454237,47.9904237 C36.2705085,46.2731356 38.3566102,46.1002542 39.8837288,47.5121186 C41.4281356,48.9355085 41.4338983,51.0504237 39.8894915,52.7792373 C38.9501695,53.8338136 37.9820339,54.865339 36.9274576,56.0121186 C38.7081356,57.2626271 39.44,58.8473729 38.7311864,60.9392373 C40.3677966,62.045678 41.2033898,63.4633051 40.6732203,65.4860169 C40.6098305,65.7222881 40.9844068,66.1544915 41.2494915,66.3792373 C43.2376271,68.0792373 43.3759322,70.0500847 41.5894915,72.0324576 C37.9589831,76.0548305 34.3572881,80.1175424 29.8450847,83.2178814 C29.6030508,83.385 29.2861017,83.8344915 29.3552542,84.0073729 C29.8220339,85.1195763 29.0728814,85.7073729 28.4620339,86.3758475 C26.8830508,88.0931356 25.3674576,89.8680508 23.7020339,91.4931356 C23.3044068,91.885 22.4227119,91.7812712 21.7657627,91.9080508 C21.8233898,91.2395763 21.6274576,90.3694068 21.9732203,89.9429661 C23.3677966,88.2199153 24.9352542,86.6294068 26.52,84.9005932 C22.0423729,80.7975424 17.6281356,76.7521186 13.0698305,72.5741525 C11.6061017,74.1761864 10.1366102,75.7609322 8.69016949,77.3629661 C8.07355932,78.0487288 7.37627119,78.6999153 6.52338983,77.8988983 C5.66474576,77.0978814 6.29288136,76.3602542 6.91525424,75.6917797 C8.5,73.9802542 10.0962712,72.2802542 11.6291525,70.5283898 C12.3898305,69.6582203 13.1505085,69.1972034 14.320339,70.125 C15.2250847,66.1199153 16.060678,62.2704237 16.9769492,58.4382203 C17.2938983,57.1185593 17.6972881,55.7988983 18.2620339,54.5714407 C18.8728814,53.2460169 19.979322,52.3931356 21.5352542,52.5717797 C23.1315254,52.7561864 24.2494915,53.6666949 24.7105085,55.2341525 C24.9352542,56.0582203 25.0216949,56.9226271 25.2579661,58.1731356 Z M30.1274576,56.2772034 C30.1159322,56.265678 30.1044068,56.2541525 30.0928814,56.2483898 C28.3122034,58.1904237 26.560339,60.1555085 24.739322,62.0572034 C24.099661,62.725678 23.6213559,64.0511017 22.3420339,63.3307627 C21.1376271,62.6507627 22.1,61.625 22.1691525,60.7375424 C22.2959322,59.2392373 22.4630508,57.7351695 22.44,56.2311017 C22.4342373,55.8277119 21.8522034,55.1880508 21.4488136,55.1073729 C21.1145763,55.0439831 20.5210169,55.5683898 20.2789831,55.9775424 C19.9216949,56.5711017 19.72,57.2799153 19.5586441,57.965678 C18.5501695,62.305 17.6050847,66.6558475 16.5677966,70.9836441 C16.279661,72.1880508 16.7810169,72.7355085 18.1294915,73.6575424 C20.9705085,75.605339 23.4945763,77.9622881 25.6844068,80.624661 C26.8254237,82.0134746 27.3325424,82.0134746 28.3122034,81.3392373 C32.7783051,78.2619492 36.339661,74.2395763 39.9010169,70.2287288 C40.0623729,70.0500847 40.2237288,69.785 40.2698305,69.4680508 C40.3620339,68.7880508 39.739661,68.2636441 39.0654237,68.3788983 C38.7542373,68.4307627 38.4776271,68.5633051 38.3047458,68.7188983 C37.0484746,69.8887288 35.9305085,71.2083898 34.7722034,72.4819492 C34.1844068,73.1273729 33.4928814,73.7036441 32.7091525,72.9833051 C31.9369492,72.2744915 32.2020339,71.4561864 32.8877966,70.724322 C34.4840678,69.024322 36.0457627,67.3012712 37.6247458,65.5839831 C38.2298305,64.9270339 38.8925424,64.2355085 37.9301695,63.4114407 C37.0715254,62.6738136 36.460678,63.2904237 35.8844068,63.924322 C34.3169492,65.6473729 32.7322034,67.3531356 31.1705085,69.0819492 C30.559661,69.7619492 29.8738983,70.4419492 29.0094915,69.6294068 C28.1681356,68.8341525 28.7616949,68.085 29.3898305,67.4107627 C31.5623729,65.0711017 33.7522034,62.7544915 35.8440678,60.345678 C36.1783051,59.9595763 36.0169492,59.1355085 36.0861017,58.5188983 C35.4752542,58.6341525 34.6627119,58.5419492 34.2823729,58.905 C32.8532203,60.265 31.5681356,61.7690678 30.2311864,63.2212712 C29.3033898,64.2239831 28.4505085,65.3188983 27.4016949,66.1833051 C26.9867797,66.5290678 26.1511864,66.3619492 25.5,66.425339 C25.5230508,65.7914407 25.459661,65.1344915 25.6094915,64.5236441 C25.6959322,64.1778814 26.1223729,63.9127966 26.3932203,63.6188983 C30.179322,59.5331356 33.9654237,55.4416102 37.7515254,51.3558475 C38.3277966,50.7334746 38.9386441,50.0419492 38.120339,49.2812712 C37.3077966,48.5263559 36.6566102,49.1487288 36.080339,49.7883898 C34.1037288,51.9494068 32.1155932,54.1104237 30.1274576,56.2772034 Z" id="Shape" fill="#00F6C3"></path>
                <polygon id="Path" fill="#00F6C3" points="38.7484746 27.2965254 32.1213559 17.5114407 44.8684746 17.5114407"></polygon>
                <path d="M65.9254237,33.5317797 L52.8325424,25.9711017 C51.5820339,25.2507627 50.0318644,25.2507627 48.7871186,25.9711017 L35.6942373,33.5317797 C34.4437288,34.2521186 33.6715254,35.5948305 33.6715254,37.0355085 L33.6715254,47.5351695 C34.8067797,46.2961864 35.9766102,45.0168644 37.0715254,43.8239831 L37.0715254,37.0355085 C37.0715254,36.805 37.1983051,36.5860169 37.3942373,36.4707627 L50.4871186,28.9100847 C50.5850847,28.8524576 50.700339,28.8236441 50.8098305,28.8236441 C50.919322,28.8236441 51.0345763,28.8524576 51.1325424,28.9100847 L64.2254237,36.4707627 C64.4271186,36.5860169 64.5481356,36.7992373 64.5481356,37.0355085 L64.5481356,52.1511017 C64.5481356,52.3816102 64.4213559,52.6005932 64.2254237,52.7158475 L51.1325424,60.2765254 C50.9308475,60.3917797 50.6830508,60.3917797 50.4813559,60.2765254 L41.0305085,54.8192373 L38.6677966,57.3778814 L48.7871186,63.2212712 C49.4094915,63.584322 50.1125424,63.7629661 50.8098305,63.7629661 C51.5071186,63.7629661 52.2101695,63.584322 52.8325424,63.2212712 L65.9254237,55.6605932 C67.1759322,54.9402542 67.9481356,53.5975424 67.9481356,52.1568644 L67.9481356,37.0412712 C67.9481356,35.5948305 67.1759322,34.2521186 65.9254237,33.5317797 Z" id="Path" fill="#8652B0"></path>
                <path d="M99.5047458,56.265678 L92.0535593,51.9609322 C90.699322,51.1772034 89.0166102,51.1772034 87.6623729,51.9609322 L80.2111864,56.265678 C78.8569492,57.0494068 78.0155932,58.5073729 78.0155932,60.0690678 L78.0155932,68.6785593 C78.0155932,70.2402542 78.8569492,71.6982203 80.2111864,72.4819492 L87.6623729,76.7866949 C88.3423729,77.1785593 89.0972881,77.3744915 89.8579661,77.3744915 C90.6186441,77.3744915 91.379322,77.1785593 92.0535593,76.7866949 L99.5047458,72.4819492 C100.858983,71.6982203 101.700339,70.2402542 101.700339,68.6785593 L101.700339,60.0690678 C101.700339,58.5016102 100.858983,57.0436441 99.5047458,56.265678 Z M98.0122034,68.6727966 C98.0122034,68.9263559 97.879661,69.1568644 97.660678,69.2836441 L90.2094915,73.5883898 C89.9905085,73.7151695 89.719661,73.7151695 89.5064407,73.5883898 L82.0552542,69.2836441 C81.8362712,69.1568644 81.7037288,68.9263559 81.7037288,68.6727966 L81.7037288,60.0633051 C81.7037288,59.8097458 81.8362712,59.5792373 82.0552542,59.4524576 L89.5064407,55.1477119 C89.6159322,55.084322 89.7369492,55.0555085 89.8579661,55.0555085 C89.9789831,55.0555085 90.1,55.084322 90.2094915,55.1477119 L97.660678,59.4524576 C97.879661,59.5792373 98.0122034,59.8097458 98.0122034,60.0633051 L98.0122034,68.6727966 Z" id="Shape" fill="#552D86" opacity="0.5"></path>
                <path d="M67.9481356,52.1511017 L67.9481356,37.0355085 C67.9481356,35.5948305 67.1701695,34.2521186 65.9254237,33.5317797 L56.0769492,27.8497458 L54.1867797,30.685 L64.219661,36.4765254 C64.4213559,36.5917797 64.5423729,36.805 64.5423729,37.0412712 L64.5423729,52.1568644 C64.5423729,52.3873729 64.4155932,52.6063559 64.219661,52.7216102 L51.1267797,60.2822881 C50.9250847,60.3975424 50.6772881,60.3975424 50.4755932,60.2822881 L41.0247458,54.825 L38.6620339,57.3836441 L48.7813559,63.2270339 C49.4037288,63.5900847 50.1067797,63.7687288 50.8040678,63.7687288 C51.5013559,63.7687288 52.2044068,63.5900847 52.8267797,63.2270339 L65.919661,55.6663559 C67.1759322,54.9344915 67.9481356,53.5917797 67.9481356,52.1511017 Z" id="Path" fill="#552D86" opacity="0.5"></path>
                <path d="M79.4908475,6.22805085 L72.9905085,2.47652542 L71.0427119,5.39822034 L77.7389831,9.265 C77.9464407,9.38601695 78.0732203,9.605 78.0732203,9.8470339 L78.0732203,20.6578814 C78.0732203,20.8941525 77.9464407,21.1188983 77.7389831,21.2399153 L68.3745763,26.645339 C68.1671186,26.7663559 67.9135593,26.7663559 67.7061017,26.645339 L59.8918644,22.1331356 L57.9440678,25.0548305 L65.9542373,29.6822881 C66.599661,30.0568644 67.32,30.2412712 68.040339,30.2412712 C68.760678,30.2412712 69.4867797,30.0568644 70.1264407,29.6822881 L79.4908475,24.2768644 C80.7816949,23.5334746 81.5769492,22.144661 81.5769492,20.6578814 L81.5769492,9.8470339 C81.5769492,8.36025424 80.7759322,6.97144068 79.4908475,6.22805085 Z" id="Path" fill="#552D86" opacity="0.5"></path>
                <path d="M93.1484746,63.7572034 C92.8372881,63.7572034 92.520339,63.6765254 92.2264407,63.5094068 L90.2037288,62.3395763 C89.9905085,62.2185593 89.7311864,62.2127966 89.5179661,62.3280508 L87.6854237,63.4690678 C86.8210169,64.005 85.6857627,63.7399153 85.1440678,62.8755085 C84.6081356,62.0111017 84.8732203,60.8758475 85.7376271,60.3341525 L87.6047458,59.1700847 C87.6220339,59.1585593 87.639322,59.1470339 87.6566102,59.1412712 C89.0108475,58.3575424 90.6935593,58.3575424 92.0477966,59.1412712 L94.0705085,60.3111017 C94.9522034,60.8182203 95.2518644,61.9477119 94.7447458,62.8294068 C94.4047458,63.4287288 93.7823729,63.7572034 93.1484746,63.7572034 Z" id="Path" fill="#552D86"></path>
                <path d="M58.3244068,36.505339 L52.9189831,33.3819492 C52.7691525,33.2955085 52.6135593,33.2205932 52.4522034,33.1514407 L50.1067797,36.5917797 L50.5677966,36.3266949 C50.7694915,36.2114407 51.0172881,36.2114407 51.2189831,36.3266949 L56.6244068,39.4500847 C57.4369492,39.9168644 58.4742373,39.6402542 58.9467797,38.8277119 C59.4135593,38.0151695 59.1369492,36.9778814 58.3244068,36.505339 Z" id="Path" fill="#552D86" opacity="0.5"></path>
            </g>
        </g>
    </g>
</svg>