<?xml version="1.0" encoding="UTF-8"?>
<svg width="97px" height="90px" viewBox="0 0 97 90" version="1.1" xmlns="http://www.w3.org/2000/svg" xmlns:xlink="http://www.w3.org/1999/xlink">
    <title>F1C967CC-A170-4854-A276-A300118B9B24</title>
    <defs>
        <linearGradient x1="-0.0073153358%" y1="50.0083515%" x2="99.9725318%" y2="50.0083515%" id="linearGradient-1">
            <stop stop-color="#5B318F" offset="0.02772193%"></stop>
            <stop stop-color="#402F87" offset="99.87%"></stop>
        </linearGradient>
    </defs>
    <g id="Page-1" stroke="none" stroke-width="1" fill="none" fill-rule="evenodd">
        <g id="Landing-v0-Copy-9" transform="translate(-580.000000, -900.000000)" fill-rule="nonzero">
            <g id="choose" transform="translate(580.000000, 900.000000)">
                <path d="M41.981369,48.0669643 C41.4213095,48.0669643 40.8785714,47.7782738 40.5783333,47.258631 C40.13375,46.4849405 40.3993452,45.497619 41.1672619,45.0530357 L46.4733929,41.9929167 C47.6627976,41.3058333 49.135119,41.3058333 50.31875,41.9929167 L55.4574405,44.9606548 C56.231131,45.4052381 56.4967262,46.3925595 56.046369,47.16625 C55.5960119,47.9399405 54.6144643,48.2055357 53.8407738,47.7551786 L48.7020833,44.7874405 C48.5115476,44.6777381 48.2748214,44.6777381 48.0842857,44.7874405 L42.7781548,47.8475595 C42.529881,47.9976786 42.2527381,48.0669643 41.981369,48.0669643 Z" id="Path" fill="#152036"></path>
                <path d="M64.6955357,38.9963095 C64.0084524,38.9963095 63.321369,38.8173214 62.7093452,38.465119 L53.806131,33.3264286 C52.5820833,32.6220238 51.8199405,31.2998214 51.8199405,29.8852381 L51.8199405,19.6020833 C51.8199405,18.1875 52.5820833,16.8710714 53.806131,16.1608929 L62.7093452,11.0222024 C63.9333929,10.3177976 65.4576786,10.3177976 66.6817262,11.0222024 L75.5849405,16.1608929 C76.8089881,16.8652976 77.571131,18.1875 77.571131,19.6020833 L77.571131,29.8852381 C77.571131,31.2998214 76.8089881,32.61625 75.5849405,33.3264286 L66.6817262,38.465119 C66.0697024,38.8230952 65.382619,38.9963095 64.6955357,38.9963095 Z M64.6955357,13.8282738 C64.5858333,13.8282738 64.476131,13.8571429 64.3779762,13.914881 L55.4747619,19.0535714 C55.2784524,19.1690476 55.1572024,19.3769048 55.1572024,19.6078571 L55.1572024,29.8910119 C55.1572024,30.1161905 55.2784524,30.3298214 55.4747619,30.4452976 L64.3779762,35.5839881 C64.5742857,35.6994643 64.8167857,35.6994643 65.0130952,35.5839881 L73.9163095,30.4452976 C74.112619,30.3298214 74.233869,30.1219643 74.233869,29.8910119 L74.233869,19.6078571 C74.233869,19.3826786 74.112619,19.1690476 73.9163095,19.0535714 L65.0130952,13.914881 C64.9149405,13.851369 64.8052381,13.8282738 64.6955357,13.8282738 Z" id="Shape" fill="#152036"></path>
                <path d="M88.5760119,70.8677381 C88.2757738,70.8677381 87.9755357,70.7926786 87.6983929,70.6310119 L85.7757143,69.5224405 C85.573631,69.4069643 85.3253571,69.4011905 85.1232738,69.5108929 L83.3795833,70.596369 C82.5597024,71.1102381 81.4742262,70.8561905 80.966131,70.0305357 C80.4522619,69.2106548 80.7063095,68.1251786 81.5319643,67.6170833 L83.3102976,66.5142857 C83.327619,66.5027381 83.3449405,66.4969643 83.3622619,66.4854167 C84.6498214,65.7405952 86.2491667,65.7405952 87.5367262,66.4854167 L89.4594048,67.5939881 C90.2966071,68.0789881 90.5852976,69.1529167 90.1002976,69.990119 C89.7711905,70.5559524 89.1822619,70.8677381 88.5760119,70.8677381 Z" id="Path" fill="#152036"></path>
                <path d="M85.4408333,83.812619 C84.7191071,83.812619 83.997381,83.6278571 83.3507143,83.2525595 L76.2604762,79.1589286 C74.9729167,78.4141071 74.1703571,77.0283929 74.1703571,75.53875 L74.1703571,67.3572619 C74.1703571,65.867619 74.9729167,64.4819048 76.2604762,63.7370833 L83.3507143,59.6434524 C84.6382738,58.898631 86.237619,58.898631 87.5251786,59.6434524 L94.6154167,63.7370833 C95.9029762,64.4819048 96.7055357,65.867619 96.7055357,67.3572619 L96.7055357,75.53875 C96.7055357,77.0283929 95.9029762,78.4141071 94.6154167,79.1589286 L87.5251786,83.2525595 C86.8900595,83.6220833 86.1683333,83.812619 85.4408333,83.812619 Z M85.4408333,62.5996429 C85.3253571,62.5996429 85.209881,62.6285119 85.1059524,62.6920238 L78.0157143,66.7856548 C77.8078571,66.9069048 77.6808333,67.1263095 77.6808333,67.3688095 L77.6808333,75.5502976 C77.6808333,75.7870238 77.8078571,76.0122024 78.0157143,76.1334524 L85.1059524,80.2270833 C85.3138095,80.3483333 85.5678571,80.3483333 85.7757143,80.2270833 L92.8659524,76.1334524 C93.0738095,76.0122024 93.2008333,75.7927976 93.2008333,75.5502976 L93.2008333,67.3688095 C93.2008333,67.1320833 93.0738095,66.9069048 92.8659524,66.7856548 L85.7757143,62.6920238 C85.6775595,62.6285119 85.5620833,62.5996429 85.4408333,62.5996429 Z" id="Shape" fill="#152036"></path>
                <path d="M13.4818452,35.6475 C13.2047024,35.6475 12.9217857,35.5782143 12.6619643,35.4280952 L10.8605357,34.3888095 C10.67,34.2791071 10.4390476,34.2791071 10.2485119,34.3772619 L8.61452381,35.3934524 C7.84660714,35.8726786 6.83041667,35.6359524 6.35696429,34.8680357 C5.8777381,34.100119 6.11446429,33.0839286 6.88238095,32.6104762 L8.5452381,31.5769643 C8.56255952,31.5654167 8.57410714,31.5596429 8.59142857,31.5480952 C9.79815476,30.8494643 11.2935714,30.8494643 12.5002976,31.5480952 L14.3017262,32.587381 C15.0869643,33.0377381 15.3583333,34.042381 14.9022024,34.827619 C14.6019643,35.3530357 14.0476786,35.6475 13.4818452,35.6475 Z" id="Path" fill="#16233C"></path>
                <path d="M10.54875,47.7667262 C9.87321429,47.7667262 9.19767857,47.5935119 8.59142857,47.2470833 L1.95732143,43.4190476 C0.750595238,42.7204167 1.05024983e-12,41.4270833 1.05024983e-12,40.0355952 L1.05024983e-12,32.37375 C1.05024983e-12,30.9822619 0.750595238,29.6831548 1.95732143,28.9902976 L8.59142857,25.1622619 C9.79815476,24.463631 11.2935714,24.463631 12.5002976,25.1622619 L19.1344048,28.9902976 C20.341131,29.6889286 21.0917262,30.9822619 21.0917262,32.37375 L21.0917262,40.0355952 C21.0917262,41.4270833 20.341131,42.7261905 19.1344048,43.4190476 L12.5002976,47.2470833 C11.8998214,47.5935119 11.2242857,47.7667262 10.54875,47.7667262 Z M10.54875,27.9105952 C10.4390476,27.9105952 10.3293452,27.9394643 10.2369643,27.9972024 L3.60285714,31.8252381 C3.40654762,31.9349405 3.29107143,32.1427976 3.29107143,32.3679762 L3.29107143,40.0298214 C3.29107143,40.255 3.41232143,40.4628571 3.60285714,40.5725595 L10.2369643,44.4005952 C10.4275,44.5102976 10.67,44.5102976 10.8663095,44.4005952 L17.5004167,40.5725595 C17.6967262,40.4628571 17.8122024,40.255 17.8122024,40.0298214 L17.8122024,32.3679762 C17.8122024,32.1427976 17.6909524,31.9349405 17.5004167,31.8252381 L10.8663095,27.9972024 C10.7681548,27.9336905 10.6584524,27.9105952 10.54875,27.9105952 Z" id="Shape" fill="#16233C"></path>
                <path d="M22.7199405,24.7580952 C22.3850595,24.7580952 22.0501786,24.6714881 21.7557143,24.4982738 L17.4253571,21.9982143 C16.8306548,21.6517857 16.461131,21.0108929 16.461131,20.3238095 L16.461131,15.3236905 C16.461131,14.6366071 16.8306548,13.9957143 17.4253571,13.6492857 L21.7557143,11.1492262 C22.3504167,10.8027976 23.0894643,10.8027976 23.6899405,11.1492262 L28.0202976,13.6492857 C28.615,13.9957143 28.9845238,14.6366071 28.9845238,15.3236905 L28.9845238,20.3238095 C28.9845238,21.0108929 28.615,21.6517857 28.0202976,21.9982143 L23.6899405,24.4982738 C23.3839286,24.6714881 23.0548214,24.7580952 22.7199405,24.7580952 Z" id="Path" fill="#0A0D1C"></path>
                <path d="M63.6331548,89.3670238 C63.1481548,89.3670238 62.6689286,89.24 62.2358929,88.9917262 L55.9713095,85.3773214 C55.1110119,84.8807738 54.5740476,83.9511905 54.5740476,82.9580952 L54.5740476,75.7235119 C54.5740476,74.7304167 55.1110119,73.8008333 55.9713095,73.3042857 L62.2358929,69.689881 C63.0961905,69.1933333 64.170119,69.1933333 65.0304167,69.689881 L71.295,73.3042857 C72.1552976,73.8008333 72.6922619,74.7304167 72.6922619,75.7235119 L72.6922619,82.9580952 C72.6922619,83.9511905 72.1552976,84.8807738 71.295,85.3773214 L65.0304167,88.9917262 C64.6031548,89.24 64.1181548,89.3670238 63.6331548,89.3670238 Z" id="Path" fill="#0A0D1C"></path>
                <path d="M78.419881,59.4529167 C77.8482738,59.4529167 77.2708929,59.3027976 76.7627976,59.0083333 L69.326131,54.712619 C68.3041667,54.1236905 67.6690476,53.0208929 67.6690476,51.8430357 L67.6690476,43.257381 C67.6690476,42.07375 68.3041667,40.9767262 69.326131,40.3877976 L76.7627976,36.0920833 C77.7847619,35.5031548 79.055,35.5031548 80.0769643,36.0920833 L87.513631,40.3877976 C88.5355952,40.9767262 89.1707143,42.0795238 89.1707143,43.257381 L89.1707143,51.8430357 C89.1707143,53.0266667 88.5355952,54.1236905 87.513631,54.712619 L80.0769643,59.0083333 C79.568869,59.3027976 78.9914881,59.4529167 78.419881,59.4529167 Z" id="Path" fill="#0A0D1C"></path>
                <path d="M62.6920238,42.1257143 L50.2436905,34.9373214 C49.0542857,34.2502381 47.5819643,34.2502381 46.3983333,34.9373214 L33.95,42.1257143 C32.7605952,42.8127976 32.0273214,44.0888095 32.0273214,45.4572024 L32.0273214,55.440119 C33.1070238,54.2622619 34.221369,53.0439881 35.2606548,51.9123214 L35.2606548,45.4572024 C35.2606548,45.2377976 35.376131,45.0299405 35.5666667,44.9202381 L48.015,37.7318452 C48.107381,37.6741071 48.2170833,37.6510119 48.3210119,37.6510119 C48.4307143,37.6510119 48.5346429,37.679881 48.6270238,37.7318452 L61.0753571,44.9202381 C61.2658929,45.0299405 61.381369,45.2377976 61.381369,45.4572024 L61.381369,59.8339881 C61.381369,60.0533929 61.2658929,60.26125 61.0753571,60.3709524 L48.6270238,67.5593452 C48.4364881,67.6690476 48.1997619,67.6690476 48.0092262,67.5593452 L39.0251786,62.3686905 L36.7733929,64.7994643 L46.3925595,70.353869 C46.9872619,70.6945238 47.65125,70.8677381 48.3152381,70.8677381 C48.9792262,70.8677381 49.6432143,70.6945238 50.2379167,70.353869 L62.68625,63.1654762 C63.8756548,62.4783929 64.6089622,61.202381 64.6089622,59.8339881 L64.6089622,45.4572024 C64.6147024,44.0888095 63.8756548,42.8070238 62.6920238,42.1257143 Z" id="Path" fill="#152036"></path>
                <path d="M28.7131548,69.6321429 C28.7131548,69.6321429 53.2460714,66.7279167 61.444881,66.0292857 C68.4831548,65.4288095 89.6557143,64.4414881 89.6557143,64.4414881 C89.6557143,64.4414881 89.4074405,53.1248214 89.4074405,49.1293452 C89.4074405,44.5333929 89.6557143,30.0757738 89.6557143,30.0757738 C89.6557143,30.0757738 69.7533929,28.222381 63.17125,27.2870238 C53.9620238,25.9821429 28.0607143,21.5998214 28.0607143,21.5998214 L28.7131548,69.6321429 Z" id="Path" fill="#014460"></path>
                <path d="M56.2715476,84.5227976 C51.7795238,84.5227976 38.1533333,82.8483929 36.4327381,81.0758333 C36.1267262,80.7582738 36.0689881,80.4291667 36.0747619,80.2155357 C36.0805357,80.0654167 36.0747619,79.7651786 36.0747619,79.389881 C36.0632143,78.235119 36.0632143,77.3690476 36.0920833,76.7108333 C35.5031548,76.843631 34.9315476,76.9417857 34.3772619,76.99375 C33.7594643,77.1669643 33.1474405,77.2535714 32.5469643,77.2535714 C31.2998214,77.2535714 30.1046429,76.901369 28.886369,76.1680952 C28.7189286,76.0699405 28.5976786,75.9198214 28.5283929,75.752381 C27.1542262,74.9267262 26.1669048,73.7892857 25.6645833,72.4324405 C25.1507143,71.0525 25.191131,69.5859524 25.2257738,68.292619 C25.2835119,66.08125 25.34125,63.8005952 25.5722024,61.5372619 C25.6241667,61.0291667 25.6876786,60.5268452 25.7627381,60.0360714 C25.6183929,59.9783333 25.4855952,59.8859524 25.3874405,59.7589286 C25.1160714,59.4125 25.2084524,59.0660714 25.2661905,58.835119 C25.2835119,58.7542857 25.312381,58.656131 25.3239286,58.5810714 C25.4451786,56.9066667 25.9359524,55.2380357 26.7847024,53.6155952 C27.3909524,52.4550595 28.1704167,51.3522619 29.0942262,50.3360714 C29.9718452,49.3718452 31.011131,48.4595833 32.1889881,47.6166071 C32.2120833,47.3914286 32.3160119,47.1893452 32.4834524,47.0507738 C32.4776786,47.0334524 32.4719048,47.016131 32.4719048,46.9930357 C32.37375,46.5830952 32.587381,46.1558333 32.9742262,45.9883929 C35.0181548,45.0934524 39.9374405,44.0195238 42.5760714,43.4479167 C43.0091071,43.3555357 43.378631,43.2747024 43.65,43.2111905 C43.9675595,43.1419048 44.2966667,43.0668452 44.6257738,42.9975595 C44.6719643,42.7377381 44.7354762,42.4952381 44.7932143,42.2585119 C44.8682738,41.9582738 44.9433333,41.6695833 44.9722024,41.375119 L45.0414881,40.7457738 C45.1280952,39.9374405 45.2147024,39.134881 45.2724405,38.3265476 C45.2782143,38.2688095 45.2897619,38.1706548 45.3070833,38.043631 C45.3301786,37.8473214 45.3879167,37.4258333 45.3821429,37.1660119 C45.2782143,36.9985714 45.2031585,36.9119643 45.1627381,36.8657738 C45.0299405,36.8715476 44.891369,36.9061905 44.7470238,36.9408333 L44.6604167,36.9639286 C44.227381,37.0678571 43.8116667,37.1371429 43.4132738,37.1717857 C43.1303571,37.2295238 42.8416667,37.2583929 42.55875,37.2583929 C42.1372619,37.2583929 41.7330952,37.194881 41.34625,37.0678571 C40.890119,36.9177381 40.4570833,36.6636905 40.0702381,36.3114881 C39.5852381,35.9419643 39.2041667,35.4800595 38.9674405,34.9604167 C38.8808333,34.769881 38.8115476,34.5677976 38.7538095,34.3483929 C38.586369,33.9153571 38.4824405,33.4823214 38.4420238,33.0492857 C38.3727381,32.3102381 38.5170833,31.5019048 38.8404167,30.8436905 C39.0425,30.4279762 39.3196429,30.07 39.6429762,29.798631 C39.1868452,28.3032143 38.8,26.4440476 39.0886905,24.4809524 C39.256131,23.3435119 39.6429762,22.1945238 40.2319048,21.0628571 C42.0795238,17.5177381 45.9017857,14.2959524 49.9607738,12.8525 C50.0011905,12.8351786 50.0531548,12.8178571 50.0993452,12.8005357 C50.0127381,12.6677381 49.955,12.5060714 49.955,12.338631 C49.9492262,12.1769643 49.9896429,12.0268452 50.0647024,11.8940476 C50.2032738,11.6284524 50.4746429,11.4436905 50.7922024,11.426369 L54.3661905,11.2185119 C54.3950595,11.1145833 54.44125,11.0106548 54.5047619,10.9182738 C54.6722024,10.6873214 54.9377976,10.54875 55.2207143,10.54875 C55.2438095,10.54875 55.2669048,10.54875 55.2842262,10.54875 C60.2958929,10.9182738 64.7128571,15.2717262 65.1343452,20.2545238 C65.2325,21.3919643 65.1170238,22.3561905 64.7879167,23.187619 C64.7244048,23.3550595 64.6493452,23.5109524 64.5685119,23.6610714 C64.1297024,24.4809524 63.442619,25.1564881 62.5707738,25.6241667 C62.5592262,25.8724405 62.536131,26.1207143 62.5072619,26.3689881 C62.4841667,26.5941667 62.4610714,26.8077976 62.4610714,26.9925595 C62.4495238,28.2108333 62.4841667,29.4464286 62.5707738,30.6704762 C62.7439881,31.7328571 62.8883333,32.645119 63.1539286,34.0481548 C63.2463095,34.527381 63.3098214,36.2595238 63.2809524,36.6752381 C63.2463095,37.1660119 63.1019643,37.6567857 62.8305952,38.1822024 C62.7728571,38.2976786 62.7035714,38.4189286 62.6342857,38.528631 C62.6285119,38.5401786 62.6169643,38.5517262 62.6111905,38.5690476 C67.6979167,36.7733929 74.3666667,34.3714881 79.5169048,32.5180952 C87.7214881,29.5619048 87.7330357,29.5619048 87.9293452,29.5503571 C87.9524405,29.5503571 87.9870833,29.5445833 88.0101786,29.5445833 C88.8242857,29.5445833 90.1580357,30.6647024 90.5968452,31.3979762 C91.4802381,32.8645238 92.3925,34.3830357 92.5195238,35.9015476 C92.6869643,37.8415476 91.7169643,39.3485119 89.632619,40.3820238 C89.4189881,40.4859524 88.3970238,41.0922024 87.4963095,41.6291667 C86.7688095,42.0622024 86.0239881,42.5010119 85.4870238,42.8127976 C85.5389881,43.0899405 85.5620833,43.4248214 85.5274405,43.9040476 C85.4985714,44.3370833 85.4581548,44.770119 85.4061905,45.2031548 C85.3369048,45.7689881 85.2445238,46.3752381 85.025119,46.9583929 C85.0135714,46.9930357 84.9269643,47.1893452 84.9269643,47.1893452 L84.8807738,47.2875 C84.8519048,47.3510119 84.8172619,47.4202976 84.782619,47.4838095 C84.3091667,48.3325595 83.6220833,48.8291071 83.0216071,49.2679167 C82.8888095,49.3660714 82.7560119,49.4584524 82.6289881,49.5566071 C82.2941071,50.7055952 82.0169643,51.8834524 81.7917857,53.0555357 C81.6532143,53.7772619 81.5377381,54.5047619 81.4222619,55.2264881 C81.1797619,56.7219048 80.9372619,58.2635119 80.5042262,59.7704762 C80.1982143,60.8444048 79.811369,61.8317262 79.3494643,62.7093452 L79.3032738,62.7959524 C78.6392857,64.0604167 77.8829167,65.4923214 76.4336905,66.3122024 C75.7292857,66.7048214 74.8920833,66.901131 73.870119,66.901131 L73.870119,66.901131 C73.2580952,66.901131 72.5883333,66.8318452 71.7742262,66.6875 C69.689881,66.3122024 67.4265476,65.0535119 65.8618452,63.4657143 C65.988869,66.1620833 66.0292857,69.7418452 65.9830952,70.9832143 C65.9715476,71.3180952 65.9542262,71.9127976 65.9369048,72.657619 C65.867619,75.3597619 65.7521429,79.8806548 65.4980952,81.5954762 C65.2267262,83.3853571 62.0626786,83.905 58.56375,84.3207143 C58.2519643,84.3553571 57.986369,84.39 57.7900595,84.418869 C57.3858929,84.4939286 56.9008929,84.5227976 56.2715476,84.5227976 Z" id="Path" fill="url(#linearGradient-1)"></path>
                <path d="M55.197619,11.4436905 C59.805119,11.7843452 63.8525595,15.7740476 64.2394048,20.3469048 C64.3144643,21.2014286 64.2682738,22.0848214 63.9507143,22.8816071 C63.89875,23.0144048 63.8410119,23.1414286 63.7717262,23.2626786 C63.3155952,24.1172024 62.5419048,24.735 61.6469643,25.0929762 C61.7335714,25.6183929 61.5603571,26.4555952 61.5545833,26.9983333 C61.5430357,28.2627976 61.5834524,29.5272619 61.6700595,30.7859524 C61.8432738,31.8483333 61.9933929,32.7952381 62.2647619,34.2271429 C62.3340476,34.5966667 62.4033333,36.25375 62.3802381,36.6290476 C62.351369,37.0389881 62.2127976,37.4258333 62.0222619,37.7895833 C61.9702976,37.8935119 61.9125595,37.9916667 61.8548214,38.0898214 C61.202381,39.1752976 60.3478571,40.0182738 59.3605357,40.6418452 C57.2184524,41.3866667 55.7172619,41.8832143 55.29,41.981369 C55.2495833,41.9871429 55.2091667,41.9871429 55.16875,41.9929167 C55.16875,41.9986905 55.1745238,41.9986905 55.1860714,41.9986905 C55.2033929,41.9986905 55.2380357,41.9929167 55.29,41.981369 C56.7565476,41.8370238 58.1595833,41.4039881 59.3605357,40.6418452 C68.1598214,37.5932738 87.756131,30.4568452 87.9697619,30.4395238 C87.9755357,30.4395238 87.9813095,30.4395238 87.9870833,30.4395238 C88.3335119,30.4395238 89.4363095,31.2305357 89.817381,31.8714286 C90.7007738,33.3379762 91.5091071,34.706369 91.6188095,35.9997024 C91.7400595,37.4142857 91.1164881,38.6729762 89.2169048,39.619881 C88.7203571,39.8681548 85.2156548,41.9929167 84.4361905,42.4028571 C84.5689881,42.8589881 84.6786905,43.1072619 84.6267262,43.8694048 C84.5978571,44.285119 84.5574405,44.7066071 84.51125,45.1223214 C84.4477381,45.6477381 84.3669048,46.1789286 84.1821429,46.6754762 C84.1705952,46.710119 84.1532738,46.7389881 84.1417262,46.7678571 C84.1301786,46.7967262 84.118631,46.8255952 84.1070833,46.8544643 C84.0955357,46.8833333 84.0839881,46.9064286 84.0724405,46.9295238 C84.0493452,46.9814881 84.0204762,47.0334524 83.997381,47.0796429 C83.4777381,48.0092262 82.600119,48.4364881 81.84375,49.0658333 C81.8206548,49.1524405 81.7917857,49.2390476 81.7686905,49.3256548 C81.4280357,50.5092857 81.1393452,51.7044643 80.9083929,52.9169643 C80.4869048,55.1341071 80.2617262,57.3858929 79.6439286,59.5568452 C79.3725595,60.5095238 79.0145833,61.4506548 78.5526786,62.3282738 C77.9060119,63.5580952 77.23625,64.86875 75.9833333,65.5731548 C75.3539881,65.9253571 74.6091667,66.0466071 73.8527976,66.0466071 C73.1888095,66.0466071 72.5190476,65.9542262 71.9070238,65.8445238 C69.6032738,65.4288095 66.9935119,63.8005952 65.6366667,61.8894643 C65.5154167,61.7220238 65.3941667,61.5488095 65.2786905,61.381369 C65.2440476,61.4217857 65.2094048,61.4679762 65.1747619,61.5083929 C65.1170238,61.47375 65.0650595,61.4275595 65.0130952,61.381369 C64.9264881,61.1330952 64.8283333,60.8905952 64.7128571,60.6423214 C65.0073214,61.8028571 65.1574405,69.0143452 65.082381,70.9716667 C65.0246429,72.4844048 64.9264881,79.3552381 64.6031548,81.4915476 C64.3779762,82.9754167 59.0660714,83.3680357 57.6399405,83.5758929 C57.2992857,83.6278571 56.837381,83.6451786 56.2773214,83.6451786 C50.9769643,83.6451786 36.9177381,81.6127976 36.9639286,80.238631 C36.9870238,79.5342262 36.8484524,75.5964881 37.2006548,75.4867857 C36.2075595,75.810119 35.2029167,76.0352976 34.221369,76.1219048 C33.6497619,76.2893452 33.0954762,76.3701786 32.5527381,76.3701786 C31.4499405,76.3701786 30.3933333,76.0410714 29.3482738,75.4117262 C29.3598214,75.3482143 29.3771429,75.2847024 29.3944643,75.2211905 C28.0838095,74.539881 27.009881,73.5005952 26.5017857,72.1264286 C26.0572024,70.9197024 26.0802976,69.5975 26.1149405,68.3157143 C26.1726786,66.08125 26.2304167,63.8525595 26.4555952,61.6296429 C26.5422024,60.7577976 26.6692262,59.8801786 26.8424405,59.0083333 C26.5999405,59.0602976 26.3574405,59.1180357 26.1207143,59.1815476 C26.1033929,59.2104167 26.097619,59.2277381 26.0918452,59.2277381 C26.0745238,59.2277381 26.1957738,58.8466667 26.2073214,58.6676786 C26.3227976,57.0452381 26.8135714,55.4747619 27.5699405,54.0370833 C28.1530952,52.9169643 28.8979167,51.8776786 29.7466667,50.9423214 C30.8148214,49.7702381 32.0446429,48.7655952 33.3668452,47.8879762 C33.2744643,47.8186905 33.1763095,47.7609524 33.0666071,47.7205357 C33.072381,47.7205357 33.0781548,47.7147619 33.0839286,47.7147619 C33.2225,47.6627976 33.4707738,47.5357738 33.5747024,47.3741071 C33.6324405,47.2759524 33.6382143,47.16625 33.5458333,47.0507738 C33.4765476,46.9641667 33.3495238,46.9179762 33.3264286,46.8082738 C35.6301786,45.7978571 41.9582738,44.5102976 43.8405357,44.0830357 C44.3544048,43.9675595 44.891369,43.8520833 45.4341071,43.742381 C45.4341071,42.9571429 45.7574405,42.2931548 45.8440476,41.4790476 C45.95375,40.4570833 46.0692262,39.4293452 46.1442857,38.407381 C46.1616071,38.19375 46.3117262,37.3565476 46.2366667,36.9061905 C45.9768452,36.4558333 45.6881548,36.0632143 45.3648214,36.0170238 C45.3070833,36.0054762 45.2435714,36.0054762 45.1858333,36.0054762 C44.9375595,36.0054762 44.6892857,36.0747619 44.4467857,36.1325 C44.0657143,36.224881 43.6730952,36.2941667 43.2804762,36.3230357 C43.04375,36.375 42.80125,36.403869 42.5529762,36.403869 C42.2354167,36.403869 41.9178571,36.3576786 41.6118452,36.25375 C41.2423214,36.1325 40.9132143,35.9246429 40.61875,35.6532738 C40.2492262,35.3819048 39.9432143,35.0354762 39.7584524,34.6197619 C39.6833929,34.4580952 39.6256548,34.284881 39.5852381,34.1058929 C39.4408929,33.736369 39.3427381,33.3552976 39.3080952,32.9915476 C39.256131,32.4372619 39.3542857,31.796369 39.619881,31.2594048 C39.8219643,30.8436905 40.1279762,30.4857143 40.5321429,30.2663095 C40.5783333,30.2432143 40.6245238,30.220119 40.6707143,30.2027976 C40.6707143,30.1970238 40.6707143,30.19125 40.6707143,30.1797024 C40.0760119,28.3840476 39.6660714,26.5479762 39.9489881,24.6310714 C40.1106548,23.551369 40.4801786,22.4947619 41.0055952,21.490119 C42.8763095,17.9045833 46.7332143,14.9541667 50.2494643,13.70125 C50.590119,13.58 50.9596429,13.4529762 51.1501786,13.1469643 C51.1617262,13.1296429 51.1675,13.1123214 51.1790476,13.095 C51.317619,12.7889881 51.1617262,12.3328571 50.8268452,12.3328571 C50.8499405,12.3328571 50.8730357,12.3328571 50.9019048,12.3270833 C50.8788095,12.3213095 50.8557143,12.3213095 50.832619,12.3213095 C52.2760714,12.2347024 53.7195238,12.153869 55.16875,12.0672619 C55.1802976,12.0499405 55.1918452,12.0268452 55.2033929,12.00375 C55.2726786,11.8247619 55.2726786,11.6169048 55.197619,11.4436905 M55.197619,9.68267857 C54.6491071,9.68267857 54.1294643,9.9425 53.7945833,10.3813095 L53.3153571,10.4101786 L50.7171429,10.5660714 C50.07625,10.6064881 49.5392857,10.9760119 49.2621429,11.5072024 C49.1408929,11.732381 49.0658333,11.9922024 49.0600595,12.2635714 C45.0183929,13.8744643 41.2885119,17.1135714 39.435119,20.6702381 C38.8,21.8885119 38.3842857,23.129881 38.1995238,24.3654762 C37.9166071,26.2766071 38.2168452,28.0607143 38.6325595,29.556131 C38.3958333,29.8275 38.19375,30.1335119 38.0263095,30.4741667 C37.6279167,31.2825 37.4547024,32.2351786 37.5413095,33.1474405 C37.5875,33.6382143 37.7029762,34.1347619 37.8877381,34.6255357 C37.9570238,34.8795833 38.0378571,35.1105357 38.1360119,35.3357143 C38.4247024,35.9766071 38.892381,36.5482143 39.4813095,36.9985714 C39.9547619,37.4200595 40.4801786,37.7260714 41.0460119,37.9108333 C41.5194643,38.0667262 42.0217857,38.1475595 42.5356548,38.1475595 C42.8647619,38.1475595 43.193869,38.1129167 43.5172024,38.0494048 C43.8058929,38.0205357 44.106131,37.980119 44.4179167,37.9166071 C44.4179167,37.922381 44.4179167,37.9281548 44.4179167,37.9281548 C44.4005952,38.0725 44.3832738,38.1879762 44.3775,38.2572619 C44.3197619,39.0482738 44.2331548,39.862381 44.1465476,40.647619 L44.0772619,41.2827381 C44.0541667,41.5136905 43.9906548,41.7561905 43.921369,42.0391071 C43.9040476,42.1083929 43.8867262,42.1834524 43.8694048,42.2527381 C43.7250595,42.2816071 43.5807143,42.31625 43.436369,42.3508929 C43.165,42.4144048 42.80125,42.4894643 42.3682143,42.587619 C39.7007143,43.1707738 34.7294643,44.2504762 32.5989286,45.1800595 C31.9522619,45.4629762 31.5480952,46.103869 31.5480952,46.7851786 C31.4903571,46.8833333 31.4383929,46.9814881 31.3979762,47.0911905 C30.2778571,47.9168452 29.2847619,48.8060119 28.4302381,49.741369 C27.4544643,50.8095238 26.6345833,51.9758333 25.9936905,53.2056548 C25.09875,54.9147024 24.5733333,56.6872619 24.4405357,58.4655952 C24.4289881,58.5117857 24.4174405,58.5695238 24.4058929,58.6099405 C24.3366071,58.8813095 24.1518452,59.6030357 24.6888095,60.290119 C24.7292262,60.3420833 24.7696429,60.3882738 24.8100595,60.4344643 C24.763869,60.7635714 24.7234524,61.1042262 24.6888095,61.4391071 C24.4520833,63.7313095 24.3943452,66.0350595 24.3366071,68.2579762 C24.3019643,69.5628571 24.2615476,71.1852976 24.8331548,72.7269048 C25.3816667,74.1992262 26.4209524,75.446369 27.8644048,76.3644048 C28.00875,76.5838095 28.1992857,76.7685714 28.4302381,76.9071429 C29.7697619,77.7097024 31.1497024,78.1196429 32.5411905,78.1196429 C33.1994048,78.1196429 33.8633929,78.0272619 34.5331548,77.8482738 C34.7467857,77.8251786 34.9661905,77.7963095 35.1855952,77.7674405 C35.1855952,78.2524405 35.191369,78.7894048 35.1971429,79.389881 C35.2029167,79.753631 35.2029167,80.0423214 35.2029167,80.1808929 C35.1855952,80.7294048 35.3992262,81.2605952 35.8091667,81.6820833 C36.2133333,82.0977976 37.1544643,83.0677976 45.012619,84.297619 C49.2390476,84.9558333 53.7657143,85.4004167 56.2773214,85.4004167 C56.9470833,85.4004167 57.4782738,85.3715476 57.8939881,85.3080357 C58.07875,85.2791667 58.3385714,85.2502976 58.6445833,85.2156548 C62.6400595,84.7422024 65.9830952,84.1532738 66.3468452,81.7455952 C66.595119,80.117381 66.7048214,76.3817262 66.7972024,72.7038095 C66.8145238,71.9589881 66.8318452,71.3642857 66.8433929,71.0351786 C66.8780357,70.1402381 66.8664881,67.7729762 66.8029762,65.4519048 C68.2579762,66.4969643 69.96125,67.264881 71.6010119,67.565119 C72.4728571,67.7210119 73.1888095,67.7960714 73.8527976,67.7960714 C75.0133333,67.7960714 76.0179762,67.5593452 76.843631,67.0974405 C78.5180357,66.1563095 79.3725595,64.5280952 80.0596429,63.2232143 L80.1058333,63.1366071 C80.5966071,62.2070238 81.0065476,61.1619643 81.329881,60.0302976 C81.7744643,58.4771429 82.0227381,56.9066667 82.2710119,55.3881548 C82.3864881,54.6779762 82.5019643,53.9447024 82.6347619,53.2402976 C82.8368452,52.1894643 83.0793452,51.138631 83.3738095,50.105119 C83.42,50.0704762 83.4719643,50.0358333 83.5239286,49.9954167 C84.1705952,49.5277381 84.9731548,48.9445833 85.5332143,47.9341667 C85.5794048,47.8475595 85.6198214,47.7667262 85.6602381,47.6858929 C85.6775595,47.65125 85.694881,47.6108333 85.7122024,47.5704167 C85.7352976,47.5242262 85.752619,47.4780357 85.7699405,47.437619 C85.7930357,47.3856548 85.8103571,47.3394643 85.8334524,47.2875 C86.0875,46.6119643 86.1914286,45.9479762 86.2607143,45.3244048 C86.3126786,44.8798214 86.3530952,44.4294643 86.3877381,43.984881 C86.4050595,43.7308333 86.4108333,43.5056548 86.3992857,43.3093452 C86.8207738,43.0610714 87.328869,42.7608333 87.9235714,42.408631 C88.7145833,41.9409524 89.8000595,41.2942857 90.0079167,41.1903571 C93.0449405,39.677619 93.5183929,37.4489286 93.3798214,35.8438095 C93.2297024,34.1232143 92.2654762,32.5180952 91.330119,30.9649405 C90.8508929,30.1681548 89.2804167,28.6842857 87.9928571,28.6842857 C87.9466667,28.6842857 87.8889286,28.6842857 87.8427381,28.6900595 C87.5194048,28.7131548 87.5194048,28.7131548 79.1993452,31.7097619 C74.6380357,33.3495238 68.8873214,35.4223214 64.0950595,37.1198214 C64.112381,36.9985714 64.1297024,36.8773214 64.1354762,36.7560714 C64.170119,36.2710714 64.1008333,34.4696429 63.9969048,33.9038095 C63.7370833,32.5296429 63.5927381,31.6289286 63.4252976,30.5896429 C63.3444643,29.4002381 63.3098214,28.2050595 63.321369,27.0214286 C63.321369,26.9001786 63.3444643,26.6865476 63.3675595,26.4844643 C63.3791071,26.3805357 63.3906548,26.2766071 63.3964286,26.1726786 C64.2220833,25.6414881 64.8745238,24.9370833 65.324881,24.099881 C65.4230357,23.9208929 65.5096429,23.7303571 65.5847024,23.5398214 C65.9657738,22.5755952 66.0985714,21.4843452 65.9946429,20.2083333 C65.5385119,14.8155952 60.7520238,10.0983929 55.3304167,9.7 C55.2842262,9.68267857 55.2438095,9.68267857 55.197619,9.68267857 L55.197619,9.68267857 Z" id="Shape" fill="#0F1023"></path>
                <path d="M55.8500595,11.7092857 C59.1584524,12.1307738 62.44375,14.278631 63.8814286,17.6158929 C64.0604167,18.0258333 64.2047619,18.458869 64.3317857,18.8919048 C64.4414881,19.3307143 64.5223214,19.7752976 64.5685119,20.2314286 C64.6089286,20.6817857 64.6320238,21.1379167 64.6089286,21.5882738 C64.5858333,22.0444048 64.5569643,22.5409524 64.3202381,23.1067857 C64.2047619,23.3839286 64.0026786,23.6668452 63.8005952,23.8631548 C63.5985119,24.0652381 63.41375,24.2038095 63.263631,24.3250595 C62.9633929,24.5675595 62.7439881,24.7869643 62.5534524,25.0583333 C62.1781548,25.5722024 62.0222619,26.2073214 61.95875,26.9694643 C61.8144048,28.5341667 61.8894643,30.1508333 62.0915476,31.7559524 C62.1839286,32.5642857 62.3051786,33.372619 62.44375,34.1867262 C62.6054167,35.0354762 62.6631548,36.0054762 62.4668452,36.9235119 C62.2820833,37.8473214 61.8432738,38.7364881 61.2254762,39.4235714 C60.6019048,40.1106548 59.8455357,40.61875 59.0660714,40.9998214 C57.4840476,41.7446429 55.803869,42.0679762 54.1410119,42.2123214 C55.7288095,41.6869048 57.3108333,41.132619 58.6445833,40.2492262 C59.3085714,39.8161905 59.9032738,39.2965476 60.3363095,38.6960714 C60.7635714,38.0898214 61.0407143,37.4142857 61.1215476,36.6983333 C61.202381,35.9708333 61.1157738,35.254881 60.9367857,34.4754167 C60.7577976,33.6555357 60.5903571,32.8241071 60.4517857,31.981131 C60.1861905,30.2894048 60.0880357,28.5630357 60.2150595,26.8077976 C60.290119,25.9244048 60.5383929,24.8735714 61.1735119,24.0421429 C61.47375,23.6322024 61.8548214,23.2742262 62.2070238,22.9970833 C62.3802381,22.8585119 62.5303571,22.7488095 62.6227381,22.6564286 C62.715119,22.5640476 62.7613095,22.5005357 62.8190476,22.3966071 C62.9229762,22.2002976 62.9922619,21.853869 63.021131,21.4785714 C63.0615476,21.1032738 63.0557738,20.7222024 63.0442262,20.341131 C62.9980357,19.5847619 62.8594643,18.8341667 62.6169643,18.1066667 C61.5892262,15.1908929 58.9736905,12.8525 55.8500595,11.7092857 Z" id="Path" fill="#00FEFD"></path>
                <polygon id="Path" fill="#00E6BA" points="53.500119 7.69071429 48.286369 0 58.3097024 0"></polygon>
                <path d="M73.2003571,36.3692262 C74.0144643,35.797619 74.903631,35.3472619 75.78125,34.9142262 C76.6704167,34.4927381 77.5653571,34.0827976 78.477619,33.7190476 C80.2848214,32.9626786 82.1324405,32.3102381 83.9858333,31.6982143 C84.9096429,31.3922024 85.845,31.1035119 86.7688095,30.8205952 C87.0055357,30.7513095 87.1729762,30.6820238 87.5771429,30.5954167 C87.9408929,30.5319048 88.3450595,30.5665476 88.6972619,30.6820238 C89.4247619,30.9302976 89.8577976,31.4441667 90.181131,31.9060714 C90.7931548,32.8760714 91.0645238,33.8749405 91.2319643,34.8795833 C91.3820833,35.8784524 91.4340476,36.9004167 91.2377381,37.8877381 C91.0010119,36.9235119 90.6834524,36.01125 90.3254762,35.133631 C89.9559524,34.2675595 89.5460119,33.4072619 88.9975,32.7952381 C88.7376786,32.4892262 88.4374405,32.281369 88.2180357,32.2409524 C88.1083333,32.2178571 88.0101786,32.223631 87.8947024,32.2467262 L87.3057738,32.4488095 C86.3761905,32.7721429 85.4466071,33.0666071 84.5170238,33.3552976 C82.6520833,33.9269048 80.7871429,34.4696429 78.8933333,34.948869 C77.0052976,35.4627381 75.1057143,35.8842262 73.2003571,36.3692262 Z" id="Path" fill="#00FEFD"></path>
                <path d="M84.4015476,45.8729167 C84.4419643,46.2424405 84.3842262,46.6408333 84.1879167,46.9872619 C83.9916071,47.3336905 83.6971429,47.6108333 83.4084524,47.8533333 C82.81375,48.3267857 82.2536905,48.771369 81.8783929,49.3256548 C81.4973214,49.8741667 81.3067857,50.5208333 81.2375,51.1905952 C81.1624405,51.923869 81.0585119,52.6744643 80.9545833,53.4135119 C80.7525,54.897381 80.4869048,56.3639286 80.2270833,57.8189286 L79.8575595,60.0014286 C79.7247619,60.7404762 79.5804167,61.502619 79.3552381,62.2763095 C79.1242857,63.05 78.8355952,63.8467857 78.3275,64.597381 C78.085,64.9784524 77.7732143,65.3364286 77.4152381,65.6539881 C77.0341667,65.9657738 76.6646429,66.2198214 76.2547024,66.416131 C74.6149405,67.2360119 72.75,67.2706548 71.1044643,66.837619 C70.2730357,66.6355357 69.4704762,66.2255952 68.8122619,65.8560714 C68.1194048,65.475 67.4554167,65.0419643 66.8202976,64.5685119 C65.5385119,63.6331548 64.4241667,62.5072619 63.4483929,61.3063095 L65.3133333,60.6711905 C65.2209524,62.2647619 65.2555952,63.991131 65.2325,65.6713095 C65.2209524,67.3630357 65.2382738,69.0605357 65.2094048,70.7580357 C65.1978571,72.4555357 65.1689881,74.1588095 65.1054762,75.8563095 C65.0361905,77.5538095 64.9726786,79.2628571 64.7359524,80.9545833 C64.6320238,79.2570833 64.4299405,77.571131 64.2682738,75.8794048 C64.0950595,74.1876786 63.927619,72.5017262 63.7832738,70.81 C63.6216071,69.1182738 63.5003571,67.4265476 63.384881,65.7290476 C63.263631,64.02 63.17125,62.351369 63.1943452,60.5557143 L63.2232143,57.9228571 L65.0592857,59.9205952 C66.0177381,60.9656548 67.0454762,61.9183333 68.1655952,62.7266667 C68.7256548,63.1308333 69.3145833,63.5003571 69.9266071,63.8236905 C70.5617262,64.170119 71.1044643,64.412619 71.7164881,64.5800595 C72.9174405,64.9264881 74.2165476,64.8918452 75.2500595,64.38375 C75.7927976,64.1239286 76.1623214,63.8179167 76.5145238,63.3444643 C76.8667262,62.8825595 77.1323214,62.2820833 77.3575,61.6469643 C77.5769048,61.0060714 77.750119,60.3132143 77.9117857,59.6030357 L78.4602976,57.4320833 L79.5977381,53.136369 L80.1347024,50.9885119 C80.3252381,50.2090476 80.6832143,49.4180357 81.2432738,48.8175595 C81.7975595,48.1997619 82.5192857,47.8475595 83.1428571,47.4895833 C83.4546429,47.3048214 83.754881,47.1200595 83.9858333,46.8544643 C84.2225595,46.588869 84.3553571,46.2424405 84.4015476,45.8729167 Z" id="Path" fill="#00FEFD"></path>
                <path d="M69.1586905,49.562381 C71.0467262,48.9503571 73.0560119,47.8186905 75.1634524,46.9988095 C72.9809524,48.5692857 71.5779167,50.6651786 69.9497024,52.7379762 C70.053631,51.7275595 69.7014286,50.5208333 69.1586905,49.562381 Z" id="Path" fill="#0D0F20"></path>
            </g>
        </g>
    </g>
</svg>