<?xml version="1.0" encoding="UTF-8"?>
<svg width="44px" height="44px" viewBox="0 0 44 44" version="1.1" xmlns="http://www.w3.org/2000/svg" xmlns:xlink="http://www.w3.org/1999/xlink">
    <title>C8E80A8E-58CA-45BF-AF60-7EC3028B1405</title>
    <g id="Page-1" stroke="none" stroke-width="1" fill="none" fill-rule="evenodd">
        <g id="Landing-v0-Copy-9" transform="translate(-697.000000, -2320.000000)">
            <g id="3.-Icons-/-Social-/-Discord" transform="translate(697.000000, 2320.000000)">
                <g id="Icons-/-discord" transform="translate(0.000000, 0.000000)">
                    <rect id="Rectangle" x="0" y="-1.56319402e-13" width="44" height="44"></rect>
                    <path d="M18.2738238,11.6876811 L18.493502,11.9514775 C14.5392943,13.0938042 12.7159651,14.829262 12.7159651,14.829262 C12.7159651,14.829262 13.1992572,14.5656481 14.0120666,14.1921952 C16.3626234,13.1597076 18.2298881,12.874126 18.9987618,12.8082225 C19.1305688,12.7862547 19.2404078,12.7642869 19.3722147,12.7642869 C20.7122518,12.5885443 22.2280314,12.5446087 23.8097146,12.7203512 C25.8966576,12.9619972 28.1373751,13.5770962 30.4220286,14.829262 C30.4220286,14.829262 28.6865707,13.1816754 24.9520412,12.0393488 L25.2595907,11.6876811 L25.3390174,11.6880558 C25.834241,11.6972784 28.5704551,11.8479149 31.4325483,13.9944848 C31.4325483,13.9944848 34.5959144,19.7280859 34.5959144,26.8017242 C34.5959144,26.8017242 32.7286497,29.9870582 27.8737614,30.140833 C27.8737614,30.140833 27.0829198,29.1962166 26.4238852,28.3614395 C29.3016696,27.5486302 30.4000607,25.7472688 30.4000607,25.7472688 C29.4993801,26.3403999 28.6426351,26.7577886 27.8737614,27.0433702 C26.7753703,27.5046944 25.7209149,27.8122439 24.6884273,27.9879865 C22.5795166,28.3834073 20.6463484,28.2735682 18.9987618,27.9660187 C17.7465961,27.7243726 16.6701729,27.3728876 15.7694922,27.0214023 C15.2642323,26.823692 14.7150368,26.582046 14.1658413,26.2744965 C14.0999378,26.2305609 14.0340344,26.2085931 13.9681309,26.1646575 C13.9241953,26.1426896 13.9022275,26.1207217 13.8802596,26.0987539 C13.4848389,25.8790757 13.2651607,25.725301 13.2651607,25.725301 C13.2651607,25.725301 14.319616,27.4827266 17.1095293,28.3175039 C16.4504946,29.1522811 15.6376853,30.140833 15.6376853,30.140833 C10.7827969,29.9870582 8.9375,26.8017242 8.9375,26.8017242 C8.9375,19.7280859 12.1008662,13.9944848 12.1008662,13.9944848 C15.2642323,11.6219602 18.2738238,11.6876811 18.2738238,11.6876811 Z M17.6587248,19.8818607 C16.406559,19.8818607 15.4180071,20.9802518 15.4180071,22.3202889 C15.4180071,23.6603258 16.4285268,24.7587169 17.6587248,24.7587169 C18.9108905,24.7587169 19.8994425,23.6603258 19.8994425,22.3202889 C19.9214103,20.9802518 18.9108905,19.8818607 17.6587248,19.8818607 Z M25.6769792,19.8818607 C24.4248136,19.8818607 23.4362617,20.9802518 23.4362617,22.3202889 C23.4362617,23.6603258 24.4467813,24.7587169 25.6769792,24.7587169 C26.929145,24.7587169 27.9176969,23.6603258 27.9176969,22.3202889 C27.9176969,20.9802518 26.929145,19.8818607 25.6769792,19.8818607 Z" id="Path-5" fill="#FFFFFF" fill-rule="nonzero"></path>
                </g>
            </g>
        </g>
    </g>
</svg>