<?xml version="1.0" encoding="UTF-8"?>
<svg width="97px" height="83px" viewBox="0 0 97 83" version="1.1" xmlns="http://www.w3.org/2000/svg" xmlns:xlink="http://www.w3.org/1999/xlink">
    <title>B02E4379-BA5A-4428-8FA0-9B7BB30F1FD1</title>
    <g id="Page-1" stroke="none" stroke-width="1" fill="none" fill-rule="evenodd">
        <g id="Landing-v0-Copy-9" transform="translate(-890.000000, -908.000000)" fill-rule="nonzero">
            <g id="improve" transform="translate(890.000000, 908.000000)">
                <path d="M43.5989474,26.6920175 C42.9579532,26.6920175 42.3226316,26.5275146 41.7497076,26.1985088 L33.4621637,21.4165789 C32.3219883,20.7585673 31.612924,19.5333041 31.612924,18.2172807 L31.612924,8.64774854 C31.612924,7.33172515 32.3219883,6.10646199 33.4621637,5.44845029 L41.7497076,0.666520468 C42.889883,0.00850877193 44.3080117,0.00850877193 45.4481871,0.666520468 L53.735731,5.44845029 C54.8759064,6.10646199 55.5849708,7.33172515 55.5849708,8.64774854 L55.5849708,18.2172807 C55.5849708,19.5333041 54.8759064,20.7585673 53.735731,21.4165789 L45.4481871,26.1985088 C44.8752632,26.5275146 44.234269,26.6920175 43.5989474,26.6920175 Z M43.5989474,3.27020468 C43.4968421,3.27020468 43.3947368,3.29856725 43.3039766,3.34961988 L35.0164327,8.13154971 C34.8349123,8.23932749 34.721462,8.43219298 34.721462,8.64774854 L34.721462,18.2172807 C34.721462,18.4271637 34.8349123,18.6257018 35.0164327,18.7334795 L43.3039766,23.5154094 C43.4854971,23.6231871 43.7123977,23.6231871 43.8995906,23.5154094 L52.1871345,18.7334795 C52.368655,18.6257018 52.4821053,18.4328363 52.4821053,18.2172807 L52.4821053,8.64774854 C52.4821053,8.4378655 52.368655,8.23932749 52.1871345,8.13154971 L43.8995906,3.34961988 C43.8031579,3.29856725 43.7010526,3.27020468 43.5989474,3.27020468 Z" id="Shape" fill="#152036"></path>
                <path d="M71.9047953,42.2290351 C71.3885965,42.2290351 70.8723977,42.0985673 70.412924,41.8319591 L63.7363743,37.9746491 C62.8174269,37.4471053 62.2501754,36.4544152 62.2501754,35.393655 L62.2501754,27.6847076 C62.2501754,26.6239474 62.8230994,25.6369298 63.7420468,25.1037135 L70.4185965,21.2464035 C71.3375439,20.7188596 72.4777193,20.7188596 73.3966667,21.2464035 L80.0732164,25.1037135 C80.9921637,25.6312573 81.5650877,26.6239474 81.5650877,27.6847076 L81.5650877,35.393655 C81.5650877,36.4544152 80.9921637,37.4414327 80.0732164,37.9746491 L73.3966667,41.8319591 C72.937193,42.0928947 72.4209942,42.2290351 71.9047953,42.2290351 Z M71.9047953,23.3509064 C71.8197076,23.3509064 71.7402924,23.3735965 71.6665497,23.4133041 L64.99,27.270614 C64.8425146,27.3557018 64.7517544,27.5145322 64.7517544,27.6847076 L64.7517544,35.393655 C64.7517544,35.5638304 64.8425146,35.7226608 64.99,35.8077485 L71.6665497,39.6650585 C71.8140351,39.7501462 71.9955556,39.7501462 72.1430409,39.6650585 L78.8195906,35.8077485 C78.967076,35.7226608 79.0578363,35.5638304 79.0578363,35.393655 L79.0578363,27.6847076 C79.0578363,27.5145322 78.967076,27.3557018 78.8195906,27.270614 L72.1430409,23.4133041 C72.0692982,23.3735965 71.989883,23.3509064 71.9047953,23.3509064 Z" id="Shape" fill="#152036"></path>
                <path d="M90.7091813,68.3509649 C90.4879532,68.3509649 90.2610526,68.2942398 90.0568421,68.175117 L88.6216959,67.3469298 C88.4742105,67.2618421 88.2870175,67.2561696 88.1338596,67.3412573 L86.8348538,68.1467544 C86.2222222,68.5268129 85.4167251,68.3396199 85.0366667,67.7269883 C84.6566082,67.1143567 84.8438012,66.3088596 85.4564327,65.9288012 L86.7781287,65.1062865 C86.7894737,65.100614 86.8008187,65.089269 86.8121637,65.0835965 C87.7708187,64.5276901 88.9620468,64.5276901 89.9263743,65.0835965 L91.3615205,65.9117836 C91.9854971,66.2748246 92.2010526,67.0689766 91.8380117,67.6986257 C91.5997661,68.1127193 91.1629825,68.3509649 90.7091813,68.3509649 Z" id="Path" fill="#152036"></path>
                <path d="M88.3721053,77.9942398 C87.8332164,77.9942398 87.2943275,77.8580994 86.8178363,77.5801462 L81.5367251,74.5283333 C80.5780702,73.9724269 79.9824561,72.9400292 79.9824561,71.8338889 L79.9824561,65.7359357 C79.9824561,64.6297953 80.5780702,63.5973977 81.5367251,63.0414912 L86.8178363,59.9896784 C87.7764912,59.4337719 88.9677193,59.4337719 89.9320468,59.9896784 L95.2131579,63.0414912 C96.1718129,63.5973977 96.7674269,64.6297953 96.7674269,65.7359357 L96.7674269,71.8338889 C96.7674269,72.9400292 96.1718129,73.9724269 95.2131579,74.5283333 L89.9320468,77.5801462 C89.449883,77.8524269 88.9109942,77.9942398 88.3721053,77.9942398 Z M88.3721053,62.1849415 C88.2870175,62.1849415 88.2019298,62.2076316 88.1225146,62.2530117 L82.8414035,65.3048246 C82.6882456,65.3955848 82.5918129,65.5600877 82.5918129,65.7359357 L82.5918129,71.8338889 C82.5918129,72.0097368 82.6882456,72.1799123 82.8414035,72.265 L88.1225146,75.3168129 C88.2756725,75.4075731 88.468538,75.4075731 88.6216959,75.3168129 L93.902807,72.265 C94.0559649,72.1742398 94.1523977,72.0097368 94.1523977,71.8338889 L94.1523977,65.7359357 C94.1523977,65.5600877 94.0559649,65.3899123 93.902807,65.3048246 L88.6216959,62.2530117 C88.5479532,62.2076316 88.4628655,62.1849415 88.3721053,62.1849415 Z" id="Shape" fill="#152036"></path>
                <path d="M42.9919883,79.8321345 C42.4304094,79.8321345 41.8631579,79.6846491 41.3639766,79.3953509 L34.0577778,75.175 C33.0537427,74.5964035 32.4297661,73.5129532 32.4297661,72.3557602 L32.4297661,63.920731 C32.4297661,62.7578655 33.0537427,61.6800877 34.0577778,61.1014912 L41.3639766,56.8811404 C42.3680117,56.3025439 43.6159649,56.3025439 44.62,56.8811404 L51.9261988,61.1014912 C52.9302339,61.6800877 53.5542105,62.763538 53.5542105,63.920731 L53.5542105,72.3557602 C53.5542105,73.5186257 52.9302339,74.5964035 51.9261988,75.175 L44.62,79.3953509 C44.1151462,79.6903216 43.5535673,79.8321345 42.9919883,79.8321345 Z" id="Path" fill="#0A0D1C"></path>
                <path d="M41.500117,31.337807 L29.2701754,24.2755263 C28.1016374,23.6004971 26.6551462,23.6004971 25.4922807,24.2755263 L13.2623392,31.337807 C12.0938012,32.0128363 18.5831579,31.9334211 16.8246784,32.9431287 L27.0805848,27.0210234 C27.171345,26.9642982 27.2791228,26.9416082 27.3812281,26.9416082 C27.4833333,26.9416082 27.5911111,26.9699708 27.6818713,27.0210234 L39.9118129,34.0833041 C40.0990058,34.1910819 40.2124561,34.3952924 40.2124561,34.610848 L40.2124561,48.7354094 C40.2124561,48.9509649 40.0990058,49.1551754 39.9118129,49.2629532 L27.6818713,56.3252339 C27.4946784,56.4330117 27.2621053,56.4330117 27.0749123,56.3252339 L18.2484795,51.2256433 L16.0361988,53.6137719 L25.4866082,59.070731 C26.0708772,59.4054094 26.7232164,59.5755848 27.3755556,59.5755848 C28.0278947,59.5755848 28.6802339,59.4054094 29.2645029,59.070731 L41.4944444,52.0084503 C42.6629825,51.3334211 43.3834251,50.0797953 43.3834251,48.7354094 L43.3834251,34.610848 C43.3890643,33.2607895 42.668655,32.0071637 41.500117,31.337807 Z" id="Path" fill="#152036" opacity="0.8"></path>
                <polygon id="Path" fill="#260965" points="69.6925146 15.0747076 69.6925146 14.9328947 53.7527485 14.9328947 41.0576608 22.9084503 51.3476023 51.8779825 61.6091813 41.2079825 56.6060234 24.4797368 66.6180117 24.4797368 61.6091813 41.2079825 74.1454386 45.479386 82.1607018 22.9084503"></polygon>
                <path d="M52.3005848,56.9095029 L49.282807,39.4041228 C48.2504094,33.4309649 42.9749708,29.0574561 36.7976023,29.0574561 L33.4451462,29.0574561 L18.6739181,29.0574561 L15.9454386,29.0574561 C9.76807018,29.0574561 4.48695906,33.4309649 3.46023392,39.4041228 L0.44245614,56.9095029 C0.153157895,58.5999123 1.31035088,60.2052339 3.03479532,60.4888596 C5.88239766,60.9596784 8.78672515,60.0010234 10.7550877,57.924883 L20.1147368,47.033655 C20.1430994,46.9996199 20.182807,46.9826023 20.2281871,46.9826023 L31.2101754,46.9826023 C31.249883,46.9826023 31.2895906,46.9996199 31.3179532,47.0279825 L41.9879532,57.924883 C43.9563158,59.9953509 46.8606433,60.9596784 49.7082456,60.4888596 C51.4326901,60.2052339 52.5955556,58.5999123 52.3005848,56.9095029 Z M19.8878363,39.6310234 L16.104269,39.6310234 C16.0191813,39.6310234 15.9511111,39.6990936 15.9511111,39.7841813 L15.9511111,43.4883333 C15.9511111,43.5734211 15.8830409,43.6414912 15.7979532,43.6414912 L12.8595906,43.6414912 C12.7745029,43.6414912 12.7064327,43.5734211 12.7064327,43.4883333 L12.7064327,39.7841813 C12.7064327,39.6990936 12.6383626,39.6310234 12.5532749,39.6310234 L8.7697076,39.6310234 C8.68461988,39.6310234 8.61654971,39.5629532 8.61654971,39.4778655 L8.61654971,36.6019006 C8.61654971,36.5168129 8.68461988,36.4487427 8.7697076,36.4487427 L12.5532749,36.4487427 C12.6383626,36.4487427 12.7064327,36.3806725 12.7064327,36.2955848 L12.7064327,32.5914327 C12.7064327,32.506345 12.7745029,32.4382749 12.8595906,32.4382749 L15.7979532,32.4382749 C15.8830409,32.4382749 15.9511111,32.506345 15.9511111,32.5914327 L15.9511111,36.2955848 C15.9511111,36.3806725 16.0191813,36.4487427 16.104269,36.4487427 L19.8878363,36.4487427 C19.972924,36.4487427 20.0409942,36.5168129 20.0409942,36.6019006 L20.0409942,39.4778655 C20.0409942,39.5629532 19.972924,39.6310234 19.8878363,39.6310234 Z M37.8583626,31.6895029 C39.1800585,31.6895029 40.2464912,32.7389181 40.2464912,34.0322515 C40.2464912,35.3255848 39.174386,36.375 37.8583626,36.375 C36.5366667,36.375 35.4702339,35.3255848 35.4702339,34.0322515 C35.4702339,32.7389181 36.5366667,31.6895029 37.8583626,31.6895029 Z M31.414386,38.1675146 C31.414386,36.8741813 32.4864912,35.8247661 33.8025146,35.8247661 C35.118538,35.8247661 36.1906433,36.8741813 36.1906433,38.1675146 C36.1906433,39.460848 35.118538,40.5102632 33.8025146,40.5102632 C32.4864912,40.5102632 31.414386,39.460848 31.414386,38.1675146 Z M37.8583626,44.6341813 C36.5366667,44.6341813 35.4702339,43.5847661 35.4702339,42.2914327 C35.4702339,40.9980994 36.5423392,39.9486842 37.8583626,39.9486842 C39.1800585,39.9486842 40.2464912,40.9980994 40.2464912,42.2914327 C40.2464912,43.5847661 39.174386,44.6341813 37.8583626,44.6341813 Z M41.8574854,40.5102632 C40.5357895,40.5102632 39.4693567,39.460848 39.4693567,38.1675146 C39.4693567,36.8741813 40.541462,35.8247661 41.8574854,35.8247661 C43.1791813,35.8247661 44.245614,36.8741813 44.245614,38.1675146 C44.245614,39.460848 43.1791813,40.5102632 41.8574854,40.5102632 Z" id="Shape" fill="#593190"></path>
                <path d="M49.282807,39.4041228 C48.2504094,33.4309649 42.9749708,29.0574561 36.7976023,29.0574561 L35.8219298,29.0574561 L26.4679532,46.9826023 L31.2782456,46.9826023 L41.9879532,57.924883 C42.4020468,58.3616667 42.855848,58.7417251 43.3436842,59.0764035 C45.4935673,56.6428947 48.301462,53.3868713 51.1263743,50.0854678 L49.282807,39.4041228 Z M37.8583626,31.6895029 C39.1800585,31.6895029 40.2464912,32.7389181 40.2464912,34.0322515 C40.2464912,35.3255848 39.174386,36.375 37.8583626,36.375 C36.5366667,36.375 35.4702339,35.3255848 35.4702339,34.0322515 C35.4702339,32.7389181 36.5366667,31.6895029 37.8583626,31.6895029 Z M31.414386,38.1675146 C31.414386,36.8741813 32.4864912,35.8247661 33.8025146,35.8247661 C35.1242105,35.8247661 36.1906433,36.8741813 36.1906433,38.1675146 C36.1906433,39.460848 35.118538,40.5102632 33.8025146,40.5102632 C32.4864912,40.5102632 31.414386,39.460848 31.414386,38.1675146 Z M37.8583626,44.6341813 C36.5366667,44.6341813 35.4702339,43.5847661 35.4702339,42.2914327 C35.4702339,40.9980994 36.5423392,39.9486842 37.8583626,39.9486842 C39.1800585,39.9486842 40.2464912,40.9980994 40.2464912,42.2914327 C40.2464912,43.5847661 39.174386,44.6341813 37.8583626,44.6341813 Z M41.8574854,40.5102632 C40.5357895,40.5102632 39.4693567,39.460848 39.4693567,38.1675146 C39.4693567,36.8741813 40.541462,35.8247661 41.8574854,35.8247661 C43.1791813,35.8247661 44.245614,36.8741813 44.245614,38.1675146 C44.245614,39.460848 43.1791813,40.5102632 41.8574854,40.5102632 Z" id="Shape" fill="#402776" opacity="0.41"></path>
                <path d="M52.6919883,56.9095029 C51.9148538,54.0675731 51.2738596,51.2029532 50.6839181,48.3326608 C50.0826316,45.4623684 49.5664327,42.5750585 49.0615789,39.6877485 C48.6361404,36.9309064 47.2633918,34.3782749 45.204269,32.4666374 C43.1451462,30.555 40.4166667,29.3467544 37.4896491,29.0574561 C40.4280117,28.7511404 43.5478947,29.6984503 45.9246784,31.6271053 C47.132924,32.5744152 48.1369591,33.7769883 48.9197661,35.1100292 C49.6912281,36.4430702 50.2017544,37.9462865 50.4626901,39.4551754 C50.9391813,42.3481579 51.398655,45.2411404 51.7730409,48.1511404 C52.1530994,51.0554678 52.4934503,53.9711404 52.6919883,56.9095029 Z" id="Path" fill="#00F5C4"></path>
                <path d="M61.6091813,37.2031871 C49.1636842,37.2031871 39.0722807,47.2945906 39.0722807,59.7400877 C39.0722807,72.1855848 49.1636842,82.2769883 61.6091813,82.2769883 C74.0546784,82.2769883 84.1460819,72.1855848 84.1460819,59.7400877 C84.1460819,47.2945906 74.0546784,37.2031871 61.6091813,37.2031871 Z M58.024152,74.7495614 C57.8709942,75.2317251 57.4228655,75.5437135 56.9407018,75.5437135 C56.8272515,75.5437135 56.7081287,75.5266959 56.5946784,75.4926608 C49.7082456,73.3030702 45.0794737,66.9782164 45.0794737,59.7457602 C45.0794737,59.1217836 45.59,58.6112573 46.2139766,58.6112573 C46.8379532,58.6112573 47.3484795,59.1217836 47.3484795,59.7457602 C47.3484795,65.9855263 51.3419298,71.4424854 57.2810526,73.3314327 C57.8823392,73.5129532 58.2170175,74.1539474 58.024152,74.7495614 Z M67.6447368,69.7350585 C67.6447368,70.4044152 67.1001754,70.9489766 66.4308187,70.9489766 L58.0071345,70.9489766 C57.3377778,70.9489766 56.7932164,70.4044152 56.7932164,69.7350585 L56.7932164,66.7853509 C56.7932164,66.1159942 57.3377778,65.5714327 58.0071345,65.5714327 C58.6708187,65.5714327 59.2097076,65.0382164 59.2210526,64.3745322 L59.2947953,59.9386257 C59.3004678,59.5642398 59.1302924,59.2068713 58.8409942,58.9686257 L56.0387719,56.7223099 C55.477193,56.2685088 55.4261404,55.4289766 55.9366667,54.9184503 L62.255848,48.5595614 C62.6245614,48.1851754 63.1918129,48.0944152 63.6626316,48.3269883 L64.417076,48.7013743 C64.8311696,48.9055848 65.0864327,49.3310234 65.0864327,49.7904971 L65.0864327,64.306462 C65.0864327,64.9758187 65.6309942,65.5203801 66.3003509,65.5203801 L66.4308187,65.5203801 C67.1001754,65.5203801 67.6447368,66.0649415 67.6447368,66.7342982 L67.6447368,69.7350585 L67.6447368,69.7350585 Z M76.4995322,66.8988012 C76.3066667,67.3072222 75.8982456,67.5397953 75.4784795,67.5397953 C75.3139766,67.5397953 75.1438012,67.5057602 74.9849708,67.426345 C74.4177193,67.1540643 74.1851462,66.4790351 74.4574269,65.9117836 C75.3877193,63.9774561 75.858538,61.9013158 75.858538,59.7344152 C75.858538,54.4249415 72.937193,49.5919591 68.2403509,47.1187427 C67.6844444,46.8237719 67.4745614,46.1430702 67.7638596,45.5871637 C68.0588304,45.0312573 68.7395322,44.8213743 69.2954386,45.1106725 C74.7410526,47.9809649 78.1275439,53.5854094 78.1275439,59.7344152 C78.1275439,62.2473392 77.5829825,64.6581579 76.4995322,66.8988012 Z" id="Shape" fill="#00F6C4"></path>
                <path d="M84.1460819,59.7400877 C84.1460819,51.2880409 79.4889474,43.925117 72.6025146,40.067807 L70.0215205,45.5304386 C75.0416959,48.5028363 78.1332164,53.8690351 78.1332164,59.7457602 C78.1332164,62.2530117 77.5829825,64.6638304 76.5052047,66.9044737 C76.3123392,67.3128947 75.9039181,67.5454678 75.484152,67.5454678 C75.3196491,67.5454678 75.1494737,67.5114327 74.9906433,67.4320175 C74.4233918,67.1597368 74.1908187,66.4847076 74.4630994,65.9174561 C75.3933918,63.9831287 75.8642105,61.9069883 75.8642105,59.7400877 C75.8642105,54.7426023 73.2775439,50.1705556 69.0515205,47.5838889 L65.0864327,55.973538 L65.0864327,64.306462 C65.0864327,64.9758187 65.6309942,65.5203801 66.3003509,65.5203801 L66.4308187,65.5203801 C67.1001754,65.5203801 67.6447368,66.0649415 67.6447368,66.7342982 L67.6447368,69.729386 C67.6447368,70.3987427 67.1001754,70.9433041 66.4308187,70.9433041 L58.0071345,70.9433041 C58.0071345,70.9433041 58.0071345,70.9433041 58.0071345,70.9433041 L56.9407018,73.1952924 C57.0598246,73.235 57.1732749,73.2860526 57.2923977,73.3200877 C57.8880117,73.5072807 58.2170175,74.1482749 58.0298246,74.7438889 C57.8766667,75.2260526 57.428538,75.5380409 56.9463743,75.5380409 C56.832924,75.5380409 56.7138012,75.5210234 56.6003509,75.4869883 C56.3847953,75.4189181 56.1749123,75.3338304 55.9650292,75.2544152 L53.3840351,80.7170468 C55.9309942,81.7154094 58.7048538,82.2713182 61.6091813,82.2713182 C74.0546784,82.2769883 84.1460819,72.1855848 84.1460819,59.7400877 Z" id="Path" fill="#027F95" opacity="0.82"></path>
                <polygon id="Path" fill="#23214B" points="56.6060234 24.4797368 53.3840351 14.9328947 69.6925146 14.9328947 66.6180117 24.4797368"></polygon>
                <path d="M20.1147368,47.033655 C17.9818713,50.1081579 15.6334503,53.0068129 13.1885965,55.8317251 C12.5646199,56.5294444 11.9463158,57.2271637 11.2996491,57.9078655 C11.1408187,58.0780409 10.9706433,58.2482164 10.7947953,58.4127193 C10.6359649,58.5772222 10.4317544,58.7530702 10.2218713,58.9175731 C9.85315789,59.1728363 9.46175439,59.4621345 9.0419883,59.7003801 C8.19678363,60.1995614 7.24380117,60.4718421 6.30216374,60.5966374 C5.3548538,60.7044152 4.41321637,60.7044152 3.48292398,60.6023099 C5.33783626,60.4548246 7.2154386,60.1314912 8.69596491,59.1331287 C9.06467836,58.883538 9.41070175,58.5942398 9.79643275,58.3049415 C10.0800585,58.0553509 10.4090643,57.6923099 10.7097076,57.3519591 C11.3280117,56.6712573 11.9406433,55.9678655 12.5476023,55.2644737 C15.0038012,52.479269 17.4656725,49.6770468 20.1147368,47.033655 Z" id="Path" fill="#71549E"></path>
                <path d="M66.9243275,81.9933626 C69.3635088,81.2389181 71.6722222,80.1271053 73.7710526,78.7203216 C75.8755556,77.324883 77.7531579,75.6061111 79.2733918,73.6264035 C82.3365497,69.6556433 83.7149708,64.5957602 83.5618129,59.6039474 C83.5107602,57.1137135 83.1420468,54.6121345 82.262807,52.2864035 C81.4346199,49.943655 80.124269,47.7767544 78.4962573,45.8821345 C76.8682456,43.9818421 74.899883,42.370848 72.761345,41.026462 C70.6284795,39.670731 68.3027485,38.5929532 65.8635673,37.8328363 C68.3708187,38.3490351 70.7702924,39.3303801 73.0392982,40.5499708 C75.285614,41.8035965 77.401462,43.363538 79.154269,45.292193 C80.9297661,47.1981579 82.3308772,49.4671637 83.2668421,51.9120175 C83.5277778,52.5133041 83.6809357,53.1542982 83.8851462,53.7726023 C84.0212865,54.4135965 84.2198246,55.0375731 84.3105848,55.6899123 L84.4750877,56.6542398 C84.5204678,56.9775731 84.5431579,57.3009064 84.5828655,57.6299123 C84.6622807,58.2765789 84.6792982,58.9289181 84.7019883,59.5812573 C84.7530409,62.1849415 84.4353801,64.8056433 83.6582456,67.3072222 C83.2668421,68.5551754 82.7733333,69.7747661 82.1436842,70.920614 C81.5310526,72.0721345 80.8106433,73.1726023 79.9711111,74.1709649 C76.6470175,78.2211404 71.8991228,80.8928947 66.9243275,81.9933626 Z" id="Path" fill="#14A3B2"></path>
            </g>
        </g>
    </g>
</svg>