<?xml version="1.0" encoding="UTF-8"?>
<svg width="64px" height="64px" viewBox="0 0 64 64" version="1.1" xmlns="http://www.w3.org/2000/svg" xmlns:xlink="http://www.w3.org/1999/xlink">
    <title>3. Icons / Social / Discord</title>
    <g id="Symbols" stroke="none" stroke-width="1" fill="none" fill-rule="evenodd">
        <g id="3.-Icons-/-Social-/-Discord">
            <g id="Icons-/-discord" transform="translate(0.000000, 0.000000)">
                <rect id="Rectangle" x="0" y="-2.27373675e-13" width="64" height="64"></rect>
                <path d="M26.5801073,17.0002634 L26.8996392,17.3839673 C21.1480644,19.0455333 18.4959493,21.5698356 18.4959493,21.5698356 C18.4959493,21.5698356 19.1989196,21.1863973 20.3811877,20.643193 C23.8001794,19.1413929 26.5162008,18.7260014 27.6345626,18.6301418 C27.8262819,18.5981886 27.9860478,18.5662354 28.1777669,18.5662354 C30.1269118,18.3106099 32.3316821,18.2467035 34.6323121,18.502329 C37.6678655,18.8538142 40.9270911,19.7485036 44.2502234,21.5698356 C44.2502234,21.5698356 41.725921,19.1733461 36.2938781,17.51178 L36.7412229,17.0002634 L36.8505176,17.000696 C37.5538048,17.0129667 41.544853,17.2242013 45.7200703,20.3556143 C45.7200703,20.3556143 50.32133,28.6953977 50.32133,38.9843261 C50.32133,38.9843261 47.6053087,43.6175392 40.5436529,43.8412116 C40.5436529,43.8412116 39.3933379,42.4672242 38.4347421,41.2530029 C42.6206104,40.0707348 44.2182701,37.4505728 44.2182701,37.4505728 C42.9081892,38.313309 41.6620147,38.9204198 40.5436529,39.3358112 C38.9459932,40.0068283 37.4122399,40.454173 35.9104397,40.7097986 C32.8429333,41.2849561 30.0310522,41.1251901 27.6345626,40.6778453 C25.8132307,40.3263602 24.2475242,39.8151092 22.9374432,39.303858 C22.2025198,39.0162793 21.4036899,38.6647942 20.6048601,38.2174494 C20.5090005,38.1535431 20.4131409,38.1215899 20.3172813,38.0576836 C20.253375,38.0257303 20.2214218,37.9937771 20.1894686,37.9618238 C19.6143111,37.6422919 19.2947792,37.4186196 19.2947792,37.4186196 C19.2947792,37.4186196 20.8285324,39.974875 24.886588,41.1890966 C23.9279922,42.4033179 22.745724,43.8412116 22.745724,43.8412116 C15.6840683,43.6175392 13,38.9843261 13,38.9843261 C13,28.6953977 17.6012599,20.3556143 17.6012599,20.3556143 C22.2025198,16.9046694 26.5801073,17.0002634 26.5801073,17.0002634 Z M25.6854179,28.9190701 C23.8640858,28.9190701 22.4261921,30.5167298 22.4261921,32.4658747 C22.4261921,34.4150194 23.896039,36.0126791 25.6854179,36.0126791 C27.5067498,36.0126791 28.9446437,34.4150194 28.9446437,32.4658747 C28.9765967,30.5167298 27.5067498,28.9190701 25.6854179,28.9190701 Z M37.3483334,28.9190701 C35.5270015,28.9190701 34.0891079,30.5167298 34.0891079,32.4658747 C34.0891079,34.4150194 35.5589546,36.0126791 37.3483334,36.0126791 C39.1696655,36.0126791 40.6075592,34.4150194 40.6075592,32.4658747 C40.6075592,30.5167298 39.1696655,28.9190701 37.3483334,28.9190701 Z" id="Path-5" fill="#FFFFFF" fill-rule="nonzero"></path>
            </g>
        </g>
    </g>
</svg>
