<?xml version="1.0" encoding="UTF-8"?>
<svg width="64px" height="64px" viewBox="0 0 64 64" version="1.1" xmlns="http://www.w3.org/2000/svg" xmlns:xlink="http://www.w3.org/1999/xlink">
    <title>3. Icons / Social / Instagram</title>
    <g id="Symbols" stroke="none" stroke-width="1" fill="none" fill-rule="evenodd">
        <g id="3.-Icons-/-Social-/-Instagram">
            <g id="Icons-/-Instagram" transform="translate(0.000000, 0.000000)">
                <rect id="Rectangle" x="0" y="-2.27373675e-13" width="64" height="64"></rect>
                <path d="M32.0016875,14 C27.1131366,14 26.4996302,14.0213752 24.5796102,14.1087511 C22.6633402,14.196502 21.3553266,14.4998802 20.2108147,14.9450098 C19.0269274,15.4047646 18.0226669,16.019771 17.0221565,17.0206565 C16.0208961,18.0211669 15.4058896,19.0254273 14.9446348,20.2089397 C14.4983802,21.3538266 14.194627,22.6622152 14.1083761,24.5777352 C14.0225002,26.4977552 14,27.1116366 14,32.0001875 C14,36.8887384 14.0217502,37.5003698 14.1087511,39.4203898 C14.1968771,41.3366598 14.5002552,42.6446734 14.9450098,43.7891853 C15.4051396,44.9730726 16.020146,45.9773331 17.0210315,46.9778435 C18.0211669,47.9791039 19.0254273,48.5956104 20.2085647,49.0553652 C21.3538266,49.5004948 22.6622152,49.803873 24.5781102,49.8916239 C26.4981302,49.9789998 27.1112616,50.000375 31.9994375,50.000375 C36.8883634,50.000375 37.4999948,49.9789998 39.4200148,49.8916239 C41.3362848,49.803873 42.6457984,49.5004948 43.7910603,49.0553652 C44.9745727,48.5956104 45.9773331,47.9791039 46.9774685,46.9778435 C47.9787289,45.9773331 48.5937354,44.9730726 49.0549902,43.7895603 C49.4974948,42.6446734 49.8012479,41.3362848 49.8912489,39.4207648 C49.9774998,37.5007448 50,36.8887384 50,32.0001875 C50,27.1116366 49.9774998,26.4981302 49.8912489,24.5781102 C49.8012479,22.6618402 49.4974948,21.3538266 49.0549902,20.2093147 C48.5937354,19.0254273 47.9787289,18.0211669 46.9774685,17.0206565 C45.9762081,16.019396 44.9749477,15.4043896 43.7899353,14.9450098 C42.6424234,14.4998802 41.3336597,14.196502 39.4173898,14.1087511 C37.4973698,14.0213752 36.8861134,14 31.9960625,14 L32.0016875,14 Z M30.3869207,17.2437838 C30.8661757,17.2430338 31.4009313,17.2437838 32.0016875,17.2437838 C36.8077376,17.2437838 37.3773685,17.261034 39.2752633,17.3472849 C41.0302816,17.4275357 41.9827915,17.7207888 42.6172981,17.9671663 C43.4573068,18.2934197 44.0561881,18.6834238 44.6858196,19.3134303 C45.3158262,19.9434369 45.7058303,20.5434432 46.0328337,21.3834519 C46.2792112,22.0172085 46.5728393,22.9697184 46.6527151,24.7247367 C46.738966,26.6222565 46.7577162,27.1922624 46.7577162,31.9960625 C46.7577162,36.7998625 46.738966,37.3698684 46.6527151,39.2673882 C46.5724643,41.0224065 46.2792112,41.9749164 46.0328337,42.608673 C45.7065803,43.4486818 45.3158262,44.046813 44.6858196,44.6764445 C44.0558131,45.3064511 43.4576819,45.6964552 42.6172981,46.0227086 C41.9835415,46.2702111 41.0302816,46.5627142 39.2752633,46.642965 C37.3777435,46.7292159 36.8077376,46.7479661 32.0016875,46.7479661 C27.1952625,46.7479661 26.6256315,46.7292159 24.7281118,46.642965 C22.9730935,46.5619642 22.0205835,46.2687111 21.3857019,46.0223336 C20.5456932,45.6960802 19.9456869,45.3060761 19.3156804,44.6760695 C18.6856738,44.046063 18.2956697,43.4475567 17.9686663,42.607173 C17.7222888,41.9734164 17.4286607,41.0209065 17.3487849,39.2658882 C17.262534,37.3683684 17.2452838,36.7983625 17.2452838,31.9915624 C17.2452838,27.1847623 17.262534,26.6177564 17.3487849,24.7202367 C17.4290357,22.9652184 17.7222888,22.0127085 17.9686663,21.3782019 C18.2949197,20.5381931 18.6856738,19.9381869 19.3156804,19.3081803 C19.9456869,18.6781737 20.5456932,18.2881697 21.3857019,17.9611663 C22.0202085,17.7136637 22.9730935,17.4211606 24.7281118,17.3405348 C26.388629,17.265534 27.0321358,17.2430338 30.3869207,17.2392837 L30.3869207,17.2437838 Z M41.6100376,20.2325649 C40.4175252,20.2325649 39.4500151,21.19895 39.4500151,22.3918374 C39.4500151,23.5843498 40.4175252,24.5518599 41.6100376,24.5518599 C42.80255,24.5518599 43.7700601,23.5843498 43.7700601,22.3918374 C43.7700601,21.199325 42.80255,20.2318149 41.6100376,20.2318149 L41.6100376,20.2325649 Z M32.0016875,22.7563412 C26.8967593,22.7563412 22.7578412,26.8952593 22.7578412,32.0001875 C22.7578412,37.1051157 26.8967593,41.2421588 32.0016875,41.2421588 C37.1066157,41.2421588 41.2440338,37.1051157 41.2440338,32.0001875 C41.2440338,26.8952593 37.1062407,22.7563412 32.0013125,22.7563412 L32.0016875,22.7563412 Z M32.0016875,26.000125 C35.315222,26.000125 38.00175,28.686278 38.00175,32.0001875 C38.00175,35.313722 35.315222,38.00025 32.0016875,38.00025 C28.687778,38.00025 26.001625,35.313722 26.001625,32.0001875 C26.001625,28.686278 28.687778,26.000125 32.0016875,26.000125 L32.0016875,26.000125 Z" id="Shape" fill="#FFFFFF" fill-rule="nonzero"></path>
            </g>
        </g>
    </g>
</svg>
