<?xml version="1.0" encoding="UTF-8"?>
<svg width="64px" height="64px" viewBox="0 0 64 64" version="1.1" xmlns="http://www.w3.org/2000/svg" xmlns:xlink="http://www.w3.org/1999/xlink">
    <title>3. Icons / Social / Mixer</title>
    <g id="Symbols" stroke="none" stroke-width="1" fill="none" fill-rule="evenodd">
        <g id="3.-Icons-/-Social-/-Mixer">
            <g id="Icons-/-mixer" transform="translate(0.000000, 0.000000)">
                <rect id="Rectangle" x="0" y="-2.27373675e-13" width="64" height="64"></rect>
                <g id="mixer" transform="translate(14.000000, 16.000000)" fill="#FFFFFF" fill-rule="nonzero">
                    <path d="M29.2096784,1.46998052 C30.4806485,-0.246943915 32.9779931,-0.514516555 34.6057267,0.957132963 C36.010483,2.25040072 36.1219716,4.43557728 34.9847879,5.97411996 L27.648838,15.8074145 L35.0293833,25.7298999 C36.1665671,27.2684425 36.0773762,29.4536191 34.6503221,30.7468868 C33.0225885,32.2185364 30.5252439,31.9509637 29.2542739,30.2340393 L18.975025,16.3648575 C18.72975,16.0303917 18.72975,15.5621395 18.975025,15.2276737 L29.2096784,1.46998052 Z M6.59979038,1.46998052 C5.32882034,-0.246943915 2.8314757,-0.514516555 1.20374215,0.957132963 C-0.201014213,2.25040072 -0.312502813,4.43557728 0.824680906,5.97411996 L8.16063078,15.8074145 L0.780085466,25.7298999 C-0.357098253,27.2684425 -0.267907373,29.4536191 1.15914671,30.7468868 C2.78688026,32.2185364 5.2842249,31.9509637 6.55519494,30.2340393 L16.8567416,16.3871552 C17.1020165,16.0526894 17.1020165,15.5844373 16.8567416,15.2499715 L6.59979038,1.46998052 Z" id="Path-2"></path>
                </g>
            </g>
        </g>
    </g>
</svg>
