<?xml version="1.0" encoding="UTF-8"?>
<svg width="64px" height="64px" viewBox="0 0 64 64" version="1.1" xmlns="http://www.w3.org/2000/svg" xmlns:xlink="http://www.w3.org/1999/xlink">
    <title>3. Icons / Social / Paypal</title>
    <g id="Symbols" stroke="none" stroke-width="1" fill="none" fill-rule="evenodd">
        <g id="3.-Icons-/-Social-/-Paypal">
            <g id="Icons-/-Twitter" transform="translate(0.000000, 0.000000)">
                <rect id="Rectangle" x="0" y="-1.13686838e-13" width="64" height="64"></rect>
                <g id="paypal" transform="translate(18.000000, 16.000000)" fill-rule="nonzero">
                    <path d="M24.421563,2.3747861 C22.8543224,0.712610063 20.0213057,0 16.3971788,0 L5.87869138,0 C5.13720121,0 4.50712181,0.501788992 4.39102991,1.18216609 L0.0113695244,27.028655 C-0.0756993973,27.5382845 0.348410512,28 0.903591916,28 L7.39724827,28 L9.02815216,18.3745372 L8.97759602,18.6759591 C9.09368791,17.9955819 9.71908619,17.493793 10.4596401,17.493793 L13.5454377,17.493793 C19.6074943,17.493793 24.3541548,15.2026384 25.7407041,8.5748421 C25.7818979,8.37883079 25.8174745,8.18804643 25.8483699,8.00161788 C25.6732959,7.91537289 25.6732959,7.91537289 25.8483699,8.00161788 C26.2612451,5.5519119 25.8455612,3.88450888 24.421563,2.3747861" id="Path" fill="#27346A"></path>
                    <path d="M11.5128936,7.11935283 C11.6860952,7.04268824 11.8789575,7 12.0811821,7 L20.3274514,7 C21.303934,7 22.2148809,7.05924083 23.0471848,7.18382079 C23.2859222,7.21953952 23.5171698,7.26048538 23.7418637,7.30752957 C23.9665578,7.35370256 24.1846982,7.40597387 24.396285,7.46347231 C24.5020784,7.49222154 24.6059994,7.52184194 24.7080479,7.55320473 C25.1171782,7.68039826 25.4982218,7.82850031 25.8483699,8.00186684 C26.2612451,5.55121344 25.8455612,3.88462975 24.421563,2.37485999 C22.8533862,0.712632235 20.0213058,0 16.3971791,0 L5.87775565,0 C5.13720173,0 4.50712234,0.501804605 4.39103044,1.18220287 L0.0113701633,27.0286248 C-0.0756987564,27.5391413 0.348411143,28 0.902656308,28 L7.39724873,28 L10.7807657,8.03410082 C10.8500463,7.62464219 11.1327862,7.28923461 11.5128936,7.11935283 Z" id="Path" fill="#27346A"></path>
                    <path d="M25.0231708,8.58560462 C23.6202949,15.355657 18.8177423,17.6971855 12.6843048,17.6971855 L9.56122473,17.6971855 C8.81195075,17.6971855 8.17918838,18.2098119 8.06267676,18.9048837 L6.0099881,31.1313828 C5.93326093,31.5870509 6.30837155,32 6.79904655,32 L12.3376117,32 C12.993108,32 13.5510376,31.5514518 13.6533406,30.9435978 L13.7073337,30.6783847 L14.7512021,24.4627878 L14.8184568,24.1192569 C14.9207598,23.5114029 15.4786894,23.0628546 16.1341857,23.0628546 L16.9630286,23.0628546 C22.3282472,23.0628546 26.5292966,21.0150183 27.7569314,15.0922239 C28.2693931,12.6171988 28.0041635,10.5506731 26.6486501,9.09912114 C26.237544,8.65947269 25.7269768,8.29636222 25.1321043,8 C25.0998979,8.19134497 25.0648497,8.38535988 25.0231708,8.58560462 L25.0231708,8.58560462 Z" id="Path" fill="#2790C3"></path>
                    <path d="M22.6228635,8.47631128 C22.4221976,8.41722003 22.2153164,8.36350071 22.0022197,8.31604865 C21.7891232,8.26859658 21.5689235,8.22651646 21.3433962,8.18980825 C20.5531631,8.0608819 19.6901221,8 18.7631521,8 L10.9433962,8 C10.7507214,8 10.5678136,8.04387078 10.4044395,8.12355443 C10.0430633,8.29814221 9.77580466,8.64194583 9.71009989,9.06364248 L8.04794672,19.6902186 L8,20 C8.10921199,19.3007535 8.70233074,18.7850482 9.40466149,18.7850482 L12.3320755,18.7850482 C18.0812431,18.7850482 22.5829079,16.4303515 23.8978913,9.61874207 C23.9369589,9.41729464 23.9698114,9.22211446 24,9.02962024 C23.6670366,8.85234649 23.3065482,8.69924644 22.9185349,8.56942476 C22.8217536,8.53719317 22.7231964,8.50585691 22.6228635,8.47631128" id="Path" fill="#1F264F"></path>
                </g>
            </g>
        </g>
    </g>
</svg>
