<?xml version="1.0" encoding="UTF-8"?>
<svg width="64px" height="64px" viewBox="0 0 64 64" version="1.1" xmlns="http://www.w3.org/2000/svg" xmlns:xlink="http://www.w3.org/1999/xlink">
    <title>3. Icons / Social / Tiktok</title>
    <g id="Symbols" stroke="none" stroke-width="1" fill="none" fill-rule="evenodd">
        <g id="3.-Icons-/-Social-/-Tiktok">
            <g id="Icons-/-tiktok" transform="translate(0.000000, 0.000000)">
                <rect id="Rectangle" x="0" y="-2.27373675e-13" width="64" height="64"></rect>
                <g id="Group" transform="translate(18.863098, 16.174741)">
                    <path d="M1.07607925,26.895746 L1.1766474,27.1847789 C1.16407639,27.1534017 1.12636333,27.0528335 1.07607925,26.895746 Z M5.15536495,20.3022967 C5.33765479,18.737054 5.95363473,17.863519 7.11016851,16.9646408 C8.76954305,15.7515877 10.8374254,16.436658 10.8374254,16.436658 L10.8374254,12.357312 C11.3402662,12.3447409 11.843107,12.3761785 12.3397125,12.4516047 L12.3397125,17.6999952 C12.3397125,17.6999952 10.2718301,17.0149249 8.61239525,18.227978 C7.45588159,19.1268561 6.83990165,20.0005922 6.65761181,21.5656339 C6.65131625,22.414228 6.80216848,23.5267129 7.50614556,24.4821103 C7.33015129,24.3877774 7.15415702,24.280974 6.97188729,24.1614991 C5.43192738,23.0803914 5.1490895,21.4523941 5.15536495,20.3022967 Z M20.8942409,4.81470039 C19.7566139,3.51358983 19.322964,2.19363281 19.1658766,1.26967295 L20.5989728,1.26967295 C20.5989728,1.26967295 20.315974,3.69587967 22.396528,6.07807777 L22.4279052,6.10951537 C21.8623099,5.74495581 21.3467976,5.30497014 20.8942409,4.81470039 Z M27.8020662,8.51058006 L27.8020662,13.6521269 C27.8020662,13.6521269 25.9729327,13.5767008 24.6152626,13.2184368 C22.7233745,12.7155961 21.5103214,11.9424683 21.5103214,11.9424683 C21.5103214,11.9424683 20.6679625,11.3893435 20.605208,11.3516304 L20.605208,21.9741417 C20.605208,22.5650802 20.4481205,24.0420241 19.976657,25.273984 C19.3605765,26.8830745 18.405179,27.9454764 18.2291848,28.1590832 C18.2291848,28.1590832 17.0664158,29.5921794 15.0236754,30.5538121 C13.1820714,31.421313 11.5603093,31.4024062 11.0763754,31.421313 C11.0763754,31.421313 8.2792733,31.5343516 5.75877388,29.8311293 C5.2119446,29.4539987 4.70280826,29.0265841 4.23768054,28.5551206 L4.25025156,28.567591 C6.77075099,30.2772497 9.56785306,30.1579758 9.56785306,30.1579758 C10.051787,30.139069 11.6735491,30.1579758 13.5151531,29.2904749 C15.5578935,28.3288422 16.7206625,26.895746 16.7206625,26.895746 C16.8966567,26.6819381 17.8520542,25.6197373 18.4681347,24.0106468 C18.9395982,22.7786869 19.0966857,21.3015419 19.0966857,20.7108046 L19.0966857,10.0945285 C19.1658766,10.1322415 20.0017991,10.6853664 20.0017991,10.6853664 C20.0017991,10.6853664 21.2148521,11.4584941 23.1067403,11.9613349 C24.4644103,12.3195989 26.2935439,12.395025 26.2935439,12.395025 L26.2935439,8.36602339 C26.9220949,8.51058006 27.4563129,8.54829311 27.8020662,8.51058006 L27.8020662,8.51058006 Z" id="Shape" fill="#EE1D52"></path>
                    <path d="M26.2935439,8.35972782 L26.2935439,12.3887496 C26.2935439,12.3887496 24.4644103,12.3133234 23.1067403,11.9550393 C21.2148521,11.4521986 20.0017991,10.6790909 20.0017991,10.6790909 C20.0017991,10.6790909 19.1594402,10.1259661 19.0966857,10.088253 L19.0966857,20.7108046 C19.0966857,21.3015419 18.9395982,22.7786869 18.4681347,24.0106468 C17.8520542,25.6197373 16.8966567,26.6819381 16.7206625,26.895746 C16.7206625,26.895746 15.5578935,28.3288422 13.5151531,29.2904749 C11.6735491,30.1579758 10.051787,30.139069 9.56785306,30.1579758 C9.56785306,30.1579758 6.77075099,30.2710144 4.25027168,28.567591 L4.23770066,28.5551206 C3.97370925,28.2847934 3.72228887,28.0019957 3.48971495,27.7065265 C2.68516972,26.6819381 2.19489997,25.4751203 2.06918977,25.1295681 L2.06918977,25.1231318 C1.86805347,24.5261592 1.45320983,23.0803914 1.50978947,21.6913441 C1.61035763,19.2336595 2.4400449,17.718902 2.66002768,17.3417714 C3.23829457,16.3109478 3.99885129,15.3869276 4.89139366,14.6137999 C5.68336787,13.9475358 6.5821857,13.4132776 7.54387873,13.0424225 C8.58727333,12.6024368 9.7060337,12.369883 10.8374254,12.3510164 L10.8374254,16.4304228 C10.8374254,16.4304228 8.76954305,15.7451514 7.11016851,16.9584056 C5.95363473,17.8570826 5.33765479,18.7308187 5.15536495,20.2958603 C5.1490895,21.4461589 5.43192738,23.0741562 6.97816275,24.1614991 C7.16045258,24.280974 7.33644685,24.3877774 7.51244112,24.4821103 C7.7827281,24.8465693 8.10955448,25.1671806 8.48668506,25.4312726 C10.0015029,26.4305178 11.2648401,26.4997087 12.8866022,25.8522509 C13.9677098,25.418601 14.7784903,24.4442967 15.1556208,23.3569538 C15.3945708,22.6781188 15.3881344,21.9992837 15.3881344,21.2953067 L15.3881344,1.26967295 L19.1594402,1.26967295 C19.3167288,2.19363281 19.7441435,3.51358983 20.8880056,4.81470039 C21.3467976,5.30497014 21.8623099,5.74495581 22.42167,6.10951537 C22.5851938,6.29178509 23.4335868,7.17175644 24.527366,7.71860584 C25.0867261,8.00144372 25.6838998,8.21515105 26.2935439,8.35972782 L26.2935439,8.35972782 Z" id="Path" fill="#FFFFFF"></path>
                    <g fill="#69C9D0">
                        <path d="M0.566963027,23.8849366 L0.666963027,24.1552638 C0.653628271,24.1238866 0.613624004,24.0295536 0.566963027,23.8849366 Z" id="Path"></path>
                        <path d="M7.54385862,13.048718 C6.57591024,13.419553 5.68334776,13.9538314 4.89139366,14.6200954 C3.99255572,15.3932232 3.23829457,16.3234183 2.66002768,17.3542418 C2.4400449,17.7313724 1.61035763,19.2398947 1.50976936,21.7038145 C1.45320983,23.0992982 1.87434903,24.5386296 2.06918977,25.1358033 L2.06918977,25.1420386 C2.19489997,25.4815567 2.68516972,26.6946097 3.48971495,27.7191981 C3.72226875,28.0144662 3.97368914,28.297465 4.23770066,28.567591 C3.38287135,27.9768537 2.62861019,27.2666414 1.98119264,26.4556598 C1.18294297,25.443743 0.692653106,24.2431604 0.566942913,23.8911719 L0.566942913,23.8787014 C0.365826718,23.2815277 -0.0553124848,21.8359611 0.00754261157,20.4404774 C0.108110766,17.9827928 0.937798039,16.4680353 1.15780093,16.0909047 C1.73604771,15.0600811 2.49030886,14.1298257 3.3891468,13.356718 C4.18112101,12.690454 5.07995895,12.1561756 6.04163187,11.7853406 C6.64504079,11.5339202 7.27359176,11.3516304 7.91471374,11.2322158 C8.88278279,11.062497 9.86955752,11.049926 10.8438618,11.1882072 L10.8438618,12.357312 C9.7060337,12.3761785 8.58727333,12.6087323 7.54387873,13.048718 L7.54385862,13.048718 Z" id="Path"></path>
                        <path d="M19.1658766,1.26967295 L15.3945708,1.26967295 L15.3945708,21.2953067 C15.3945708,21.9992837 15.3945708,22.6781188 15.1618561,23.3569538 C14.7784903,24.4380615 13.9677098,25.418601 12.8928374,25.8522509 C11.2712765,26.5059439 10.0015029,26.4305178 8.49298063,25.4312726 C8.11585005,25.1734158 7.78900355,24.8530057 7.51873669,24.4883456 C8.80725611,25.1734158 9.95745409,25.1609454 11.3843151,24.5889137 C12.4654227,24.1552638 13.2762032,23.1747243 13.6533338,22.0936167 C13.8922837,21.4147816 13.8860485,20.7359466 13.8860485,20.0319695 L13.8860485,0.00629556646 L19.0966857,0.00629556646 C19.0904505,0.00629556646 19.03373,0.502840771 19.1658766,1.26967295 Z M26.2935439,7.24720267 L26.2935439,8.35972782 C25.6838998,8.21515105 25.0867261,8.00146383 24.527366,7.71860584 C23.4400231,7.17805201 22.591429,6.29180521 22.42167,6.10951537 C22.6165711,6.23522556 22.8114722,6.34836474 23.0188437,6.45522846 C24.3513717,7.11519691 25.6525225,7.31633322 26.2935439,7.24720267 Z" id="Shape"></path>
                    </g>
                </g>
            </g>
        </g>
    </g>
</svg>
