<?xml version="1.0" encoding="UTF-8"?>
<svg width="64px" height="64px" viewBox="0 0 64 64" version="1.1" xmlns="http://www.w3.org/2000/svg" xmlns:xlink="http://www.w3.org/1999/xlink">
    <title>3. Icons / Social / Twitter</title>
    <g id="Symbols" stroke="none" stroke-width="1" fill="none" fill-rule="evenodd">
        <g id="3.-Icons-/-Social-/-Twitter">
            <g id="Icons-/-Twitter" transform="translate(0.000000, 0.000000)">
                <rect id="Rectangle" x="0" y="-2.27373675e-13" width="64" height="64"></rect>
                <path d="M32.733007,26.0285185 L32.8121722,27.3339156 L31.492752,27.1740711 C26.6900626,26.5613337 22.4943065,24.4833546 18.9318721,20.9934154 L17.1902375,19.2617662 L16.7416346,20.5405226 C15.7916521,23.3910836 16.3985854,26.4014891 18.3777156,28.4261867 C19.4332517,29.5450985 19.1957561,29.704943 17.3749563,29.0389241 C16.7416346,28.825798 16.1874781,28.6659535 16.1347013,28.7458758 C15.9499825,28.9323611 16.5833042,31.35667 17.0846839,32.3157372 C17.7707823,33.6477751 19.1693677,34.9531722 20.6998951,35.7257541 L21.9929269,36.3384915 L20.4623995,36.3651323 C18.9846489,36.3651323 18.9318721,36.391773 19.0902025,36.9512289 C19.6179706,38.6828782 21.7026544,40.5210904 24.0248339,41.3203131 L25.6609149,41.879769 L24.2359411,42.7322732 C22.1248689,43.9577481 19.644359,44.6504077 17.1638491,44.7036893 C15.9763709,44.73033 15,44.836893 15,44.9168153 C15,45.1832229 18.2193852,46.6751053 20.0929618,47.2612019 C25.7136917,48.9928512 32.3899578,48.24691 37.4037544,45.2897859 C40.9661888,43.1851661 44.5286233,39.0025672 46.1910927,34.9531722 C47.0882984,32.7952708 47.9855041,28.8524388 47.9855041,26.960945 C47.9855041,25.7354702 48.0646693,25.5756257 49.5424199,24.110384 C50.4132372,23.2578798 51.2312777,22.3254533 51.3896081,22.0590457 C51.6534921,21.5528713 51.6271037,21.5528713 50.2812952,22.0057642 C48.0382809,22.8049869 47.7216201,22.6984239 48.829933,21.4995898 C49.6479735,20.6470856 50.6243444,19.1019217 50.6243444,18.6490288 C50.6243444,18.5691065 50.2285184,18.7023103 49.7799155,18.9420771 C49.3049243,19.2084847 48.2493881,19.6080961 47.457736,19.8478629 L46.0327622,20.3007558 L44.7397305,19.4216108 C44.0272436,18.9420771 43.0244843,18.409262 42.4967162,18.2494175 C41.1509076,17.8764469 39.0926122,17.9297284 37.8787456,18.3559805 C34.5801952,19.5548146 32.4955114,22.6451424 32.733007,26.0285185 Z" id="Shape" fill="#FFFFFF" fill-rule="nonzero"></path>
            </g>
        </g>
    </g>
</svg>
