<?xml version="1.0" encoding="UTF-8"?>
<svg width="64px" height="64px" viewBox="0 0 64 64" version="1.1" xmlns="http://www.w3.org/2000/svg" xmlns:xlink="http://www.w3.org/1999/xlink">
    <title>3. Icons / Social / Twitch</title>
    <g id="Symbols" stroke="none" stroke-width="1" fill="none" fill-rule="evenodd">
        <g id="3.-Icons-/-Social-/-Twitch">
            <g id="Icons-/-Twitch" transform="translate(0.000000, 0.000000)">
                <rect id="Rectangle" x="0" y="-2.27373675e-13" width="64" height="64"></rect>
                <path d="M17.2650195,15 L15,21.0402449 L15,45.1983304 L23.3012125,45.1983304 L23.3012125,49.7306848 L27.8333353,49.7306848 L32.3609432,45.1983304 L39.1542651,45.1983304 L48.21388,36.141957 L48.21388,15 L17.2650195,15 Z M20.2826529,18.0182123 L45.1949731,18.0182123 L45.1949731,34.6288569 L39.909426,39.9147513 L31.60694,39.9147513 L27.0806056,44.4408542 L27.0806056,39.9147513 L20.2826529,39.9147513 L20.2826529,18.0182123 Z M28.5871996,33.1208158 L31.6069168,33.1208158 L31.6069168,24.061664 L28.5871996,24.061664 L28.5871996,33.1208158 Z M36.8902644,33.1208158 L39.9094028,33.1208158 L39.9094028,24.061664 L36.8902644,24.061664 L36.8902644,33.1208158 Z" id="Fill-1" fill="#FFFFFF" fill-rule="nonzero"></path>
            </g>
        </g>
    </g>
</svg>
