<?xml version="1.0" encoding="UTF-8"?>
<svg width="64px" height="64px" viewBox="0 0 64 64" version="1.1" xmlns="http://www.w3.org/2000/svg" xmlns:xlink="http://www.w3.org/1999/xlink">
    <title>3. Icons / Social / Youtube</title>
    <g id="Symbols" stroke="none" stroke-width="1" fill="none" fill-rule="evenodd">
        <g id="3.-Icons-/-Social-/-Youtube">
            <g id="Icons-/-youtube" transform="translate(0.000000, 0.000000)">
                <rect id="Rectangle" x="0" y="-2.27373675e-13" width="64" height="64"></rect>
                <g id="Group" transform="translate(13.863098, 18.174741)" fill="#FFFFFF" fill-rule="nonzero">
                    <g id="youtube" transform="translate(0.136902, 0.825259)">
                        <path d="M0,11.29725 L0,14.13225 C0,17.046 0.36,19.95975 0.36,19.95975 C0.36,19.95975 0.711,22.43475 1.791,23.5305 C3.159,24.96375 4.959,24.91875 5.76,25.0695 C8.64,25.34625 18,25.4295 18,25.4295 C18,25.4295 25.5645,25.4205 30.6,25.056 C31.3065,24.9705 32.841,24.966 34.209,23.5305 C35.289,22.437 35.64,19.9575 35.64,19.9575 C35.64,19.9575 36,17.046 36,14.13 L36,11.2995 C36,8.3835 35.64,5.472 35.64,5.472 C35.64,5.472 35.289,2.9925 34.209,1.899 C32.841,0.4635 31.3065,0.459 30.6,0.3735 C25.5645,0.009 18,0 18,0 C18,0 8.64,0.081 5.76,0.36 C4.959,0.51075 3.159,0.46575 1.791,1.899 C0.711,2.99475 0.36,5.46975 0.36,5.46975 C0.36,5.46975 0,8.38575 0,11.29725 Z M14.283,17.43975 L14.283,7.326 L24.00975,12.39975 L14.28975,17.43975 L14.283,17.43975 Z" id="Shape"></path>
                    </g>
                </g>
            </g>
        </g>
    </g>
</svg>
